<svg width="24" height="24" viewBox="0 0 24 24" fill="none" xmlns="http://www.w3.org/2000/svg">
<path id="Mask" fill-rule="evenodd" clip-rule="evenodd" d="M0.267578 12.0001C0.267578 18.4802 5.52077 23.7334 12.0009 23.7334C18.4811 23.7334 23.7342 18.4802 23.7342 12.0001C23.7342 5.51992 18.4811 0.266724 12.0009 0.266724C5.52077 0.266724 0.267578 5.51992 0.267578 12.0001ZM21.8569 12.0001C21.8569 17.4434 17.4442 21.8561 12.0009 21.8561C6.55759 21.8561 2.14491 17.4434 2.14491 12.0001C2.14491 6.55674 6.55759 2.14406 12.0009 2.14406C17.4442 2.14406 21.8569 6.55674 21.8569 12.0001ZM10.9342 10.9334C10.9342 10.3443 11.4118 9.86672 12.0009 9.86672C12.59 9.86672 13.0676 10.3443 13.0676 10.9334V16.2667C13.0676 16.8558 12.59 17.3334 12.0009 17.3334C11.4118 17.3334 10.9342 16.8558 10.9342 16.2667V10.9334ZM13.0676 7.73339C13.0676 8.32249 12.59 8.80006 12.0009 8.80006C11.4118 8.80006 10.9342 8.32249 10.9342 7.73339C10.9342 7.14429 11.4118 6.66672 12.0009 6.66672C12.59 6.66672 13.0676 7.14429 13.0676 7.73339Z" fill="black"/>
</svg>
