<svg xmlns="http://www.w3.org/2000/svg" width="16" height="16" viewBox="0 0 44 44" fill="none">
  <path d="M44 22C44 34.1503 34.1503 44 22 44C9.84974 44 0 34.1503 0 22C0 9.84974 9.84974 0 22 0C34.1503 0 44 9.84974 44 22ZM4.4 22C4.4 31.7202 12.2798 39.6 22 39.6C31.7202 39.6 39.6 31.7202 39.6 22C39.6 12.2798 31.7202 4.4 22 4.4C12.2798 4.4 4.4 12.2798 4.4 22Z" fill="#D8D8D8"/>
  <path d="M43.995 21.5296C44.088 25.8798 42.889 30.1599 40.5495 33.8286C38.21 37.4973 34.8352 40.39 30.8517 42.1407C26.8683 43.8914 22.4551 44.4215 18.1704 43.6641C13.8856 42.9067 9.92169 40.8957 6.77985 37.8854C3.63801 34.8752 1.45937 31.0008 0.519433 26.7524C-0.420502 22.5039 -0.0795151 18.0722 1.49927 14.0175C3.07806 9.96285 5.82374 6.4674 9.3891 3.97321C12.9545 1.47901 17.1794 0.0980711 21.5296 0.00503009L21.6237 4.40402C18.1435 4.47846 14.7636 5.5832 11.9113 7.57856C9.05899 9.57392 6.86245 12.3703 5.59942 15.614C4.33639 18.8577 4.0636 22.4032 4.81555 25.8019C5.56749 29.2007 7.31041 32.3001 9.82388 34.7083C12.3374 37.1166 15.5085 38.7254 18.9363 39.3313C22.3641 39.9372 25.8946 39.5131 29.0814 38.1125C32.2681 36.712 34.968 34.3979 36.8396 31.4629C38.7112 28.5279 39.6704 25.1038 39.596 21.6237L43.995 21.5296Z" fill="#0880AE"/>
</svg>