<svg xmlns="http://www.w3.org/2000/svg" width="20" height="20" viewBox="0 0 20 20" fill="none">
  <path fill-rule="evenodd" clip-rule="evenodd" d="M7 4C7 4.55228 6.55228 5 6 5C5.44772 5 5 4.55228 5 4V1C5 0.447715 5.44772 0 6 0C6.55228 0 7 0.447715 7 1V4ZM2 4H4V2H2C0.89543 2 0 2.89543 0 4V7V9V18C0 19.1046 0.89543 20 2 20H18C19.1046 20 20 19.1046 20 18V9V7V4C20 2.89543 19.1046 2 18 2H16V4H18V7H2V4ZM2 9V18H18V9H2ZM14 5C14.5523 5 15 4.55228 15 4V1C15 0.447715 14.5523 0 14 0C13.4477 0 13 0.447715 13 1V4C13 4.55228 13.4477 5 14 5ZM8 2H12V4H8V2ZM9 12V10H7V12H9ZM13 10V12H11V10H13ZM17 12V10H15V12H17ZM5 14V16H3V14H5ZM9 16V14H7V16H9ZM13 14V16H11V14H13ZM17 16V14H15V16H17Z" fill="#0880AE"/>
</svg>