<svg width="24" height="24" viewBox="0 0 24 24" fill="none" xmlns="http://www.w3.org/2000/svg">
<path fill-rule="evenodd" clip-rule="evenodd" d="M17.3661 6.63434C17.6785 6.94676 17.6785 7.45329 17.3661 7.76571L13.1318 12L17.3661 16.2343C17.6785 16.5468 17.6785 17.0533 17.3661 17.3657C17.0537 17.6781 16.5471 17.6781 16.2347 17.3657L12.0004 13.1314L7.76608 17.3657C7.45366 17.6781 6.94712 17.6781 6.63471 17.3657C6.32229 17.0533 6.32229 16.5468 6.63471 16.2343L10.869 12L6.63471 7.76571C6.32229 7.45329 6.32229 6.94676 6.63471 6.63434C6.94712 6.32192 7.45366 6.32192 7.76608 6.63434L12.0004 10.8687L16.2347 6.63434C16.5471 6.32192 17.0537 6.32192 17.3661 6.63434Z" fill="black"/>
<mask id="mask0_16527_2448" style="mask-type:luminance" maskUnits="userSpaceOnUse" x="6" y="6" width="12" height="12">
<path fill-rule="evenodd" clip-rule="evenodd" d="M17.3661 6.63434C17.6785 6.94676 17.6785 7.45329 17.3661 7.76571L13.1318 12L17.3661 16.2343C17.6785 16.5468 17.6785 17.0533 17.3661 17.3657C17.0537 17.6781 16.5471 17.6781 16.2347 17.3657L12.0004 13.1314L7.76608 17.3657C7.45366 17.6781 6.94712 17.6781 6.63471 17.3657C6.32229 17.0533 6.32229 16.5468 6.63471 16.2343L10.869 12L6.63471 7.76571C6.32229 7.45329 6.32229 6.94676 6.63471 6.63434C6.94712 6.32192 7.45366 6.32192 7.76608 6.63434L12.0004 10.8687L16.2347 6.63434C16.5471 6.32192 17.0537 6.32192 17.3661 6.63434Z" fill="white"/>
</mask>
<g mask="url(#mask0_16527_2448)">
<rect width="24" height="24" fill="white"/>
</g>
</svg>
