<svg xmlns="http://www.w3.org/2000/svg" width="22" height="22" viewBox="0 0 22 22" fill="none">
  <path fill-rule="evenodd" clip-rule="evenodd" d="M0 11C0 17.0751 4.92487 22 11 22C17.0751 22 22 17.0751 22 11C22 4.92487 17.0751 0 11 0C4.92487 0 0 4.92487 0 11ZM20.24 11C20.24 16.1031 16.1031 20.24 11 20.24C5.89689 20.24 1.76 16.1031 1.76 11C1.76 5.89689 5.89689 1.76 11 1.76C16.1031 1.76 20.24 5.89689 20.24 11ZM10 10C10 9.44771 10.4477 9 11 9C11.5523 9 12 9.44771 12 10V15C12 15.5523 11.5523 16 11 16C10.4477 16 10 15.5523 10 15V10ZM12 7C12 7.55228 11.5523 8 11 8C10.4477 8 10 7.55228 10 7C10 6.44772 10.4477 6 11 6C11.5523 6 12 6.44772 12 7Z" fill="#2c2738"/>
</svg>