<svg width="108" height="100" viewBox="0 0 108 100" fill="none" xmlns="http://www.w3.org/2000/svg">
<path d="M53.9616 25.9563C53.6883 23.0874 51.3659 20.765 48.4971 20.765V91.2568C48.4971 94.2623 50.9561 96.7213 53.9616 96.8579V25.9563Z" fill="#D4D7C9"/>
<path d="M48.4972 20.9016H2.45898V91.3934H48.4972V20.9016Z" fill="white"/>
<path d="M59.5625 20.9016V91.9399C59.5625 91.8033 59.5625 91.6667 59.5625 91.3935H105.601V20.9016H59.5625Z" fill="#D4D7C9"/>
<path d="M54.0986 26.3661V96.8579C56.9675 96.8579 59.2899 94.6721 59.5631 91.8033V20.9016C59.5631 20.9016 54.0986 26.3661 54.0986 26.5027V26.3661Z" fill="white"/>
<path d="M41.3938 30.7377H9.15332V34.0164H41.3938V30.7377Z" fill="#D4D7C9"/>
<path d="M41.3938 37.1585H9.15332V40.4372H41.3938V37.1585Z" fill="#D4D7C9"/>
<path d="M41.3938 43.5792H9.15332V46.8579H41.3938V43.5792Z" fill="#D4D7C9"/>
<path d="M41.3938 50.1366H9.15332V53.4153H41.3938V50.1366Z" fill="#D4D7C9"/>
<path d="M41.3938 56.5574H9.15332V59.8361H41.3938V56.5574Z" fill="#D4D7C9"/>
<path d="M41.3938 62.9781H9.15332V66.2568H41.3938V62.9781Z" fill="#D4D7C9"/>
<path d="M41.3938 69.5355H9.15332V72.8142H41.3938V69.5355Z" fill="#D4D7C9"/>
<path d="M30.0549 75.9563H20.3555V79.235H30.0549V75.9563Z" fill="#D4D7C9"/>
<path d="M98.7707 30.7377H66.5303V34.0164H98.7707V30.7377Z" fill="#9FA197"/>
<path d="M98.7707 37.1585H66.5303V40.4372H98.7707V37.1585Z" fill="#9FA197"/>
<path d="M98.7707 43.5792H66.5303V46.8579H98.7707V43.5792Z" fill="#9FA197"/>
<path d="M98.7707 50.1366H66.5303V53.4153H98.7707V50.1366Z" fill="#9FA197"/>
<path d="M98.7707 56.5574H66.5303V59.8361H98.7707V56.5574Z" fill="#9FA197"/>
<path d="M98.7707 62.9781H66.5303V66.2568H98.7707V62.9781Z" fill="#9FA197"/>
<path d="M98.7707 69.5355H66.5303V72.8142H98.7707V69.5355Z" fill="#9FA197"/>
<path d="M87.2952 75.9563H77.5957V79.235H87.2952V75.9563Z" fill="#9FA197"/>
<path d="M105.601 87.2951H59.5625V91.3935H105.601V87.2951Z" fill="white"/>
<path d="M48.4972 87.2951H2.45898V91.3935H48.4972V87.2951Z" fill="#D4D7C9"/>
<path d="M53.9618 22.6776H42.623V76.776H53.9618V22.6776Z" fill="#299595"/>
<path d="M46.4482 22.6776H42.623V76.776H46.4482V22.6776Z" fill="#36C6C6"/>
<path d="M54.0986 22.6776H50.2734V76.776H54.0986V22.6776Z" fill="#1B6363"/>
<path d="M48.3608 9.56284L46.4482 13.7978H50.2734L48.3608 9.56284Z" fill="#36C6C6"/>
<path d="M50.2729 13.7978H48.3604V24.4536C49.4532 24.4536 50.2729 23.6339 50.2729 22.541C50.2729 23.6339 51.0926 24.4536 52.1855 24.4536C53.2784 24.4536 54.0981 23.6339 54.0981 22.541L50.4095 13.7978H50.2729Z" fill="#D4D7C9"/>
<path d="M46.4483 13.7978L42.7598 22.541C42.7598 23.6339 43.5794 24.4536 44.6723 24.4536C45.7652 24.4536 46.5849 23.6339 46.5849 22.541C46.5849 23.6339 47.4046 24.4536 48.4975 24.4536V13.7978H46.5849H46.4483Z" fill="white"/>
<path d="M42.623 78.6885V81.0109C42.623 83.1967 44.399 85.1093 46.7214 85.1093H48.3608V78.8252H42.7597L42.623 78.6885Z" fill="#342E2C"/>
<path d="M48.3604 78.6886V84.9727H49.9997C52.1855 84.9727 54.0981 83.1968 54.0981 80.8743V78.5519H48.497L48.3604 78.6886Z" fill="#1A1716"/>
<path d="M48.2241 76.776H42.623V78.6885H48.2241V76.776Z" fill="white"/>
<path d="M53.9614 76.776H48.3604V78.6885H53.9614V76.776Z" fill="#D4D7C9"/>
<path d="M105.601 20.9016V91.3935H2.45902V20.9016H0V93.8525H46.4481C45.082 94.1257 43.9891 95.3552 43.9891 96.8579C43.9891 98.3607 45.3552 100 47.1312 100H60.7924C62.5683 100 63.9344 98.6339 63.9344 96.8579C63.9344 95.082 62.9781 94.2623 61.7486 93.8525C61.7486 93.8525 61.7486 93.8525 61.7486 93.7159H108.06V20.9016H105.601Z" fill="#731025"/>
<path d="M53.9619 25.9563L54.0985 91.5301L79.9182 65.5738V0L53.9619 25.9563Z" fill="white"/>
<path d="M56.5576 29.235V32.2404L76.3664 12.5683V9.56284L56.5576 29.235Z" fill="#D4D7C9"/>
<path d="M56.5576 35.7924V38.7978L76.3664 18.9891V15.9836L56.5576 35.7924Z" fill="#D4D7C9"/>
<path d="M56.5576 42.4863V45.4918L76.3664 25.8197V22.8142L56.5576 42.4863Z" fill="#D4D7C9"/>
<path d="M56.5576 49.3169V52.3224L76.3664 32.6503V29.6448L56.5576 49.3169Z" fill="#D4D7C9"/>
<path d="M56.5576 56.0109V59.0164L76.3664 39.3443V36.3388L56.5576 56.0109Z" fill="#D4D7C9"/>
<path d="M56.5576 62.9781V65.9836L76.3664 46.3115V43.306L56.5576 62.9781Z" fill="#D4D7C9"/>
<path d="M56.5576 70.082V73.0874L76.3664 53.4153V50.4099L56.5576 70.082Z" fill="#D4D7C9"/>
<path d="M63.5244 69.8088V72.6776L68.9889 67.2131V64.3443L63.5244 69.8088Z" fill="#D4D7C9"/>
</svg>
