<svg xmlns="http://www.w3.org/2000/svg" xmlns:xlink="http://www.w3.org/1999/xlink" version="1.1" width="256" height="256" viewBox="0 0 256 256" xml:space="preserve">

<defs>
</defs>
<g style="stroke: none; stroke-width: 0; stroke-dasharray: none; stroke-linecap: butt; stroke-linejoin: miter; stroke-miterlimit: 10; fill: none; fill-rule: nonzero; opacity: 1;" transform="translate(1.4065934065934016 1.4065934065934016) scale(2.81 2.81)" >
	<path d="M 31.902 60.467 h -4.156 v -4.156 c 0 -0.828 -0.671 -1.5 -1.5 -1.5 s -1.5 0.672 -1.5 1.5 v 4.156 H 20.59 c -0.829 0 -1.5 0.672 -1.5 1.5 s 0.671 1.5 1.5 1.5 h 4.156 v 4.155 c 0 0.828 0.671 1.5 1.5 1.5 s 1.5 -0.672 1.5 -1.5 v -4.155 h 4.156 c 0.829 0 1.5 -0.672 1.5 -1.5 S 32.731 60.467 31.902 60.467 z" style="stroke: none; stroke-width: 5; stroke-dasharray: none; stroke-linecap: butt; stroke-linejoin: miter; stroke-miterlimit: 10; fill: rgb(255,255,255); fill-rule: nonzero; opacity: 1;" transform=" matrix(1 0 0 1 0 0) " stroke-linecap="round" />
	<path d="M 78.506 70.487 L 63.437 55.419 v -9.106 c 0 -1.36 -0.367 -2.697 -1.063 -3.865 L 51.764 24.602 c -0.419 -0.705 -0.641 -1.511 -0.641 -2.332 v -4.875 c 2.259 -0.639 3.928 -2.697 3.928 -5.158 V 5.383 C 55.051 2.415 52.637 0 49.669 0 H 21.913 c -2.968 0 -5.383 2.415 -5.383 5.383 v 6.854 c 0 2.461 1.669 4.518 3.928 5.158 v 4.875 c 0 0.273 -0.033 0.543 -0.082 0.81 c -0.005 0.024 -0.01 0.047 -0.015 0.071 c -0.1 0.509 -0.277 1.002 -0.544 1.451 L 9.207 42.447 c -0.695 1.169 -1.063 2.505 -1.063 3.865 v 37.848 c 0 3.126 2.543 5.669 5.669 5.669 h 43.955 c 2.103 0 3.938 -1.153 4.917 -2.858 C 64.867 88.982 67.641 90 70.421 90 c 2.928 0 5.856 -1.114 8.085 -3.343 c 2.16 -2.16 3.35 -5.032 3.35 -8.085 C 81.856 75.518 80.666 72.646 78.506 70.487 z M 19.531 12.237 V 5.383 C 19.531 4.069 20.6 3 21.913 3 h 27.756 c 1.314 0 2.382 1.069 2.382 2.382 v 6.854 c 0 1.314 -1.068 2.382 -2.382 2.382 H 21.913 C 20.6 14.62 19.531 13.551 19.531 12.237 z M 22.396 26.135 c 0.231 -0.388 0.411 -0.799 0.568 -1.218 h 15.319 c 0.829 0 1.5 -0.671 1.5 -1.5 c 0 -0.829 -0.671 -1.5 -1.5 -1.5 H 23.459 V 17.62 h 24.664 v 4.65 c 0 1.36 0.367 2.697 1.063 3.865 L 59.797 43.98 c 0.157 0.264 0.276 0.545 0.376 0.832 H 11.409 c 0.1 -0.287 0.22 -0.568 0.376 -0.832 L 22.396 26.135 z M 57.768 86.83 H 13.814 c -1.472 0 -2.669 -1.197 -2.669 -2.669 v -4.579 h 29.002 c 0.829 0 1.5 -0.672 1.5 -1.5 s -0.671 -1.5 -1.5 -1.5 H 11.145 V 47.813 h 49.293 v 4.916 c -4.442 -2.98 -10.527 -2.51 -14.448 1.411 c -2.16 2.159 -3.349 5.031 -3.349 8.085 c 0 3.055 1.19 5.926 3.349 8.085 l 14.392 14.393 C 60.13 85.915 59.054 86.83 57.768 86.83 z M 76.385 84.536 c -3.288 3.288 -8.639 3.286 -11.928 0 l -7.113 -7.113 l 7.293 -7.293 c 0.586 -0.586 0.586 -1.535 0 -2.121 s -1.535 -0.586 -2.121 0 l -7.293 7.293 l -7.113 -7.113 c -1.593 -1.593 -2.47 -3.711 -2.47 -5.964 c 0 -2.252 0.877 -4.37 2.47 -5.963 c 1.645 -1.644 3.804 -2.466 5.963 -2.466 s 4.319 0.822 5.963 2.466 l 16.348 16.348 c 1.593 1.593 2.471 3.711 2.471 5.963 C 78.855 80.825 77.977 82.942 76.385 84.536 z" style="stroke: none; stroke-width: 5; stroke-dasharray: none; stroke-linecap: butt; stroke-linejoin: miter; stroke-miterlimit: 10; fill: rgb(255,255,255); fill-rule: nonzero; opacity: 1;" transform=" matrix(1 0 0 1 0 0) " stroke-linecap="round" />
</g>
</svg>