<svg width="18" height="24" viewBox="0 0 18 24" fill="none" xmlns="http://www.w3.org/2000/svg">
<path id="Mask" fill-rule="evenodd" clip-rule="evenodd" d="M11.1039 2.73574C11.1237 2.63404 11.134 2.52245 11.134 2.40006C11.134 1.22185 10.1789 0.266724 9.00066 0.266724C7.82245 0.266724 6.86733 1.22185 6.86733 2.40006C6.86733 2.52245 6.87763 2.63404 6.89743 2.73574C5.33356 3.24162 3.84542 4.31043 2.43516 5.88185C2.08386 6.2733 1.88955 6.78074 1.88955 7.30672V14.8218L0.660118 17.5138C0.0148881 18.9266 1.04747 20.5334 2.60066 20.5334H4.86841C5.34206 22.3736 7.01256 23.7334 9.00066 23.7334C10.9888 23.7334 12.6593 22.3736 13.1329 20.5334H15.4007C16.9538 20.5334 17.9864 18.9266 17.3412 17.5138L16.1118 14.8218V7.30672C16.1118 6.78074 15.9175 6.2733 15.5662 5.88185C14.1559 4.31043 12.6678 3.24162 11.1039 2.73574ZM9.00066 21.6001C8.21102 21.6001 7.52159 21.171 7.15273 20.5334H10.8486C10.4797 21.171 9.79029 21.6001 9.00066 21.6001ZM4.02288 14.1334V7.30672C5.68214 5.45783 7.3414 4.53339 9.00066 4.53339C10.6599 4.53339 12.3192 5.45783 13.9784 7.30672V14.1334H4.02288ZM14.4264 16.2667L15.4007 18.4001H2.60066L3.57494 16.2667H14.4264Z" fill="black"/>
</svg>
