<svg width="100" height="100" viewBox="0 0 100 100" fill="none" xmlns="http://www.w3.org/2000/svg">
<mask id="mask0_16141_16453" style="mask-type:luminance" maskUnits="userSpaceOnUse" x="0" y="0" width="100" height="100">
<path d="M100 50C100 77.5711 77.5711 100 50 100C22.4289 100 0 77.6805 0 50C0 22.3195 22.4289 0 50 0C77.5711 0 100 22.4289 100 50Z" fill="white"/>
</mask>
<g mask="url(#mask0_16141_16453)">
<path d="M100 50C100 77.5711 77.5711 100 50 100C22.4289 100 0 77.6805 0 50C0 22.3195 22.4289 0 50 0C77.5711 0 100 22.4289 100 50Z" fill="#346178"/>
<path d="M61.8165 72.7571C61.16 72.7571 60.5036 72.1007 60.5036 71.4442L58.753 51.86H41.357L39.6064 71.4442C39.6064 72.1007 38.95 72.7571 38.2935 72.7571C37.8559 72.7571 37.3088 72.7571 36.543 72.8665C36.543 72.9759 37.09 74.07 38.0747 75.4923C38.6217 76.2582 39.2782 77.0241 39.9347 77.8993C40.7005 78.7746 41.4664 79.6499 42.3417 80.5252C43.2169 81.4004 44.0922 82.1663 44.9675 82.9322C45.8427 83.698 46.6086 84.3545 47.3745 84.7921C48.7968 85.8862 50.0003 86.4333 50.0003 86.4333C50.1097 86.4333 51.2038 85.7768 52.6261 84.7921C53.392 84.2451 54.2673 83.5886 55.0331 82.9322C55.9084 82.1663 56.7837 81.4004 57.6589 80.5252C58.5342 79.6499 59.3001 78.7746 60.0659 77.8993C60.8318 77.0241 61.3789 76.2582 61.9259 75.4923C62.9106 74.07 63.4576 72.9759 63.567 72.8665C62.9106 72.8665 62.3635 72.7571 61.8165 72.7571Z" fill="#FEE69F"/>
<path d="M69.0375 43.1072C67.6152 42.232 65.5365 43.8731 64.333 46.8271C63.1295 49.7812 63.3483 52.8446 64.7706 53.7199C66.1929 54.5952 68.2717 52.9541 69.4752 50C70.6787 47.046 70.4599 43.9825 69.0375 43.1072Z" fill="#FEE69F"/>
<path d="M31.0723 43.1072C32.4947 42.232 34.5734 43.8731 35.7769 46.8271C36.9804 49.7812 36.7616 52.8446 35.3393 53.7199C33.917 54.5952 31.8382 52.9541 30.6347 50C29.4312 47.046 29.65 43.9825 31.0723 43.1072Z" fill="#FEE69F"/>
<path d="M69.3656 37.8556C69.3656 51.5317 60.7223 67.0678 50.0002 67.0678C39.2781 67.0678 30.6348 51.6411 30.6348 37.8556C30.6348 24.07 39.2781 17.3961 50.0002 17.3961C60.7223 17.3961 69.3656 24.1794 69.3656 37.8556Z" fill="#FEE69F"/>
<path d="M84.6826 78.884C87.9649 83.0416 84.6826 100 84.6826 100H15.3172C15.3172 100 12.0349 83.0416 15.3172 78.884C18.2712 75.1641 30.7439 73.523 36.5426 72.8665C36.5426 72.9759 37.0896 74.07 38.0743 75.4923C38.6213 76.2582 39.2778 77.0241 39.9343 77.8993C40.7001 78.7746 41.466 79.6499 42.3413 80.5252C43.2165 81.4004 44.0918 82.1663 44.9671 82.9322C45.8424 83.698 46.6082 84.3545 47.3741 84.7921C48.7964 85.8862 49.9999 86.4333 49.9999 86.4333C50.1093 86.4333 51.2034 85.7768 52.6257 84.7921C53.3916 84.2451 54.2669 83.5886 55.0327 82.9322C55.908 82.1663 56.7833 81.4004 57.6585 80.5252C58.5338 79.6499 59.2997 78.7746 60.0655 77.8993C60.8314 77.0241 61.3785 76.2582 61.9255 75.4923C62.9102 74.07 63.4572 72.9759 63.5666 72.8665C69.3653 73.4136 81.838 75.0547 84.6826 78.884Z" fill="#FC611F"/>
<path opacity="0.4" d="M50.0002 17.3961V67.0678C39.2781 67.0678 30.6348 51.6411 30.6348 37.8556C30.6348 24.07 39.2781 17.3961 50.0002 17.3961Z" fill="white"/>
<path d="M69.5845 35.558C69.5845 34.6827 69.3657 33.8074 69.2563 32.9322C68.9281 31.0722 68.4904 29.1028 67.5057 27.1335C66.6305 25.1641 65.3175 23.3041 63.567 21.663C61.8165 20.0219 59.6283 18.8184 57.3307 17.9431C55.0331 17.1772 52.5167 16.7396 50.0003 16.7396H48.1403C47.4839 16.849 46.9368 16.9584 46.2803 17.0678C45.0768 17.2866 43.8733 17.6149 42.6698 17.9431C40.3723 18.709 38.1841 20.0219 36.4335 21.663C34.683 23.1947 33.3701 25.1641 32.4948 27.1335C31.5101 29.1028 31.0725 31.0722 30.7442 32.9322C30.6348 33.8074 30.5254 34.6827 30.416 35.558C30.416 36.4332 30.416 37.1991 30.416 37.965C30.5254 39.4967 30.6348 40.7002 30.7442 41.7943C31.1819 43.8731 31.4007 45.0766 31.4007 45.0766L33.1512 45.4048C33.1512 45.4048 33.6983 29.7593 39.497 27.5711C45.4051 25.3829 50.0003 27.5711 50.0003 27.5711C50.0003 27.5711 54.7049 25.3829 60.5035 27.5711C66.4116 29.7593 66.8493 45.4048 66.8493 45.4048L68.5998 45.0766C68.5998 45.0766 68.8186 43.8731 69.2563 41.7943C69.3657 40.7002 69.4751 39.3873 69.5845 37.965C69.5845 37.1991 69.5845 36.4332 69.5845 35.558Z" fill="#8F6C08"/>
</g>
</svg>
