<svg xmlns="http://www.w3.org/2000/svg" width="24" height="24" viewBox="0 0 24 24" fill="none">
  <g clip-path="url(#clip0_14910_25385)">
    <path d="M15.0703 1.01001H9.07031V3.01001H15.0703V1.01001ZM11.0703 14.01H13.0703V8.01001H11.0703V14.01ZM19.1003 7.39001L20.5203 5.97001C20.0903 5.46001 19.6203 4.98001 19.1103 4.56001L17.6903 5.98001C16.1403 4.74001 14.1903 4.00001 12.0703 4.00001C7.10031 4.00001 3.07031 8.03001 3.07031 13C3.07031 17.97 7.09031 22 12.0703 22C17.0503 22 21.0703 17.97 21.0703 13C21.0703 10.89 20.3303 8.94001 19.1003 7.39001ZM12.0703 20.01C8.20031 20.01 5.07031 16.88 5.07031 13.01C5.07031 9.14001 8.20031 6.01001 12.0703 6.01001C15.9403 6.01001 19.0703 9.14001 19.0703 13.01C19.0703 16.88 15.9403 20.01 12.0703 20.01Z" fill="#0880AE"/>
  </g>
  <defs>
    <clipPath id="clip0_14910_25385">
      <rect width="24" height="24" fill="white"/>
    </clipPath>
  </defs>
</svg>