<svg xmlns="http://www.w3.org/2000/svg" width="30" height="30" viewBox="0 0 30 30" fill="none">
  <g clip-path="url(#clip0_15184_12756)">
    <path d="M17.65 13.0875L15 15.7375L12.3375 13.0875L10.575 14.85L13.2375 17.5L10.5875 20.15L12.35 21.9125L15 19.2625L17.65 21.9125L19.4125 20.15L16.7625 17.5L19.4125 14.85L17.65 13.0875ZM19.375 5L18.125 3.75H11.875L10.625 5H6.25V7.5H23.75V5H19.375ZM7.5 23.75C7.5 25.125 8.625 26.25 10 26.25H20C21.375 26.25 22.5 25.125 22.5 23.75V8.75H7.5V23.75ZM10 11.25H20V23.75H10V11.25Z" fill="#FF7171"/>
  </g>
  <defs>
    <clipPath id="clip0_15184_12756">
      <rect width="30" height="30" fill="white"/>
    </clipPath>
  </defs>
</svg>