<svg width="20" height="23" viewBox="0 0 20 23" fill="none" xmlns="http://www.w3.org/2000/svg">
<path id="Mask" fill-rule="evenodd" clip-rule="evenodd" d="M10.0004 10.9334C7.05488 10.9334 4.66706 8.54558 4.66706 5.60006C4.66706 2.65454 7.05488 0.266724 10.0004 0.266724C12.9459 0.266724 15.3337 2.65454 15.3337 5.60006C15.3337 8.54558 12.9459 10.9334 10.0004 10.9334ZM10.0004 8.80006C11.7677 8.80006 13.2004 7.36737 13.2004 5.60006C13.2004 3.83275 11.7677 2.40006 10.0004 2.40006C8.23309 2.40006 6.8004 3.83275 6.8004 5.60006C6.8004 7.36737 8.23309 8.80006 10.0004 8.80006ZM1.44324 22.6665C2.0322 22.6796 2.52031 22.2128 2.53346 21.6239C2.66414 15.7732 5.06987 14.1334 10.0003 14.1334C15.2061 14.1334 17.5923 15.7527 17.4622 21.5762C17.449 22.1652 17.9158 22.6533 18.5048 22.6665C19.0937 22.6796 19.5818 22.2128 19.595 21.6239C19.7508 14.6474 16.4514 12.0001 10.0003 12.0001C3.83899 12.0001 0.555873 14.6269 0.400662 21.5762C0.387508 22.1652 0.854288 22.6533 1.44324 22.6665Z" fill="white"/>
</svg>
