<svg width="30" height="30" viewBox="0 0 30 30" fill="none" xmlns="http://www.w3.org/2000/svg">
<path fill-rule="evenodd" clip-rule="evenodd" d="M6.28369 16.9938C6.63136 16.9938 6.95408 16.809 7.13595 16.5057L8.22552 14.6886L10.439 19.4186C10.8178 20.2282 11.9587 20.182 12.274 19.3443L14.8808 12.4179L17.114 16.4729C17.2912 16.7947 17.6242 16.9938 17.9851 16.9938H19.2532C19.7716 18.3085 21.03 19.2362 22.5 19.2362C24.433 19.2362 26 17.6322 26 15.6535C26 13.6749 24.433 12.0709 22.5 12.0709C20.8034 12.0709 19.3888 13.3065 19.0681 14.9466H18.5693L15.5813 9.52102C15.1661 8.76709 14.081 8.8481 13.7771 9.65571L11.2411 16.3939L9.23585 12.1088C8.89363 11.3775 7.89613 11.3244 7.48173 12.0155L5.72414 14.9466H5C4.44772 14.9466 4 15.4049 4 15.9702C4 16.5355 4.44772 16.9938 5 16.9938H6.28369ZM22.5 17.1889C23.3284 17.1889 24 16.5015 24 15.6535C24 14.8055 23.3284 14.1181 22.5 14.1181C21.6716 14.1181 21 14.8055 21 15.6535C21 16.5015 21.6716 17.1889 22.5 17.1889Z" fill="black"/>
<mask id="mask0_0_584" style="mask-type:luminance" maskUnits="userSpaceOnUse" x="4" y="9" width="22" height="11">
<path fill-rule="evenodd" clip-rule="evenodd" d="M6.28369 16.9938C6.63136 16.9938 6.95408 16.809 7.13595 16.5057L8.22552 14.6886L10.439 19.4186C10.8178 20.2282 11.9587 20.182 12.274 19.3443L14.8808 12.4179L17.114 16.4729C17.2912 16.7947 17.6242 16.9938 17.9851 16.9938H19.2532C19.7716 18.3085 21.03 19.2362 22.5 19.2362C24.433 19.2362 26 17.6322 26 15.6535C26 13.6749 24.433 12.0709 22.5 12.0709C20.8034 12.0709 19.3888 13.3065 19.0681 14.9466H18.5693L15.5813 9.52102C15.1661 8.76709 14.081 8.8481 13.7771 9.65571L11.2411 16.3939L9.23585 12.1088C8.89363 11.3775 7.89613 11.3244 7.48173 12.0155L5.72414 14.9466H5C4.44772 14.9466 4 15.4049 4 15.9702C4 16.5355 4.44772 16.9938 5 16.9938H6.28369ZM22.5 17.1889C23.3284 17.1889 24 16.5015 24 15.6535C24 14.8055 23.3284 14.1181 22.5 14.1181C21.6716 14.1181 21 14.8055 21 15.6535C21 16.5015 21.6716 17.1889 22.5 17.1889Z" fill="white"/>
</mask>
<g mask="url(#mask0_0_584)">
<rect width="30" height="30" fill="#2C2738"/>
</g>
</svg>
