<?xml version="1.0" encoding="UTF-8"?><svg id="uuid-e8a07765-3d19-46a0-86f3-760e367fb448" xmlns="http://www.w3.org/2000/svg" viewBox="0 0 50 131.3"><defs><style>.uuid-ee53f9d9-4cf7-45da-b6d8-daefd489e79d{fill:#ffc7a6;}.uuid-8ce9e39b-5a75-46ce-8265-b69453641cb6{fill:#fff;}.uuid-2fb26a52-bb1d-4ba5-8935-24be80144607{fill:#4d4d4d;}.uuid-6d5f4fb6-4456-46d7-8ba7-e4ef044cf82b{fill:#616161;}.uuid-3393465c-fc60-4b9b-98ed-8600770a0ad7{fill:#c7e055;}.uuid-863195bb-b245-4ebb-a500-8ef4c4e98aea{fill:#ffaf80;}.uuid-8c34e917-77c1-414c-acfa-5fa8df9be7b6{fill:#804b40;}.uuid-1b961978-b8b0-4eeb-88e4-77f3c6444122{fill:#8f93ff;}.uuid-4c3fbc8f-2bad-483b-918e-c79e483fcb0e{fill:#f2f2f2;}</style></defs><g id="uuid-d045ef09-e481-448f-927e-422e30087df9"><ellipse class="uuid-4c3fbc8f-2bad-483b-918e-c79e483fcb0e" cx="21.8" cy="118.7" rx="12.6" ry="21.8" transform="translate(-97.1 139.8) rotate(-89.7)"/><path class="uuid-863195bb-b245-4ebb-a500-8ef4c4e98aea" d="m6.3,19.9c-.6.8-1.1,1.8-1.5,2.8-1.4,3.5-2.4,7.3-3,11,.9.7,2,1.3,3.1,1,.3,0,.6-.2.7-.5.2-.2.2-.5.3-.8.8-4.5,3.5-8.4,5-12.7.2-.6.4-1.3.4-2,0-.5-.3-1.2-.8-1.6-.5-.3-1,0-1.5.3-1,.6-2.1,1.4-2.8,2.4Z"/><path class="uuid-2fb26a52-bb1d-4ba5-8935-24be80144607" d="m14.3,114.5c.6-.4,1.3-.7,1.9-1.1.7-.4,1.5-.9,2.2-1.3.6-.3,1.2-.8,1.8-1.1.5-.2,1.4,0,2,.2.4.1.8.3,1.2.5.1,0,.3.2.4.2,0,0,.2-.4,0-.5,1.2.9,1.8,2.5,1.5,4-.1.8-.7,1.5-1.3,2-1.2.8-2.8.6-4.2.9-.5.1-1,.3-1.4.5-.4.3-.7.6-1,.9-.6.5-1.2.8-1.9,1.1-1.4.7-2.9,1.2-4.5,1.1-.6,0-1.3-.2-1.7-.7-.4-.5-.7-1.2-.7-1.8,0-.7.2-1.5.7-2,0,0,0,.2.1.2.1,0,.2,0,.3,0,.4-.2.7-.5,1-.8.4-.3.7-.6,1.1-.8.8-.5,1.6-1,2.4-1.5Z"/><path class="uuid-1b961978-b8b0-4eeb-88e4-77f3c6444122" d="m16,112.2c-.6.4-1.3.7-1.9,1.1-1.5.9-3,1.7-4.2,3-.4.4-.8.9-1,1.4-.2.6-.3,1.8.1,2.3.4.5,1.1.7,1.7.8,1.5.1,3.1-.4,4.5-1.1.7-.3,1.3-.7,1.9-1.1.3-.3.6-.6,1-.9.4-.3.9-.4,1.4-.5,1.4-.3,3,0,4.2-.9,1.1-.8,1.5-2.3,1-3.6-.4-1.3-1.6-2.2-2.9-2.6-.5-.2-1.4-.4-2-.2-.6.3-1.2.7-1.8,1.1l-2.2,1.3Z"/><path class="uuid-2fb26a52-bb1d-4ba5-8935-24be80144607" d="m23.3,110.1c0-.4-.1-.8-.2-1.2-.3-1.7-.5-3.3-.7-5-.2-2.2-.3-4.5-.8-6.7-.3-1.4-.8-2.8-1.3-4.2-1.2-3.3-1.7-6.8-1.4-10.4.3-2.7.8-5.4,1.2-8.1.5-3.9.6-7.8.6-11.7,0,.3-1.4-.8-1.5-1-.6-.9-.9-1.9-1.4-2.9-1-1.9-2-3.8-3.4-5.4-.9-1.1-1.9-2.1-3.2-2.7-1.3-.6-2.5-.5-3.8,0-.6.2-.7.4-1.4,0-.3-.2-1-.8-1-1.1-.7,5.9-.3,11.8.3,17.7.3,2.8.6,5.6,1.1,8.3.6,2.8,1.4,5.5,2.1,8.3.9,3.9,1.9,7.7,2.9,11.6.9,3.5,1.9,7,2.9,10.5.6,1.9,1.2,3.8,1.8,5.7.1.4.4.6.8.7,1.4.4,2.9.1,4.2-.4.6-.2,1.2-.6,1.6-1,.2-.3.3-.5.3-.8Z"/><path class="uuid-3393465c-fc60-4b9b-98ed-8600770a0ad7" d="m10.9,115.8c-.1.1-.2.2-.3.3-.4.8.8.7,1.3.6,1.5-.3,2.8-1.3,4.1-2.3.9-.6,1.7-1.2,2.6-1.8.2-.2.5-.4.4-.7,0-.1-.1-.2-.3-.3-.2-.2-.5-.3-.8-.4-.2,0-.2,0-.4,0-.1,0-.3.2-.4.2-.9.6-5.1,3.3-6.2,4.2Z"/><path class="uuid-2fb26a52-bb1d-4ba5-8935-24be80144607" d="m48,52.5c.3-.5.5-.9.6-1.4,0-.4.6-.7.9-.2.3-.5.4-1.1.4-1.6,0-1-.6-2-1.5-2.6-.5-.4-1.2-.5-1.8-.4-.7,0-1.3.4-1.9.8-.9.6-1.5,1.5-2.2,2.4-1.3,1.6-2.9,3-4.5,4.3-1,.7-2,1.4-2.6,2.5-.6,1-.9,2.5-.3,3.5.3.5.8.9,1.4,1.2.5.3,1.1.4,1.7.6.3,0,.5,0,.8,0,.4,0,.7.1,1.1.1.7,0,1.4-.1,2.1-.4,0,0,.2,0,.2-.1,0,0,.1-.1.2-.2,1.9-2.7,3.8-5.4,5.5-8.2Z"/><path class="uuid-1b961978-b8b0-4eeb-88e4-77f3c6444122" d="m48.7,53.7c.7-1.2,1.4-2.5,1.3-3.9,0-1-.5-1.9-1.4-2.2-.4-.1-.9-.2-1.3-.2-.7,0-1.3.4-1.9.8-.9.6-1.5,1.5-2.2,2.4-1.3,1.6-2.9,3-4.5,4.3-1,.7-2,1.4-2.6,2.5-.6,1-.8,2.4,0,3.4.4.5.9.7,1.4,1,.5.3,1,.5,1.6.7,1.3.4,2.7.4,3.9-.1,0,0,.2,0,.2-.1,0,0,.1-.1.2-.2,1.9-2.7,3.8-5.4,5.5-8.2Z"/><path class="uuid-3393465c-fc60-4b9b-98ed-8600770a0ad7" d="m43.7,57.6c.2-.3.5-.6.7-.9.7-.9,1.4-1.8,2.3-2.6,0,0,.2-.2.3-.2.3,0,.6.2.6.5,0,.3,0,.6,0,.8-.2.8-.6,1.5-1,2.2-.3.5-.6,1.1-.9,1.6-.7,1-1.6,1.9-2.3,2.9-.2.3-.5.6-.9.6-.3,0-.4-.4-.6-.6-.2-.3-.2-.7-.2-1,0-.4.3-.8.5-1.2.4-.7.9-1.4,1.5-2.1Z"/><path class="uuid-2fb26a52-bb1d-4ba5-8935-24be80144607" d="m37.2,91.5c1.1-1.1,1.9-2.5,2.5-4,1.7-4,2.3-8.3,2.8-12.7.5-4.4.7-8.8,1-13.2,0-.2,0-.4,0-.5-.1-.2-.3-.2-.5-.3-1.5-.3-3-.3-4.4-.1-.9.1-1,.3-1.1,1.2-.8,6.8-4.7,12.7-6.4,19.3-.6,2.5-.9,5.2-.2,7.6.2.5.3,1,.4,1.6,0,.5,0,.9.3,1.3.5.8,1.5,1.4,2.4,1.4,1.2,0,2.4-.9,3.2-1.7Z"/><path class="uuid-6d5f4fb6-4456-46d7-8ba7-e4ef044cf82b" d="m15.3,52.9c-1.2.4-2.4,1-3.7,1.2-1.1.2-2.4-.4-3.4-1,.4,2.2,1.1,4.3,2,6.4.5,1.1,1,2.2,1.8,3,.8.9,1.8,1.6,3,1.8.2,0,.4,0,.5.1.2.1.3.4.4.6.3.9.7,1.7,1.1,2.6,1.7,4.1,3.7,8.1,5.9,12,1,1.7,1.6,3.6,2.5,5.4,1,1.9,2.1,3.7,3.5,5.3,1,1.2,2.3,2.3,3.8,2.8,1.9.5,3.5-.1,4.2-2,.3-1,.7-1.7.5-2.7-.1-1.3-.5-2.6-.8-3.9-1-3.9-1.9-7.8-2.9-11.7-.5-2.1-1.1-4.2-1.4-6.3-.3-2.1-.1-4.2-.6-6.3-.5-2.1-1.4-4.1-2.7-5.7-.7-.9-1.6-1.6-2.5-2.4-1.4-1.2-2.9-2.3-4.6-2.9-.5-.2-1.1-.3-1.7-.2-.9.3-1.4,1.4-2,2.1-.8.8-1.8,1.5-2.9,1.9Z"/><path class="uuid-ee53f9d9-4cf7-45da-b6d8-daefd489e79d" d="m29.8,24.5c0,.1,0,.3-.1.4-.1.2-.4.5-.5.7-.3.4-.5.9-.7,1.4-.2.6-.5,1.1-.7,1.7,0,.2-.2.4-.2.7-.1.4-.2.7-.3,1.1-.3,1.1-.6,2.2-.9,3.3-.2.7-.3,1.3-.5,2-.1.5-.4,1.2-.4,1.7,0,.7-.4,1.4-.5,2-.2.7-.3,1.4-.5,2.1-.3,1.3-.4,2.6-.7,4,0,.2,0,.4,0,.6,0,.3.1.5.2.8.2.5.4.9.6,1.4.6,1.5,1.3,3,2.2,4.4.2.3.2.8-.1,1.1-3.4,2.7-7.6,4.5-11.9,4.9-2.4.2-4.9,0-7.1-1-.9-.4-1.7-1-2-1.9-.2-.6-.1-1.1-.1-1.7,0-2-.3-4.1-1.1-5.9-.2-.4-.4-.8-.6-1.2-.3-.7-.6-1.4-.8-2.1,0-.3-.1-.5-.1-.8,0-.2,0-.3,0-.5,0-.2,0-.3,0-.5,0-.7,0-1.4,0-2.1,0-.1,0-.3,0-.4,0,0,0,0,0,0,0-.3,0-.6,0-.9-.2-1.1-.6-2-1-3-.3-.7-.8-1.5-.8-2.3-.1-1.4,1.2-2.5,2.2-3.6,1.2-1.4,1.8-3.3,2.6-5,0,0,0,0,0-.1.9-2.1,1.8-4.2,2.8-6.3.3-.6.6-1.3,1-1.8.8-.9,2.1-1.3,3.3-1.3,1.2,0,2.4.4,3.5.8,1.3.5,2.7,1,4,1.5,3.4,1.5,6.6,3.3,9.4,5.5.2.1.3.3.4.5Z"/><path class="uuid-8c34e917-77c1-414c-acfa-5fa8df9be7b6" d="m25.7,15.6c.3.3.5.7.6,1.1,0,.2.2.4.2.6,0,.2.1.4,0,.6-.1.3-.3.5-.5.8-.6.9-1.6,1.4-2.7,1.8-.2,0-.4.1-.6.2-.2,0-.5,0-.6-.2,0-.3,0-.7,0-1.1,0-.4.2-.9.1-1.4,0-.4,0-.8-.1-1.2,0-.3,0-.6-.2-.9,0-.3-.1-.5,0-.8,0-.4.4-.7.7-.9.4-.3.6-.3.9-.1.8.3,1.4.7,2,1.4Z"/><path class="uuid-1b961978-b8b0-4eeb-88e4-77f3c6444122" d="m29.8,24.5c0,.1,0,.3-.1.4-.3.4-.6.7-.7.8-.5.9-.8,2-1.2,3,0,.2-.2.4-.2.7-.1.4-.2.7-.3,1.1-.3,1.1-.6,2.2-.9,3.3-.2.7-.3,1.3-.5,2-.1.6-1.3,5.2-1.4,5.9-.2,1-.3,2-.5,3,0,.3,0,.7-.2.9-.1.2-.3.3-.5.4-.5.2-.9.4-1.4.6-1,.4-2,.7-3,.9-2,.4-4.1.6-6.2.7-1.6,0-3.1.1-4.7,0-1.1-.1-2.2-.4-3.3-.8-.4-.2-1-.4-1.3-.7-.3-.4-.5-1.1-.6-1.6,0-.3-.1-.5-.1-.8,0-.2,0-.3,0-.5,0-.2,0-.3,0-.5,0-.7,0-1.4,0-2.1,0-.1,0-.3,0-.4,0,0,0,0,0,0,0-.7-.4-1.3-.7-1.9-.3-.7-.6-1.4-.9-2.2-.4-1-.8-2.1-.6-3.2.2-1.4,1.3-2.5,2.2-3.7,1-1.2,1.9-2.6,2.8-4,1.1-1.8,2.3-3.7,3.7-5.3,1-1.2,2.2-2.2,3.4-3,.2-.1.4-.3.7-.3.2,0,.5,0,.7,0,2.1.3,4.1.9,6.1,1.5,3.4,1.5,6.6,3.3,9.4,5.5.2.1.3.3.4.5Z"/><path class="uuid-8ce9e39b-5a75-46ce-8265-b69453641cb6" d="m3.9,42.3c-2.4-4.5.3-9.9.3-9.9,3.9,3.1,11.8,2.5,11.8,2.5,0,0-1.3,4.8-.3,9.9,0,0-10.3.2-11.8-2.5Z"/><path class="uuid-3393465c-fc60-4b9b-98ed-8600770a0ad7" d="m23.3,12.2c.4.1.7.5.8.9s0,.8-.1,1.2c0,.2-.2.4-.2.7,0,.3.2.6.2.9,0,.5-.3,1-.7,1.2s-1,0-1.4-.3c-.4-.3-.5-.9-.6-1.4,0-.4.1-.9.3-1.3.3-.5.6-.8.8-1.3.1-.4.5-.6,1-.5Z"/><path class="uuid-ee53f9d9-4cf7-45da-b6d8-daefd489e79d" d="m8.8,23.8c-.9,1.5-1.5,3.2-1.6,4.9,0,.7,0,1.4.3,1.9.4.6,1,1.1,1.7,1.2s1.5,0,2.2,0c2.1-.4,4-1.5,5.6-2.9,1.6-1.4,2.9-3.1,4.2-4.8.7-1,1.4-1.9,1.7-3.1,0-.4.2-.8,0-1.1-.1-.2-.4-.4-.6-.5-.9-.5-1.8-.9-2.7-1.4,0,0-.2.4-.2.4-.1,0-.2,0-.3,0-.4-.1-.8-.3-1.2-.4-.9-.3-1.7-.5-2.6-.7-.4-.1-.9-.2-1.3,0-1,.5-1.6,1.7-2.2,2.5-.8,1-1.5,2-2.2,3-.2.3-.4.7-.6,1.1Z"/><path class="uuid-863195bb-b245-4ebb-a500-8ef4c4e98aea" d="m12.9,22.5c0,.2,0,.3,0,.5,0,0,0,.2,0,.2,0,0,0,0,.2.1.3.1.6.2.9.2,1.3,0,2.6,0,3.8-.4.8-.3,1.5-.7,2.2-1.1.6-.4,1.3-1,1.6-1.7,0,0,0,0,0-.1,0,0,0,0,0-.1-.6-1.2-1.1-2.4-1.5-3.7-.2-.6-.3-1.3-.6-1.9-.1.2-.2.5-.4.7-.2.2-.5.4-.8.6-1.2.9-2.7,1.5-4.2,1.6-.3,0-.7,0-1,.1-.3,0-.6.3-.9.5-.2.1-.4.2-.5.4-.2.6.3,1.4.5,1.9.3.7.5,1.4.5,2.2Z"/><path class="uuid-ee53f9d9-4cf7-45da-b6d8-daefd489e79d" d="m19.1,16c1.2,0,2.3-.8,3.1-1.6.8-.8,1.4-1.9,1.7-3,.2-.7.2-1.4.2-2.2,0-2.8-1.1-5.7-3.4-7.2-2.1-1.4-5-1.5-7.4-.5-1.5.6-2.9,1.6-3.8,3-1.3,2-1.8,4.5-1.5,6.9,0,.9.3,2-.2,2.8-.2.4-.6.9-.3,1.3.2.4.7.4,1,.6.2.1.3.3.4.6.3.7.5,1.3.7,2.1.1.5.2.9.5,1.3.4.5,1.2.6,1.8.6,2,0,4-.4,5.8-1.3.3-.2.7-.4.9-.7.1-.2.2-.5.2-.7l.4-2Z"/><path class="uuid-8c34e917-77c1-414c-acfa-5fa8df9be7b6" d="m11.5,5.8c.3.4.6.9.9,1.3,1.4,1.9,3.7,3.1,5,5.1.1.2.3.5.4.7.2.3.3.3.6,0,.2-.2.4-.4.7-.6.5-.3,1.1-.5,1.7-.5.4,0,.8,0,1,.4.3.4.1,1,0,1.4-.2.6-.4,1-.8,1.4-.4.4-.9.8-1.4,1,.8,0,1.7-.2,2.4-.8.6-.5,1.2-1,1.7-1.7.4-.6.6-1.3.8-1.9.2-.6.2-1.1.2-1.7.1-1.4-.2-2.8-.7-4.2-.6-1.8-1.7-3.4-3.3-4.5C18.8,0,16.4-.3,14.1.2c-1.3.3-2.5.8-3.5,1.6-.7.6-1.2,1.3-1.6,2.1-.3.8-.6,1.6-.6,2.4,0,.1,0,.3,0,.4.1-.4.3-.7.5-1,.1-.1.2-.3.4-.4,0,0,.2-.2.3-.2.3-.2.7-.2,1,0,.3.2.6.4.9.7Z"/><path class="uuid-863195bb-b245-4ebb-a500-8ef4c4e98aea" d="m3.8,49.2c0,0,0,.2,0,.3,0,.1,0,.2,0,.3,0,.3,0,.5,0,.8,0,.1,0,.3,0,.4,0,.3-.1.6,0,.9,0,.2.2.3.2.5,0,.1,0,.2,0,.3-.1.5,0,1,.2,1.5s.6.8,1,1.1c.1.1.3.2.5.2,0,0,0,0,.1,0,0,0,0,0,0-.1,0-.3,0-.7,0-1,0-.2-.2-.3-.2-.5,0,0,0,0,0,0,0,0,0,0,0,0,.2-.2.4-.5.3-.7,0-.3-.2-.5-.4-.7,0,0,0,0,0,0,0,0,0-.1.1-.2.2-.2.1-.5,0-.7-.1-.2-.3-.4-.5-.5,0,0,0-.1,0-.2,0-.1,0-.3,0-.4.2-.5.2-1,0-1.6-.1-.4-.5-1-1-.8-.5.2-.3,1-.2,1.4Z"/><path class="uuid-863195bb-b245-4ebb-a500-8ef4c4e98aea" d="m22.3,25.4c-.3.7-.6,1.4-.8,2.1-.6,2-.8,4.1-.8,6.2,0,1.4.3,2.9,1.1,4,.5.6,1.3,1.1,2,.9.4-.1.7-.5,1-.8.6-.7,1-1.5,1.4-2.3.2-.4.3-.8.5-1.2.2-.3.4-.6.5-1,.8-1.7,1.5-3.4,2.5-5,.3-.5.6-.9.8-1.4.2-.5.4-.7.1-1.3-.4-.9-1.2-1.7-2.1-2.2-.5-.3-1.1-.5-1.6-.7-.5-.1-.9,0-1.3,0-1,.2-1.9.8-2.5,1.5-.3.4-.6.8-.8,1.2Z"/><path class="uuid-ee53f9d9-4cf7-45da-b6d8-daefd489e79d" d="m47.9,56.2c0-1-.5-1.7-1.1-2.5-.4-.6-3.2-7-3.9-8.6-1-2.2-2.2-4.5-4.2-5.9-.4-.3-1-.4-1.3-.8-.4-.6-.8-1.2-1.1-1.9-.7-1.4-1.3-2.9-1.7-4.4-.3-1.3-.6-2.6-1.1-3.9-.7-1.5-1.8-2.8-3.1-3.8-.8-.6-1.7-1.1-2.7-1.3-2.6-.3-4.6,2.6-5,4.8-.1.8-.1,1.6,0,2.4,0,.6.2,1.3.4,1.9.4.8,1.1,1.5,1.7,2.1,1.9,1.8,3.7,3.8,5.4,5.9.8,1,1.7,2.1,2.4,3.2.7,1,1.3,2,2.2,2.8.5.5.9,1,1.4,1.5,1.2,1.2,2.5,2.1,3.8,3.3,1.6,1.5,3,3.2,4.2,5,0,0,0,.2,0,.2,0,.2-.2.3-.3.5-.3.6-.4,1.3-.4,1.9,0,.7.3,1.3.7,1.8.4.7,1.1,1.2,1.1,2,0,.3,0,.5.1.8.2.3.6.4.9.3s.5-.5.6-.8,0-.7-.1-1.1c0,0,0-.2,0-.3,0,0,0,0,.1,0,.4-.2.7-.7.8-1.2.1-.5.1-1,0-1.4,0-.9,0-1.8,0-2.7Z"/><path class="uuid-8ce9e39b-5a75-46ce-8265-b69453641cb6" d="m46.2,52.5c0,.2-.1.4-.2.6-.1.2-.3.4-.4.6-.3.3-.6.5-1,.7-.3.1-.7.2-1,.2-.1,0-.3,0-.4,0,0,0,0,0-.1-.1,0,0,0,0,0,0,0,0,0,0,0,0,0,0,0,0,0,0,.2.3.4.7.6,1,.1.2.2.3.3.5,0,.1.2.3.3.3.6-.1,1.2-.3,1.7-.6.4-.2.7-.5.9-.8.1-.1.2-.3.3-.5,0-.2,0-.4-.1-.6-.3-.5-.6-1.1-.9-1.6,0,0,0,0,0,0,0,0,0,0,0,0,0,.1.1.2.1.3Z"/></g></svg>