<?xml version="1.0" encoding="UTF-8"?><svg id="uuid-009c6092-4c80-4996-a9ca-7a443b991a5a" xmlns="http://www.w3.org/2000/svg" viewBox="0 0 532.9 256.1"><defs><style>.uuid-7473bc30-72b4-47c0-a08f-53288ae0ecec{fill:#cc2d12;}.uuid-e7e4bc5b-fac0-4d9e-9c85-bb117e04e017{fill:#fff;}.uuid-72d91aa6-757c-4dda-9e97-30d221a134df{fill:#cc290e;}.uuid-20ee2897-c9ed-477f-8c57-b8db5afd507e{fill:#edeceb;}.uuid-f4a6ac3e-70ba-419a-ac4b-16daf109b79c{fill:#1eb2e8;}.uuid-9b2b367d-7085-4846-95f1-d59e6b54a59d{fill:#f04925;}.uuid-9bc16766-71ae-4db8-9eee-71acb7ee8883{fill:#323948;}.uuid-6223323b-b4c2-4ee8-bc6d-1f7a0323f8e6{fill:#bfc0c4;}.uuid-8e4fe6e2-3e0c-4334-af9d-cccfa686b570{fill:#d6d5d4;}</style></defs><g id="uuid-0c11fe3b-5d6c-44dc-806e-02b279b67734"><path class="uuid-20ee2897-c9ed-477f-8c57-b8db5afd507e" d="m532.9,148.6v65.1h-184.1V45.2h76.5c12.2,0,22.7,8.5,25.1,20.4l11.8,50.5,52.5,11c2.6.4,5.1,1.3,7.3,2.6,2.4,1.4,4.5,3.2,6.2,5.3,3,3.8,4.7,8.5,4.7,13.6Z"/><path class="uuid-6223323b-b4c2-4ee8-bc6d-1f7a0323f8e6" d="m364.3,117.1v-63.4h54.7c8.1,0,15.2,5.7,16.8,13.6l11.7,49.8h-83.2Z"/><path class="uuid-8e4fe6e2-3e0c-4334-af9d-cccfa686b570" d="m467.8,213.7h-94.4c1.4-24.8,22-44.5,47.2-44.5s45.8,19.7,47.2,44.5Z"/><rect class="uuid-9bc16766-71ae-4db8-9eee-71acb7ee8883" x="367.9" y="37.8" width="49.6" height="7.9"/><path class="uuid-9b2b367d-7085-4846-95f1-d59e6b54a59d" d="m386.6,13.7h12.1c8.8,0,16,7.2,16,16v8.1h-44v-8.1c0-8.8,7.2-16,16-16Z"/><path class="uuid-7473bc30-72b4-47c0-a08f-53288ae0ecec" d="m398.7,13.7h-10.5c8.8,0,16,7.1,16,16v8.1h10.5v-8.1c0-8.8-7.1-16-16-16Z"/><rect class="uuid-20ee2897-c9ed-477f-8c57-b8db5afd507e" width="348.8" height="213.7"/><polygon class="uuid-9b2b367d-7085-4846-95f1-d59e6b54a59d" points="532.9 166 532.9 142.5 348.8 142.5 348.8 142.5 348.8 142.5 0 142.5 0 166 532.9 166"/><rect class="uuid-8e4fe6e2-3e0c-4334-af9d-cccfa686b570" x="342.2" width="6.6" height="213.7"/><rect class="uuid-72d91aa6-757c-4dda-9e97-30d221a134df" x="342.2" y="142.5" width="6.6" height="23.5"/><circle class="uuid-9bc16766-71ae-4db8-9eee-71acb7ee8883" cx="420.6" cy="216.5" r="39.5"/><circle class="uuid-e7e4bc5b-fac0-4d9e-9c85-bb117e04e017" cx="420.6" cy="216.5" r="23.7" transform="translate(-29.9 360.8) rotate(-45)"/><circle class="uuid-9bc16766-71ae-4db8-9eee-71acb7ee8883" cx="420.6" cy="216.5" r="14.8" transform="translate(154.3 607.5) rotate(-83)"/><path class="uuid-8e4fe6e2-3e0c-4334-af9d-cccfa686b570" d="m148.6,213.7H54.2c1.4-24.8,22-44.5,47.2-44.5s45.8,19.7,47.2,44.5Z"/><circle class="uuid-9bc16766-71ae-4db8-9eee-71acb7ee8883" cx="101.4" cy="216.5" r="39.5"/><circle class="uuid-e7e4bc5b-fac0-4d9e-9c85-bb117e04e017" cx="101.4" cy="216.5" r="23.7" transform="translate(-123.4 135.1) rotate(-45)"/><circle class="uuid-9bc16766-71ae-4db8-9eee-71acb7ee8883" cx="101.4" cy="216.5" r="14.8"/><rect class="uuid-9b2b367d-7085-4846-95f1-d59e6b54a59d" x="7.2" y="6.6" width="11.3" height="11.3"/><rect class="uuid-f4a6ac3e-70ba-419a-ac4b-16daf109b79c" x="22.7" y="6.6" width="11.3" height="11.3"/><rect class="uuid-9b2b367d-7085-4846-95f1-d59e6b54a59d" x="307.6" y="6.6" width="11.3" height="11.3"/><rect class="uuid-f4a6ac3e-70ba-419a-ac4b-16daf109b79c" x="323" y="6.6" width="11.3" height="11.3"/><rect class="uuid-6223323b-b4c2-4ee8-bc6d-1f7a0323f8e6" x="231.3" y="50.5" width="65.3" height="65.3"/><path class="uuid-9b2b367d-7085-4846-95f1-d59e6b54a59d" d="m58.4,41.7c-20.1,0-36.4,16.3-36.4,36.4s16.3,36.4,36.4,36.4,36.4-16.3,36.4-36.4-16.3-36.4-36.4-36.4Zm23.4,44h-15.8v15.8h-15.2v-15.8h-15.8v-15.2h15.8v-15.8h15.2v15.8h15.8v15.2Z"/></g></svg>