<?xml version="1.0" encoding="UTF-8"?><svg id="uuid-21012cc2-67cc-4911-b449-f0a2f544c5b9" xmlns="http://www.w3.org/2000/svg" viewBox="0 0 38.4 77.8"><defs><style>.uuid-7502c9e2-1995-464c-8a04-61ae5a117a25{fill:#fff;}.uuid-cd9d1993-7bc1-4c3a-89a9-1e01843e4a8a{fill:#875645;}.uuid-c1fc1ef8-c1ff-4baa-aab0-caa368b4e31a{fill:#784832;}.uuid-703a53f6-40ef-4de1-970c-30dc141fd710{fill:#ec4b75;}.uuid-148d9ee6-e3d2-47a3-9bfe-585275b57ebf{fill:#ce826a;}.uuid-8b8e84a5-ce69-43c6-8eee-660c8f5c2668{fill:#fecd46;}.uuid-5a4f0a3b-a0c1-4e6e-a33a-9b6d6346bcd3{fill:#9bc2e0;}</style></defs><g id="uuid-5381381b-8285-41a3-9b88-9afb78c344bd"><polygon class="uuid-cd9d1993-7bc1-4c3a-89a9-1e01843e4a8a" points="37.4 77.8 0 56.3 0 .7 37.4 22.2 37.4 77.8"/><polygon class="uuid-148d9ee6-e3d2-47a3-9bfe-585275b57ebf" points="37.4 22.2 0 .7 1 0 38.4 21.6 37.4 22.2"/><polygon class="uuid-c1fc1ef8-c1ff-4baa-aab0-caa368b4e31a" points="37.4 77.8 37.4 22.2 38.4 21.6 38.4 77.2 37.4 77.8"/><polygon class="uuid-7502c9e2-1995-464c-8a04-61ae5a117a25" points="35.4 73.7 2 54.4 2 4.8 35.4 24.1 35.4 73.7"/><path class="uuid-5a4f0a3b-a0c1-4e6e-a33a-9b6d6346bcd3" d="m11.8,24.9l-5.9-3.4v-6.8l5.9,3.4v6.8Zm-4.9-4l3.9,2.2v-4.5l-3.9-2.2v4.5Z"/><path class="uuid-5a4f0a3b-a0c1-4e6e-a33a-9b6d6346bcd3" d="m11.8,33.1l-5.9-3.4v-6.8l5.9,3.4v6.8Zm-4.9-4l3.9,2.2v-4.5l-3.9-2.2v4.5Z"/><path class="uuid-5a4f0a3b-a0c1-4e6e-a33a-9b6d6346bcd3" d="m11.8,41.3l-5.9-3.4v-6.8l5.9,3.4v6.8Zm-4.9-4l3.9,2.2v-4.5l-3.9-2.2v4.5Z"/><path class="uuid-5a4f0a3b-a0c1-4e6e-a33a-9b6d6346bcd3" d="m11.8,49.4l-5.9-3.4v-6.8l5.9,3.4v6.8Zm-4.9-4l3.9,2.2v-4.5l-3.9-2.2v4.5Z"/><path class="uuid-5a4f0a3b-a0c1-4e6e-a33a-9b6d6346bcd3" d="m11.8,57.6l-5.9-3.4v-6.8l5.9,3.4v6.8Zm-4.9-4l3.9,2.2v-4.5l-3.9-2.2v4.5Z"/><polygon class="uuid-5a4f0a3b-a0c1-4e6e-a33a-9b6d6346bcd3" points="31 34 14.3 24.4 14.3 21.2 31 30.9 31 34"/><polygon class="uuid-5a4f0a3b-a0c1-4e6e-a33a-9b6d6346bcd3" points="31 42.4 14.3 32.7 14.3 29.6 31 39.2 31 42.4"/><polygon class="uuid-5a4f0a3b-a0c1-4e6e-a33a-9b6d6346bcd3" points="31 50.7 14.3 41 14.3 37.9 31 47.5 31 50.7"/><polygon class="uuid-5a4f0a3b-a0c1-4e6e-a33a-9b6d6346bcd3" points="31 59 14.3 49.4 14.3 46.2 31 55.9 31 59"/><polygon class="uuid-5a4f0a3b-a0c1-4e6e-a33a-9b6d6346bcd3" points="31 67.3 14.3 57.7 14.3 54.5 31 64.2 31 67.3"/><polygon class="uuid-703a53f6-40ef-4de1-970c-30dc141fd710" points="5.7 17.3 6.5 16.8 8.1 19.8 10 16.6 10.9 18 8.5 23.1 5.7 17.3"/><polygon class="uuid-8b8e84a5-ce69-43c6-8eee-660c8f5c2668" points="28.3 20 10.2 9.5 9.7 6.4 27.8 16.9 28.3 20"/><polygon class="uuid-8b8e84a5-ce69-43c6-8eee-660c8f5c2668" points="27.8 16.9 9.7 6.4 11.4 5.9 29.4 16.4 27.8 16.9"/><path class="uuid-8b8e84a5-ce69-43c6-8eee-660c8f5c2668" d="m10.2,9.5v1.3c.2,1.4,1,2.7,2.2,3.4l12.1,7.1c1.4.8,3.2.2,3.8-1.3l-.9-.5-.2.4c-.4,1-1.6,1.4-2.5.8l-12.5-7.2c-.7-.4-1.1-1.1-1.2-1.9v-1.7c-.1,0-.9-.5-.9-.5Z"/></g></svg>