<?xml version="1.0" encoding="UTF-8"?><svg xmlns="http://www.w3.org/2000/svg" xmlns:xlink="http://www.w3.org/1999/xlink" viewBox="0 0 368 324.3"><defs><style>.uuid-7df376d7-f0f5-4143-8953-bcd8be4209af{mix-blend-mode:multiply;}.uuid-7df376d7-f0f5-4143-8953-bcd8be4209af,.uuid-ef6890bd-7810-43cb-b6af-29f7328f8c8e{opacity:.2;}.uuid-7df376d7-f0f5-4143-8953-bcd8be4209af,.uuid-c652e379-8a5a-4410-81d5-4ef64e03ca09{fill:#4a6075;}.uuid-488e6712-7443-40fd-ab87-6c4a544c34ad,.uuid-48bfccac-9471-46e8-8e17-0220adac343f,.uuid-ef6890bd-7810-43cb-b6af-29f7328f8c8e,.uuid-f4afd766-0f9f-4593-a51e-0527e3e839fd{fill:#fff;}.uuid-4a519d22-e7cb-492e-b878-db0b76920856{fill:#92cacf;}.uuid-b8990f2a-7dd5-4150-bae8-44b11fea8806{fill:#303e4d;}.uuid-e4a6fd6b-034c-4d2c-ac97-f6d938192100{isolation:isolate;}.uuid-48bfccac-9471-46e8-8e17-0220adac343f{opacity:0;}.uuid-ffa7ee52-795b-4e29-91a0-12d801809e63{filter:url(#uuid-da919db7-fcae-4cee-bb48-4cdfe6d85530);}.uuid-8c3c3d8f-63f2-4ba9-a3cf-9bfdf4dbd694{fill:#ee4829;}.uuid-54d95e2d-0ecb-4a0d-90de-87719e54b202{fill:#d3ebed;}.uuid-c3d201da-dc40-4224-b860-80c4c147f8f8{fill:#019fac;}.uuid-2d8a2769-eb4a-4ccc-a28a-d475c32da091{fill:#ef5736;}.uuid-fa05bc71-82c9-4db2-8bad-49d20e6a8cbe{filter:url(#uuid-9e67e4e7-7993-4a99-bedb-b68f0ec37d08);}.uuid-29e8a30a-1f7a-4a8e-8d4d-122e9b0a4fc6{fill:none;filter:url(#uuid-03552d23-943b-422b-8a1c-de841fd54a44);stroke:#fff;stroke-linecap:round;stroke-linejoin:round;stroke-width:3.4px;}.uuid-d56a87a3-b978-418c-b587-fa0a978da767{fill:#018693;}.uuid-f4afd766-0f9f-4593-a51e-0527e3e839fd{opacity:0;}.uuid-ef7a75be-cf1e-46f8-9ff5-7b494056ff18{fill:#3d4f61;}</style><filter id="uuid-da919db7-fcae-4cee-bb48-4cdfe6d85530" filterUnits="userSpaceOnUse"><feOffset dx="3.5" dy="1.8"/><feGaussianBlur result="uuid-aa50125a-dc45-4b71-a641-0f6de440a557" stdDeviation="0"/><feFlood flood-color="#dee7ee" flood-opacity=".8"/><feComposite in2="uuid-aa50125a-dc45-4b71-a641-0f6de440a557" operator="in"/><feComposite in="SourceGraphic"/></filter><filter id="uuid-9e67e4e7-7993-4a99-bedb-b68f0ec37d08" filterUnits="userSpaceOnUse"><feOffset dx="3" dy="3"/><feGaussianBlur result="uuid-87510ce3-0192-4d63-8b43-fcc819efc771" stdDeviation="0"/><feFlood flood-color="#018693" flood-opacity=".2"/><feComposite in2="uuid-87510ce3-0192-4d63-8b43-fcc819efc771" operator="in"/><feComposite in="SourceGraphic"/></filter><filter id="uuid-03552d23-943b-422b-8a1c-de841fd54a44" filterUnits="userSpaceOnUse"><feOffset dx="2.7" dy="2.7"/><feGaussianBlur result="uuid-1e90ee04-15bf-4a5b-8f44-cba2aceeed97" stdDeviation="0"/><feFlood flood-color="#ee4829" flood-opacity=".3"/><feComposite in2="uuid-1e90ee04-15bf-4a5b-8f44-cba2aceeed97" operator="in"/><feComposite in="SourceGraphic"/></filter></defs><g class="uuid-e4a6fd6b-034c-4d2c-ac97-f6d938192100"><g id="uuid-c0d1ce44-deea-4143-9be2-c641e45c41a7"><g id="uuid-07c027cb-2796-4221-990e-a1da5e497d64"><path class="uuid-c3d201da-dc40-4224-b860-80c4c147f8f8" d="m264.1,98.6h8.4c2.1,0,3.8,1.7,3.8,3.8v.4c0,2.1-1.7,3.8-3.8,3.8h-8.4c-2.1,0-3.8-1.7-3.8-3.8v-.4c0-2.1,1.7-3.8,3.8-3.8Z" transform="translate(-10 173.8) rotate(-35.3)"/><rect class="uuid-4a519d22-e7cb-492e-b878-db0b76920856" x="269.1" y="84.2" width="14.2" height="25.5" rx="4" ry="4" transform="translate(-5.3 177.3) rotate(-35.3)"/><path class="uuid-c3d201da-dc40-4224-b860-80c4c147f8f8" d="m275.7,86.7c-1.2-.5-6.6,3.6-7.6,4.4-2.8,2.2-1.6,2-1.9,2,1,0,1.2-.7,4.9-2.8,2.3-1.3,5.9-3,4.6-3.6Z"/><path class="uuid-c3d201da-dc40-4224-b860-80c4c147f8f8" d="m278.4,89.9c-1.6-.5-17.5,12.1-4.3,3.9,1.6-1,6-3.3,4.3-3.9Z"/><path class="uuid-c3d201da-dc40-4224-b860-80c4c147f8f8" d="m280.3,94c-1,0-10.6,7-8.8,6.3,3.5-1.2,12.3-6.6,8.8-6.3Z"/><path class="uuid-c3d201da-dc40-4224-b860-80c4c147f8f8" d="m283.8,97.1c-1.5-.5-15,10-6.5,5.1,2.2-1.3,8.3-4.6,6.5-5.1Z"/><path class="uuid-c3d201da-dc40-4224-b860-80c4c147f8f8" d="m286.6,101c-1.3,0-7.4,4.5-8.5,6.4-.6,1,11.3-6.2,8.5-6.4Z"/><path class="uuid-ef6890bd-7810-43cb-b6af-29f7328f8c8e" d="m286.1,101.1c-.2-1.1-4.3-7.4-4.4-7.5-3.1-4.8-5.7-10.3-9.5-8-.4.2-14.3,10.4,0,1.1,3.6-2.4,4,.8,10.7,12,.6,1,1.1,2.2,2.1,3,.5.4,1.3,0,1.2-.7Z"/><path class="uuid-ef6890bd-7810-43cb-b6af-29f7328f8c8e" d="m274.9,89.8c-3,.1-6.8,5-5.8,4.3.7-.5,8.3-4.4,5.8-4.3Z"/><path class="uuid-ef6890bd-7810-43cb-b6af-29f7328f8c8e" d="m276.5,94.2c-1.6,0-6.5,3.4-3.2,2.2.5-.2,5-2.2,3.2-2.2Z"/><path class="uuid-ef6890bd-7810-43cb-b6af-29f7328f8c8e" d="m277.7,97.8c-1.4-.4-4.5,2.8-3.3,2.7.7,0,5-2.2,3.3-2.7Z"/><path class="uuid-ef6890bd-7810-43cb-b6af-29f7328f8c8e" d="m280.3,102.4c-2.4,0-3.9,2.9-3.4,2.6,2.1-1.6,4.8-2.5,3.4-2.6Z"/><path class="uuid-ef6890bd-7810-43cb-b6af-29f7328f8c8e" d="m284,104.6c-2,1.1-5.5,4.5-3.2,3.1,4.4-2.8,3.5-3.2,3.2-3.1Z"/><path class="uuid-48bfccac-9471-46e8-8e17-0220adac343f" d="m264.3,101.9c-.2.2,3.1-.5,3.6-1.3.8-1.1-1.1-1.2-3.6,1.3Z"/><path class="uuid-48bfccac-9471-46e8-8e17-0220adac343f" d="m270.2,104c-1.5-.3-2.6,2.4-1.4,2,.6,0,2.4-1.8,1.4-2Z"/><path class="uuid-ef7a75be-cf1e-46f8-9ff5-7b494056ff18" d="m346.3,255.3c-3.1-16.6-8.4-28.6-14.5-37.3-17.1-46.2-53.6-95.4-70.1-117.6-3.6-4.9-6.5-8.8-7.6-10.5l-10.5,6.6c1.3,2.1,4,5.8,8.1,11.3,13.4,18,40.5,54.6,58.6,91.8-2.2-1-4.2-1.8-6-2.3-17.5-5.4-37,0-51,14.2-17.3,17.5-22.5,43.9-14,70.8,1.4,4.5,3.2,8.6,5.3,12.3-10.5-11.8-20.2-31.6-24.9-64.6l-12.3,1.8c8.6,59.7,33.3,81,52.6,88.5,6.6,2.5,13.6,3.8,20.7,3.8,15.1,0,30.7-5.7,43.6-16.4,17-14.1,25.4-34.2,22-52.3Zm-95.1,23.2c-7.1-22.4-3-44.2,11-58.3,8.1-8.2,18.4-12.6,28.6-12.6s6.7.5,10,1.5c7.9,2.4,14.7,7.6,20.2,15.2,5.1,14.2,8.1,27.9,7.6,39.9-.9,22.1-21.3,38.4-39.7,40.9-17.8,2.4-31.5-7.3-37.7-26.6Z"/><path class="uuid-f4afd766-0f9f-4593-a51e-0527e3e839fd" d="m328.7,293c-26.1,33.1-95.7,47.1-115.5-56.8,0-.3.4-.4.5-.1,8.1,27.2,16.4,60.3,44.9,73.3,42.3,19.2,89.6-25.7,77.9-63.7-32.5-105.9-129.1,2.5-80.6,47.4,1.8,1.6-.9,4.2-2.6,2.6-46.8-43.3,30.3-138.3,72.6-80.9,19.4,26.3,23.2,52.5,2.8,78.3Z"/><path class="uuid-f4afd766-0f9f-4593-a51e-0527e3e839fd" d="m316.6,190.9c-7.1-20.9-75.4-109.2-67.6-95.4,15.3,27.2,43.7,61.5,56.1,81.2,11.1,17.7,7.5,19.7,11.3,26.5,1.3,2.3,4-1.2.2-12.3Z"/><path class="uuid-c652e379-8a5a-4410-81d5-4ef64e03ca09" d="m290.9,324.3c-10.2,0-19.9-2.6-28.2-7.5-1.7-1-3.4-2.2-5-3.4-3.5-.6-6.9-1.4-10.4-2.3-20.4-5.4-50-18.4-74.6-49.4l9.7-7.7c20,25.2,43.5,37.4,61.5,43.2-1.8-3.2-3.3-6.7-4.5-10.4-6.9-20.9-2.3-41.7,12.6-57,15.2-15.5,38.3-22.1,57.6-16.3,19.1,5.7,32.1,22.2,36.7,46.2.5,2.5.7,4.9.8,7.3,1.1-3.7,1.8-7.6,2.3-11.7,7.1-59.9-6-126.9-14.9-157l11.9-3.5c9.1,31,22.6,100,15.3,161.9-5,42.3-37,64.5-64.6,67.2-2.1.2-4.2.3-6.3.3Zm-27.8-22.6c18.5,2.8,36.6,1,50.2-5.2,9.4-4.3,24.7-14.5,20.9-34.4-4.7-24.7-17.9-33.6-28.1-36.7-15-4.5-33.1.7-45.1,13.1-6.8,7-17.1,22-9.7,44.4,2.7,8.2,6.9,14.3,11.9,18.8Z"/><path class="uuid-f4afd766-0f9f-4593-a51e-0527e3e839fd" d="m347,120c15.6,134.8,15.4,161.9-30.2,187.8-8.6,4.9-18,9.4-28,10.2-36.8,3.1-59.4-50-39.1-77.7,18.2-24.9,68.8-29.5,84.1.6,16.8,33.1-12.7,69.3-54.4,63.2-2.7-.4-3.9,3.8-1.2,4.2,35.4,5.5,67.4-20.9,62.8-54.1-5.3-38.4-49.1-45.3-78.6-28.8-35.2,19.7-26.8,69,.8,88.4,29.1,20.5,80.6-10.6,91.2-43.9,13.5-42.6-9.4-167.5-7.4-150.1Z"/><path class="uuid-f4afd766-0f9f-4593-a51e-0527e3e839fd" d="m243.9,301.9c-5.8-5.2-25.3-3.2-59.7-36.4-4.9-4.8,9.5,19,43.1,33.4,4.6,2,11.1,5.6,16.1,4.7.7-.1,1-1.2.4-1.7Z"/><path class="uuid-7df376d7-f0f5-4143-8953-bcd8be4209af" d="m344.5,269.1c-11.1,24.8-39.3,40.6-53.5,41.7-9.2.7-16.5-4.8-24.5-8-1.5-.6-2.2,1.6-1,2.4,17.8,11.9,31.4,8.5,48.8-1.5,28.2-16.1,31.1-36.7,30.2-34.6Z"/><path class="uuid-7df376d7-f0f5-4143-8953-bcd8be4209af" d="m251.7,309.4c-8.5-8.8-6-8.2-8.6-10.4-1.1-.9-2.1,1.3,2.6,6.4,3.2,3.4,6.5,4.5,6,4.1Z"/><path class="uuid-7df376d7-f0f5-4143-8953-bcd8be4209af" d="m349,114.9c-1.2,0-6,1.5-7.1,2.7-2.2,2.4,5.9.9,8-.7.9-.7,0-2-.9-2.1Z"/><rect class="uuid-d56a87a3-b978-418c-b587-fa0a978da767" x="183.6" y=".9" width="16.8" height="23.9" rx="4.4" ry="4.4" transform="translate(27.8 113.2) rotate(-35.3)"/><rect class="uuid-d56a87a3-b978-418c-b587-fa0a978da767" x="237.8" y="77.6" width="16.8" height="23.9" rx="4.4" ry="4.4" transform="translate(-6.5 158.6) rotate(-35.3)"/><ellipse class="uuid-c3d201da-dc40-4224-b860-80c4c147f8f8" cx="218.8" cy="51.3" rx="31.8" ry="47.2" transform="translate(10.5 135.8) rotate(-35.3)"/><path class="uuid-d56a87a3-b978-418c-b587-fa0a978da767" d="m246.1,89.9c-10.3,7.3-25.6,4.7-39-5.4,12,7,24.7,8.2,33.7,1.8,14.3-10.2,13.8-35.6-1.3-56.9-4.2-5.9-9.1-10.9-14.3-14.8,7.1,4.2,14,10.4,19.6,18.3,15.1,21.3,15.6,46.8,1.3,56.9Z"/><path class="uuid-48bfccac-9471-46e8-8e17-0220adac343f" d="m229.7,86.7c-24.7-5.7-40.2-36-39.5-53.7.4-9.6,5.3-11.6,7.8-15.6,3.4-5.2-11.5-7.7-14.7,10.5-3.8,21.3,17.2,62.2,46.4,59,.1,0,.2-.2,0-.2Z"/><path class="uuid-f4afd766-0f9f-4593-a51e-0527e3e839fd" d="m189.8,2.4c-2.1.3-7.5,4-7.9,5.4-.9,2.8,4.5,8.5,4.2,7.1-.7-4.3-2.8-5.4-.9-7.1,1.8-1.6,4.2-1.9,5.7-4.1.5-.7-.3-1.5-1-1.3Z"/><path class="uuid-f4afd766-0f9f-4593-a51e-0527e3e839fd" d="m249.5,87.3c-1,.5-6.8,4.8-7.9,5.9-.5.5,1.9.1,4.9-1.9,5.3-3.5,3.7-4.4,2.9-4Z"/><path class="uuid-f4afd766-0f9f-4593-a51e-0527e3e839fd" d="m254.5,93c-3.9.2-6.4,4.1-7.5,3.9-.7-.1-4.1-2.9-3.3-1.6,5.8,10.3,15.8-2.6,10.8-2.3Z"/><polygon class="uuid-b8990f2a-7dd5-4150-bae8-44b11fea8806" points="361.1 87.7 317.4 99.1 318.7 69 345.3 62.1 361.1 87.7"/><rect class="uuid-ef7a75be-cf1e-46f8-9ff5-7b494056ff18" x="316.1" y="83.9" width="49.6" height="31.9" rx="4.4" ry="4.4" transform="translate(-14.2 89.2) rotate(-14.6)"/><circle class="uuid-ef7a75be-cf1e-46f8-9ff5-7b494056ff18" cx="325.4" cy="40.3" r="39" transform="translate(57.6 229.5) rotate(-42.3)"/><circle class="uuid-488e6712-7443-40fd-ab87-6c4a544c34ad" cx="325.4" cy="40.3" r="32.6" transform="translate(66.9 241.9) rotate(-45)"/><path class="uuid-54d95e2d-0ecb-4a0d-90de-87719e54b202" d="m333.6,71.8c-12.7,3.3-25.6-1.3-33.4-10.8,7.8,6.4,18.4,9.1,29,6.4,17.4-4.5,27.9-22.3,23.3-39.8-1.2-4.7-3.5-9-6.4-12.5,5.1,4.2,9,10,10.8,17,4.5,17.4-5.9,35.2-23.3,39.8Z"/><path class="uuid-c3d201da-dc40-4224-b860-80c4c147f8f8" d="m324.7,11.8l.2,5.8c-6.9-.3-13.8,2.2-18.9,7.6-9.1,9.6-8.8,24.7.5,34l-1.2,1.2c-10.9-10.9-11.2-28.5-.5-39.7,5.4-5.7,12.7-8.7,20-8.9Z"/><path class="uuid-2d8a2769-eb4a-4ccc-a28a-d475c32da091" d="m344.9,19.5l-4.5,4.7c-4.4-4.2-9.9-6.4-15.5-6.6l-.2-5.8c7.2-.2,14.5,2.4,20.2,7.7Z"/><g class="uuid-ffa7ee52-795b-4e29-91a0-12d801809e63"><polygon class="uuid-ef7a75be-cf1e-46f8-9ff5-7b494056ff18" points="327.6 50.4 321.1 49.7 328.1 14.9 327.6 50.4"/><path class="uuid-ef7a75be-cf1e-46f8-9ff5-7b494056ff18" d="m330,40.6c-.3,2.5-2.5,4.3-5.1,4.1-2.5-.3-4.3-2.5-4.1-5.1s2.5-4.3,5.1-4.1c2.5.3,4.3,2.5,4.1,5.1Z"/><path class="uuid-488e6712-7443-40fd-ab87-6c4a544c34ad" d="m327.5,40.4c-.1,1.1-1.1,2-2.3,1.8-1.1-.1-2-1.1-1.8-2.3.1-1.1,1.1-2,2.3-1.8,1.1.1,2,1.1,1.8,2.3Z"/></g><path class="uuid-f4afd766-0f9f-4593-a51e-0527e3e839fd" d="m332.6,5c-6.1-3.7-19.6-.1-25.9,3.6-27.8,16.1-22,57.8,4.6,65.2,2.6.7-28.3-14-19.3-43.2,8.5-27.6,38.1-23.5,40.5-23.9.8-.1.8-1.3.2-1.7Z"/><path class="uuid-f4afd766-0f9f-4593-a51e-0527e3e839fd" d="m359,26.1c1.9,12.6,7.6,27-17.2,46-1.4,1.1,11.7-2.8,18.6-18.4,8.4-19.2-2.3-33.6-1.3-27.5Z"/><path class="uuid-f4afd766-0f9f-4593-a51e-0527e3e839fd" d="m358.5,81.8c-6.1,0-12.8,2.8-18.7,4.3-16.7,4.3-23.4,3.2-21.7,12.7,1,5.6,2.2,12.4,5.6,17,1.4,1.8-2-12.9-2-13-.6-3-2.6-7.5,1-9.6,2-1.1,31.5-7,36.3-9.6.9-.5.5-1.9-.5-1.9Z"/><path class="uuid-f4afd766-0f9f-4593-a51e-0527e3e839fd" d="m363.5,99.9c-.5-1-2.1-.5-2.1.6.1,3.5,1.2,4.6-.8,4.9-2.1,1.3-8.7,1.7-20.8,8.1-.6.3.5-.3,21.1-5.6,4-1,4.2-4.5,2.5-8Z"/><path class="uuid-f4afd766-0f9f-4593-a51e-0527e3e839fd" d="m348.4,90.5c-4.1,3.1-4.7,7.1-15.9,15.4-1.3,1,4.7-1.3,9.8-5.6,8.5-7.1,7.6-10.9,6.1-9.8Z"/><path class="uuid-f4afd766-0f9f-4593-a51e-0527e3e839fd" d="m352.3,94.7c-1.5,1.3-2.7,3.1-4.1,4.5-1.3,1.3-2.9,2.4-4,3.9-.6.8,7.3-1.3,9.2-7.7.2-.7-.7-1.1-1.1-.7Z"/><path class="uuid-f4afd766-0f9f-4593-a51e-0527e3e839fd" d="m347.4,78.2c-3.5.1-30.2,5.8-24.5,5.3,1.8-.2,21-2.7,24.6-3.9.8-.2.7-1.5-.2-1.4Z"/><path class="uuid-f4afd766-0f9f-4593-a51e-0527e3e839fd" d="m326.4,28.1c0-.8-1.1,6.1-1.1,6.2,0,.7,1.6.9,1.1-6.2Z"/><path class="uuid-f4afd766-0f9f-4593-a51e-0527e3e839fd" d="m323.9,47.4c2-7.8-2.6,1.1-1,1.5,1.5.3,2.7.6,3.1-.4.2-.6-.2-1.4-2.1-1.1Z"/><path class="uuid-c3d201da-dc40-4224-b860-80c4c147f8f8" d="m267.2,200.9l-126.1,89.2c-20,14.1-47.7,9.4-61.8-10.6L8.1,178.9c-14.1-20-9.4-47.7,10.6-61.8L144.8,27.9c2.9-2,6.8-1.3,8.9,1.5l115.1,162.7c2,2.9,1.3,6.8-1.5,8.9Z"/><path class="uuid-d56a87a3-b978-418c-b587-fa0a978da767" d="m268.7,192.1l-3.4-4.8-130.2,92.1c-16,11.3-38.2,7.5-49.5-8.5L18.3,175.9c-11.3-16-7.5-38.2,8.5-49.5L157.1,34.2l-3.4-4.8c-2-2.9-6-3.6-8.9-1.5L18.7,117.1c-20,14.1-24.7,41.8-10.6,61.8l71.2,100.7c14.1,20,41.8,24.7,61.8,10.6l126.1-89.2c2.9-2,3.6-6,1.5-8.9Z"/><path class="uuid-f4afd766-0f9f-4593-a51e-0527e3e839fd" d="m147.8,31.8c-8.5,2.9-108.5,73.1-108.9,73.5-47.1,34.7-30.2,65.8-31,61.5C0,121.9,48.8,101.8,128.1,49.6c7.1-4.7,15.4-8.8,21.1-15.3.9-1.1,0-3.1-1.5-2.6Z"/><path class="uuid-f4afd766-0f9f-4593-a51e-0527e3e839fd" d="m261.6,196.6c-18.2,7.1-112.5,79.5-124.1,85.9-28.3,15.6-45.6,1.4-45.3,1.6,31.6,25.6,70.4-17.9,131.1-57.4,33.3-21.6,35.3-23,39.8-27.5,1-1,0-3.2-1.5-2.6Z"/><path class="uuid-f4afd766-0f9f-4593-a51e-0527e3e839fd" d="m46.7,230c7.3,11,14.2,23,23.2,32.7,20.3,22-91.4-135-23.2-32.7Z"/><path class="uuid-f4afd766-0f9f-4593-a51e-0527e3e839fd" d="m62.6,111.2c-12.8,11.3-23.1,36.1-27,51.2-3.9,15-2,20-1.9,19,3.3-31.9,28-64.5,30.5-68.9.6-1.1-.8-2.1-1.7-1.3Z"/><path class="uuid-f4afd766-0f9f-4593-a51e-0527e3e839fd" d="m83.4,106.7c-27.3,27.7-35.5,83.6-32.8,76.4,4.2-10.8,4.1-18.8,13.9-39.7,5.9-12.5,13.6-23.6,20.5-35.4.6-1.1-.8-2.2-1.7-1.3Z"/><path class="uuid-f4afd766-0f9f-4593-a51e-0527e3e839fd" d="m216,153.6c-4.7,8.6-6,18.1-14.6,39.3-6.3,15.6-21.8,43.6-18.8,40,14.9-17.3,35.8-61.2,36.5-78.4,0-1.6-2.3-2.3-3.1-.8Z"/><path class="uuid-f4afd766-0f9f-4593-a51e-0527e3e839fd" d="m227.9,175.8c-1.8,3.1-13.9,31.4-14.9,34.5-.3,1.1,3.1-1.9,10.4-15.6,11.6-21.9,5.5-20.6,4.5-18.9Z"/><g class="uuid-fa05bc71-82c9-4db2-8bad-49d20e6a8cbe"><path class="uuid-2d8a2769-eb4a-4ccc-a28a-d475c32da091" d="m118.3,135.2s5.8-31.4,35.4-37.7c24.6-5.2,46.2,13.4,51.7,39.3,6.3,30-9.2,70.3-62.7,113.8-66.5-18.1-97.1-48.7-103.4-78.6-5.5-25.9,6.7-51.7,31.3-56.9,29.6-6.3,47.6,20.1,47.6,20.1Z"/><path class="uuid-8c3c3d8f-63f2-4ba9-a3cf-9bfdf4dbd694" d="m205.4,136.9c6.3,30-9.2,70.3-62.7,113.8,18.9-23.9,61.8-65.9,49.9-118.1-3.6-15.7-12.7-28.8-25-35.5,18.5,2.8,33.4,18.9,37.8,39.8Z"/><path class="uuid-48bfccac-9471-46e8-8e17-0220adac343f" d="m112,133.8c-12.6-16.1-40-16.9-54.4-2.9-16.1,15.6-23,51.6,17.4,77.3,3.3,2.1-28.9-28.9-17.2-58.6,10.4-26.5,37.2-14.6,51.6-11.8,2.4.5,4.3-2,2.6-4.1Z"/><path class="uuid-48bfccac-9471-46e8-8e17-0220adac343f" d="m166.5,102.7c-10.8-4.8-44.6,10.8-36.4,33.8,1.2,3.2.3-8.5,13.8-17.8,8.2-5.7,20.6-7.7,23.8-10.6,1.9-1.7,1-4.4-1.1-5.4Z"/><path class="uuid-48bfccac-9471-46e8-8e17-0220adac343f" d="m169.2,207.2c-5.4,4.7-27.1,31.3-30.7,33.1-2.9,1.5-6.4-2.2-21.3-8.9-1.8-.8-25.4-11.4-22.5-9.2,9.3,6.7,25.3,16.2,35.4,21.8,9.7,5.4,9.5,4,18.6-4.9,8.1-7.9,19.5-19.5,24-29.6.9-2.1-2-3.5-3.5-2.2Z"/><polyline class="uuid-29e8a30a-1f7a-4a8e-8d4d-122e9b0a4fc6" points="59.3 187.6 79.2 183.4 92.5 208 95.8 151.8 121.5 216.4 125.5 156.7 134.2 171 149.6 167.8 153.6 139.6 174.1 173.9 176.2 161.4 193.2 157.8"/></g></g></g></g></svg>