<?xml version="1.0" encoding="UTF-8"?><svg id="uuid-74df485e-49bd-4fab-b8b2-fa04f3610424" xmlns="http://www.w3.org/2000/svg" viewBox="0 0 122.1 74.9"><defs><style>.uuid-a5156449-c194-4882-b645-129440a322f8{fill:#5c5f93;}.uuid-69549f49-a1f8-4d42-b06c-3249d260fd06{fill:#e2e2e2;}.uuid-7bbbc2ad-ce41-447b-94f4-a04c5307d422{fill:#d7dcff;}.uuid-3fd97698-05ab-4e78-b663-b4683e82252d{fill:#8083b7;}.uuid-1c870149-094e-4631-897a-ea42bf18694f{fill:#6f70a8;}.uuid-df05956b-cf3d-4e9a-bcd9-fbd0e27e6973{fill:#979acc;}.uuid-1f40bce6-85a8-4563-96dd-735a0c04fe4f{fill:#9397ce;}.uuid-d99c2be6-ed89-4ae0-9dd3-7c35adb6c57e{fill:#a4a6dd;}.uuid-b9113b44-ab49-41df-8184-d95b7dc77594{fill:#464b77;}.uuid-13a140cb-011f-496a-bf40-158c51ef3b4e{fill:#c1c5f4;}</style></defs><g id="uuid-f6cde4ba-d317-4cd4-834b-cd27de1b743e"><rect class="uuid-a5156449-c194-4882-b645-129440a322f8" x="11.8" y="54.9" width="3.9" height="3.2"/><path class="uuid-a5156449-c194-4882-b645-129440a322f8" d="m122.1,20.5v-7.8s-3.1,2-3.1,2c-.8-.7-1.7-1.3-2.7-2l-3.4-1.9c-7.1-4.1-17.8-4.5-23.9-1L15.9,52c-6.1,3.5-5.3,9.7,1.7,13.8l3.4,1.9c7.1,4.1,17.8,4.5,23.9,1L118,26.6c2.8-1.6,4.1-3.8,4.1-6.1h0Z"/><path class="uuid-1c870149-094e-4631-897a-ea42bf18694f" d="m116.2,5.3l-3.4-1.9c-7.1-4.1-17.8-4.5-23.9-1L18.7,42.9l29,16.8L118,19.1c6.1-3.5,5.3-9.7-1.7-13.8Z"/><path class="uuid-3fd97698-05ab-4e78-b663-b4683e82252d" d="m18.7,42.9s-5.6,6.3-6.7,10.9c-.6,2.6.7,5.2,3.2,7.5,1.9,0,3.7.4,5.1,1.2,1.5.9,2.2,2.1,2,3.3,5,2.1,10.7,3,14.9,1.6,5.3-1.8,10.6-7.8,10.6-7.8l-29-16.8Z"/><path class="uuid-1c870149-094e-4631-897a-ea42bf18694f" d="m20.2,62.5c-1.4-.8-3.2-1.2-5.1-1.2v.9c1.6,1.4,4.7,3.5,7,4.5,0-.3,0-.7.1-.8.1-1.2-.5-2.5-2-3.3Z"/><path class="uuid-df05956b-cf3d-4e9a-bcd9-fbd0e27e6973" d="m15.1,62.3c.3.3.6.5.9.7l1-.6c-.6,0-1.2-.2-1.9-.2Z"/><path class="uuid-df05956b-cf3d-4e9a-bcd9-fbd0e27e6973" d="m21.1,66.3c.3.2.6.3,1,.5,0-.3,0-.7,0-1l-.9.5Z"/><path class="uuid-1c870149-094e-4631-897a-ea42bf18694f" d="m21.6,61.8h0c-3.1-1.8-3.8-5.9-1.5-8.6l5.4-6.3,11.2,6.5-5.8,6.8c-2.3,2.7-6.2,3.4-9.3,1.6Z"/><path class="uuid-a5156449-c194-4882-b645-129440a322f8" d="m22.1,61.4h0c-2.8-1.6-3.4-5.3-1.3-7.8l5.2-6.1,9.9,5.4.2.5-5.6,6.6c-2.1,2.4-5.6,3.1-8.4,1.4Z"/><path class="uuid-13a140cb-011f-496a-bf40-158c51ef3b4e" d="m21.9,60.9h0c-2.8-1.6-3.4-5.3-1.3-7.8l5.2-6.1,10.1,5.9-5.6,6.6c-2.1,2.4-5.6,3.1-8.4,1.4Z"/><polygon class="uuid-1c870149-094e-4631-897a-ea42bf18694f" points="23.8 51.7 22.6 57.9 30.7 55.7 23.8 51.7"/><polygon class="uuid-d99c2be6-ed89-4ae0-9dd3-7c35adb6c57e" points=".8 71.5 0 73.3 2.7 74.9 6.2 74.6 8.2 73.4 2.8 70.3 .8 71.5"/><polygon class="uuid-1c870149-094e-4631-897a-ea42bf18694f" points="8.2 73.4 12.3 71 7 67.9 2.8 70.3 8.2 73.4"/><path class="uuid-69549f49-a1f8-4d42-b06c-3249d260fd06" d="m20.2,63.1c-.9-.5-2-.8-3.2-1l-1,.6-9,5.2,5.4,3.1,8.8-5.1.9-.5c-.2-.9-.8-1.6-1.9-2.3Z"/><path class="uuid-a5156449-c194-4882-b645-129440a322f8" d="m47.6,53.8c-1.4,0-2.8-.4-3.9-1l-14-8.1c-1.3-.7-2-1.8-2-2.8,0-1,.6-1.8,1.5-2.4l53.3-30.7c.8-.5,1.9-.7,3.1-.7s2.8.4,3.9,1l14,8.1c1.3.7,2,1.8,2,2.8s-.6,1.8-1.5,2.4l-53.3,30.7c-.8.5-1.9.7-3.1.7Z"/><path class="uuid-3fd97698-05ab-4e78-b663-b4683e82252d" d="m29.8,42.1l53.3-30.7c1.5-.9,4.2-.8,5.9.2l14,8.1c.5.3.9.7,1.2,1.1.6-.9.2-2-1.2-2.7l-14-8.1c-1.7-1-4.4-1.1-5.9-.2l-53.3,30.7c-1,.6-1.2,1.5-.7,2.3.2-.2.4-.5.7-.7Z"/><path class="uuid-d99c2be6-ed89-4ae0-9dd3-7c35adb6c57e" d="m30.3,43.8l14,8.1c1.7,1,4.4,1.1,5.9.2l53.3-30.7c.3-.2.6-.4.7-.7-.2-.4-.6-.7-1.2-1.1l-14-8.1c-1.7-1-4.4-1.1-5.9-.2l-53.3,30.7c-.3.2-.6.4-.7.7.2.4.6.7,1.2,1.1Z"/><path class="uuid-3fd97698-05ab-4e78-b663-b4683e82252d" d="m110.3,5.4c-5-2.4-13.1-2-18.5,1.1l8.3,4.8,10.2-5.9Z"/><path class="uuid-3fd97698-05ab-4e78-b663-b4683e82252d" d="m112.3,6.5c4.2,2.9,3.5,7.5-1.9,10.7l-8.3-4.8,10.2-5.9Z"/><polygon class="uuid-3fd97698-05ab-4e78-b663-b4683e82252d" points="115 9.5 115 11 113.9 11.1 113.6 9.9 115 9.5"/><path class="uuid-d99c2be6-ed89-4ae0-9dd3-7c35adb6c57e" d="m110.3,4c-5-2.4-13.1-2-18.5,1.1l8.3,4.8,10.2-5.9Z"/><path class="uuid-d99c2be6-ed89-4ae0-9dd3-7c35adb6c57e" d="m112.3,5.1c4.2,2.9,3.5,7.5-1.9,10.7l-8.3-4.8,10.2-5.9Z"/><polygon class="uuid-1f40bce6-85a8-4563-96dd-735a0c04fe4f" points="91.8 5.1 91.8 6.5 100.1 11.3 100.1 9.9 91.8 5.1"/><polygon class="uuid-3fd97698-05ab-4e78-b663-b4683e82252d" points="110.3 4 110.3 5.4 100.1 11.3 100.1 9.9 110.3 4"/><polygon class="uuid-1f40bce6-85a8-4563-96dd-735a0c04fe4f" points="102 11 102 12.4 110.3 17.2 110.3 15.8 102 11"/><polygon class="uuid-7bbbc2ad-ce41-447b-94f4-a04c5307d422" points="107.3 4.3 99.9 4 100.4 8.3 107.3 4.3"/><polygon class="uuid-7bbbc2ad-ce41-447b-94f4-a04c5307d422" points="112 7 112.4 11.3 105.1 11 112 7"/><path class="uuid-b9113b44-ab49-41df-8184-d95b7dc77594" d="m77.2,32.1l-2.8-1.6.3,1.2-2-.2,2.8,1.6-.8.5-4.3-2.5.8-.5,2,.2-.3-1.2.9-.5,4.3,2.5-.9.5Z"/><path class="uuid-b9113b44-ab49-41df-8184-d95b7dc77594" d="m81.9,29.4l-2.9,1.6h-.9c0,0-3.3-2-3.3-2v-.5c0,0,2.8-1.6,2.8-1.6l1,.6-2.4,1.4,2.3,1.4,1.6-.9-.7-.4-1.1.6-1-.6,1.9-1.1,2.6,1.5Z"/><path class="uuid-b9113b44-ab49-41df-8184-d95b7dc77594" d="m81.3,24.8l1.9,3.9-1,.6-1.9-3.8,1-.6Z"/><path class="uuid-b9113b44-ab49-41df-8184-d95b7dc77594" d="m88.9,24.7v.6s-1.4.9-1.4.9l-1-.6,1-.6-2.4-1.4-1.6,1,3.3,1.9-.9.5-4.3-2.5,3-1.7h1s3.3,1.9,3.3,1.9Z"/><path class="uuid-b9113b44-ab49-41df-8184-d95b7dc77594" d="m92.5,23.2l-2.2,1.2h-.9s-3.8-2.2-3.8-2.2l.8-.5,3.3,1.9,1.7-1,1,.6Z"/><path class="uuid-b9113b44-ab49-41df-8184-d95b7dc77594" d="m53.4,45.8l-8.7-5-1.1.7-1.3-.8-.2-1.4,2.2-1.3,11.3,6.5-2.2,1.3Z"/><path class="uuid-b9113b44-ab49-41df-8184-d95b7dc77594" d="m56.5,41l4.6-2.7-6.1-3.5-4.5,2.6,8.7,5-1.1.6h-2.4c0-.1-8.7-5.1-8.7-5.1l-.2-1.4,6.6-3.8h2.4c0,.1,10,5.9,10,5.9l-6.8,3.9-2.6-1.5Z"/><path class="uuid-b9113b44-ab49-41df-8184-d95b7dc77594" d="m68.7,36.9l-8.7-5-1.1.7-1.3-.8-.2-1.4,2.2-1.3,11.3,6.5-2.2,1.3Z"/></g></svg>