<?xml version="1.0" encoding="UTF-8"?><svg id="uuid-d0bfa0be-22a2-421b-9bae-b1f9febd44df" xmlns="http://www.w3.org/2000/svg" xmlns:xlink="http://www.w3.org/1999/xlink" viewBox="0 0 2752.9 2753.4"><defs><style>.uuid-2fee8863-7851-45dc-ab8c-3746d4eb1435{fill:url(#uuid-6ec521f4-4511-4f2e-bcc9-4ac15dacbb77);}.uuid-3cc0182a-8fb8-41c7-8f3e-4fce79b64a9a,.uuid-cc92772f-296f-4223-94d8-b5619d66c1e8,.uuid-8a5ddce6-5b4a-4c06-8b95-01e9331b7287,.uuid-cace61cb-0d8c-489f-8499-aad7a27e1dff{fill:#fff;}.uuid-8cc80873-170e-4d4a-8b1e-621d1d811c3c{fill:url(#uuid-e1c3a475-db9e-46f5-9838-6d4050befcc5);}.uuid-5dafe160-e7e5-488b-b693-c1452a8ed097{fill:url(#uuid-c162184e-10fe-4d81-b179-cf259e78df1e);}.uuid-3af8e1ad-927c-48f6-b9ad-a7d3f71822a1{fill:url(#uuid-20160e05-84dc-402f-8b89-4d4172a9168d);}.uuid-cc92772f-296f-4223-94d8-b5619d66c1e8{opacity:.4;}.uuid-0edd8be9-4588-4748-9cee-9cda0a383232,.uuid-6b2dd924-57e2-431f-8adc-c44db45f9b1b,.uuid-cace61cb-0d8c-489f-8499-aad7a27e1dff{opacity:.6;}.uuid-d12b6e58-7ed1-4307-bb24-4915ced69ad9{fill:url(#uuid-3bceb751-b105-4837-80a6-246f2f9524c8);}.uuid-28bea317-4c52-4105-8dff-6519d4ca9b4b{fill:url(#uuid-d37989f1-7bb9-4914-a8b3-e6383fa0f061);}.uuid-30ad5455-d4eb-4042-89d8-1aaaf9ef0dce{fill:url(#uuid-1ec099f1-4f26-47d2-b489-ed00e2010566);}.uuid-c234115c-51e8-4cff-8664-92ab8fa7ba0f{fill:url(#uuid-72fefc45-2099-4cc2-a907-6e9859d190af);}.uuid-e5b8df6e-43e9-452d-97af-ef38dc0f758c{fill:url(#uuid-b88c8472-4ebc-4d7d-a8d3-65fae6090e65);}.uuid-fc7c229a-8d27-44ef-bb0f-7860c46b9b7e{fill:url(#uuid-650a73e8-c943-4910-bac6-1405906952e0);}.uuid-24de602c-ae04-4aff-b155-89ab4714563c{fill:url(#uuid-8b7783e0-5962-4927-99a3-f2ac65a4b562);}.uuid-a4643115-3fa6-4bf5-a383-3d9036da35c4,.uuid-6b2dd924-57e2-431f-8adc-c44db45f9b1b{fill:#91b3fa;}.uuid-ddad94ed-7e96-4e7e-a758-ae0ad29b9509{fill:url(#uuid-77625abb-289a-484d-99f4-ee5648a227ce);}.uuid-256276fa-dbbe-4e4d-82e3-d1cc690cc4e7{fill:#7d97f4;}.uuid-cb4b2b4b-6bee-4c18-9328-8fba86c1c5b9{fill:url(#uuid-2f8b3c79-75a9-4c80-bc5b-b870c0dee933);}.uuid-0c17ca3c-020d-48a7-b042-60c587015a5f{fill:url(#uuid-4cf524b8-0d6d-4d0f-a5fd-e3e57c055a81);}.uuid-ee404475-e855-46d7-b5d7-adfdc98b3a4c{fill:url(#uuid-0db7a943-938d-46c6-90c0-a8f83be5c43b);}.uuid-d3c24fd8-81ca-4f6e-a65e-4ffe67487417{fill:url(#uuid-1b7415f0-eea2-4701-ac8e-679a877a9e93);}.uuid-8a5ddce6-5b4a-4c06-8b95-01e9331b7287{opacity:.3;}.uuid-31d852d7-3a7c-4131-89d9-949487cec9b3{fill:url(#uuid-9b48b3bb-e97f-49c0-9812-d98b52e61221);}.uuid-f327a2d9-c87f-45dd-8924-b7195d4d69dd{fill:url(#uuid-6b92dd23-046c-46f7-85a0-851bd5c6bb8e);}.uuid-9db14eb8-a3f0-4389-9ffc-9417ac8fd869{fill:url(#uuid-9b2bac12-fe8e-45c7-a88b-6de1125e0722);}.uuid-d269d03d-7439-4b52-97a8-45d0c924ca2c{fill:#bdd0fb;}.uuid-a353492a-87d1-45fb-ba23-115d008323fe{fill:url(#uuid-25b4ccb5-3d5b-4496-8256-cccdf9e3474d);}.uuid-ac60b706-7171-402b-9ab6-9b8986d2ae68{fill:url(#uuid-b1d588d8-903c-499a-b7e5-01e2a079157a);}.uuid-1529b5b9-9d0b-4149-b8d4-2bde21d669dd{fill:url(#uuid-c3b4c6f8-3af9-4690-92fb-d3f19013e0aa);}.uuid-67799a70-e63f-45f5-b35b-37c2fdb75c45{fill:url(#uuid-13c30e34-b5fa-4b37-9392-ce04965f974a);}.uuid-35d371dc-59b0-467e-b2f3-ba7edec9e178{fill:url(#uuid-cfff3e85-c293-4d48-904d-247e2dc5ec9d);}</style><linearGradient id="uuid-9b48b3bb-e97f-49c0-9812-d98b52e61221" x1="3070.6" y1="3536.9" x2="641.4" y2="520" gradientUnits="userSpaceOnUse"><stop offset="0" stop-color="#dae3fe"/><stop offset="1" stop-color="#e9effd"/></linearGradient><linearGradient id="uuid-c162184e-10fe-4d81-b179-cf259e78df1e" x1="934.3" y1="2760.1" x2="2274.9" y2="450.4" gradientUnits="userSpaceOnUse"><stop offset="0" stop-color="#09005d"/><stop offset="1" stop-color="#1a0f91"/></linearGradient><linearGradient id="uuid-6b92dd23-046c-46f7-85a0-851bd5c6bb8e" x1="823.7" y1="1474.6" x2="2487.9" y2="1474.6" gradientUnits="userSpaceOnUse"><stop offset="0" stop-color="#4f52ff"/><stop offset="1" stop-color="#4042e2"/></linearGradient><linearGradient id="uuid-77625abb-289a-484d-99f4-ee5648a227ce" x1="1854.9" y1="-176.1" x2="1186.2" y2="703.6" xlink:href="#uuid-c162184e-10fe-4d81-b179-cf259e78df1e"/><linearGradient id="uuid-c3b4c6f8-3af9-4690-92fb-d3f19013e0aa" x1="2740.4" y1="-1710.8" x2="2103.2" y2="-575.8" xlink:href="#uuid-c162184e-10fe-4d81-b179-cf259e78df1e"/><linearGradient id="uuid-cfff3e85-c293-4d48-904d-247e2dc5ec9d" x1="-6850.3" y1="912.4" x2="-6738.3" y2="1193.6" gradientTransform="translate(-6285.9) rotate(-180) scale(1 -1)" xlink:href="#uuid-c162184e-10fe-4d81-b179-cf259e78df1e"/><linearGradient id="uuid-72fefc45-2099-4cc2-a907-6e9859d190af" x1="-7079.8" y1="-142.7" x2="-6872.8" y2="328.4" gradientTransform="translate(-6123.3 -224.8) rotate(-167.8) scale(1 -1)" gradientUnits="userSpaceOnUse"><stop offset="0" stop-color="#febbba"/><stop offset="1" stop-color="#ff928e"/></linearGradient><linearGradient id="uuid-8b7783e0-5962-4927-99a3-f2ac65a4b562" x1="-6440.6" y1="2712.3" x2="-6345.6" y2="2712.3" gradientTransform="translate(-6285.9) rotate(-180) scale(1 -1)" xlink:href="#uuid-c162184e-10fe-4d81-b179-cf259e78df1e"/><linearGradient id="uuid-3bceb751-b105-4837-80a6-246f2f9524c8" x1="-6842.2" y1="3087.1" x2="-6705.4" y2="1488.7" gradientTransform="translate(-6285.9) rotate(-180) scale(1 -1)" xlink:href="#uuid-72fefc45-2099-4cc2-a907-6e9859d190af"/><linearGradient id="uuid-1ec099f1-4f26-47d2-b489-ed00e2010566" x1="-6882.2" y1="2695" x2="-6728.4" y2="2695" gradientTransform="translate(-6285.9) rotate(-180) scale(1 -1)" xlink:href="#uuid-c162184e-10fe-4d81-b179-cf259e78df1e"/><linearGradient id="uuid-650a73e8-c943-4910-bac6-1405906952e0" x1="-6567.1" y1="3110.9" x2="-6430.3" y2="1512" gradientTransform="translate(-6285.9) rotate(-180) scale(1 -1)" xlink:href="#uuid-72fefc45-2099-4cc2-a907-6e9859d190af"/><linearGradient id="uuid-2f8b3c79-75a9-4c80-bc5b-b870c0dee933" x1="1679.8" y1="104.6" x2="863.5" y2="1120.1" gradientUnits="userSpaceOnUse"><stop offset="0" stop-color="#ff928e"/><stop offset="1" stop-color="#fe7062"/></linearGradient><linearGradient id="uuid-d37989f1-7bb9-4914-a8b3-e6383fa0f061" x1="-2906.8" y1="1585.8" x2="-4717.8" y2="2944" gradientTransform="translate(-2937.4) rotate(-180) scale(1 -1)" xlink:href="#uuid-c162184e-10fe-4d81-b179-cf259e78df1e"/><linearGradient id="uuid-9b2bac12-fe8e-45c7-a88b-6de1125e0722" x1="-6857.2" y1="1511.5" x2="-6831.5" y2="1323.6" gradientTransform="translate(-6285.9) rotate(-180) scale(1 -1)" xlink:href="#uuid-72fefc45-2099-4cc2-a907-6e9859d190af"/><linearGradient id="uuid-b88c8472-4ebc-4d7d-a8d3-65fae6090e65" x1="-6751.3" y1="1603.1" x2="-6580.7" y2="1603.1" gradientTransform="translate(-6285.9) rotate(-180) scale(1 -1)" xlink:href="#uuid-72fefc45-2099-4cc2-a907-6e9859d190af"/><linearGradient id="uuid-6ec521f4-4511-4f2e-bcc9-4ac15dacbb77" x1="-6916" y1="145.3" x2="-6691.8" y2="-253.6" gradientTransform="translate(-6138.6 -201.2) rotate(-168.8) scale(1 -1)" xlink:href="#uuid-72fefc45-2099-4cc2-a907-6e9859d190af"/><linearGradient id="uuid-0db7a943-938d-46c6-90c0-a8f83be5c43b" x1="-6867.8" y1="-202.1" x2="-6755.7" y2="79.1" gradientTransform="translate(-6138.6 -201.2) rotate(-168.8) scale(1 -1)" xlink:href="#uuid-c162184e-10fe-4d81-b179-cf259e78df1e"/><linearGradient id="uuid-4cf524b8-0d6d-4d0f-a5fd-e3e57c055a81" x1="-6868.3" y1="172.2" x2="-6644.1" y2="-226.8" gradientTransform="translate(-6138.6 -201.2) rotate(-168.8) scale(1 -1)" xlink:href="#uuid-72fefc45-2099-4cc2-a907-6e9859d190af"/><linearGradient id="uuid-b1d588d8-903c-499a-b7e5-01e2a079157a" x1="-7120.7" y1="-124.7" x2="-6913.7" y2="346.4" xlink:href="#uuid-72fefc45-2099-4cc2-a907-6e9859d190af"/><linearGradient id="uuid-25b4ccb5-3d5b-4496-8256-cccdf9e3474d" x1="5111.9" y1="1001.4" x2="5165.2" y2="1001.4" gradientTransform="translate(-4163.4)" gradientUnits="userSpaceOnUse"><stop offset="0" stop-color="#f9b776"/><stop offset="1" stop-color="#f47960"/></linearGradient><linearGradient id="uuid-e1c3a475-db9e-46f5-9838-6d4050befcc5" x1="-3990.6" y1="1011.5" x2="-4477.5" y2="2299.2" gradientTransform="translate(6477.3 2937.2) scale(1 -1)" xlink:href="#uuid-6b92dd23-046c-46f7-85a0-851bd5c6bb8e"/><linearGradient id="uuid-1b7415f0-eea2-4701-ac8e-679a877a9e93" x1="2105" y1="1584.2" x2="1278.6" y2="3625.3" xlink:href="#uuid-2f8b3c79-75a9-4c80-bc5b-b870c0dee933"/><linearGradient id="uuid-13c30e34-b5fa-4b37-9392-ce04965f974a" x1="-3699.1" y1="770.1" x2="-3755.5" y2="2425.4" gradientTransform="translate(5606.5 3281.1) scale(1 -1)" gradientUnits="userSpaceOnUse"><stop offset="0" stop-color="#e1473d"/><stop offset="1" stop-color="#e9605a"/></linearGradient><linearGradient id="uuid-20160e05-84dc-402f-8b89-4d4172a9168d" x1="-3414.4" y1="2134.6" x2="-2635" y2="2892" gradientTransform="translate(-1098.9 -224.2) rotate(-173.4) scale(1 -1)" xlink:href="#uuid-6b92dd23-046c-46f7-85a0-851bd5c6bb8e"/></defs><g id="uuid-1cc8b04d-7719-4017-9207-e843fce42b9f"><path class="uuid-31d852d7-3a7c-4131-89d9-949487cec9b3" d="m2402.3,2347.1c-55.8,58.7-108.6,96.6-150.3,126.6-490.3,351.8-1070.5,249.3-1193.8,224.2-182.1-37-534-108.5-788.5-407.7C-115.3,1837.4-55.3,1124.2,243.3,653.3,297.9,567.2,586.4,89.2,1172.9,12.6c354.9-46.4,768.6,47.2,1068.2,298.2,628.9,526.9,584.1,1591.2,161.3,2036.4Z"/><path class="uuid-a4643115-3fa6-4bf5-a383-3d9036da35c4" d="m858.1,1716.4s8.9-372.3-162.6-472c-171.5-99.7-497.6-162-509.8-696.6-7.2-313-14.9-449.8-20.1-509.5-2-23.3,18.7-42.1,41.6-37.7,162.4,30.6,690,156.5,800.7,516.7,131.1,426.9-149.8,1199.2-149.8,1199.2Z"/><path class="uuid-8a5ddce6-5b4a-4c06-8b95-01e9331b7287" d="m332.8,149.4c178.3,159,384.4,440.4,494.3,721.8,14.1,46.4,55.4,145,73.3,320.2,16,146.1,8,300.6-11.4,402.8-1.2,6.5-7.5,10.7-13.9,9.5-11.1-2.1-9.6-14.1-9.5-13.7,22.2-174.7,13-392-37.8-588.2-64.9-240.8-209.6-474.4-359.2-672.4l-15.4-19.5c-115.9-148.9-140.4-150-129.5-160.4,2.6-2.5,6.6-2.5,9.2-.2Z"/><path class="uuid-d269d03d-7439-4b52-97a8-45d0c924ca2c" d="m1133.7,2432.3c23.2,11.4-219.7-294-295.7-773.7-35.8-226-36.3-509.2-165.1-618.3-107.2-90.8-471.8-33.5-591.1-11.7-14.9,2.7-19.9,21.6-8.3,31.3,57.2,48.1,179.6,161.4,211.5,275.6,42,150.6,185.2,246.3,313.3,272.2,128.1,25.9,199.4,51.1,261.9,256,62.4,204.9,207.6,536.2,273.5,568.5Z"/><path class="uuid-8a5ddce6-5b4a-4c06-8b95-01e9331b7287" d="m249.6,1092.2c152.2,6.4,315.6,75.8,398.5,206.1l7.8,12.4c18.1,29.1,120.5,236.3,177.4,408.1.7,2.1-.5,4.5-2.6,5.2-3.6,1.2-5.5-2.8-5.1-2.4-39.6-97-96.6-220-141.9-312-48.6-100.4-82.7-168.3-193.6-233.5-123.5-70.1-241.4-77.3-241-77.3-1.8-.2-3.1-1.8-2.9-3.6.2-1.7,1.7-3,3.4-2.9Z"/><path class="uuid-5dafe160-e7e5-488b-b693-c1452a8ed097" d="m704.6,499.2c0-94.4,76.5-171,171-171h1453.9c80.2,0,146.4,62.9,150.4,143l107.3,2107.9c3.2,62.7-46.2,115.6-108.9,116.7l-1666.4,30.3c-59,1.1-107.3-46.4-107.3-105.4V499.2Z"/><path class="uuid-a4643115-3fa6-4bf5-a383-3d9036da35c4" d="m1055.5,2690.3h0l-186.5-2.4c-62.3-.8-113.1-52.2-113.1-114.5v-281.5c0-2.2,1.8-4,4-4s4,1.8,4,4v281.5c0,58,47.2,105.8,105.2,106.6l186.5,2.4c2.2,0,4,1.8,3.9,4,0,2.2-1.8,3.9-4,3.9Z"/><path class="uuid-a4643115-3fa6-4bf5-a383-3d9036da35c4" d="m759.9,2208.6c-2.2,0-4-1.8-4-4v-45.6c0-2.2,1.8-4,4-4s4,1.8,4,4v45.6c0,2.2-1.8,4-4,4Z"/><path class="uuid-f327a2d9-c87f-45dd-8924-b7195d4d69dd" d="m823.7,360.7c-.2-30.2,26.4-53.6,56.3-49.5,198.5,26.9,881.3,110.2,1445.8,66.9,25.7-2,48.1,17.5,49.5,43.3l112.5,2117.3c1.5,29-20.6,53.9-49.6,55.6-237.4,14-1215.1,68.4-1563.9,31.8-21.2-2.2-37.3-20.1-37.5-41.4l-13.1-2223.9Z"/><path class="uuid-d269d03d-7439-4b52-97a8-45d0c924ca2c" d="m847.1,413.8c-.2-29.1,25.4-51.6,54.2-47.7,191.1,25.9,848.1,106,1391.3,64.3,24.8-1.9,46.3,16.9,47.6,41.7l108.3,2037.6c1.5,27.9-19.8,51.8-47.8,53.5-228.5,13.5-1169.4,65.8-1505,30.6-20.4-2.1-35.9-19.3-36.1-39.9l-12.6-2140.2Z"/><g class="uuid-0edd8be9-4588-4748-9cee-9cda0a383232"><path class="uuid-3cc0182a-8fb8-41c7-8f3e-4fce79b64a9a" d="m2232.8,608.9c2.5,0,4.5-2,4.4-4.5l-.6-20.3c0-2.5-2.2-4.6-4.7-4.6l-549.4-9.8c-2.5,0-3.9,1.8-3,4.2l10.8,30.7c.8,2.3,3.5,4.3,6,4.3h536.4Z"/></g><g class="uuid-0edd8be9-4588-4748-9cee-9cda0a383232"><path class="uuid-3cc0182a-8fb8-41c7-8f3e-4fce79b64a9a" d="m1682.6,651.2c-2.5,0-3.9,1.8-3,4.2l10.8,30.7c.8,2.3,3.5,4.3,6,4.3h536.4c2.5,0,4.5-2,4.4-4.5l-.6-20.3c0-2.5-2.2-4.6-4.7-4.6l-549.4-9.8Z"/></g><g class="uuid-0edd8be9-4588-4748-9cee-9cda0a383232"><path class="uuid-3cc0182a-8fb8-41c7-8f3e-4fce79b64a9a" d="m1682.6,733.8c-2.5,0-3.9,1.8-3,4.2l10.8,30.7c.8,2.3,3.5,4.3,6,4.3h536.4c2.5,0,4.5-2,4.4-4.5l-.6-20.3c0-2.5-2.2-4.6-4.7-4.6l-549.4-9.8Z"/></g><g class="uuid-0edd8be9-4588-4748-9cee-9cda0a383232"><path class="uuid-3cc0182a-8fb8-41c7-8f3e-4fce79b64a9a" d="m2283.8,1171.4c2.5,0,4.4-2,4.2-4.5l-1.3-20.3c-.2-2.5-2.3-4.5-4.8-4.6l-1253.5-9.9c-2.5,0-3.3,1.6-1.7,3.5l25.6,32.2c1.6,1.9,4.9,3.5,7.4,3.5h1224.1Z"/></g><g class="uuid-0edd8be9-4588-4748-9cee-9cda0a383232"><path class="uuid-3cc0182a-8fb8-41c7-8f3e-4fce79b64a9a" d="m1028.4,1260.7c-2.5,0-3.3,1.6-1.7,3.5l25.6,32.2c1.6,1.9,4.9,3.5,7.4,3.5h1224.1c2.5,0,4.4-2,4.2-4.5l-1.3-20.3c-.2-2.5-2.3-4.5-4.8-4.6l-1253.5-9.9Z"/></g><g class="uuid-0edd8be9-4588-4748-9cee-9cda0a383232"><path class="uuid-3cc0182a-8fb8-41c7-8f3e-4fce79b64a9a" d="m1033.6,1421.9c-2.5,0-3.3,1.6-1.7,3.5l25.6,32.2c1.6,1.9,4.9,3.5,7.4,3.5h1224.1c2.5,0,4.4-2,4.2-4.5l-1.3-20.3c-.2-2.5-2.3-4.5-4.8-4.6l-1253.5-9.9Z"/></g><path class="uuid-3cc0182a-8fb8-41c7-8f3e-4fce79b64a9a" d="m1193.9,1769h-.3l-103.7-1c-14.8-.1-27-10.3-28.4-23.7l-9.1-87c-.5-5.1,1.1-10.2,4.5-14.2,3.8-4.5,9.6-7.4,15.9-7.8h0c8.7-.6,21-1.6,34.1-2.8,27.4-2.3,61.6-5.2,80.8-5.5,13.9,0,25.7,8.2,29,20.3,5.4,20,4.9,57.8,3.9,98-.3,13.1-12.2,23.6-26.6,23.6Zm-120.6-125.8c-4.1.3-7.9,2.1-10.3,5-2,2.4-2.9,5.3-2.6,8.3l9.1,87c1,9.3,9.8,16.5,20.6,16.6l103.7,1h.2c10,0,18.4-7.1,18.6-15.9,1-39.7,1.5-76.8-3.6-95.8-2.3-8.5-11.1-14.4-21.2-14.4-18.9.2-52.9,3.1-80.2,5.5-13.1,1.1-25.4,2.2-34.2,2.8h0Z"/><path class="uuid-cace61cb-0d8c-489f-8499-aad7a27e1dff" d="m1084.4,1652.2c21.8-1.5,69.1-6.3,91.6-6.6,9.5-.1,17.9,5.6,20.1,13.9,4.3,16,3.8,48,3,77.4-.2,8.8-8.3,15.9-18.2,15.8l-82.9-.8c-10.2,0-18.6-7-19.6-16.1l-7.3-69.5c-.8-7.2,5.2-13.6,13.3-14.1Z"/><g class="uuid-0edd8be9-4588-4748-9cee-9cda0a383232"><path class="uuid-3cc0182a-8fb8-41c7-8f3e-4fce79b64a9a" d="m1284.9,1711.3c3,11.4,13.3,19.3,25.1,19.2l959.3-8.2c10.9,0,19.5-9,19.3-19.9-.2-10.5-8.8-19-19.4-19l-959.3-4.4c-16.9,0-29.3,15.9-25,32.3Z"/></g><path class="uuid-3cc0182a-8fb8-41c7-8f3e-4fce79b64a9a" d="m1193.9,1991.2h-.3l-103.7-1c-14.8-.1-27-10.3-28.4-23.7l-9.1-87c-.5-5.1,1.1-10.2,4.5-14.2,3.8-4.5,9.6-7.4,15.9-7.8h0c8.7-.6,21-1.6,34.1-2.8,27.4-2.3,61.6-5.2,80.8-5.5.1,0,.3,0,.4,0,13.6,0,25.4,8.3,28.6,20.3,5.4,20,4.9,57.8,3.9,98-.3,13.1-12.2,23.6-26.6,23.6Zm-120.6-125.8c-4.1.3-7.9,2.1-10.3,5-2,2.4-2.9,5.3-2.6,8.3l9.1,87c1,9.3,9.8,16.5,20.6,16.6l103.7,1h.2c10,0,18.4-7.1,18.6-15.9,1-39.7,1.5-76.8-3.6-95.8-2.3-8.5-11.3-14.6-21.2-14.4-18.9.2-52.9,3.1-80.2,5.5-13.1,1.1-25.4,2.2-34.2,2.8h0Z"/><path class="uuid-cace61cb-0d8c-489f-8499-aad7a27e1dff" d="m1084.4,1874.4c21.8-1.5,69.1-6.3,91.6-6.6,9.5-.1,17.9,5.6,20.1,13.9,4.3,16,3.8,48,3,77.4-.2,8.8-8.3,15.9-18.2,15.8l-82.9-.8c-10.2,0-18.6-7-19.6-16.1l-7.3-69.5c-.8-7.2,5.2-13.6,13.3-14.1Z"/><g class="uuid-0edd8be9-4588-4748-9cee-9cda0a383232"><path class="uuid-3cc0182a-8fb8-41c7-8f3e-4fce79b64a9a" d="m1284.9,1933.5c3,11.4,13.3,19.3,25.1,19.2l959.3-8.2c10.9,0,19.5-9,19.3-19.9-.2-10.5-8.8-19-19.4-19l-959.3-4.4c-16.9,0-29.3,15.9-25,32.3Z"/></g><path class="uuid-3cc0182a-8fb8-41c7-8f3e-4fce79b64a9a" d="m1193.9,2213.5h-.3l-103.7-1c-14.8-.1-27-10.3-28.4-23.7l-9.1-87c-.5-5.1,1.1-10.2,4.5-14.2,3.8-4.5,9.6-7.4,15.9-7.8h0c8.7-.6,21-1.6,34.1-2.8,27.4-2.3,61.6-5.2,80.8-5.5.1,0,.3,0,.4,0,13.6,0,25.4,8.3,28.6,20.3,5.4,20,4.9,57.8,3.9,98-.3,13.1-12.2,23.6-26.6,23.6Zm-120.6-125.8c-4.1.3-7.9,2.1-10.3,5-2,2.4-2.9,5.3-2.6,8.3l9.1,87c1,9.3,9.8,16.5,20.6,16.6l103.7,1h.2c10,0,18.4-7.1,18.6-15.9,1-39.7,1.5-76.8-3.6-95.8-2.3-8.5-11.3-14.6-21.2-14.4-18.9.2-52.9,3.1-80.2,5.5-13.1,1.1-25.4,2.2-34.2,2.8h0Z"/><path class="uuid-cace61cb-0d8c-489f-8499-aad7a27e1dff" d="m1084.4,2096.6c21.8-1.5,69.1-6.3,91.6-6.6,9.5-.1,17.9,5.6,20.1,13.9,4.3,16,3.8,48,3,77.4-.2,8.8-8.3,15.9-18.2,15.8l-82.9-.8c-10.2,0-18.6-7-19.6-16.1l-7.3-69.5c-.8-7.2,5.2-13.6,13.3-14.1Z"/><g class="uuid-0edd8be9-4588-4748-9cee-9cda0a383232"><path class="uuid-3cc0182a-8fb8-41c7-8f3e-4fce79b64a9a" d="m1284.9,2155.7c3,11.4,13.3,19.3,25.1,19.2l959.3-8.2c10.9,0,19.5-9,19.3-19.9-.2-10.5-8.8-19-19.4-19l-959.3-4.4c-16.9,0-29.3,15.9-25,32.3Z"/></g><path class="uuid-3cc0182a-8fb8-41c7-8f3e-4fce79b64a9a" d="m1193.9,2435.7h-.3l-103.7-1c-14.8-.1-27-10.3-28.4-23.7l-9.1-87c-.5-5.1,1.1-10.2,4.5-14.2,3.8-4.5,9.6-7.4,15.9-7.8h0c8.7-.6,21-1.6,34.1-2.8,27.4-2.3,61.6-5.2,80.8-5.5.1,0,.3,0,.4,0,13.6,0,25.4,8.3,28.6,20.3,5.4,20,4.9,57.8,3.9,98-.3,13.1-12.2,23.6-26.6,23.6Zm-120.6-125.8c-4.1.3-7.9,2.1-10.3,5-2,2.4-2.9,5.3-2.6,8.3l9.1,87c1,9.3,9.8,16.5,20.6,16.6l103.7,1h.2c10,0,18.4-7.1,18.6-15.9,1-39.7,1.5-76.8-3.6-95.8-2.3-8.5-11.3-14.6-21.2-14.4-18.9.2-52.9,3.1-80.2,5.5-13.1,1.1-25.4,2.2-34.2,2.8h0Z"/><path class="uuid-cace61cb-0d8c-489f-8499-aad7a27e1dff" d="m1084.4,2318.9c21.8-1.5,69.1-6.3,91.6-6.6,9.5-.1,17.9,5.6,20.1,13.9,4.3,16,3.8,48,3,77.4-.2,8.8-8.3,15.9-18.2,15.8l-82.9-.8c-10.2,0-18.6-7-19.6-16.1l-7.3-69.5c-.8-7.2,5.2-13.6,13.3-14.1Z"/><g class="uuid-0edd8be9-4588-4748-9cee-9cda0a383232"><path class="uuid-3cc0182a-8fb8-41c7-8f3e-4fce79b64a9a" d="m1284.9,2377.9h0c3,11.4,13.3,19.3,25.1,19.2l959.3-8.2c10.9,0,19.5-9,19.3-19.9-.2-10.5-8.8-19-19.4-19l-959.3-4.4c-16.9,0-29.3,15.9-25,32.3Z"/></g><path class="uuid-ddad94ed-7e96-4e7e-a758-ae0ad29b9509" d="m1692.7,40.9c-52.5-36.5-98.2-35.8-130.3-26.3-29.3,8.7-48.3,37-45.5,67.4l13.9,151.3,165,14.6s100-135.4-3-207Zm-72.5,122.1c-22.7,0-41.1-18.4-41.1-41.1s18.4-41.1,41.1-41.1,41.1,18.4,41.1,41.1-18.4,41.1-41.1,41.1Z"/><path class="uuid-a4643115-3fa6-4bf5-a383-3d9036da35c4" d="m1547.2,169.6c-2,0-3.8-1.6-4-3.6l-2.2-24.1c-.2-2.2,1.4-4.1,3.6-4.3,2.2-.2,4.1,1.4,4.3,3.6l2.2,24.1c.2,2.2-1.4,4.1-3.6,4.3-.1,0-.2,0-.4,0Zm-4.3-47.2c-2,0-3.8-1.6-4-3.6l-1.7-18.3c-2.7-29,15.6-56,43.4-64.2,19.7-5.8,40-6.6,60.3-2.5,2.2.4,3.5,2.5,3.1,4.7-.4,2.1-2.5,3.5-4.7,3.1-19-3.9-38-3.1-56.4,2.3-24.2,7.1-40,30.6-37.7,55.9l1.7,18.3c.2,2.2-1.4,4.1-3.6,4.3-.1,0-.2,0-.4,0Z"/><path class="uuid-1529b5b9-9d0b-4149-b8d4-2bde21d669dd" d="m1305.6,331.1v-76.1c0-26.3,21.8-47.3,48-46.4l524.5,18c23.3.8,42.1,19.2,43.5,42.4l4.4,73.1-620.4-11Z"/><path class="uuid-a4643115-3fa6-4bf5-a383-3d9036da35c4" d="m1501.1,237.3h-22.6c-2.2,0-4-1.8-4-4s1.8-4,4-4h22.6c2.2,0,4,1.8,4,4s-1.8,4-4,4Z"/><path class="uuid-a4643115-3fa6-4bf5-a383-3d9036da35c4" d="m1333.9,307.2c-2.2,0-4-1.8-4-4v-30.8c0-23.8,19.3-43.1,43.1-43.1h82.9c2.2,0,4,1.8,4,4s-1.8,4-4,4h-82.9c-19.4,0-35.2,15.8-35.2,35.2v30.8c0,2.2-1.8,4-4,4Z"/><path class="uuid-256276fa-dbbe-4e4d-82e3-d1cc690cc4e7" d="m1091.8,350.3c1.3-26.3,23-47.1,49.4-47.1h917.2c33,0,61.2,23.7,66.8,56.2l.8,4.5c6.2,35.6-21.2,68.2-57.4,68.2h-941c-21.6,0-38.8-18.1-37.8-39.7l2-42.1Z"/><circle class="uuid-a4643115-3fa6-4bf5-a383-3d9036da35c4" cx="1307.4" cy="796.8" r="238" transform="translate(-180.5 1157.8) rotate(-45)"/><path class="uuid-3cc0182a-8fb8-41c7-8f3e-4fce79b64a9a" d="m1443.6,731h-79.1v-68.1c0-16-13-29-29-29h-57.9c-16,0-29,13-29,29v68.1h-79.1c-16,0-29,13-29,29v67.3c0,16,13,29,29,29h79.1v68.1c0,16,13,29,29,29h57.9c16,0,29-13,29-29v-68.1h79.1c16,0,29-13,29-29v-67.3c0-16-13-29-29-29Z"/><path class="uuid-35d371dc-59b0-467e-b2f3-ba7edec9e178" d="m497.9,1063.7s-37.8,18.4-44.7,39.5c-5.6,16.9-47.4,19.1-51.5,52.4-2.1,17.2-14.9,31-32,33.6-42.7,6.5-108.4,28.7-119,102.8-8,56.5,20.8,78,51.1,85.4,22.2,5.5,37,27.1,32.5,49.5-4.3,21.5,2.1,46.4,39.4,66.1,83.5,44.1,167-104.4,167-104.4l17.1-259.3-59.8-65.6Z"/><path class="uuid-c234115c-51e8-4cff-8664-92ab8fa7ba0f" d="m952.5,1002.2s-166.8,263.8-365.1,314.8c0,0,38.6,110.1,68.5,122.7,0,0,244-203.6,306.7-400l-10.1-37.5Z"/><path class="uuid-24de602c-ae04-4aff-b155-89ab4714563c" d="m154.6,2689.6l-5.4,44.4c-1,8.4-7.7,15.1-16.1,16.1-14.2,1.6-37.1,3.3-59.5.9-9.8-1-16.2-11-13.2-20.4,5.5-17.2,15.4-42.9,29.8-58.1h49.3c9.1,0,16.2,8,15.1,17Z"/><path class="uuid-d12b6e58-7ed1-4307-bb24-4915ced69ad9" d="m540.7,2169l8.3,48.9s-27.9,282.2-32.8,395.1c-.8,17.7,3.8,35.2,13.1,50.3l48.5,78.7-123.1-72.7-2.5-15,20.2-27.7-26.4-316.2c-1.6-18.6,2.3-37.2,11-53.7l25.5-47.8,58.3-40Z"/><path class="uuid-30ad5455-d4eb-4042-89d8-1aaaf9ef0dce" d="m585.8,2753.4h-39.3c-7.4,0-14.3-3.4-18.8-9.2-12.2-15.9-37.6-47-49.8-47.8-16.3-1.1-14.2,57-14.2,57h-9.2l-11.6-72.2c-2.9-18.2,6.1-36.1,22.4-44.7h0s3.7,27.6,24,39.8c20.2,12.2,82.4,56,82.4,56,0,0,7.6-1.1,16,.4,12.4,2.2,10.7,20.6-1.9,20.6Z"/><path class="uuid-fc7c229a-8d27-44ef-bb0f-7860c46b9b7e" d="m372,2192.2s-163.2,309.6-189.2,380.3c-25.9,70.7-35,129.7-35.4,135.3-.5,8.7-11.4,17.1-41.3,17.1s-23-6.2-26.7-12.2c-3.2-5.1-3.3-11.5-.7-16.9,9.4-19.1,39.4-80.2,50.5-107.9,13.2-33.1,41.8-182.9,57.4-235,15.6-52.1,33.3-108.6,101.4-160.7,0,0,46.7-45.8,84,0Z"/><path class="uuid-cb4b2b4b-6bee-4c18-9328-8fba86c1c5b9" d="m475.2,1684.9c42.1-178.4-64.6-279.3-64.6-279.3,67.3-64.6,189.9-94,189.9-94,0,0,117,85.6,103.1,152.5-8.1,39.2-82.3,235.1-82.3,235.1,0,0-68.5,32.4-146.3-14.2Z"/><path class="uuid-28bea317-4c52-4105-8dff-6519d4ca9b4b" d="m381.8,1773.2c17.1-51.6,93.4-88.3,93.4-88.3,77.7,46.7,146.3,14.2,146.3,14.2,0,0,15.4,58.7,4.8,113.3-10.6,54.6-77.2,405.5-77.2,405.5-104.9,21.2-266.2-21.4-266.2-21.4,66.8-118.6,81.8-371.7,98.9-423.3Z"/><path class="uuid-9db14eb8-a3f0-4389-9ffc-9417ac8fd869" d="m524,1193.6l-34.2,153.8c-3.3,13.5,9.1,11.3,22.8,8.7,22.4-4.2,51.3-12.9,61-30.4,1-1.8,1.5-3.8,1.8-5.8l14.7-106.6c1.2-8.5-3.4-16.7-11.2-20.1l-28.4-12.6c-10.9-4.8-23.6,1.4-26.4,13Z"/><path class="uuid-e5b8df6e-43e9-452d-97af-ef38dc0f758c" d="m410.6,1405.5s-238.9,170.9-30.6,350.6c0,0,7.9,9,23.6,13.7,7.9,2.4,31.2,20,43.1,29.2,3.8,3,9.3,2,11.9-2.1h0c2-3.2,2.2-7.2.6-10.6l-29.6-62.6c-8.2-7.7-20.8-8.2-29.6-1.3h0c-5.6,4.4-13.9,2.6-17.1-3.9-16.1-32.8-46.5-129.3,78-238.3,4.7-4.1,5.9-10.9,3-16.4-8.7-16.8-28.8-50.2-53.3-58.3Z"/><path class="uuid-2fee8863-7851-45dc-ab8c-3746d4eb1435" d="m589.6,1053.4s36.4,24.7,52.1,87.5c15.7,62.8-9.8,85.4-35.9,84-26.1-1.4-63.9-9.4-96.7-54.5-32.8-45.1,32.7-147.1,80.5-117Z"/><path class="uuid-ee404475-e855-46d7-b5d7-adfdc98b3a4c" d="m542.2,1145.1s-13.4-90,61.4-76.3l15.1,15.7s36.6-41.2-3.9-72.3c-40.5-31.1-96.7-23.2-127.8,33.5-31.1,56.7-42.4,96.5-16.3,131.8,26.1,35.2,45.7,5,45.7,5,0,0-11.9-30.5-2-43.6,9.9-13.1,22.7,7.6,22.7,7.6l5.1-1.5Z"/><path class="uuid-0c17ca3c-020d-48a7-b042-60c587015a5f" d="m532,1152.8s-6.6-46.3-30.2-33.1c-23.7,13.2,8.5,43.3,21.4,53.5l8.8-20.4Z"/><path class="uuid-ac60b706-7171-402b-9ab6-9b8986d2ae68" d="m951.3,1056.5c.5,5.4-19.7,9.2-26.2-14,1.8-10.1,4.9-54.2,12.6-61,41.1-36.5,114.5-77.6,114.5-77.6,8.2,12.5-2.6,20.8-2.6,20.8l-36.6,24.7c3.8,12.6,9.4,23.8,10,38.3.5,10.9-3.6,21.6-10.8,29.9-7.3,8.3-17.1,19.1-25.9,27.2-16.7,15.4-35,11.6-35,11.6Z"/><path class="uuid-a353492a-87d1-45fb-ba23-115d008323fe" d="m970,1038l-3.1-1.3c.7-1.8,18.2-44.3,26.5-53,3.5-3.7,5.2-6.9,5-9.6-.1-1.9-1.1-3.6-3-5.4l-30.8,16.5-13.3,20.8-2.8-1.8,13.7-21.5.4-.2,33.2-17.7.9.7c3.2,2.6,4.8,5.4,5,8.4.2,3.7-1.7,7.7-5.9,12.1-7.9,8.2-25.7,51.5-25.9,51.9Z"/><rect class="uuid-a4643115-3fa6-4bf5-a383-3d9036da35c4" x="2063.6" y="1529.6" width="498.9" height="131.3" transform="translate(4626 3190.5) rotate(180)"/><rect class="uuid-a4643115-3fa6-4bf5-a383-3d9036da35c4" x="1873.2" y="1603.5" width="879.7" height="1107" rx="36.2" ry="36.2" transform="translate(4626 4313.9) rotate(180)"/><rect class="uuid-8a5ddce6-5b4a-4c06-8b95-01e9331b7287" x="1984.5" y="1833.7" width="657" height="704" rx="12" ry="12" transform="translate(4626 4371.3) rotate(180)"/><path class="uuid-8cc80873-170e-4d4a-8b1e-621d1d811c3c" d="m1987.4,1365.4h651.3c3.5,0,6.3,2.8,6.3,6.3v188.1c0,6.6-5.4,12-12,12h-640c-6.6,0-12-5.4-12-12v-188.1c0-3.5,2.8-6.3,6.3-6.3Z" transform="translate(4626 2937.2) rotate(180)"/><rect class="uuid-6b2dd924-57e2-431f-8adc-c44db45f9b1b" x="2570.9" y="1394.9" width="23.8" height="149.8" transform="translate(5165.6 2939.5) rotate(180)"/><rect class="uuid-6b2dd924-57e2-431f-8adc-c44db45f9b1b" x="2521.8" y="1394.9" width="23.8" height="149.8" transform="translate(5067.5 2939.5) rotate(180)"/><rect class="uuid-6b2dd924-57e2-431f-8adc-c44db45f9b1b" x="2472.8" y="1394.9" width="23.8" height="149.8" transform="translate(4969.4 2939.5) rotate(180)"/><rect class="uuid-6b2dd924-57e2-431f-8adc-c44db45f9b1b" x="2423.7" y="1394.9" width="23.8" height="149.8" transform="translate(4871.3 2939.5) rotate(180)"/><rect class="uuid-6b2dd924-57e2-431f-8adc-c44db45f9b1b" x="2374.7" y="1394.9" width="23.8" height="149.8" transform="translate(4773.2 2939.5) rotate(180)"/><rect class="uuid-6b2dd924-57e2-431f-8adc-c44db45f9b1b" x="2325.6" y="1394.9" width="23.8" height="149.8" transform="translate(4675.1 2939.5) rotate(180)"/><rect class="uuid-6b2dd924-57e2-431f-8adc-c44db45f9b1b" x="2276.6" y="1394.9" width="23.8" height="149.8" transform="translate(4577 2939.5) rotate(180)"/><rect class="uuid-6b2dd924-57e2-431f-8adc-c44db45f9b1b" x="2227.5" y="1394.9" width="23.8" height="149.8" transform="translate(4478.9 2939.5) rotate(180)"/><rect class="uuid-6b2dd924-57e2-431f-8adc-c44db45f9b1b" x="2178.5" y="1394.9" width="23.8" height="149.8" transform="translate(4380.8 2939.5) rotate(180)"/><rect class="uuid-6b2dd924-57e2-431f-8adc-c44db45f9b1b" x="2129.4" y="1394.9" width="23.8" height="149.8" transform="translate(4282.7 2939.5) rotate(180)"/><rect class="uuid-6b2dd924-57e2-431f-8adc-c44db45f9b1b" x="2080.4" y="1394.9" width="23.8" height="149.8" transform="translate(4184.6 2939.5) rotate(180)"/><rect class="uuid-6b2dd924-57e2-431f-8adc-c44db45f9b1b" x="2031.3" y="1394.9" width="23.8" height="149.8" transform="translate(4086.5 2939.5) rotate(180)"/><path class="uuid-d3c24fd8-81ca-4f6e-a65e-4ffe67487417" d="m1691.1,2735.4c96.8,21.6,274.7,19.6,376.8-4.9,33.5-8,57.1-38.1,57.1-72.5v-1039.2h-494.8v1040.5c0,36.5,25.2,68.2,60.8,76.1Z"/><path class="uuid-67799a70-e63f-45f5-b35b-37c2fdb75c45" d="m1618.4,1553.5h518.4c3.5,0,6.3,2.8,6.3,6.3v155.8c0,6.6-5.4,12-12,12h-507.1c-6.6,0-12-5.4-12-12v-155.8c0-3.5,2.8-6.3,6.3-6.3Z" transform="translate(3755.2 3281.1) rotate(180)"/><rect class="uuid-cace61cb-0d8c-489f-8499-aad7a27e1dff" x="2083.8" y="1578.3" width="19.1" height="126.4" transform="translate(4186.7 3283) rotate(180)"/><rect class="uuid-cace61cb-0d8c-489f-8499-aad7a27e1dff" x="2044.6" y="1578.3" width="19.1" height="126.4" transform="translate(4108.3 3283) rotate(180)"/><rect class="uuid-cace61cb-0d8c-489f-8499-aad7a27e1dff" x="2005.4" y="1578.3" width="19.1" height="126.4" transform="translate(4029.8 3283) rotate(180)"/><rect class="uuid-cace61cb-0d8c-489f-8499-aad7a27e1dff" x="1966.1" y="1578.3" width="19.1" height="126.4" transform="translate(3951.4 3283) rotate(180)"/><rect class="uuid-cace61cb-0d8c-489f-8499-aad7a27e1dff" x="1926.9" y="1578.3" width="19.1" height="126.4" transform="translate(3872.9 3283) rotate(180)"/><rect class="uuid-cace61cb-0d8c-489f-8499-aad7a27e1dff" x="1887.7" y="1578.3" width="19.1" height="126.4" transform="translate(3794.4 3283) rotate(180)"/><rect class="uuid-cace61cb-0d8c-489f-8499-aad7a27e1dff" x="1848.5" y="1578.3" width="19.1" height="126.4" transform="translate(3716 3283) rotate(180)"/><rect class="uuid-cace61cb-0d8c-489f-8499-aad7a27e1dff" x="1809.2" y="1578.3" width="19.1" height="126.4" transform="translate(3637.5 3283) rotate(180)"/><rect class="uuid-cace61cb-0d8c-489f-8499-aad7a27e1dff" x="1770" y="1578.3" width="19.1" height="126.4" transform="translate(3559.1 3283) rotate(180)"/><rect class="uuid-cace61cb-0d8c-489f-8499-aad7a27e1dff" x="1730.8" y="1578.3" width="19.1" height="126.4" transform="translate(3480.6 3283) rotate(180)"/><rect class="uuid-cace61cb-0d8c-489f-8499-aad7a27e1dff" x="1691.5" y="1578.3" width="19.1" height="126.4" transform="translate(3402.1 3283) rotate(180)"/><rect class="uuid-cace61cb-0d8c-489f-8499-aad7a27e1dff" x="1652.3" y="1578.3" width="19.1" height="126.4" transform="translate(3323.7 3283) rotate(180)"/><rect class="uuid-cc92772f-296f-4223-94d8-b5619d66c1e8" x="1710.6" y="1893" width="343.5" height="601.8" rx="30.9" ry="30.9" transform="translate(3764.7 4387.8) rotate(180)"/><path class="uuid-3cc0182a-8fb8-41c7-8f3e-4fce79b64a9a" d="m1275.6,2327l285.6,33.1c-59.2,110.5-84.8,232.9-82.7,357.8l-244.9-28.4c-99.7-11.5-171.8-102.6-160.3-202.2h0c11.5-99.7,102.6-171.8,202.2-160.3Z"/><path class="uuid-3af8e1ad-927c-48f6-b9ad-a7d3f71822a1" d="m1561.1,2360.1l238.4,27.6c99.7,11.5,171.8,102.6,160.3,202.2h0c-11.5,99.7-102.6,171.8-202.2,160.3l-279.1-32.3c-2.2-124.8,23.4-247.3,82.7-357.8Z"/></g></svg>