<svg width="30" height="30" viewBox="0 0 30 30" fill="none" xmlns="http://www.w3.org/2000/svg">
<path fill-rule="evenodd" clip-rule="evenodd" d="M14 6.99853C14 6.44706 14.4477 6 15 6C15.5523 6 16 6.44706 16 6.99853V15.5858L18.2929 13.2929C18.6834 12.9024 19.3166 12.9024 19.7071 13.2929C20.0976 13.6834 20.0976 14.3166 19.7071 14.7071L15.7071 18.7071C15.3166 19.0976 14.6834 19.0976 14.2929 18.7071L10.2929 14.7071C9.90237 14.3166 9.90237 13.6834 10.2929 13.2929C10.6834 12.9024 11.3166 12.9024 11.7071 13.2929L14 15.5858V6.99853ZM23 22V16C23 15.4477 23.4477 15 24 15C24.5523 15 25 15.4477 25 16V23C25 23.5523 24.5523 24 24 24H6C5.44772 24 5 23.5523 5 23V16C5 15.4477 5.44772 15 6 15C6.55228 15 7 15.4477 7 16V22H23Z" fill="black"/>
<mask id="mask0_0_613" style="mask-type:luminance" maskUnits="userSpaceOnUse" x="5" y="6" width="20" height="18">
<path fill-rule="evenodd" clip-rule="evenodd" d="M14 6.99853C14 6.44706 14.4477 6 15 6C15.5523 6 16 6.44706 16 6.99853V15.5858L18.2929 13.2929C18.6834 12.9024 19.3166 12.9024 19.7071 13.2929C20.0976 13.6834 20.0976 14.3166 19.7071 14.7071L15.7071 18.7071C15.3166 19.0976 14.6834 19.0976 14.2929 18.7071L10.2929 14.7071C9.90237 14.3166 9.90237 13.6834 10.2929 13.2929C10.6834 12.9024 11.3166 12.9024 11.7071 13.2929L14 15.5858V6.99853ZM23 22V16C23 15.4477 23.4477 15 24 15C24.5523 15 25 15.4477 25 16V23C25 23.5523 24.5523 24 24 24H6C5.44772 24 5 23.5523 5 23V16C5 15.4477 5.44772 15 6 15C6.55228 15 7 15.4477 7 16V22H23Z" fill="white"/>
</mask>
<g mask="url(#mask0_0_613)">
<rect width="30" height="30" fill="#2C2738"/>
</g>
</svg>
