<?xml version="1.0" encoding="UTF-8"?><svg xmlns="http://www.w3.org/2000/svg" viewBox="0 0 95.3 72.9"><defs><style>.uuid-fab02cf2-3517-4409-b319-8332b20c3ca0{fill:#fcc06d;}.uuid-baf150a5-88c5-49c8-9525-5a6338df7457{fill:#f7a75c;}.uuid-f9fdcb42-3d3e-4c2d-a863-a43f30b5471e{fill:#ef3324;}.uuid-eeb98d87-c010-4c72-92aa-dc37b5f6da13{isolation:isolate;}.uuid-d53c0a8a-6cbc-4b20-b061-340dab252eb5{fill:#ffd182;}.uuid-c227a83b-721e-4510-a094-4047cde44230{fill:#ffc521;}.uuid-de7e524f-f093-45b7-8711-b7dbf83c01c1{fill:#ff6a4f;}.uuid-eb1a4469-fca3-4fd6-88e9-81ad0e719ade{fill:#dbdbdb;mix-blend-mode:multiply;}.uuid-6edb18a0-5a8a-422b-b21a-014e6a7c7084{fill:#fab664;}.uuid-0e201460-7b20-4d7d-9e8e-a76e0e4529f3{fill:#ff7f78;}.uuid-c5fa1df9-72f9-4a6f-ba96-9de2b3b800ea{fill:#95a614;}.uuid-6acf4b3c-c81b-4718-9634-38f8b55a2859{fill:#ffc87a;}.uuid-e49ffc6e-c1a2-40be-99ff-eb91e0942c6e{fill:#ee702c;}</style></defs><g class="uuid-eeb98d87-c010-4c72-92aa-dc37b5f6da13"><g id="uuid-75c1714c-731d-42dd-89e0-f090d09d8f96"><g id="uuid-bad77e34-14a2-4ba2-a6d0-af55e9499ed2"><path class="uuid-eb1a4469-fca3-4fd6-88e9-81ad0e719ade" d="m91.2,65.1c1.2-2.4-.4-5-1.5-7.5-1.1-2.5-3.5-4.5-5.7-6.4-1.6-1.4-3.3-2.8-4.9-4.2-2.9-2.5-5.8-5-9.1-7.1-5.2-3.3-11.3-5.5-17.4-7.6-5.9-2-11.8-3.9-17.9-5.2-8.9-1.8-18.1-2.3-27.2-2.7-2.7-.1-5,3.8-5.9,5.5-.1.2-1.7,3.5-1.3,3.6-.8,3.7,2.5,8.3,10.4,13l31.1,18.3c7,4.1,15.3,6.9,23.8,7.7,7.3.7,18.1.4,23.3-4.3,1-.9,1.8-2,2.4-3.2Z"/><path class="uuid-baf150a5-88c5-49c8-9525-5a6338df7457" d="m80.8,46.7l-32.1-18.5c-13.6-7.8-29.5-8.6-38.8-3.6h0c-3.8,2.1-6-1-6,2.1,0,9.9,3.4,15.2,11.4,19.8l32.1,18.5c13.6,7.8,29.5,8.6,38.8,3.6h0c3.9-2.1,6.1-5,6.1-14.6s-3.5-2.7-11.4-7.3Z"/><path class="uuid-6acf4b3c-c81b-4718-9634-38f8b55a2859" d="m80.8,44.6l-32.1-18.5c-13.6-7.8-29.5-8.6-38.8-3.6h0c-3.8,2.1-6-1-6,2.1,0,9.9,3.4,15.2,11.4,19.8l32.1,18.5c13.6,7.8,29.5,8.6,38.8,3.6h0c3.9-2.1,6.1-5,6.1-14.6s-3.5-2.7-11.4-7.3Z"/><path class="uuid-e49ffc6e-c1a2-40be-99ff-eb91e0942c6e" d="m80.8,40.1l-32.1-18.5c-13.6-7.8-29.5-8.6-38.8-3.6h0C.8,23,1.8,32,15.3,39.9l32.1,18.5c13.6,7.8,29.5,8.6,38.8,3.6h0c9.2-5.1,8.2-14.1-5.3-21.9Z"/><path class="uuid-c5fa1df9-72f9-4a6f-ba96-9de2b3b800ea" d="m4.2,26.5c.3,1.7-1.7,2.4-2.1,3.7-.7,2.3,4.6,3.4,5.2,3.6.5.2,2.1,1.1,2.1,1.1l2.3,5.1,3.6,2.3h4.8s4.1,5.7,6.4,6.7c2.3,1-.9.6,4.9,2.6s8,.7,8.7,3.1c.7,2.3.2,2.9,2,4.6s6.3,3.3,6.3,3.3c0,0,8.5,1.1,9.8,1.5,1.3.4-1.6,1.7,4.8,2.5s5.3,2.4,8.4.9c3.1-1.5-1.1-3.6,4.2-2.3s11,2.3,11,2.3c0,0,.5-3.3,2-4.7,1.6-1.5-.9-1.4,2-2s1.9.9,3-.6c1.1-1.5,1.8-4,1.8-4.8s-.9-3.3-1.8-4c-.9-.7-2-1.1-2-1.1,0,0-2-1.6-4.4-3.3-2.4-1.7,1.8-1.7-7-3.5-.4,0-.8-.2-1.2-.3-9.9-2.4-19.7-5.5-29.4-8.3-6.7-1.9-13.4-3.8-20.1-5.7-3-.9-6.4-1.4-9.3-2.5-4.9-1.8-5-8.6-10.4-8.3-.3,0-.7,0-1,.2-.3.2-.6.6-.8.9-.9,1-2.5.9-3.8,1.1-1.3.2-2.9.9-3,2.2,0,2.1,2.6,1.9,3,3.6,0,0,0,0,0,0Z"/><path class="uuid-0e201460-7b20-4d7d-9e8e-a76e0e4529f3" d="m86.8,57.8c-3.8,2.9-8.4,4.4-13.1,5.1s-9.4.6-14.2.5c-1.1,0-2.2,0-3.2-.5-.9-.4-1.6-1.2-2.4-2-4.1-4.2-9.2-7.6-14.7-9.8-3.8-1.5-7.9-2.6-11.1-5.1-1.7-1.4-3.1-3.3-4.8-4.8-3.1-2.8-7.1-4.3-10.7-6.4-3.6-2-7.2-4.8-8.4-8.8,11.5-2,23.3.6,34.7,3.3,11.2,2.6,22.5,5.2,33,9.8,2.9,1.3,5.8,2.7,8.7,3.9,2.6,1.1,6,1.5,8.3,3.1,4.2,3,.8,9.4-2.3,11.7Z"/><path class="uuid-c227a83b-721e-4510-a094-4047cde44230" d="m14.6,25.4c-.2.9-7,2.8-7,2.8v1.5s21.3,11.5,27.1,16.2c5.8,4.6,24.1,11.1,26.4,13.3s8.6,2.5,11.2,2c2.6-.4,18.1-8,18.3-9,.3-1.1.2-3.5.2-3.5L14.6,25.4Z"/><path class="uuid-f9fdcb42-3d3e-4c2d-a863-a43f30b5471e" d="m26.4,22.7h-.5c-.4-1.3-1.5-2.6-3.2-3.6-4.5-2.6-11.8-2.6-16.3,0-1.7,1-2.8,2.2-3.2,3.5h-.5s.4,1.9.4,1.9h0c.3,1.5,1.4,2.9,3.3,4,4.5,2.6,11.8,2.6,16.3,0,1.9-1.1,3-2.5,3.3-3.9h0l.4-1.9Z"/><path class="uuid-de7e524f-f093-45b7-8711-b7dbf83c01c1" d="m23,26.7c-4.6,2.7-12.2,2.7-16.9,0s-4.7-7.1,0-9.7c4.6-2.7,12.2-2.7,16.9,0,4.7,2.7,4.7,7.1,0,9.7Z"/><path class="uuid-f9fdcb42-3d3e-4c2d-a863-a43f30b5471e" d="m50.3,38.6h-.5c-.4-1.3-1.5-2.6-3.2-3.6-4.5-2.6-11.8-2.6-16.3,0-1.7,1-2.8,2.2-3.2,3.5h-.5s.4,1.9.4,1.9h0c.3,1.5,1.4,2.9,3.3,4,4.5,2.6,11.8,2.6,16.3,0,1.9-1.1,3-2.5,3.3-3.9h0s.4-1.9.4-1.9Z"/><path class="uuid-de7e524f-f093-45b7-8711-b7dbf83c01c1" d="m46.9,42.5c-4.6,2.7-12.2,2.7-16.9,0-4.7-2.7-4.7-7.1,0-9.7,4.6-2.7,12.2-2.7,16.9,0,4.7,2.7,4.7,7.1,0,9.7Z"/><path class="uuid-f9fdcb42-3d3e-4c2d-a863-a43f30b5471e" d="m76.2,51.2h-.5c-.4-1.3-1.5-2.6-3.2-3.6-4.5-2.6-11.8-2.6-16.3,0-1.7,1-2.8,2.2-3.2,3.5h-.5s.4,1.9.4,1.9h0c.3,1.5,1.4,2.9,3.3,4,4.5,2.6,11.8,2.6,16.3,0,1.9-1.1,3-2.5,3.3-3.9h0l.4-1.9Z"/><path class="uuid-de7e524f-f093-45b7-8711-b7dbf83c01c1" d="m72.8,55.1c-4.6,2.7-12.2,2.7-16.9,0-4.7-2.7-4.7-7.1,0-9.7,4.6-2.7,12.2-2.7,16.9,0s4.7,7.1,0,9.7Z"/><path class="uuid-f9fdcb42-3d3e-4c2d-a863-a43f30b5471e" d="m94.6,45h-.5c-.4-1.3-1.5-2.6-3.2-3.6-4.5-2.6-11.8-2.6-16.3,0-1.7,1-2.8,2.2-3.2,3.5h-.5s.4,1.9.4,1.9h0c.3,1.5,1.4,2.9,3.3,4,4.5,2.6,11.8,2.6,16.3,0,1.9-1.1,3-2.5,3.3-3.9h0l.4-1.9Z"/><path class="uuid-de7e524f-f093-45b7-8711-b7dbf83c01c1" d="m91.2,49c-4.6,2.7-12.2,2.7-16.9,0s-4.7-7.1,0-9.7c4.6-2.7,12.2-2.7,16.9,0s4.7,7.1,0,9.7Z"/><path class="uuid-c5fa1df9-72f9-4a6f-ba96-9de2b3b800ea" d="m6.6,17.5c.3,1.6-1.6,2.3-2,3.6-.6,2.2,4.4,3.3,4.9,3.5.5.2,2,1.1,2,1.1l2.2,4.8,3.5,2.2h4.6s3.9,5.4,6.1,6.4c2.2,1-.9.6,4.7,2.4,5.6,1.9,7.6.7,8.3,2.9.7,2.2.2,2.7,1.9,4.4,1.7,1.7,6,3.1,6,3.1,0,0,8.1,1,9.3,1.5,1.3.4-1.5,1.6,4.6,2.4,6.1.8,5.1,2.3,8,.9,2.9-1.4-1.1-3.4,4-2.2,5.1,1.2,10.5,2.2,10.5,2.2,0,0,.5-3.1,1.9-4.5,1.5-1.4-.9-1.4,1.9-2s1.8.9,2.8-.6c1-1.5,1.7-3.8,1.7-4.6s-.8-3.1-1.7-3.8c-.8-.6-1.9-1-1.9-1,0,0-1.9-1.5-4.2-3.2s1.7-1.7-6.7-3.3c-.4,0-.7-.2-1.1-.3-9.4-2.3-18.8-5.2-28.1-7.9-6.4-1.8-12.8-3.7-19.2-5.5-2.9-.8-6.1-1.4-8.9-2.4-4.7-1.7-4.7-8.2-9.9-7.9-.3,0-.6,0-.9.2-.3.2-.5.5-.8.8-.9.9-2.3.9-3.6,1-1.3.1-2.8.8-2.8,2.1,0,2,2.5,1.8,2.9,3.4,0,0,0,0,0,0Z"/><path class="uuid-6acf4b3c-c81b-4718-9634-38f8b55a2859" d="m92.2,44.1c.1-8.4-5.6-14.3-5.6-14.3,0,0-8.4-3.1-19.7-7.1l-18.2-10.5c-10.7-6.2-22.8-7.9-32-6-4.3-1.1-7.1-1.6-7.7-1.1-4.7,4.5-5.1,11-5.1,11h0c-.5,4.5,3.1,9.6,11.3,14.3l32.1,18.5c13.6,7.8,29.5,8.6,38.8,3.6,3.8-2.1,5.8-4.8,6-7.8,0,0,0,0,0,0,0,0,0,0,0,0,0-.2,0-.5,0-.7Z"/><path class="uuid-baf150a5-88c5-49c8-9525-5a6338df7457" d="m86.2,51.1c-9.2,5.1-25.2,4.3-38.8-3.6L15.3,29c-7.3-4.2-10.9-8.8-11.3-12.9,0,0,0,.1,0,.1h0c-.5,4.5,3.1,9.6,11.3,14.3l32.1,18.5c13.6,7.8,29.5,8.6,38.8,3.6,3.8-2.1,5.8-4.8,6-7.8,0,0,0,0,0,0,0,0,0,0,0,0,0-.2,0-.5,0-.7,0-.3,0-.5,0-.8-.2,3-2.3,5.7-6,7.7Z"/><path class="uuid-6acf4b3c-c81b-4718-9634-38f8b55a2859" d="m79.1,24.1L48.8,6.7C36-.7,21.2-1.8,12.7,2.6h0c-8.5,4.4-7.3,12.5,5.5,19.9l30.2,17.5c12.8,7.4,27.7,8.5,36.1,4.1h0c8.5-4.4,7.3-12.5-5.5-19.9Z"/><path class="uuid-fab02cf2-3517-4409-b319-8332b20c3ca0" d="m22.1,7.9c-.9.2-1.6-.1-2.3-.5-.6-.4-1.2-1.1-1.4-1.8l-.3-1,.6-.7c.4-.4.9-.6,1.3-.6.4,0,.7,0,1,.2.5.2.8.5,1.1.7.7.3,1.5.3,2.3,0l-.8,1.6c-.4-.2-.8-.3-1.2-.5-.4-.2-.7-.4-1-.7l-2.8-1.9,4-1c.6-.1,1.2-.3,1.8-.3.6,0,1.2.1,1.8.3l-.9,2.7c-.1-.2-.2-.4-.3-.5,0-.2-.3-.4-.4-.8,0-.2-.2-.4-.2-.7,0-.2,0-.2,0-.4,0-.2.2-.3.3-.4.2-.2.4-.2.7-.2.2,0,.5.3.5.5h-.3c-.1.1,0,.3,0,.4,0,0,0,.1.2.1.3-.2.3-.4.4-.5,0,0,.2,0,.5,0,.2,0,.4.1.6.2l3.1,1.1-4,1.6c-.6.2-1.2.4-1.8.5-.6,0-1.2,0-1.8-.1l1.2-2.9c.2.3.4.6.6,1,.2.4.3.8.4,1.2l1.1,2.9-1.9-1.3c-.7-.5-1.4-.8-2.2-.7-.4,0-.9.2-1.1.4-.1,0-.2.2-.2.3,0,0,.2,0,.4,0l.3-1.6c.2.4.3.8.5,1.3.1.5.3,1.1.5,1.9l-.2.3Z"/><path class="uuid-fab02cf2-3517-4409-b319-8332b20c3ca0" d="m66.5,28.2c-.2.4-.2.8-.3,1.3,0,.3-.3.6-.7,1-.4.3-1,.5-1.5.4-.5,0-.9-.2-1.2-.4-.3-.2-.6-.4-.8-.6-.2-.2-.3-.3-.4-.3,0,0,0,0,0,0l1.8-.9c-.2.3-.4.7-.9,1.1-.2.2-.6.4-1,.5-.4.1-.8,0-1.2,0-.7-.3-.9-.7-1.1-.9-.2-.3-.3-.4-.4-.5l.7-.4c-.3.4-.4.9-.6,1.4,0,.3-.2.6-.3.9-.1.3-.3.7-.8,1-.5.3-1.1.2-1.5.1h-.3c0-.1-.2-.1-.3-.2-.3-.2-.4-.3-.6-.4-.5-.5-.9-1-1.1-1.1,0,0,0,0,0,0,0,0,.2.2.4.2.3,0,.6,0,.7,0,.1,0,0,.3-.2.6-.1.3-.2.7-.3,1.1,0,.2,0,.3-.1.4,0,0,0,0-.1,0,0,0-.1-.2-.3-.3-.2-.1-.5-.3-.8-.3l-.3,3.1c-.6-.2-1.3-.5-1.9-.7-.3-.2-.7-.3-.9-.5-.1,0-.2-.1-.3-.2,0,0-.2-.1-.3,0h-.3c0-.3.1-.6.4-.8.2-.2.4-.3.7-.3l1.1-.3c.7-.1,1.4-.2,2-.3l-.3,3.1c-.4,0-.8-.2-1.1-.5-.3-.2-.4-.4-.5-.6-.2-.4-.2-.6-.3-.8-.1-.5-.1-.8-.1-1.2,0-.7.1-1.4.3-2,.3-.7.5-1.4,1.5-2.1.4-.4,1.3-.7,2.1-.5.5,0,.9.4,1.1.6.2.2.4.4.5.6.4.7.6,1.2.6,1.6,0,0,0,.1,0,.1,0,0,0,0,0,0h0c0,.2,0,.3,0,.4,0,0,.2,0,.3-.1.1-.2.3-.4.4-.6.2-.5.3-1,.5-1.6v-.4c.1,0,.7,0,.7,0,.5,0,.9.2,1.2.4.3.1.6.1.5,0,0-.2-.4-.1-.5-.1,0,0,0-.2,0-.4l.4-1.2,1.4.3c.5.1,1,.4,1.3.6.3.3.5.5.6.7.2.2.2.3.3.4,0,0,.1.2,0,.2,0,0-.2.1-.1.2,0,0,.2,0,.4,0l.7-.4c.3-.2.7-.3,1-.2v.3Z"/><path class="uuid-fab02cf2-3517-4409-b319-8332b20c3ca0" d="m35.3,17.5c0-.7.2-1.2.4-1.6.2-.4.5-.8.8-1.1l2,2.4c.2-.2.4-.4.4-.7,0-.3,0-.3,0-.4,0,0,0-.3,0-.2,0,0,0,0,0,0v.2c0,.2,0,.4,0,.6,0,.2,0,.5-.1.7,0,.3,0,.4,0,.8l-.6-.5c.2,0,.3,0,.4,0,0-.1.1-.3.1-.5,0-.2,0-.5,0-.8,0-.3.2-.7.5-1.1l.8-.9,1.3,1.1c.6.5.8,1.3.8,1.6,0,.2,0,.3,0,0,0,0,0-.5-.5-.8-.2-.2-.4-.3-.6-.4-.1,0-.2,0-.4,0h-.2s-.1,0,0,0c0,0,0,0,0,0,0,0,0,0,0,0,0,0,0,0,0,0,0,0,.3,0,.6-.2.2,0,.4-.2.8-.2.3,0,.9,0,1.3.2.4.2.6.6.8.8,0,.1,0,.2.1.3,0,0,0,.2,0,.2,0,.2,0,.3-.4.4-.1,0-.1.2-.1.3,0,0,0,.2.2.2h.4c0,0,0,.2,0,.4,0,.1-.1.3-.2.4-.2.2-.5.3-.8.3-.7-.1-1.1-.5-1.3-.7,0,0-.1,0-.2,0,0,0,0,0,0,0,0,0,0,.2.2.3.2.1.5.2.6.2.1,0,.2,0,.1,0,0,0-.3.3-.6.5,0,0-.2.1-.3.1h-.3c0,.1-.2.1-.4.2,0,0-.2,0-.3,0-.1,0-.2,0-.4,0-.2,0-.4,0-.6-.1-.3,0-.5-.2-.8-.4-.5-.5-.6-.9-.6-1.1,0-.5,0-.6,0-.6,0-.2.1.2.4.3h2.1c0,0-.2,0-.4.2-.2,0-.5.2-.7.4-.3.2-.5.4-.9.6-.3.2-.7.2-1,.3l-.6-.5c0,0-.3-.2-.4-.4l-.6-.4c-.2-.2-.4-.3-.5-.5,0-.1-.1-.2-.2-.4,0,0,0-.2,0-.3,0,0,0-.3,0-.4,0,0,0,0,0-.4,0-.3.3-.5.5-.7l2,2.4c-.4.2-.8.4-1.3.5-.5,0-1,.1-1.7,0l-.2-.3Z"/><path class="uuid-d53c0a8a-6cbc-4b20-b061-340dab252eb5" d="m80.4,39.9c-.2,0-.3.2-.5.2l-1.3.5,1.3-1.6c.3-.3.6-.6.9-.8.1-.1.3-.2.5-.3.2,0,.2-.2.7-.3.2,0,.4,0,.7,0,.3,0,.8.2,1.2.7.4.5.4,1.1.3,1.4,0,.3-.1.5-.1.5-.1.3-.4.6-.6.9-.3.3-.6.5-.8.8-.1,0-.1.1-.2,0,0,0,0,0,0,0,0,0,.2,0,.2,0,0,0,0,0,.1,0l.2-.2c.2-.2.5-.7,1.4-.8h.6c0,0,.5,1.3.5,1.3.1.4.2.8.3,1.2,0,.2,0,.4,0,.5,0,0,0,0,0-.3,0-.1,0-.3-.2-.5-.1-.2-.4-.5-.7-.6-.3-.1-.6-.1-.7-.1-.2,0-.2,0-.2,0,0,0,.2,0,.2-.1.2,0,.4-.1.5-.2.4,0,.7-.2,1.1-.2l3.4-.2-1.2,2.2c-.2.5-.5.7-.7.9,0,0-.2.2-.3.4,0,.2-.1.4,0,.7v.3c-.5.1-.9,0-1.3-.2-.3-.2-.6-.6-.8-1-.4-.8-.3-1.5-.3-2l2.2,2c-.3.2-.7.4-1,.5-.2,0-.4.1-.5.2,0,0-.2,0-.3,0,0,0-.2,0-.5,0-.2,0-.6,0-1-.2-.4-.2-.7-.5-.9-.8-.2-.3-.3-.5-.3-.7,0-.4,0-.6,0-.8,0-.2.1-.4.2-.6.1-.4.3-.7.5-1.1l1.1,1.3c.2-.2-.1-.3-.5-.2h-.3c-.1,0-.3,0-.4,0-.3,0-.5,0-.8,0-.3,0-.6-.3-.8-.6-.2-.4-.1-.7-.1-.9,0-.4-.1-.8-.2-1.2,0-.4,0-.7,0-1.1,0-.1,0-.1,0,0,0,.1,0,.6.2.9.3.4.6.5.7.5.1,0,.2,0,.2,0,0,0-.2,0-.3,0-.2,0-.4,0-.5,0-.4,0-.7-.2-1.1-.4v-1c.1.1.2.3.3.4v.3Z"/><path class="uuid-d53c0a8a-6cbc-4b20-b061-340dab252eb5" d="m45.2,23.5c0,.2,0,.4,0,.5l-.3,1.4-.5-2c-.1-.4-.1-.8-.2-1.2,0-.2,0-.4,0-.5,0-.2,0-.3.2-.7,0-.2.2-.4.4-.6.2-.2.7-.5,1.3-.5.6,0,1.1.4,1.3.6.2.2.3.4.3.4.2.3.3.6.3,1,0,.4,0,.8.1,1.1,0,.1,0,.2,0,.2,0,0,0,0,0,0,0,0,0-.1.1-.2,0,0,0,0,0-.1v-.2c0-.3-.3-.9.1-1.6l.3-.5,1.5.4c.4.1.8.3,1.1.5.2,0,.3.2.5.3,0,0,0,0-.2-.2,0,0-.2-.1-.5-.1-.2,0-.6,0-.9.2-.3.2-.5.4-.6.5,0,.1-.1.2-.1.2,0,0,0-.2,0-.3,0-.2.1-.4.2-.5.1-.3.3-.7.5-1l.5-.7c.6-.9,2-.8,2.5.2h0c.2.5.3.8.3,1.1,0,.1,0,.3.2.5.1.2.3.3.6.4l.2.3c-.1.4-.5.6-.9.8-.4.1-.8.2-1.2,0-.8-.2-1.4-.6-1.8-.9l2.9-.5c0,.4,0,.8-.2,1.1,0,.2-.1.4-.2.5,0,0,0,.2-.1.3,0,0,0,.2-.2.5-.1.2-.4.5-.7.7-.3.2-.8.3-1.1.3-.3,0-.6-.1-.8-.2-.4-.2-.5-.4-.7-.5-.2-.2-.2-.3-.4-.5-.2-.3-.4-.7-.6-1h1.7c0-.3-.3-.2-.5.2l-.2.3c0,.1-.1.2-.2.3-.1.2-.3.4-.5.6-.2.2-.6.3-1,.2-.4,0-.6-.3-.8-.4-.3-.2-.7-.4-1-.6-.3-.2-.6-.4-.8-.7,0,0,0-.1,0,0,0,.1.5.4.9.4.4,0,.7-.2.8-.3,0-.1.1-.2.1-.2,0-.1-.1.1-.3.2-.1.1-.2.3-.4.4-.3.2-.6.5-1,.7l-.8-.6c.2,0,.3,0,.5,0l.2.3Z"/><path class="uuid-d53c0a8a-6cbc-4b20-b061-340dab252eb5" d="m46.9,44.2c0,.2-.1.3-.2.5l-.6,1.2v-2c0-.4,0-.8.1-1.2,0-.2,0-.4.2-.5,0-.2,0-.3.3-.6.1-.1.3-.3.5-.5.2-.2.8-.4,1.4-.2.6.1,1,.6,1.2.9.2.3.2.4.2.5,0,.3.1.7,0,1.1,0,.4-.1.8-.2,1.1,0,.1,0,.2,0,.2,0,0,0,0,0,0,0,0,.1-.1.2-.2,0,0,0,0,0-.1v-.2c0-.3,0-.9.6-1.5l.4-.4,1.3.8c.4.2.7.5.9.7.1.1.3.3.4.4,0,0,0,0-.2-.2,0,0-.2-.2-.5-.3-.2,0-.6,0-.9,0-.3,0-.6.3-.7.4-.1.1-.2.2-.2.2,0,0,0-.2.1-.2,0-.2.2-.3.3-.5.2-.3.5-.6.8-.9l2.5-2.3.5,2.5c.1.5,0,.8,0,1.1,0,.1,0,.3,0,.5,0,.2.2.4.5.5v.3c0,.3-.5.5-.9.6-.4,0-.8,0-1.2-.2-.8-.4-1.2-1-1.6-1.3l3,.2c-.1.4-.3.7-.5,1,0,.2-.2.3-.3.5,0,0,0,.1-.2.2,0,0-.1.2-.3.4-.2.2-.5.4-.9.5-.4.1-.8,0-1.2,0-.3-.1-.5-.3-.7-.4-.3-.3-.4-.5-.5-.6-.1-.2-.2-.4-.2-.6-.2-.4-.2-.7-.3-1.1l1.7.3c0-.3-.3-.1-.6.1l-.2.2c0,0-.2.2-.3.3-.2.2-.4.3-.6.4-.2.1-.6.2-1,0-.4-.2-.5-.5-.7-.6-.3-.3-.6-.5-.9-.8-.3-.3-.5-.5-.6-.9,0-.1,0-.1,0,0,0,.1.4.5.8.6.4.1.8,0,.9-.1.1,0,.1-.1.1-.2,0-.1-.2,0-.3.2-.1.1-.3.2-.5.3-.3.2-.7.3-1.1.4l-.7-.8c.2,0,.3,0,.5.2l.2.3Z"/><path class="uuid-d53c0a8a-6cbc-4b20-b061-340dab252eb5" d="m21.2,13.1c0,.2-.1.3-.2.5l-.6,1.2v-2c0-.4,0-.8.1-1.2,0-.2,0-.4.2-.5,0-.2,0-.3.3-.6.1-.1.3-.3.5-.5.2-.2.8-.4,1.4-.2.6.1,1,.6,1.2.9.2.3.2.4.2.5,0,.3.1.7,0,1.1,0,.4-.1.8-.2,1.1,0,.1,0,.2,0,.2,0,0,0,0,0,0,0,0,.1-.1.2-.2,0,0,0,0,0-.1v-.2c0-.3,0-.9.6-1.5l.4-.4,1.3.8c.4.2.7.5.9.7.1.1.3.3.4.4,0,0,0,0-.2-.2,0,0-.2-.2-.5-.3-.2,0-.6,0-.9,0-.3,0-.6.3-.7.4-.1.1-.2.2-.2.2,0,0,0-.2.1-.2,0-.2.2-.3.3-.5.2-.3.5-.6.8-.9l2.5-2.3.5,2.5c.1.5,0,.8,0,1.1,0,.1,0,.3,0,.5,0,.2.2.4.5.5v.3c0,.3-.5.5-.9.6-.4,0-.8,0-1.2-.2-.8-.4-1.2-1-1.6-1.3l3,.2c-.1.4-.3.7-.5,1,0,.2-.2.3-.3.5,0,0,0,.1-.2.2,0,0-.1.2-.3.4-.2.2-.5.4-.9.5-.4.1-.8,0-1.2,0-.3-.1-.5-.3-.7-.4-.3-.3-.4-.5-.5-.6-.1-.2-.2-.4-.2-.6-.2-.4-.2-.7-.3-1.1l1.7.3c0-.3-.3-.1-.6.1l-.2.2c0,0-.2.2-.3.3-.2.2-.4.3-.6.4-.2.1-.6.2-1,0-.4-.2-.5-.5-.7-.6-.3-.3-.6-.5-.9-.8-.3-.3-.5-.5-.6-.9,0-.1,0-.1,0,0,0,.1.4.5.8.6.4.1.8,0,.9-.1.1,0,.1-.1.1-.2,0-.1-.2,0-.3.2-.1.1-.3.2-.5.3-.3.2-.7.3-1.1.4l-.7-.8c.2,0,.3,0,.5.2l.2.3Z"/><path class="uuid-fab02cf2-3517-4409-b319-8332b20c3ca0" d="m7.6,12.2c.4-.8.8-1.3,1.3-1.7.2-.1.4-.2.8-.3.2,0,.4,0,.7,0,.3,0,.6.3.8.5.5.5.5,1.1.6,1.4,0,.3,0,.5,0,.6-.1.6-.7,1.2-1,1.8-.4.6-.5,1.1-.4,1.8l-.9-.8c.4-.4.6-1,.8-1.4l1-3,1.5,4.1c0,.2.1.5.2.7,0,.2.2.4.3.6l-2.6-1.2c.3-.2.7-.4,1.1-.5.1,0,.2,0,.4-.1.2,0,.6-.2,1.2-.1.6,0,1.1.5,1.3.8.2.3.3.5.3.7.1.5,0,1,0,1.5,0,.5-.2,1-.5,1.5h-.3c-.5-.2-.8-.5-1.1-.8l-.9-.8s0,0,0,.2c0,.1.4.4.8.5.4,0,.6,0,.6,0,0,0,0,0-.2.1-.3.2-.7.4-1.1.5l-2.2.7-.3-1.9c0-.4,0-.8,0-1.2,0-.4,0-.8.2-1.2l2.5,1.2c-.8.5-1.7.5-2.4.5h-1.4c0,0,.5-.8.5-.8.3-.5.4-1.1.2-1.7-.2-.6-.6-1.2-.6-1.8,0-.1,0-.3,0-.3,0,0,0,.3.3.6.3.3.7.3.8.3.1,0,0,0,0-.1-.6,0-1.3-.1-2-.5v-.3Z"/><path class="uuid-fab02cf2-3517-4409-b319-8332b20c3ca0" d="m41.9,11.1c-.7-.5-1.1-1.2-1.3-2-.2-.8-.1-1.6.2-2.3l.4-1h.9c.6,0,1.1.1,1.4.4.3.3.5.6.6.8.2.5.2.9.4,1.3.3.7.9,1.2,1.6,1.6l-1.7.6c-.2-.4-.4-.8-.5-1.2-.1-.4-.2-.8-.3-1.2l-.7-3.3,3.5,2c.5.3,1.1.6,1.5,1.1.4.4.8.9,1.1,1.5l-2.5,1.4c0-.2,0-.4.1-.6,0-.2,0-.5.2-.9,0-.2.2-.4.4-.6.1-.1.2-.2.4-.3.2,0,.3-.1.5-.1.3,0,.5.2.6.3.2.2.2.6,0,.7h-.3c0-.2-.2,0-.2,0,0,0,0,.2,0,.2.3,0,.5-.1.6,0,.1,0,.2.1.3.3.1.2.2.4.3.6l1.5,3-4-1.6c-.6-.2-1.2-.5-1.6-.9-.5-.4-.9-.8-1.3-1.3l2.8-1.3c0,.4-.1.8-.3,1.2-.1.4-.3.8-.5,1.2l-1.2,2.8-.5-2.2c-.2-.8-.5-1.5-1.1-2-.3-.2-.8-.5-1.1-.5-.2,0-.3,0-.3,0,0,0,.1.2.3.2l1.3-1c-.1.4-.3.8-.5,1.3-.3.5-.5,1-1,1.7h-.3Z"/><path class="uuid-fab02cf2-3517-4409-b319-8332b20c3ca0" d="m61.7,46.7c0,.2-.1.3-.2.5l-.7,1.2v-2c0-.4.1-.8.2-1.2,0-.2.1-.4.2-.5,0-.2,0-.3.4-.6.1-.1.3-.3.6-.4.3-.1.8-.3,1.4-.1.6.1,1,.6,1.1.9.1.3.2.4.2.5,0,.3,0,.7,0,1.1,0,.4-.2.8-.2,1.1,0,.1,0,.2-.1.2,0,0,0,0,0,0,0,0,.1-.1.2-.2,0,0,0,0,0-.1v-.2c0-.3,0-.9.6-1.5l.4-.4,1.3.8c.4.2.7.5.9.8.1.1.3.3.4.4,0,0,0,0-.1-.2,0,0-.2-.2-.4-.3-.2,0-.6-.1-.9,0-.3,0-.6.2-.7.3-.1.1-.2.2-.2.2,0,0,0-.2.1-.2,0-.2.2-.3.3-.5.2-.3.5-.6.8-.8l2.6-2.2.4,2.5c0,.5,0,.8,0,1.1,0,.1,0,.3,0,.5,0,.2.2.4.4.6v.3c-.1.3-.5.5-.9.5-.4,0-.8,0-1.2-.3-.7-.4-1.2-1-1.5-1.4l3,.3c-.1.4-.3.7-.5,1-.1.2-.2.3-.3.5,0,0-.1.1-.2.2,0,0-.2.2-.3.4-.2.2-.5.4-.9.5-.4.1-.8,0-1.2,0-.3-.1-.5-.3-.7-.4-.3-.3-.4-.5-.5-.7,0-.2-.1-.4-.2-.6-.1-.4-.2-.7-.3-1.2l1.7.4c0-.3-.3-.2-.6.1l-.2.2c0,0-.2.2-.3.3-.2.2-.4.3-.7.4-.3,0-.6.1-1,0-.3-.2-.5-.5-.7-.7-.3-.3-.6-.6-.8-.8-.3-.3-.5-.6-.6-.9,0-.1,0-.1,0,0,0,.1.4.5.8.6.4.1.8,0,.9,0,.1,0,.1-.1.1-.1,0-.1-.2,0-.3.2-.2,0-.3.2-.5.3-.3.2-.7.3-1.1.4l-.6-.8c.2,0,.3.1.5.2v.3Z"/><path class="uuid-d53c0a8a-6cbc-4b20-b061-340dab252eb5" d="m21.2,25.6c0,.2.1.3.2.5l.4,1.4-1.4-1.6c-.3-.3-.5-.7-.7-1,0-.2-.2-.3-.2-.5,0-.2-.1-.2-.2-.7,0-.2,0-.4.1-.7,0-.3.4-.8.9-1.1.5-.3,1.2-.2,1.5,0,.3.1.4.2.5.2.3.2.5.5.7.8.2.3.4.7.6.9,0,.1.1.1,0,.2,0,0,0,0,0,0,0,0,0-.2,0-.2,0,0,0,0-.1,0,0,0-.1-.1-.2-.2-.1-.1-.3-.3-.4-.5-.1-.2-.3-.6-.2-1.1v-.8c0,0,1.7-.2,1.7-.2.3,0,.6,0,.9,0h.4s.2,0,.2,0h.1s0,0,0,0c0,0,0,0-.2,0-.1,0-.4,0-.8.2-.4.2-.7.8-.8,1.1,0,.3,0,.4,0,.4,0,0,0-.1,0-.3,0-.2,0-.3,0-.6,0-.2,0-.6.2-1.2,0-.2.2-.4.4-.7.2-.3.5-.5.8-.6.7-.2,1.1-.1,1.3,0,.2,0,.4.2.4.3,0,.1.1.3.3.4.2.1.4.2.8.2l.3.2c0,.4-.2.9-.5,1.2-.4.3-.8.5-1.4.6-.2,0-.4,0-.4.1,0,0,0,.2.5,0,.2,0,.4-.2.5-.3.1-.1.2-.2.2-.3.1-.4,0-.4.1-.4,0,0,0,.1.1.2,0,.1,0,.3.1.6,0,.1,0,.3,0,.8,0,.5-.5,1.2-1,1.5-.5.3-.9.3-1.2.3-.3,0-.5,0-.6-.1,0,0-.1,0-.2,0h0s-.2-.1-.2-.1l-.4-.2c-.3-.1-.5-.3-.8-.5l1.7-1c0-.1-.2-.1-.2,0,0,0-.1.3-.1.5,0,.1,0,.2,0,.3,0,.1,0,.3,0,.4,0,.3-.1.5-.3.8-.1.2-.4.5-.8.6-.4,0-.7,0-.9,0-.4,0-.8,0-1.2,0-.4,0-.8,0-1.1-.1,0,0-.1,0,0,0,.1,0,.6.1,1,0,.4-.2.6-.5.6-.7,0-.1,0-.2,0-.2,0-.1,0,.2-.1.3,0,.2,0,.3-.2.5-.1.4-.3.7-.6,1.1l-1-.2c.1,0,.3-.1.5-.2h.3Z"/><path class="uuid-d53c0a8a-6cbc-4b20-b061-340dab252eb5" d="m62.5,37.2c0,.2-.2.3-.3.5l-.8,1.2.2-2c0-.4.1-.8.3-1.2,0-.2.1-.3.2-.5,0-.2,0-.3.4-.6.1-.1.3-.3.6-.4.3-.1.8-.3,1.4,0,.5.2.9.7,1.1,1,.1.3.1.4.2.5,0,.3,0,.7,0,1.1,0,.4-.2.8-.3,1.1,0,.1,0,.2-.1.2,0,0,0,0,0,0,0,0,.1,0,.2-.2,0,0,0,0,0-.1v-.2c0-.3,0-.9.8-1.5l.5-.4,1.2.9c.3.3.6.5.8.8.1.1.3.3.3.4,0,0,0,0-.1-.2,0,0-.2-.2-.4-.3-.2-.1-.6-.2-.9-.1-.3,0-.6.2-.7.3-.1,0-.2.1-.2.1,0,0,0-.2.1-.2.1-.2.2-.3.3-.4.3-.3.5-.5.9-.8l2.7-2,.2,2.5c0,.5,0,.8,0,1.1,0,.1,0,.3,0,.5,0,.2.1.4.4.6v.3c-.2.3-.6.4-1,.4-.4,0-.8-.1-1.2-.4-.7-.4-1.1-1.1-1.4-1.5l2.9.5c-.2.4-.4.7-.6,1-.1.1-.2.3-.4.4,0,0-.1.1-.2.2,0,0-.2.2-.4.3-.2.2-.5.4-1,.4-.4,0-.8,0-1.2-.1-.3-.1-.5-.3-.7-.5-.3-.3-.4-.5-.5-.7,0-.2-.1-.4-.2-.6-.1-.4-.2-.8-.2-1.2l1.7.5c0-.2-.3-.2-.6,0l-.2.2c0,0-.2.2-.3.2-.2.1-.4.3-.7.3-.3,0-.7,0-1-.1-.3-.2-.5-.5-.6-.7-.2-.3-.5-.6-.8-.9-.3-.3-.4-.6-.5-.9,0-.1,0-.1,0,0,0,.1.3.5.7.7.4.2.8,0,.9,0,.1,0,.2-.1.2-.1,0,0-.2,0-.3.1-.2,0-.3.2-.5.2-.4.1-.7.2-1.2.3l-.6-.9c.2,0,.3.1.5.2v.3Z"/><path class="uuid-d53c0a8a-6cbc-4b20-b061-340dab252eb5" d="m81,29.6c.1-.1.3-.3.4-.4l1.1-.8-.9,1.9c-.2.4-.4.7-.6,1-.1.1-.2.3-.4.4-.1.1-.2.2-.6.4-.2,0-.4.2-.7.2-.3,0-.8,0-1.3-.4-.5-.4-.7-1-.7-1.3,0-.3,0-.5,0-.5,0-.3.2-.7.4-1,.2-.3.5-.7.6-.9,0-.1.1-.1.2-.1,0,0,0,0,0,0,0,0-.2,0-.2.1,0,0,0,0,0,.1v.2c-.3.3-.4.8-1.3,1.2l-.6.2-.9-1.3c-.2-.3-.4-.7-.5-1.1,0-.2-.1-.4-.2-.5,0,0,0,0,0,.3,0,0,.1.2.3.4.2.2.5.3.8.4.3,0,.6,0,.8,0,.2,0,.2,0,.2,0,0,0-.1.1-.2.2-.1.1-.3.2-.5.3-.3.2-.7.3-1.1.5l-3.2,1,.6-2.5c.1-.5.3-.8.4-1.1,0-.1.1-.3.2-.5,0-.2,0-.4-.2-.7v-.4c.4-.2.8-.2,1.2,0,.4.1.7.4,1,.7.5.7.7,1.4.8,1.9l-2.6-1.4c.3-.3.6-.5.9-.8.2-.1.3-.2.5-.3,0,0,.1,0,.3-.1,0,0,.2-.1.5-.2.2,0,.6-.2,1,0,.4,0,.8.3,1.1.5.3.2.4.5.5.6.2.4.2.6.2.8,0,.3,0,.4,0,.6,0,.4,0,.8-.2,1.2l-1.4-1c-.1.2.2.3.6.1h.3c.1-.2.2-.2.4-.3.2,0,.5-.1.8-.1.3,0,.7.1.9.4.3.3.3.6.4.9.1.4.3.7.4,1.1.1.4.2.7.2,1,0,.1,0,.1,0,0,0-.1-.1-.6-.5-.8-.3-.3-.7-.3-.8-.3-.1,0-.2,0-.2,0,0,0,.2,0,.4,0,.2,0,.4,0,.5,0,.4,0,.8,0,1.2,0l.2,1c-.1-.1-.3-.2-.4-.4v-.4Z"/><path class="uuid-fab02cf2-3517-4409-b319-8332b20c3ca0" d="m40.8,31.1c-.2,0-.4-.1-.8-.1-.3,0-.9.1-1.4.5-.3.2-.4.5-.5.7l-2-.6c0,0-.2-.2-.4-.4-.3-.2-.7-.5-1.5-.4-.3,0-.7.2-.9.3-.2.2-.4.4-.5.5-.2.3-.3.6-.3.8,0,.7.1,1.3.5,2.1h.3c.4,0,.7-.3.9-.5.4.2,1,.3,1.5.4.6.2,1,.7,1.2,1.2l.4.9.6-.9c.2.1.4.3.6.4l1.7.9.8-2.2c.1-.3.2-.6.2-1,.4,0,.8-.2,1.2-.3l.2-.3c-.2-.5-.5-.9-.8-1.3-.4-.3-.7-.6-1.2-.9Zm-6.1,2.7c.2-.1.3-.3.4-.4,0,0,.1,0,.1,0,0,0-.2.3-.5.4Zm5.6.4c-.2,0-.2,0-.2,0l.9-.2c-.3.2-.6.3-.8.3Z"/><path class="uuid-6edb18a0-5a8a-422b-b21a-014e6a7c7084" d="m24.8,3.8c-3.3.9-6.4,2.1-9.4,3.8-.5.3-2.8,1.4-2.5,2.3.2.7,1.9.2,2.3.1h0c3.8-.8,7.6-1.7,11.5-2.6,3.3-.7,6.5-1,9.8-.9.4,0,3.4.4,3.6-.3.3-.8-1.5-1.4-2-1.6h0c-4.1-1.7-9-1.9-13.2-.8Z"/><path class="uuid-6acf4b3c-c81b-4718-9634-38f8b55a2859" d="m18.9,9c2.9-1.6,5.9-2.8,9.1-3.7,1.7-.4,3.4-.6,5.2-.6s4.3.3,6.2,1c-.5,0-.9,0-1.4,0-3,0-5.8.3-8.7.9-1.2.3-2.5.6-3.7.9-2.2.5-4.5,1.1-6.7,1.5h0Z"/><path class="uuid-6edb18a0-5a8a-422b-b21a-014e6a7c7084" d="m46.4,15.1c-3.9,1-7.6,2.5-11.1,4.5-.5.3-3.2,1.7-3,2.7.2.8,2.3.2,2.7.1h0c4.5-.9,9-2.1,13.5-3.1,3.8-.8,7.6-1.2,11.5-1,.7,0,3.8.5,4.2-.3.4-.8-2-1.7-2.4-1.9h0c-4.8-2-10.5-2.3-15.5-1Z"/><path class="uuid-6acf4b3c-c81b-4718-9634-38f8b55a2859" d="m37.7,21.5c.2-.1.5-.3.8-.4l.3-.2c3.4-1.9,6.9-3.3,10.8-4.3,1.9-.5,3.9-.8,6-.8,3.1,0,6.1.6,8.7,1.7,0,0,0,0,0,0-.3,0-.6,0-.8,0-.3,0-.5,0-.6,0-.6,0-1.1,0-1.7,0-3.4,0-6.8.4-10.2,1.1-1.5.3-2.9.7-4.4,1-3,.7-6,1.5-9,2Z"/><path class="uuid-6edb18a0-5a8a-422b-b21a-014e6a7c7084" d="m68.2,29.6c-3.3.9-6.4,2.1-9.4,3.8-.5.3-2.8,1.4-2.6,2.3.2.7,1.9.2,2.3.1h0c3.8-.8,7.7-1.7,11.5-2.6,3.3-.7,6.5-1,9.9-.9.4,0,3.4.4,3.6-.3.3-.8-1.5-1.4-2-1.6h0c-4.1-1.7-9-1.9-13.2-.8Z"/><path class="uuid-6acf4b3c-c81b-4718-9634-38f8b55a2859" d="m62.2,34.7c2.9-1.6,5.9-2.8,9.1-3.7,1.7-.4,3.4-.6,5.2-.6s4.3.3,6.2,1c-.5,0-.9,0-1.4,0-3,0-5.9.3-8.7.9-1.2.3-2.5.6-3.7.9-2.2.5-4.5,1.1-6.7,1.5h0Z"/></g></g></g></svg>