<?xml version="1.0" encoding="UTF-8"?><svg xmlns="http://www.w3.org/2000/svg" xmlns:xlink="http://www.w3.org/1999/xlink" viewBox="0 0 64 77"><defs><style>.uuid-32963479-9452-4ce4-a811-cfafc8512c24{fill:#ed3d48;}.uuid-159a7011-f594-47f5-bbe6-07bb64741ad7{clip-path:url(#uuid-f55f092d-b046-4c58-8c89-2c39ec9ba90d);}.uuid-c9010844-09a6-4215-a482-080d047a7bd7,.uuid-c4ca884f-117a-4262-b279-158f57496c9d{fill:#fff;}.uuid-7d432831-3270-4c3d-9215-1119bffd0b0e{fill:#f0f1f2;}.uuid-c4ca884f-117a-4262-b279-158f57496c9d{mix-blend-mode:screen;opacity:.3;}.uuid-8c753317-36fe-4bc0-93d8-8971e3c1df81{isolation:isolate;}.uuid-be967e78-593e-4c4b-b5e4-944d4ad0f59e,.uuid-a5b159a8-ac35-4531-979b-ffe2b4796b8a{fill:#e3e3ec;}.uuid-b2699404-4fda-4116-8ebc-26c4e345ce66{fill:#ffd438;}.uuid-997bbb14-fa1e-4bb4-83f4-5f618bb66dab{clip-path:url(#uuid-69c54149-39a5-4f39-bd04-113cef881c5c);}.uuid-7a7b3e5a-80b5-4648-b58a-5a4dbf483630{fill:#d0d3da;}.uuid-f5bf85be-a163-43f5-9a52-64dd7549fb97{fill:#1499fc;}.uuid-6faf6049-a295-4347-a0a1-69602bf40ad7{clip-path:url(#uuid-c23cef08-7a45-445a-96f3-0937746579ae);}.uuid-7e6f33f1-95fb-40f8-8918-8c9ebf0cf201{fill:#fe4a56;}.uuid-01c600be-d3f2-4894-8675-e6bab93f492a{fill:#d6d6de;}.uuid-ce68b1bb-d290-4648-b997-9737e050c69a{clip-path:url(#uuid-d93ad47c-8ac3-4abe-836d-b4521da05de5);}.uuid-a5b159a8-ac35-4531-979b-ffe2b4796b8a,.uuid-4ea8f5b2-9d70-49ed-8af8-e6b23b11b69e{mix-blend-mode:multiply;}.uuid-86e51c2b-1bdb-41a1-8a51-98bc77c2ffc5{fill:#dc303c;}</style><clipPath id="uuid-d93ad47c-8ac3-4abe-836d-b4521da05de5"><path class="uuid-a5b159a8-ac35-4531-979b-ffe2b4796b8a" d="m49.9,47.7v14.1c0,1,.7,2.1,2.1,2.9,2.7,1.6,7.2,1.6,9.9,0,1.4-.8,2.1-1.9,2.1-2.9v-14.1c0,1-.7,2.1-2.1,2.9-2.8,1.6-7.2,1.6-9.9,0-1.4-.8-2-1.8-2-2.9Z"/></clipPath><clipPath id="uuid-f55f092d-b046-4c58-8c89-2c39ec9ba90d"><path class="uuid-01c600be-d3f2-4894-8675-e6bab93f492a" d="m51.5,41.5v2c0,.8.5,1.6,1.5,2.2,2.1,1.2,5.4,1.2,7.5,0,1-.6,1.6-1.4,1.6-2.2v-2c0,.8-.5,1.6-1.6,2.2-2.1,1.2-5.4,1.2-7.5,0-1-.6-1.5-1.4-1.5-2.2Z"/></clipPath><clipPath id="uuid-69c54149-39a5-4f39-bd04-113cef881c5c"><path class="uuid-01c600be-d3f2-4894-8675-e6bab93f492a" d="m51.8,38.3v3.3c0,.7.5,1.5,1.5,2,1.9,1.1,5.1,1.1,7,0,1-.6,1.5-1.3,1.5-2.1v-3.3c0,.7-.5,1.5-1.5,2.1-1.9,1.1-5.1,1.1-7,0-1-.6-1.4-1.3-1.4-2Z"/></clipPath><clipPath id="uuid-c23cef08-7a45-445a-96f3-0937746579ae"><path class="uuid-01c600be-d3f2-4894-8675-e6bab93f492a" d="m54.3,32.9l-2.5,5.2c0,.7.5,1.5,1.4,2,1.9,1.1,5.1,1.1,7,0,1-.6,1.5-1.3,1.5-2.1l-2.5-5.2c0,.4-.2.7-.7,1-1,.6-2.6.6-3.5,0-.5-.3-.7-.6-.7-1Z"/></clipPath></defs><g class="uuid-8c753317-36fe-4bc0-93d8-8971e3c1df81"><g id="uuid-1ba05dc8-54f9-48fd-bae3-b98d7833b3c0"><g id="uuid-13ef8dc3-e019-407c-a295-d2136a7840dc"><g class="uuid-8c753317-36fe-4bc0-93d8-8971e3c1df81"><path class="uuid-f5bf85be-a163-43f5-9a52-64dd7549fb97" d="m8.5,47.3l4.2-2.4c.3-.2,1.1-.6,2.2-.6.5,0,1.3.1,2.2.6.7.4,1.2.9,1.6,1.6.3.5.4.9.5,1.1.1.4.1.8.1,1h0c0,.5,0,1.3-.6,2.3-.5,1-1.3,1.4-1.6,1.6-1.3.7-2.9,1.7-4.2,2.4-.6.3-1.3.3-2.2-.2-1.7-1-3.1-3.4-3.2-5.4,0-1,.3-1.7.9-2.1Z"/><path class="uuid-f5bf85be-a163-43f5-9a52-64dd7549fb97" d="m13.8,52.9c0,2-1.4,2.8-3.1,1.9s-3.1-3.4-3.2-5.4,1.4-2.8,3.1-1.9,3.1,3.4,3.2,5.4Z"/></g><g class="uuid-8c753317-36fe-4bc0-93d8-8971e3c1df81"><path class="uuid-c9010844-09a6-4215-a482-080d047a7bd7" d="m13.8,52.9c0,2-1.4,2.8-3.1,1.9s-3.1-3.4-3.2-5.4,1.4-2.8,3.1-1.9,3.1,3.4,3.2,5.4Z"/><path class="uuid-7d432831-3270-4c3d-9215-1119bffd0b0e" d="m8,47.7h0l.5-.3c.6-.3,1.3-.3,2.2.2,1.7,1,3.1,3.4,3.2,5.4,0,1-.3,1.7-.9,2.1l-.5.3-.5.3c.6-.3.9-1.1.9-2.1,0-2-1.4-4.4-3.2-5.4-.8-.5-1.6-.5-2.2-.2l.5-.3Z"/></g><g class="uuid-8c753317-36fe-4bc0-93d8-8971e3c1df81"><path class="uuid-86e51c2b-1bdb-41a1-8a51-98bc77c2ffc5" d="m2.3,58.7c-.4-.2-1.1-.7-1.6-1.6C.2,56.4,0,55.6,0,54.9c0-.8.2-1.6.6-2.3.2-.4.5-.7.6-.8.4-.4.6-.5,1-.8-.6.3-.9,1.1-.9,2.1,0,2,1.4,4.4,3.2,5.4.8.5,1.6.5,2.2.2-.3.1-1,.6-2.2.6-1.1,0-1.9-.4-2.2-.6Z"/><path class="uuid-86e51c2b-1bdb-41a1-8a51-98bc77c2ffc5" d="m.2,53.4c0-.2.3-.8.8-1.4.5-.6,1-.9,1.2-1l5.3-3.1s0,0,0,0c.6-.3,1.3-.3,2.2.2,1.7,1,3.1,3.4,3.2,5.4,0,1.1-.4,1.8-1,2.1,0,0,0,0,.1,0-1.6.9-3.7,2.1-5.3,3.1-.2,0-.4.2-.6.3-.1,0-.3.1-.5.1-.2,0-.8.2-1.4.1-.6,0-1-.1-1.5-.4-.2,0-.6-.2-1.1-.7-.3-.3-.6-.6-.9-1-.3-.5-.4-.8-.6-1.3,0-.2-.3-1.3,0-2.5Z"/></g><path class="uuid-c4ca884f-117a-4262-b279-158f57496c9d" d="m16.3,46.2l-11.8,6.8c-.5.3-1.4.3-1.9,0h0c-.5-.3-.5-.8,0-1.1l11.8-6.8c.5-.3,1.4-.3,1.9,0h0c.5.3.5.8,0,1.1Z"/><g class="uuid-8c753317-36fe-4bc0-93d8-8971e3c1df81"><path class="uuid-32963479-9452-4ce4-a811-cfafc8512c24" d="m49.3,65.1l-4.2-2.4c-.3-.2-1.1-.6-2.2-.6-.5,0-1.3.1-2.2.6-.7.4-1.2.9-1.6,1.6-.3.5-.4.9-.5,1.1-.1.4-.1.8-.1,1h0c0,.5,0,1.3.6,2.3.5,1,1.3,1.4,1.6,1.6,1.3.7,2.9,1.7,4.2,2.4.6.3,1.3.3,2.2-.2,1.7-1,3.1-3.4,3.2-5.4,0-1-.3-1.7-.9-2.1Z"/><path class="uuid-f5bf85be-a163-43f5-9a52-64dd7549fb97" d="m44,70.7c0,2,1.4,2.8,3.1,1.9,1.7-1,3.1-3.4,3.2-5.4s-1.4-2.8-3.1-1.9c-1.7,1-3.1,3.4-3.2,5.4Z"/></g><g class="uuid-8c753317-36fe-4bc0-93d8-8971e3c1df81"><path class="uuid-c9010844-09a6-4215-a482-080d047a7bd7" d="m44,70.7c0,2,1.4,2.8,3.1,1.9,1.7-1,3.1-3.4,3.2-5.4s-1.4-2.8-3.1-1.9c-1.7,1-3.1,3.4-3.2,5.4Z"/><path class="uuid-7d432831-3270-4c3d-9215-1119bffd0b0e" d="m49.8,65.4h0s-.5-.3-.5-.3c-.6-.3-1.3-.3-2.2.2-1.7,1-3.1,3.4-3.2,5.4,0,1,.3,1.7.9,2.1l.5.3.5.3c-.6-.3-.9-1.1-.9-2.1,0-2,1.4-4.4,3.2-5.4.8-.5,1.6-.5,2.2-.2l-.5-.3Z"/></g><g class="uuid-8c753317-36fe-4bc0-93d8-8971e3c1df81"><path class="uuid-86e51c2b-1bdb-41a1-8a51-98bc77c2ffc5" d="m55.6,76.4c.4-.2,1.1-.7,1.6-1.6.4-.6.6-1.4.6-2.2,0-.8-.2-1.5-.6-2.3-.2-.4-.5-.7-.6-.8-.4-.4-.6-.5-1-.8.6.3.9,1.1.9,2.1,0,2-1.4,4.4-3.2,5.4-.8.5-1.6.5-2.2.2.3.1,1,.6,2.2.6,1.1,0,1.9-.4,2.2-.6Z"/><path class="uuid-b2699404-4fda-4116-8ebc-26c4e345ce66" d="m57.6,71.2c0-.2-.3-.8-.8-1.4-.5-.6-1-.9-1.2-1l-5.3-3.1s0,0,0,0c-.6-.3-1.3-.3-2.2.2-1.7,1-3.1,3.4-3.2,5.4,0,1.1.4,1.8,1,2.1,0,0,0,0-.1,0,1.6.9,3.7,2.1,5.3,3.1.2,0,.4.2.6.3.1,0,.3.1.5.1.2,0,.8.2,1.4.1.6,0,1-.1,1.5-.4.2,0,.6-.2,1.1-.7.3-.3.6-.6.9-1,.3-.5.4-.8.6-1.3,0-.2.3-1.3,0-2.5Z"/></g><path class="uuid-c4ca884f-117a-4262-b279-158f57496c9d" d="m41.5,64l11.8,6.8c.5.3,1.4.3,1.9,0h0c.5-.3.5-.8,0-1.1l-11.8-6.8c-.5-.3-1.4-.3-1.9,0h0c-.5.3-.5.8,0,1.1Z"/><path class="uuid-be967e78-593e-4c4b-b5e4-944d4ad0f59e" d="m31.1,9.7c5.9-3.4,15.5-3.4,21.4,0,3,1.7,4.5,5.5,4.4,9.1,0,0,0,0,0,.1v22.5h0s0,0,0,0c.2,3.2-1.3,6.5-4.4,8.3-5.9,3.4-15.5,3.4-21.4,0-3.1-1.8-4.6-5.1-4.4-8.3,0-.1,0-.3,0-.4v-22.1s0,0,0-.1c0-3.7,1.4-7.4,4.4-9.1Z"/><path class="uuid-f5bf85be-a163-43f5-9a52-64dd7549fb97" d="m52.4,24.5c1-.6,1.8-1.2,2.4-1.8v22.4c-.7.7-1.5,1.3-2.4,1.8-5.1,2.9-12.9,3.3-18.7,1.2v-22.4c5.8,2.1,13.6,1.8,18.7-1.2Z"/><g class="uuid-4ea8f5b2-9d70-49ed-8af8-e6b23b11b69e"><path class="uuid-be967e78-593e-4c4b-b5e4-944d4ad0f59e" d="m26.7,18.9s0,0,0-.1c0-3.7,1.4-7.4,4.4-9.1,2-1.1,4.3-1.9,6.8-2.3v44.6c-2.5-.4-4.9-1.1-6.8-2.3-3.1-1.8-4.6-5.1-4.4-8.3,0-.1,0-.3,0-.4v-22.1Z"/></g><path class="uuid-7d432831-3270-4c3d-9215-1119bffd0b0e" d="m31.7,20.9c-5.6-3.2-5.6-8.4,0-11.6,5.6-3.2,14.6-3.2,20.2,0,5.6,3.2,5.6,8.4,0,11.6-5.6,3.2-14.6,3.2-20.2,0Z"/><path class="uuid-be967e78-593e-4c4b-b5e4-944d4ad0f59e" d="m36.2,5.3h3.3c1.9-.1,4,0,5.8.4l6.8.3v5.3h0c0,1.5-1,3.1-3,4.2-4.1,2.3-10.6,2.3-14.7,0s-3-2.7-3-4.2v-5.3l4.8-.7Z"/><path class="uuid-7d432831-3270-4c3d-9215-1119bffd0b0e" d="m34.4,10.2c-4.1-2.3-4.1-6.1,0-8.5s10.6-2.3,14.7,0c4.1,2.3,4.1,6.1,0,8.5-4.1,2.3-10.6,2.3-14.7,0Z"/><path class="uuid-7a7b3e5a-80b5-4648-b58a-5a4dbf483630" d="m52,6.9v5.3c0-.3.1-.6.1-.9v-5.3c0,.3,0,.6-.1.9Z"/><path class="uuid-7a7b3e5a-80b5-4648-b58a-5a4dbf483630" d="m51,8.8v5.3c.1-.2.3-.3.4-.5v-5.3c-.1.2-.2.3-.4.5Z"/><path class="uuid-7a7b3e5a-80b5-4648-b58a-5a4dbf483630" d="m49.9,9.7v5.3c.1,0,.3-.2.4-.3v-5.3c-.1.1-.3.2-.4.3Z"/><path class="uuid-7a7b3e5a-80b5-4648-b58a-5a4dbf483630" d="m48.8,10.4v5.3c0,0,.2,0,.3-.1,0,0,0,0,.1,0v-5.3s0,0-.1,0c0,0-.2.1-.3.1Z"/><path class="uuid-7a7b3e5a-80b5-4648-b58a-5a4dbf483630" d="m47.8,10.9v5.3c.1,0,.3-.1.4-.2v-5.3c-.1,0-.3.1-.4.2Z"/><path class="uuid-7a7b3e5a-80b5-4648-b58a-5a4dbf483630" d="m46.7,11.3v5.3c.1,0,.3,0,.4-.1v-5.3c-.1,0-.3,0-.4.1Z"/><path class="uuid-7a7b3e5a-80b5-4648-b58a-5a4dbf483630" d="m45.6,11.6v5.3c.1,0,.3,0,.4,0v-5.3c-.1,0-.3,0-.4,0Z"/><path class="uuid-7a7b3e5a-80b5-4648-b58a-5a4dbf483630" d="m44.6,11.8v5.3c.1,0,.3,0,.4,0v-5.3c-.1,0-.3,0-.4,0Z"/><path class="uuid-7a7b3e5a-80b5-4648-b58a-5a4dbf483630" d="m43.5,11.9v5.3c.1,0,.3,0,.4,0v-5.3c-.1,0-.3,0-.4,0Z"/><path class="uuid-7a7b3e5a-80b5-4648-b58a-5a4dbf483630" d="m42.4,12v5.3c.1,0,.3,0,.4,0v-5.3c-.1,0-.3,0-.4,0Z"/><path class="uuid-7a7b3e5a-80b5-4648-b58a-5a4dbf483630" d="m41.4,12v5.3c.1,0,.3,0,.4,0v-5.3c-.1,0-.3,0-.4,0Z"/><path class="uuid-7a7b3e5a-80b5-4648-b58a-5a4dbf483630" d="m40.3,11.9v5.3c.1,0,.3,0,.4,0v-5.3c-.1,0-.3,0-.4,0Z"/><path class="uuid-7a7b3e5a-80b5-4648-b58a-5a4dbf483630" d="m39.2,11.8v5.3c.1,0,.3,0,.4,0v-5.3c-.1,0-.3,0-.4,0Z"/><path class="uuid-7a7b3e5a-80b5-4648-b58a-5a4dbf483630" d="m38.2,11.6v5.3c.1,0,.3,0,.4,0v-5.3c-.1,0-.3,0-.4,0Z"/><path class="uuid-7a7b3e5a-80b5-4648-b58a-5a4dbf483630" d="m37.1,11.4v5.3c.1,0,.3,0,.4.1v-5.3c-.1,0-.3,0-.4-.1Z"/><path class="uuid-7a7b3e5a-80b5-4648-b58a-5a4dbf483630" d="m36.1,11v5.3c.1,0,.3,0,.4.1v-5.3c-.1,0-.3,0-.4-.1Z"/><path class="uuid-7a7b3e5a-80b5-4648-b58a-5a4dbf483630" d="m35,10.5v5.3c.1,0,.3.1.4.2v-5.3c-.1,0-.3-.1-.4-.2Z"/><path class="uuid-7a7b3e5a-80b5-4648-b58a-5a4dbf483630" d="m33.9,9.9v5.3c.1,0,.3.2.4.2v-5.3c-.1,0-.3-.2-.4-.2Z"/><path class="uuid-7a7b3e5a-80b5-4648-b58a-5a4dbf483630" d="m32.9,9.1v5.3c.1.1.3.2.4.3v-5.3c-.1-.1-.3-.2-.4-.3Z"/><path class="uuid-7a7b3e5a-80b5-4648-b58a-5a4dbf483630" d="m31.8,7.7v5.3c.1.2.2.4.4.6v-5.3c-.2-.2-.3-.4-.4-.6Z"/><path class="uuid-be967e78-593e-4c4b-b5e4-944d4ad0f59e" d="m17.1,31.7c4.2-2.4,10.9-2.4,15.1,0,2.1,1.2,3.2,3.9,3.1,6.5,0,0,0,0,0,.1v21.8h0s0,0,0,0c.1,2.3-.9,4.6-3.1,5.9-4.2,2.4-10.9,2.4-15.1,0-2.2-1.3-3.2-3.6-3.1-5.9,0,0,0-.2,0-.3v-21.5s0,0,0-.1c0-2.6,1-5.2,3.1-6.5Z"/><path class="uuid-7e6f33f1-95fb-40f8-8918-8c9ebf0cf201" d="m32.1,42.8c.7-.4,1.2-.8,1.7-1.3v21.1c-.5.5-1,.9-1.7,1.3-3.6,2.1-9,2.3-13.1.8v-21.1c4.1,1.5,9.6,1.2,13.1-.8Z"/><g class="uuid-4ea8f5b2-9d70-49ed-8af8-e6b23b11b69e"><path class="uuid-be967e78-593e-4c4b-b5e4-944d4ad0f59e" d="m14,38.2s0,0,0-.1c0-2.6,1-5.2,3.1-6.5,1.8-1,4-1.6,6.3-1.8v37.7c-2.3-.2-4.5-.7-6.3-1.8-2.2-1.3-3.2-3.6-3.1-5.9,0,0,0-.2,0-.3v-21.5Z"/></g><path class="uuid-c9010844-09a6-4215-a482-080d047a7bd7" d="m17.5,39.7c-4-2.3-4-6,0-8.3,4-2.3,10.4-2.3,14.3,0,4,2.3,4,6,0,8.3-4,2.3-10.4,2.3-14.3,0Z"/><path class="uuid-be967e78-593e-4c4b-b5e4-944d4ad0f59e" d="m20.7,23.3h2.4c1.4,0,2.9,0,4.2.3l4.9.2v9.8h0c0,1.1-.7,2.2-2.2,3.1-2.9,1.7-7.7,1.7-10.6,0-1.5-.8-2.2-2-2.2-3.1v-9.8l3.5-.5Z"/><path class="uuid-7d432831-3270-4c3d-9215-1119bffd0b0e" d="m19.4,26.9c-2.9-1.7-2.9-4.4,0-6.1,2.9-1.7,7.7-1.7,10.6,0,2.9,1.7,2.9,4.4,0,6.1-2.9,1.7-7.7,1.7-10.6,0Z"/><path class="uuid-7a7b3e5a-80b5-4648-b58a-5a4dbf483630" d="m32.1,24.4v9.8c0-.2,0-.4,0-.6v-9.8c0,.2,0,.4,0,.6Z"/><path class="uuid-7a7b3e5a-80b5-4648-b58a-5a4dbf483630" d="m31.4,25.8v9.8c.1-.1.2-.2.3-.3v-9.8c0,.1-.2.2-.3.3Z"/><path class="uuid-7a7b3e5a-80b5-4648-b58a-5a4dbf483630" d="m30.6,26.5v9.8c0,0,.2-.1.3-.2v-9.8c0,0-.2.1-.3.2Z"/><path class="uuid-7a7b3e5a-80b5-4648-b58a-5a4dbf483630" d="m29.8,27v9.8c0,0,.1,0,.2-.1,0,0,0,0,0,0v-9.8s0,0,0,0c0,0-.1,0-.2.1Z"/><path class="uuid-7a7b3e5a-80b5-4648-b58a-5a4dbf483630" d="m29,27.3v9.8c0,0,.2,0,.3-.1v-9.8c0,0-.2,0-.3.1Z"/><path class="uuid-7a7b3e5a-80b5-4648-b58a-5a4dbf483630" d="m28.3,27.6v9.8c0,0,.2,0,.3,0v-9.8c0,0-.2,0-.3,0Z"/><path class="uuid-7a7b3e5a-80b5-4648-b58a-5a4dbf483630" d="m27.5,27.8v9.8c0,0,.2,0,.3,0v-9.8c0,0-.2,0-.3,0Z"/><path class="uuid-7a7b3e5a-80b5-4648-b58a-5a4dbf483630" d="m26.7,28v9.8c0,0,.2,0,.3,0v-9.8c0,0-.2,0-.3,0Z"/><path class="uuid-7a7b3e5a-80b5-4648-b58a-5a4dbf483630" d="m26,28.1v9.8c0,0,.2,0,.3,0v-9.8c0,0-.2,0-.3,0Z"/><path class="uuid-7a7b3e5a-80b5-4648-b58a-5a4dbf483630" d="m25.2,28.1v9.8c0,0,.2,0,.3,0v-9.8c0,0-.2,0-.3,0Z"/><path class="uuid-7a7b3e5a-80b5-4648-b58a-5a4dbf483630" d="m24.4,28.1v9.8c0,0,.2,0,.3,0v-9.8c0,0-.2,0-.3,0Z"/><path class="uuid-7a7b3e5a-80b5-4648-b58a-5a4dbf483630" d="m23.7,28.1v9.8c0,0,.2,0,.3,0v-9.8c0,0-.2,0-.3,0Z"/><path class="uuid-7a7b3e5a-80b5-4648-b58a-5a4dbf483630" d="m22.9,28v9.8c0,0,.2,0,.3,0v-9.8c0,0-.2,0-.3,0Z"/><path class="uuid-7a7b3e5a-80b5-4648-b58a-5a4dbf483630" d="m22.1,27.9v9.8c0,0,.2,0,.3,0v-9.8c0,0-.2,0-.3,0Z"/><path class="uuid-7a7b3e5a-80b5-4648-b58a-5a4dbf483630" d="m21.3,27.7v9.8c0,0,.2,0,.3,0v-9.8c0,0-.2,0-.3,0Z"/><path class="uuid-7a7b3e5a-80b5-4648-b58a-5a4dbf483630" d="m20.6,27.4v9.8c0,0,.2,0,.3,0v-9.8c0,0-.2,0-.3,0Z"/><path class="uuid-7a7b3e5a-80b5-4648-b58a-5a4dbf483630" d="m19.8,27.1v9.8c0,0,.2,0,.3.1v-9.8c0,0-.2,0-.3-.1Z"/><path class="uuid-7a7b3e5a-80b5-4648-b58a-5a4dbf483630" d="m19,26.6v9.8c0,0,.2.1.3.2v-9.8c0,0-.2-.1-.3-.2Z"/><path class="uuid-7a7b3e5a-80b5-4648-b58a-5a4dbf483630" d="m18.3,26v9.8c0,0,.2.2.3.3v-9.8c0,0-.2-.2-.3-.3Z"/><path class="uuid-7a7b3e5a-80b5-4648-b58a-5a4dbf483630" d="m17.5,25v9.8c0,.2.2.3.3.5v-9.8c-.1-.1-.2-.3-.3-.5Z"/><path class="uuid-be967e78-593e-4c4b-b5e4-944d4ad0f59e" d="m19.1,23s0,0,0,0c0-.7.6-1.5,1.6-2,.9-2,.8-4.4.8-4.4h6.3s0,2.4.8,4.4c1,.6,1.5,1.3,1.6,2,0,0,0,0,0,0h0c.1.9-.4,1.8-1.6,2.5-2.2,1.3-5.7,1.3-7.9,0-1.2-.7-1.7-1.6-1.6-2.5h0Z"/><path class="uuid-c9010844-09a6-4215-a482-080d047a7bd7" d="m22.5,17.9c-1.2-.7-1.2-1.9,0-2.6,1.2-.7,3.2-.7,4.5,0,1.2.7,1.2,1.9,0,2.6-1.2.7-3.2.7-4.5,0Z"/><g class="uuid-8c753317-36fe-4bc0-93d8-8971e3c1df81"><g class="uuid-8c753317-36fe-4bc0-93d8-8971e3c1df81"><path class="uuid-a5b159a8-ac35-4531-979b-ffe2b4796b8a" d="m49.9,47.7v14.1c0,1,.7,2.1,2.1,2.9,2.7,1.6,7.2,1.6,9.9,0,1.4-.8,2.1-1.9,2.1-2.9v-14.1c0,1-.7,2.1-2.1,2.9-2.8,1.6-7.2,1.6-9.9,0-1.4-.8-2-1.8-2-2.9Z"/><g class="uuid-ce68b1bb-d290-4648-b997-9737e050c69a"><g class="uuid-8c753317-36fe-4bc0-93d8-8971e3c1df81"><path class="uuid-a5b159a8-ac35-4531-979b-ffe2b4796b8a" d="m49.9,47.7v14.1c0,.2,0,.3,0,.5v-14.1c0-.2,0-.3,0-.5h0Z"/><path class="uuid-be967e78-593e-4c4b-b5e4-944d4ad0f59e" d="m51.8,50.5s0,0,0,0c.5.3,1,.5,1.5.7,1.4.4,2.9.6,4.4.5,1.5-.1,2.9-.5,4-1.2,1.4-.8,2.1-1.9,2.1-2.9v14.1c0,1-.6,2.1-2,2.9-1.1.6-2.5,1-4,1.2-1.5.1-3.1,0-4.4-.5-.6-.2-1.1-.4-1.5-.7,0,0,0,0,0,0-1.1-.7-1.7-1.5-1.9-2.3v-14.1c.1.9.8,1.7,1.9,2.3Z"/></g></g></g><path class="uuid-7d432831-3270-4c3d-9215-1119bffd0b0e" d="m52,44.8c-2.8,1.6-2.8,4.2,0,5.8,2.7,1.6,7.2,1.6,9.9,0,2.8-1.6,2.8-4.2,0-5.8-2.7-1.6-7.2-1.6-9.9,0Z"/></g><path class="uuid-7d432831-3270-4c3d-9215-1119bffd0b0e" d="m49.9,47.6h14.1c0-3.9-3.1-7.1-7-7.1s-7,3.2-7,7.1Z"/><g class="uuid-8c753317-36fe-4bc0-93d8-8971e3c1df81"><g class="uuid-8c753317-36fe-4bc0-93d8-8971e3c1df81"><path class="uuid-01c600be-d3f2-4894-8675-e6bab93f492a" d="m51.5,41.5v2c0,.8.5,1.6,1.5,2.2,2.1,1.2,5.4,1.2,7.5,0,1-.6,1.6-1.4,1.6-2.2v-2c0,.8-.5,1.6-1.6,2.2-2.1,1.2-5.4,1.2-7.5,0-1-.6-1.5-1.4-1.5-2.2Z"/><g class="uuid-159a7011-f594-47f5-bbe6-07bb64741ad7"><g class="uuid-8c753317-36fe-4bc0-93d8-8971e3c1df81"><path class="uuid-01c600be-d3f2-4894-8675-e6bab93f492a" d="m51.5,41.5v2c0,.1,0,.2,0,.4v-2c0-.1,0-.2,0-.4h0Z"/><path class="uuid-01c600be-d3f2-4894-8675-e6bab93f492a" d="m51.5,41.9v2c.1.6.6,1.3,1.4,1.8v-2c-.8-.5-1.3-1.1-1.4-1.8h0Z"/><path class="uuid-01c600be-d3f2-4894-8675-e6bab93f492a" d="m53,43.7v2s0,0,0,0c.4.2.7.4,1.2.5v-2c-.4-.1-.8-.3-1.2-.5,0,0,0,0,0,0h0Z"/><path class="uuid-be967e78-593e-4c4b-b5e4-944d4ad0f59e" d="m54.2,44.2v2c1,.3,2.2.5,3.3.4v-2c-1.1,0-2.3,0-3.3-.4h0Z"/><path class="uuid-01c600be-d3f2-4894-8675-e6bab93f492a" d="m57.5,44.6v2c1.1,0,2.2-.4,3-.9,1-.6,1.6-1.4,1.6-2.2v-2c0,.8-.5,1.6-1.6,2.2-.8.5-1.9.8-3,.9h0Z"/></g></g></g><path class="uuid-7d432831-3270-4c3d-9215-1119bffd0b0e" d="m53.1,39.3c-2.1,1.2-2.1,3.1,0,4.3,2.1,1.2,5.4,1.2,7.5,0,2.1-1.2,2.1-3.1,0-4.3-2.1-1.2-5.4-1.2-7.5,0Z"/></g><g class="uuid-8c753317-36fe-4bc0-93d8-8971e3c1df81"><g class="uuid-8c753317-36fe-4bc0-93d8-8971e3c1df81"><path class="uuid-01c600be-d3f2-4894-8675-e6bab93f492a" d="m51.8,38.3v3.3c0,.7.5,1.5,1.5,2,1.9,1.1,5.1,1.1,7,0,1-.6,1.5-1.3,1.5-2.1v-3.3c0,.7-.5,1.5-1.5,2.1-1.9,1.1-5.1,1.1-7,0-1-.6-1.4-1.3-1.4-2Z"/><g class="uuid-997bbb14-fa1e-4bb4-83f4-5f618bb66dab"><g class="uuid-8c753317-36fe-4bc0-93d8-8971e3c1df81"><path class="uuid-01c600be-d3f2-4894-8675-e6bab93f492a" d="m51.8,38.3v3.3c0,.1,0,.2,0,.3v-3.3c0-.1,0-.2,0-.3h0Z"/><path class="uuid-01c600be-d3f2-4894-8675-e6bab93f492a" d="m51.9,38.6v3.3c.1.6.6,1.2,1.4,1.7v-3.3c-.8-.5-1.2-1.1-1.4-1.7h0Z"/><path class="uuid-01c600be-d3f2-4894-8675-e6bab93f492a" d="m53.2,40.3v3.3s0,0,0,0c.3.2.7.4,1.1.5v-3.3c-.4-.1-.8-.3-1.1-.5,0,0,0,0,0,0h0Z"/><path class="uuid-be967e78-593e-4c4b-b5e4-944d4ad0f59e" d="m54.4,40.8v3.3c1,.3,2.1.4,3.1.3v-3.3c-1.1,0-2.2,0-3.1-.3h0Z"/><path class="uuid-01c600be-d3f2-4894-8675-e6bab93f492a" d="m57.5,41.1v3.3c1,0,2-.4,2.8-.8,1-.6,1.5-1.3,1.5-2.1v-3.3c0,.7-.5,1.5-1.5,2.1-.8.5-1.8.7-2.8.8h0Z"/></g></g></g><path class="uuid-7d432831-3270-4c3d-9215-1119bffd0b0e" d="m51.8,38.2c0,.8.4,1.5,1.4,2.1,1.9,1.1,5.1,1.1,7,0,.9-.5,1.4-1.3,1.5-2,0-.8-9.9-.9-9.9-.1Z"/></g><g class="uuid-8c753317-36fe-4bc0-93d8-8971e3c1df81"><g class="uuid-8c753317-36fe-4bc0-93d8-8971e3c1df81"><path class="uuid-01c600be-d3f2-4894-8675-e6bab93f492a" d="m54.3,32.9l-2.5,5.2c0,.7.5,1.5,1.4,2,1.9,1.1,5.1,1.1,7,0,1-.6,1.5-1.3,1.5-2.1l-2.5-5.2c0,.4-.2.7-.7,1-1,.6-2.6.6-3.5,0-.5-.3-.7-.6-.7-1Z"/><g class="uuid-6faf6049-a295-4347-a0a1-69602bf40ad7"><g class="uuid-8c753317-36fe-4bc0-93d8-8971e3c1df81"><path class="uuid-01c600be-d3f2-4894-8675-e6bab93f492a" d="m54.3,32.9l-2.5,5.2c0,.1,0,.2,0,.3l2.5-5.4c0,0,0-.1,0-.2h0Z"/><path class="uuid-01c600be-d3f2-4894-8675-e6bab93f492a" d="m54.3,33.1l-2.5,5.4c.1.6.6,1.2,1.4,1.7l1.8-6.2c-.4-.2-.6-.5-.7-.8h0Z"/><path class="uuid-01c600be-d3f2-4894-8675-e6bab93f492a" d="m55,33.9l-1.8,6.2s0,0,0,0c.3.2.7.4,1.1.5l1.2-6.5c-.2,0-.4-.1-.5-.2,0,0,0,0,0,0h0Z"/><path class="uuid-be967e78-593e-4c4b-b5e4-944d4ad0f59e" d="m55.6,34.1l-1.2,6.5c1,.3,2.1.4,3.1.3l-.4-6.6c-.5,0-1.1,0-1.6-.2h0Z"/><path class="uuid-01c600be-d3f2-4894-8675-e6bab93f492a" d="m57.1,34.3l.4,6.6c1,0,2-.4,2.8-.8,1-.6,1.5-1.3,1.5-2.1l-2.5-5.2c0,.4-.2.7-.7,1-.4.2-.9.4-1.4.4h0Z"/></g></g></g><path class="uuid-7d432831-3270-4c3d-9215-1119bffd0b0e" d="m55,31.9c-1,.6-1,1.5,0,2,1,.6,2.5.6,3.5,0,1-.6,1-1.5,0-2-1-.6-2.5-.6-3.5,0Z"/></g><path class="uuid-b2699404-4fda-4116-8ebc-26c4e345ce66" d="m56.3,55.2s0,0,.1,0c0,0,.1,0,.2,0,0,0,.2,0,.3,0,.3,0,.7,0,1,0,1.5-.1,2.9-.5,4-1.2.7-.4,1.2-.8,1.5-1.3v8.4c-.3.5-.8.9-1.5,1.3-1.1.6-2.5,1-4,1.2-.3,0-.7,0-1,0s-.2,0-.3,0c0,0-.2,0-.3,0,0,0,0,0,0,0-.6,0-1.2,0-1.7-.2v-8.3c.5.1,1.1.2,1.7.2Z"/><path class="uuid-a5b159a8-ac35-4531-979b-ffe2b4796b8a" d="m51.8,50.5s0,0,0,0c.5.3,1,.5,1.5.7.6.2,1.3.3,2,.4v14.1c-.7,0-1.3-.2-2-.4-.6-.2-1.1-.4-1.5-.7,0,0,0,0,0,0-1.1-.7-1.7-1.5-1.9-2.3v-14.1c.1.9.8,1.7,1.9,2.3Z"/></g></g></g></svg>