<?xml version="1.0" encoding="UTF-8"?><svg xmlns="http://www.w3.org/2000/svg" viewBox="0 0 43.3 111.7"><defs><style>.uuid-619fb3d4-cd3f-45d9-8590-07a1d480254f{fill:#fff;}.uuid-ea7f20ec-6623-40bc-8b1f-fd003e36e210{fill:#ffcdce;}.uuid-82edf321-76b1-4d54-9c8a-fa6a64712b04,.uuid-2df5406d-ca33-41d1-b177-07452655034d{fill:#874e6e;}.uuid-82edf321-76b1-4d54-9c8a-fa6a64712b04,.uuid-3eee8f2d-b4e1-4123-971e-5d812afbead2,.uuid-d1ee933e-e26b-4433-98d9-870afd6f8191,.uuid-fe8b8ec3-bb02-4f43-a452-e0e087095359{mix-blend-mode:multiply;}.uuid-c79711a3-6e94-4e25-8a5c-b56afb7cfbd6{fill:#666;}.uuid-c79711a3-6e94-4e25-8a5c-b56afb7cfbd6,.uuid-aa7ff8a8-7d52-498f-8936-6fa81d68ced4,.uuid-f6509565-e20a-4fd7-bc07-85a0dab362c1{mix-blend-mode:screen;}.uuid-aa7ff8a8-7d52-498f-8936-6fa81d68ced4{fill:#999;}.uuid-3eee8f2d-b4e1-4123-971e-5d812afbead2,.uuid-ccb232fc-166e-41d1-bf9f-0d307dd1225e{fill:#ccbaba;}.uuid-5a9df6b4-7420-42e1-998c-0099182dcd7f{isolation:isolate;}.uuid-758b742e-5e37-45c5-be8c-b077479683d3{fill:#4d4d4d;}.uuid-255a3a9a-ba19-48bd-822b-fd8b98cde04a{fill:#ffbf99;}.uuid-096ddaf0-8cc7-4b9b-9f45-90ef574f5ac4{fill:#ffcfb3;}.uuid-b8a39cd2-0931-4faa-a5b4-3b41f133b55d{fill:#b3a1a1;}.uuid-f6509565-e20a-4fd7-bc07-85a0dab362c1{fill:#ccc;}.uuid-18ead10d-fedc-4ac6-8f65-6b448dbae423{fill:#600d4a;}.uuid-e2f1f5ba-fe5a-4d71-89ef-4630066c0688{fill:#da85c0;}.uuid-d7f7afb9-b179-48c8-851f-176e49e57f28{fill:#6b6eb6;}.uuid-191cf95d-18a1-4668-a79e-9fdaf5a20d75{fill:#9076b9;}.uuid-0c1392ff-a515-42f3-b3d9-c0dd5d45994b{fill:#ff8dc3;}.uuid-83b6fdb2-5ac8-4df8-8fac-82e75a344cb8{fill:#e8e0dd;}.uuid-ea364f35-6331-4ff5-8b02-298f7849d42d{fill:#fff7f2;}.uuid-63933faf-9e9f-40d5-8c28-c8d1b99eea0c,.uuid-d1ee933e-e26b-4433-98d9-870afd6f8191{fill:#528ba3;}.uuid-e3455ab5-b61a-4f62-b7cb-13d1b434b97e{fill:#f2eae6;}.uuid-ef642564-46ba-4c98-a305-a9235a1ca5bf{fill:#ff8680;}.uuid-e59f0a01-619d-4f48-a449-53806ec2de79{fill:#b57dbd;}.uuid-8613e6dd-1daf-48bc-b379-15319d57944c{fill:#f2eee3;}.uuid-1f7ee338-e42c-4476-8eff-fb4d16085f1e{fill:#a3e4ff;}.uuid-eee374df-fb0d-42ae-81af-c008d8fba91b{fill:#d9d1ce;}</style></defs><g class="uuid-5a9df6b4-7420-42e1-998c-0099182dcd7f"><g id="uuid-c4ec38b4-21f8-4376-af62-b74a7f6893fe"><g id="uuid-abd68040-a0a0-4130-b98d-7c7c02b5cdc2"><path class="uuid-096ddaf0-8cc7-4b9b-9f45-90ef574f5ac4" d="m15.4,23.6c0,.1,0,.3,0,.4,0,.1-.2.2-.4.3-.4.2-.8.3-1.2.4-2,.5-4,.7-6,.6-1.1,0-2.3,0-3.1-1,0-.1-.2-.2-.2-.3-.5-.8-.7-1.8-.8-2.7-.4-3.6,0-7.2.2-10.8,0-.6,0-1.2,0-1.8,0-.9,0-1.8,0-2.6,0-.8-.3-1.6-.3-2.5,0-.6.1-1.2.5-1.6.3-.3.7-.4,1.1-.3,0-.2.2-.4.4-.5.4-.2.8-.2,1.2-.1,0-.1.1-.2.2-.3.4-.2,1-.2,1.4,0,0-.2.2-.3.4-.4.2,0,.4,0,.6,0,0,0,0-.2,0-.3,0-.2.4-.1.5,0,.1,0,.2.2.3.3,0,.1.2.2.2.4.4.9,0,1.9,0,2.8,0,.3,0,.7,0,1,0,.3-.2.5-.4.8-.3.5-.7.9-1.1,1.2-.2.1-.4.2-.6.3-.3.1-.7.5-.7.9,0,.2,0,.3,0,.5,0,.2,0,.3,0,.5.1.8.3,1.6.4,2.4.2,1,.4,2.1.7,3.1.2.9.4,1.8.7,2.7,0,.3.2.6.3.9,0,0,.1.3.2.3h0c.9,0,1.8-.3,2.7-.2,0,.2,0,.4,0,.6,0,.3.2.5.5.6.7.5,1.3,1.1,1.7,1.8.2.4.3.7.4,1.1,0,.5,0,1,0,1.5Z"/><path class="uuid-255a3a9a-ba19-48bd-822b-fd8b98cde04a" d="m15.4,23.6c0,.1,0,.3,0,.4,0,.1-.2.2-.4.3-.4.2-.8.3-1.2.4-2,.5-4,.7-6,.6-1.1,0-2.3,0-3.1-1,0-.1-.2-.2-.2-.3.4.3.9.4,1.4.4,1.7.2,3.4.2,5-.1.2,0,.3,0,.5-.2.2-.2.2-.5.2-.8-.1-.9-.5-1.7-.6-2.5-.2-.8-.2-1.8.3-2.5.6.9,1.4,1.5,2.3,2.1.7.5,1.5,1,2.1,1.7,0,.5,0,1,0,1.5Z"/><path class="uuid-255a3a9a-ba19-48bd-822b-fd8b98cde04a" d="m10.4,3.5c0,.3,0,.7,0,1,0,.3-.2.5-.4.8-.3.5-.7.9-1.1,1.2-.2.1-.4.2-.6.3-.3.1-.7.5-.7.9,0,.2,0,.3,0,.5,0,.2,0,.3,0,.5.1.8.3,1.6.4,2.4.2,1,.4,2.1.7,3.1.2.9.4,1.8.7,2.7,0,.3.2.6.3.9,0,0,.1.3.2.3-.4,0-1-1.4-1.2-1.7-.4-.7-.7-1.3-1-2-.6-1.4-.9-2.8-1.1-4.3-.2-1.3-.1-2.8.8-3.8.5-.6,1.1-1.1,1.6-1.7.3-.5.6-1.1.7-1.7.2-.8.4-1.7.2-2.5,0,.1.2.2.2.4.4.9,0,1.9,0,2.8Z"/><path class="uuid-8613e6dd-1daf-48bc-b379-15319d57944c" d="m21.5,25.7c0,.2,0,.5-.2.7-.1,0-.3,0-.4,0-1.5-.1-3.1-.5-4.5-1.2-1.5-.7-2.9-1.8-4-3.1-.5-.7-1-1.4-1.3-2.1-.2-.5-.8-1.9,0-2.2,2.5-1,5.1-1.8,7.7-2.3,0,0,.3.4.4.5.2.1.4.2.6.3.1,0,.2.1.4.2.3.2.6.4.8.6.3.3.5.6.6,1,.3.8.5,1.6.5,2.5,0,.9-.3,1.8-.5,2.7-.2.8,0,1.8,0,2.6Z"/><g class="uuid-fe8b8ec3-bb02-4f43-a452-e0e087095359"><path class="uuid-8613e6dd-1daf-48bc-b379-15319d57944c" d="m21.5,25.7c0,.2,0,.5-.2.7-.1,0-.3,0-.4,0-1.5-.1-3.1-.5-4.5-1.2.3-3.2,1.7-6.3,3.6-8.9.3.2.6.4.8.6.3.3.5.6.6,1,.3.8.5,1.6.5,2.5,0,.9-.3,1.8-.5,2.7-.2.8,0,1.8,0,2.6Z"/></g><path class="uuid-8613e6dd-1daf-48bc-b379-15319d57944c" d="m38.3,103.7c-.2.3-.5.6-.8.9-.7.9-1,2.1-1.3,3.3-.3,1.1-.8,2.3-1.7,3.1-.6.5-1.3.7-2.1.7-.7,0-1.5-.1-2.2-.4-.4-.2-.8-.4-1.1-.6-.3-.3-.5-.7-.5-1.2,0-.5.4-1,.8-1.4.7-.7,1.5-1.3,2-2.2.7-1.1,1.3-2.4,1.7-3.6.2-.5.3-.9.4-1.4,0-.3.2-.6.2-.9,0-.1,0-.2,0-.4,0-.4,0-.9.2-1.3.3-.6,1.4-.7,2-.7.4,0,.8.2,1.1.4.9.5,1.6,1.5,1.8,2.5.2,1,0,2.2-.7,3Z"/><g class="uuid-fe8b8ec3-bb02-4f43-a452-e0e087095359"><path class="uuid-8613e6dd-1daf-48bc-b379-15319d57944c" d="m38.3,103.7c-.2.3-.5.6-.8.9-.7.9-1,2.1-1.3,3.3-.3,1.1-.8,2.3-1.7,3.1-.6.5-1.3.7-2.1.7.5-.4,1-.8,1.4-1.3.9-1.2,1.2-2.8,1.5-4.3.1-.8.3-1.5.5-2.3.3-.9.9-1.6,0-2.4-.4-.3-.9-.5-1.3-.8-.2-.1-.5-.3-.7-.5,0-.1,0-.2,0-.4,0-.4,0-.9.2-1.3.3-.6,1.4-.7,2-.7.4,0,.8.2,1.1.4.9.5,1.6,1.5,1.8,2.5.2,1,0,2.2-.7,3Z"/></g><path class="uuid-8613e6dd-1daf-48bc-b379-15319d57944c" d="m27.7,96.3c-.3.9-1.3,1.4-2.1,1.8-.9.4-1.9.7-2.3,1.6-.2.3-.2.7-.4,1-.3,1-.7,2-1.6,2.6-.3.2-.7.4-1.1.6-.4.2-.9.3-1.3.3-.2,0-.5,0-.7-.1-.2,0-.4-.2-.6-.4-.4-.4-.4-1.1-.2-1.6.2-.5.5-1,.9-1.5.7-.8,1.4-1.7,1.8-2.7.5-.9.6-2,.7-3.1,0-.1,0-.2,0-.3v-.2c0-.6,0-1.1.2-1.7,0,0,0-.1.1-.2s.1,0,.2,0c.7,0,1.5.1,2.2,0,.7,0,1.5-.3,2.1-.7,0,0,.2.7.3.7.1.2.3.4.5.6.4.4.8.8,1,1.3.3.6.4,1.3.2,1.9Z"/><g class="uuid-fe8b8ec3-bb02-4f43-a452-e0e087095359"><path class="uuid-8613e6dd-1daf-48bc-b379-15319d57944c" d="m27.7,96.3c-.3.9-1.3,1.4-2.1,1.8-.9.4-1.9.7-2.3,1.6-.2.3-.2.7-.4,1-.3,1-.7,2-1.6,2.6-.3.2-.7.4-1.1.6-.4.2-.9.3-1.3.3-.2,0-.5,0-.7-.1.3-.1.7-.3,1-.4,1-.5,1.9-1.3,2.4-2.2.4-.8.6-1.7,1-2.5.5-1.1,1.1-2.1,2-2.9.2-.2.5-.4.4-.7,0-.4-.6-.4-.9-.3-.6,0-1.2.1-1.8,0-.4,0-.9-.4-1.3-.7,0-.6,0-1.1.2-1.7,0,0,0-.1.1-.2s.1,0,.2,0c.7,0,1.5.1,2.2,0,.7,0,1.5-.3,2.1-.7,0,0,.2.7.3.7.1.2.3.4.5.6.4.4.8.8,1,1.3.3.6.4,1.3.2,1.9Z"/></g><path class="uuid-63933faf-9e9f-40d5-8c28-c8d1b99eea0c" d="m31.7,53.5c-.5,3.3-1.4,6.6-2.8,9.6-.7,1.5-1.5,3-2.3,4.4-.8,1.2-1.8,2.4-1.6,3.9.3,2.2,1.2,4.2,1.3,6.4.2,2.4,0,4.8-.2,7.2,0,1.2-.3,6-.3,7.2,0,0,0,.1,0,.2,0,0,0,.1-.1.2-.2.3-.5.6-.8.8,0,0,0,0,0,0-.6.5-1.4.8-2.2.8-.5,0-1.8-.2-1.9-.8-.2-.6-.2-1.4-.2-2-.1-.9-.9-6.8-1.2-8.9-.3-2-.5-3.9-.8-5.9-.2-1.1-.3-2.1-.5-3.1-.3-1.5-.6-3.1-.5-4.7,0-1.6.4-3.2.8-4.7.2-.8,1.8-7.5,2.5-10.7,0-.2,0-.3,0-.4.3-1.8.6-3.6,1.4-5.3.1-.3.3-.6.6-.6.2,0,.3,0,.5.2.6.3,1.4.5,2.1.4.7,0,1.3-.3,2.1-.2.7.1,1.3.4,1.9.9.6.5,1.3,1.3,1.6,2,.2.7.6,1.4.7,2.1,0,.3,0,.7,0,1Z"/><path class="uuid-d1ee933e-e26b-4433-98d9-870afd6f8191" d="m31.7,53.5c-.5,3.3-1.4,6.6-2.8,9.6-.7,1.5-1.5,3-2.3,4.4-.8,1.2-1.8,2.4-1.6,3.9.3,2.2,1.2,4.2,1.3,6.4.2,2.4,0,4.8-.2,7.2,0,1.2-.3,6-.3,7.2,0,0,0,.1,0,.2,0,0,0,.1-.1.2-.2.3-.5.6-.8.8,0,0,0,0,0,0-.4-7.2-.8-14.5-1.3-21.7,0-1.4-.2-2.7.2-4.1.4-1.8,1.6-3.3,2.3-5,.5-1.1.9-2.4.4-3.5-.5-1.3-1.9-2-3-2.8-1.2-.8-2.1-1.8-2.8-3,0-.2,0-.3,0-.4.3-1.8.6-3.6,1.4-5.3.1-.3.3-.6.6-.6.2,0,.3,0,.5.2.6.3,1.4.5,2.1.4.7,0,1.3-.3,2.1-.2.7.1,1.3.4,1.9.9.6.5,1.3,1.3,1.6,2,.2.7.6,1.4.7,2.1,0,.3,0,.7,0,1Z"/><path class="uuid-63933faf-9e9f-40d5-8c28-c8d1b99eea0c" d="m42.8,58.7c-.6,3.4-1.3,6.7-2.3,10-.9,2.9-2.6,6.2-2.3,9.2.3,2.9,1.7,5.6,1.8,8.6,0,2.8,0,5.8-.7,8.6-.3,1.2-.5,2.4-.8,3.6-.2.6-.2,1-.8,1.3-.1,0-.2,0-.4.1-1,.3-2.1.2-3-.3-.5-.3-.4-.7-.5-1.2-.2-.6-2.7-17.4-3.2-22.4-.3-2.5-.4-5-.5-7.5-.2-3.7-.3-7.5-.3-11.2,0-3.1.3-6.3.8-9.3,0,.2.7.9.9,1,.4.4.8.7,1.2.9.4.2.8.5,1.2.5.5,0,1.1-.4,1.5-.5,1.3-.3,2.7-.4,3.9.1,1,.4,1.8,1.1,2.6,1.9.3.4.9.2,1.2-.2.4,2.2.2,4.5-.2,6.7Z"/><path class="uuid-d1ee933e-e26b-4433-98d9-870afd6f8191" d="m42.8,58.7c-.6,3.4-1.3,6.7-2.3,10-.9,2.9-2.6,6.2-2.3,9.2.3,2.9,1.7,5.6,1.8,8.6,0,2.8,0,5.8-.7,8.6-.3,1.2-.5,2.4-.8,3.6-.2.6-.2,1-.8,1.3-.1,0-.2,0-.4.1,0-2.7-.2-5.5-.5-8.2-.5-4.4-1.2-8.7-1.5-13.1-.2-4.4,0-8.9,1.7-13,.5-1.1,1-2.3,1.1-3.5.1-1.2-.3-2.6-1.4-3.2-1.6-.9-3.8-.4-5.6-.9-.6-.2-1.1-.4-1.5-.7,0-3.1.3-6.3.8-9.3,0,.2.7.9.9,1,.4.4.8.7,1.2.9.4.2.8.5,1.2.5.5,0,1.1-.4,1.5-.5,1.3-.3,2.7-.4,3.9.1,1,.4,1.8,1.1,2.6,1.9.3.4.9.2,1.2-.2.4,2.2.2,4.5-.2,6.7Z"/><path class="uuid-8613e6dd-1daf-48bc-b379-15319d57944c" d="m43.2,53c-.1.5-.3.7-.8,1-.8.4-1.5.9-2.3,1.2-1.1.5-2.2.8-3.4,1-.8.2-1.6.3-2.4.4-1.7.2-3.4.3-5,.1-2.5-.2-5-1-7.1-2.3-1.5-.9-1.4-2.3-1.4-3.9,0-1.1-.1-2.1-.2-3.2-.3-5.6-1.2-22.3-1.3-25.1-.1-2.6-.5-5.1.2-7.5.5-1.8,2.7-2.8,4.4-2.9,1.4-.1,2.8.2,4.1.5,1.3.3,2.7.5,3.9,1.1,1.2.7,2.4,1.3,3.6,2.1,1.6,1,2.8,2.1,4,3.5,1.7,2,2.6,4.5,2.7,7.1,0,.3,0,.6,0,.9,0,.4-.2.8-.2,1.1,0,.2,0,.4,0,.6-.1,1.6,0,3.2,0,4.8.1,1.9.3,3.9.5,5.8.3,3.1,1.1,12.3.8,13.6Z"/><g class="uuid-fe8b8ec3-bb02-4f43-a452-e0e087095359"><path class="uuid-8613e6dd-1daf-48bc-b379-15319d57944c" d="m43.2,53c-.1.5-.3.7-.8,1-.8.4-1.5.9-2.3,1.2-1.1.5-2.2.8-3.4,1-.8.2-1.6.3-2.4.4-.3-.8-.6-1.6-.8-2.4-1.2-4.1-2.4-8.2-2.6-12.4,0-2,0-4.1.3-6.1.3-2.9.8-5.9,1.9-8.6.9-2.1,2.2-5.1,5.1-3.7,2,1,3.1,3.2,3.8,5.4-.1,1.6,0,3.2,0,4.8.1,1.9.3,3.9.5,5.8.3,3.1,1.1,12.3.8,13.6Z"/></g><path class="uuid-096ddaf0-8cc7-4b9b-9f45-90ef574f5ac4" d="m34.1,17.2c-.3.5-.8.9-1.2,1.3-.7.5-1.3,1-2.1,1.4h0c-.7.4-1.5.7-2.3,1-.5.2-1.1.3-1.6.2-.5,0-1.1-.5-1.2-1,0-.2,0-.5-.1-.7-.2-.7-1.1-1.1-1.6-1.6-.6-.6-1.1-1.3-1.3-2.1-.5-1.7,0-3.5.4-5.3.2-.7.3-1.4.8-1.9.6-.7,1.6-.9,2.4-.6.4.2.8.4,1,.8.5.5.8,1.2,1.2,1.8.9,1.3,2.1,2.4,3.5,3.1.5.2.9.4,1.4.7.4.3.8.7,1,1.1.2.6,0,1.2-.2,1.8Z"/><path class="uuid-255a3a9a-ba19-48bd-822b-fd8b98cde04a" d="m34.1,17.2c-.3.5-.8.9-1.2,1.3-.7.5-1.3,1-2.1,1.4.2-.4.4-.7.5-1.2.3-1.3-.7-2.5-1.6-3.3-.7-.5-1.4-1-2.1-1.5,0,0,0,0-.1,0-.6-.5-1.2-1.1-1.4-1.9-.3-1.1,0-2.3.9-3,.1,0,.2-.2.4-.3.5.5.8,1.2,1.2,1.8.9,1.3,2.1,2.4,3.5,3.1.5.2.9.4,1.4.7.4.3.8.7,1,1.1.2.6,0,1.2-.2,1.8Z"/><path class="uuid-096ddaf0-8cc7-4b9b-9f45-90ef574f5ac4" d="m26.2,13c-.1.3-.3.6-.4.9,0,.4,0,.9,0,1.3,0,.4,0,.8,0,1.2,0,.4,0,.8-.3,1.1-.2.3-.4.5-.6.7-1,.8-1.9,1.7-3.1,2.2-.3.1-.5.2-.8.2,0,0-.2,0-.3,0-.3-.1-.6-.4-.9-.7-.3-.3-.6-.6-.9-1-.3-.3-.4-.5-.9-.4-.2,0-.3.2-.5.2-.1,0-.2,0-.4,0-.2,0-.3,0-.5-.2-.1,0-.2-.2-.2-.4-.1-.6,0-1.3,0-2,0-.2,0-.4,0-.6-.2-.4-.5-.6-.8-.9-.4-.3-.7-.8-.9-1.2-.5-.9-.9-1.8-1.3-2.8-.4-1.1-.7-2.3-.3-3.4,0-.2.2-.4.4-.4s.3.1.4.2c.3.2.5.1.7,0,.3-.2.6-.3.9-.3,1-.2,2.1,0,3,.4.5.2,1,.4,1.5.6s.8.4,1.2.7c.5.3,1,.6,1.5.8.7.2,1.5.1,2.2.4.5.2.9.6,1.1,1.1.3.7.3,1.5.1,2.2Z"/><path class="uuid-255a3a9a-ba19-48bd-822b-fd8b98cde04a" d="m26.2,13c-.1.3-.3.6-.4.9,0,.4,0,.9,0,1.3,0,.4,0,.8,0,1.2,0,.4,0,.8-.3,1.1-.2.3-.4.5-.6.7-1,.8-1.9,1.7-3.1,2.2-.3.1-.5.2-.8.2,0,0-.2,0-.3,0,.2-.5.3-1,.4-1.5.1-1,0-2.1-.4-2.9-.4-.7-1-1.3-1.5-1.8-.6-.6-1.1-1.2-1.5-2-.4-.7-.7-1.8-.3-2.6.5-.8,1.2-1.4,2.1-1.7.2,0,.4-.1.5-.2.4.2.8.4,1.2.7.5.3,1,.6,1.5.8.7.2,1.5.1,2.2.4.5.2.9.6,1.1,1.1.3.7.3,1.5.1,2.2Z"/><path class="uuid-2df5406d-ca33-41d1-b177-07452655034d" d="m28,11.9c-.1.3-.3.6-.6.9-.3.2-.7.3-1,0-.3-.2-.4-.6-.4-1-.1-.8-.4-1.6-1.1-1.9-.5-.2-1,0-1.4.3-.4.4-.6.8-.6,1.4,0,.3,0,.7,0,1,0,.2-.2.5-.3.7,0,0,0,.1-.1.2,0,0-.2,0-.3,0-.6-.1-1-.5-1.6-.7-.5-.2-1-.1-1.5-.3-.5-.2-.9-.5-1-1,0-.3,0-.6-.1-.9,0-.4-.4-.7-.7-.9-.2,0-.3-.1-.5-.1-.6,0-1,.5-1.5.9-.4.4-.9.7-1.5.7-1.4.2-1.5-1.8-1.5-2.8,0-1.2.4-2.3.9-3.3.8-1.5,2-2.8,3.4-3.6,1.9-1.2,4.1-1.6,6.2-1t0,0c1.9.6,3.5,1.8,4.6,3.4.8,1.1,1.1,2.3,1.3,3.6.2,1.4,0,2.8-.5,4.1Z"/><path class="uuid-82edf321-76b1-4d54-9c8a-fa6a64712b04" d="m28,11.9c-.1.3-.3.6-.6.9-.3.2-.7.3-1,0-.3-.2-.4-.6-.4-1-.1-.8-.4-1.6-1.1-1.9-.5-.2-1,0-1.4.3-.4.4-.6.8-.6,1.4,0,.3,0,.7,0,1,0,.2-.2.5-.3.7,0,0,0,.1-.1.2,0,0-.2,0-.3,0-.6-.1-1-.5-1.6-.7-.5-.2-1-.1-1.5-.3-.5-.2-.9-.5-1-1,0-.3,0-.6-.1-.9,0-.4-.4-.7-.7-.9,0,0,0,0,0,0,.3-.1.5-.2.8-.4,1-.5,1.9-1.3,2.6-2.1.4-.5.8-1,1.1-1.6.8-1.5,1.2-3.3,1-5.1,1.9.6,3.5,1.8,4.6,3.4.8,1.1,1.1,2.3,1.3,3.6.2,1.4,0,2.8-.5,4.1Z"/><path class="uuid-096ddaf0-8cc7-4b9b-9f45-90ef574f5ac4" d="m39.6,36.6c-.9,2.3-2,4.5-3.1,6.7-.3.6-.6,1.3-1.1,1.8-.4.5-.9.7-1.5.9-.5.1-1.1.2-1.6.2-.4,0-.9,0-1.3,0-2.7,0-5.4,0-8-.5-1.3-.2-2.6-.4-4-.7-.7-.2-3.1-.9-3.7-.9-.3,0-.5-.1-.8-.2-1.1-.2-2.3-.2-3.5-.3-.7,0-1.3-.2-1.9-.4-.5-.2-1-.4-1.5-.6-.2-.1-.5-.2-.7-.4,0,0-.2-.2-.2-.2-.1-.2-.3-.4-.4-.6-.3-.4-.8-.7-1.2-1.1-.1-.1-.2-.2-.3-.4,0-.2,0-.4,0-.5s.1,0,.2-.1c.2-.2.3-.4.5-.7.3-.4.8-.6,1.2-.5.2,0,.4.2.6.2.2,0,.4-.2.6-.2.6-.2,1.3.2,1.9.6.2,0,.3.2.4.4,0,0,0,.2.1.3,0,.1.2.2.4.3.7.2,1.5-.1,2.2,0,.6,0,1.2.4,1.7.8.7.5,1.4.9,2.3.9,1.1,0,2.1.1,3.2,0,2.3,0,4.7-.5,7-.8.8-.1,1.6-.3,2.4-.4.5,0,1.1,0,1.5-.5.4-.5.5-1.2.7-1.8.2-.6.3-1.2.5-1.8,0-.3.2-.6.3-.9.3-1,1-1.9,2-2.3.9-.4,1.9-.4,2.9-.2.5.1,1.1.3,1.5.5.5.3.8.7,1,1.3.2.6,0,1.3-.3,1.9Z"/><path class="uuid-255a3a9a-ba19-48bd-822b-fd8b98cde04a" d="m39.6,36.6c-.9,2.3-2,4.5-3.1,6.7-.3.6-.6,1.3-1.1,1.8-.4.5-.9.7-1.5.9-.5.1-1.1.2-1.6.2-.4,0-.9,0-1.3,0-2.7,0-5.4,0-8-.5-1.3-.2-2.6-.4-4-.7-.7-.2-3.1-.9-3.7-.9-.3,0-.5-.1-.8-.2-1.1-.2-2.3-.2-3.5-.3-.7,0-1.3-.2-1.9-.4-.5-.2-1-.4-1.5-.6-.2-.1-.5-.2-.7-.4,2.2.4,4.4.7,6.5.9,1.6.1,3.2.2,4.7.5,1.8.3,3.6,1,5.4,1.3,2.5.5,5.1.5,7.6,0,.9-.2,1.9-.5,2.6-1,1.5-1.1,2.2-3.1,2.4-5,0-.2,0-.5,0-.7-.2-.3-.5-.4-.9-.5-.9-.3-1.7-.7-2.5-1.2-.3-.2-.5-.4-.7-.5,0-.3.2-.6.3-.9.3-1,1-1.9,2-2.3.9-.4,1.9-.4,2.9-.2.5.1,1.1.3,1.5.5.5.3.8.7,1,1.3.2.6,0,1.3-.3,1.9Z"/><path class="uuid-ccb232fc-166e-41d1-bf9f-0d307dd1225e" d="m5.8,41.8l6.7-1.1c.1,0,.2,0,.2-.1v-.3c0,0-.1,0-.1,0l-2.6-2.5c-.1-.1-.4-.2-.6-.2l-6,1h-.6c0,0-.2,0-.2,0v.3c0,0,0,0,0,0,0,0,0,.1,0,.2l2.6,2.6c0,0,.2.1.3.2,0,0,.2,0,.3,0Z"/><path class="uuid-758b742e-5e37-45c5-be8c-b077479683d3" d="m7.6,41.3s0,0,0,0c0,0,0,0,0,0h-.7c0,.1,0,.2-.1.2h0c0,0,0,0,0,0h0s0,0,0,0c0,0,0,0,0,0h.7c0-.1,0-.2.1-.2h0c0,0,0,0,0,0Z"/><path class="uuid-83b6fdb2-5ac8-4df8-8fac-82e75a344cb8" d="m6.9,41.4h.7c0-.1,0-.1,0,0h0s0,0,0,0h-.7c0,.1,0,.1,0,.1,0,0,0,0,0,0,0,0,0,0,0,0h0c0,0,0,0,0,0h0c0,0,0,0,0,0h0c0,0,0,0,0,0,0,0,0,0,0,0,0,0,0,0,0,0Z"/><path class="uuid-ea364f35-6331-4ff5-8b02-298f7849d42d" d="m6.8,41.5h0c0,0,0,0,0,0h0c0,0,0,0,0,0h0c0,0,0,0,0,0h0c0,0,0,0,0,0Z"/><path class="uuid-e3455ab5-b61a-4f62-b7cb-13d1b434b97e" d="m6.9,41.4h0c0,0,0,0,0,.1h0c0,0,0-.1,0-.1Z"/><path class="uuid-b8a39cd2-0931-4faa-a5b4-3b41f133b55d" d="m6.9,41.4h.7c0-.1,0-.1,0,0h0s0,0,0,0h0c0,0,0,.1,0,.1h-.7c0,.1,0,.1,0,0h0s0,0,0,0h0c0,0,0-.1,0-.1Z"/><path class="uuid-e3455ab5-b61a-4f62-b7cb-13d1b434b97e" d="m5.5,41.8v-.4c0,0-.6-1.4-.6-1.4l-1.6-1.4h-.6c0,0-.2,0-.2,0v.3c0,0,0,0,0,0,0,0,0,.1,0,.2l2.6,2.6c0,0,.2.1.3.2Z"/><path class="uuid-ea7f20ec-6623-40bc-8b1f-fd003e36e210" d="m9.4,37.3l-6.7,1.1c-.1,0-.2,0-.2.1,0,0,0,0,0,0,0,0,0,.1,0,.2l2.6,2.6c.1.1.4.2.6.2l6.7-1.1c.1,0,.2,0,.2-.1h0s0,0,0-.1l-2.6-2.6c-.1-.1-.4-.2-.6-.2Z"/><path class="uuid-3eee8f2d-b4e1-4123-971e-5d812afbead2" d="m11.3,39.1h0s0,0,0,0c0,0,0,0,0,0,0,0,0,0,0,0l-.6-.6h0c0,0-.1-.1-.2-.1h0s0,0,0,0h0s0,0,0,0c0,0,0,0,0,0l.6.6h0s.1,0,.2,0Z"/><path class="uuid-3eee8f2d-b4e1-4123-971e-5d812afbead2" d="m5.1,40.5h0s0,0,0,0c0,0,0,0,0,0,0,0,0,0,0,0l-.8-.8s0,0-.1,0h0s0,0,0,0h0s0,0,0,0l.8.8s0,0,.1,0Z"/><path class="uuid-18ead10d-fedc-4ac6-8f65-6b448dbae423" d="m12,40.2s0,0,0,0l-2.5-2.5c0,0-.2,0-.2,0l-5.2.8h-.3c0,0,0,.1,0,.2,0,0,0,0,0,0l2.5,2.5c0,0,.2,0,.2,0l5.5-.9c0,0,0,0,0-.1Z"/><path class="uuid-1f7ee338-e42c-4476-8eff-fb4d16085f1e" d="m6.4,41.2h.2s4.2-.7,4.2-.7h.2s.9-.2.9-.2c0,0,0,0,0-.1l-2.5-2.5c0,0-.1,0-.2,0h-.9c0,.1-.2.2-.2.2l-4.2.7h-.3c0,0,0,.1,0,.2l2.5,2.5c0,0,.1,0,.2,0Z"/><path class="uuid-ef642564-46ba-4c98-a305-a9235a1ca5bf" d="m7.5,30.1c0-.5-.2-1.1-.6-1.5-.4-.5-1.1-.7-1.7-.7-.6,0-1.2.5-1.4,1-.4-.3-.9-.6-1.4-.8-.9-.3-1.8,0-2.2.9-.3.7-.2,1.6.2,2.2.5.8,1.2,1.4,2,1.8.4.2.8.5,1.1.7.4.3.8.5,1.2.9.7.7,1,1.6,1.3,2.5-.3-1-.4-2.1-.2-3.1.2-.8.6-1.5,1-2.3.2-.4.5-.8.6-1.3,0-.2,0-.4,0-.6Z"/><path class="uuid-ccb232fc-166e-41d1-bf9f-0d307dd1225e" d="m5,40.5h0s0,0,0,0h0s0,0,0,0h0s0,0,0,0c0,0,0,0-.1,0,0,0,0,0,0,0l-.8-.8s0,0,0,0h0s0,0,0,0l.8.8s0,0,0,0c0,0,0,0,.1,0,0,0,0,0,0,0Z"/><path class="uuid-ea364f35-6331-4ff5-8b02-298f7849d42d" d="m4.9,40.5h0s0,0,0,0l-.8-.8s0,0,0,0h0s0,0,0,0l.8.8s0,0,0,0Z"/><path class="uuid-83b6fdb2-5ac8-4df8-8fac-82e75a344cb8" d="m5,40.5h0s0,0-.1,0h0c0,0,0,0,.1,0Z"/><path class="uuid-e3455ab5-b61a-4f62-b7cb-13d1b434b97e" d="m5,40.5h0s0,0,0,0c0,0,0,0,0,0,0,0,0,0,0,0l-.8-.8s0,0-.1,0h0s0,0,0,0h0s0,0,0,0l.8.8s0,0,.1,0Z"/><path class="uuid-ccb232fc-166e-41d1-bf9f-0d307dd1225e" d="m4.3,39.7s0,0,0,0,0,0,0,0,0,0,0,0c0,0,0,0,0,0Z"/><path class="uuid-ea364f35-6331-4ff5-8b02-298f7849d42d" d="m4.3,39.7s0,0,0,0c0,0,0,0,0,0,0,0,0,0,0,0,0,0,0,0,0,0,0,0,0,0,0,0,0,0,0,0,0,0Z"/><path class="uuid-ccb232fc-166e-41d1-bf9f-0d307dd1225e" d="m4.3,39.8s0,0,0,0,0,0,0,0c0,0,0,0,0,0,0,0,0,0,0,0Z"/><path class="uuid-ea364f35-6331-4ff5-8b02-298f7849d42d" d="m4.3,39.7s0,0,0,0c0,0,0,0,0,0,0,0,0,0,0,0,0,0,0,0,0,0,0,0,0,0,0,0,0,0,0,0,0,0Z"/><path class="uuid-ccb232fc-166e-41d1-bf9f-0d307dd1225e" d="m4.4,39.8s0,0,0,0c0,0,0,0,0,0s0,0,0,0c0,0,0,0,0,0Z"/><path class="uuid-ea364f35-6331-4ff5-8b02-298f7849d42d" d="m4.4,39.8s0,0,0,0,0,0,0,0c0,0,0,0,0,0,0,0,0,0,0,0,0,0,0,0,0,0,0,0,0,0,0,0Z"/><path class="uuid-ccb232fc-166e-41d1-bf9f-0d307dd1225e" d="m4.5,39.9s0,0,0,0c0,0,0,0,0,0,0,0,0,0,0,0,0,0,0,0,0,0Z"/><path class="uuid-ea364f35-6331-4ff5-8b02-298f7849d42d" d="m4.5,39.9s0,0,0,0c0,0,0,0,0,0,0,0,0,0,0,0,0,0,0,0,0,0,0,0,0,0,0,0,0,0,0,0,0,0Z"/><path class="uuid-ccb232fc-166e-41d1-bf9f-0d307dd1225e" d="m4.6,40s0,0,0,0,0,0,0,0c0,0,0,0,0,0s0,0,0,0Z"/><path class="uuid-ea364f35-6331-4ff5-8b02-298f7849d42d" d="m4.6,40s0,0,0,0c0,0,0,0,0,0,0,0,0,0,0,0,0,0,0,0,0,0,0,0,0,0,0,0,0,0,0,0,0,0Z"/><path class="uuid-ccb232fc-166e-41d1-bf9f-0d307dd1225e" d="m4.6,40.1s0,0,0,0c0,0,0,0,0,0s0,0,0,0c0,0,0,0,0,0Z"/><path class="uuid-ea364f35-6331-4ff5-8b02-298f7849d42d" d="m4.6,40s0,0,0,0c0,0,0,0,0,0,0,0,0,0,0,0,0,0,0,0,0,0,0,0,0,0,0,0,0,0,0,0,0,0Z"/><path class="uuid-ccb232fc-166e-41d1-bf9f-0d307dd1225e" d="m4.7,40.1s0,0,0,0,0,0,0,0c0,0,0,0,0,0s0,0,0,0Z"/><path class="uuid-ea364f35-6331-4ff5-8b02-298f7849d42d" d="m4.7,40.1s0,0,0,0c0,0,0,0,0,0,0,0,0,0,0,0,0,0,0,0,0,0,0,0,0,0,0,0,0,0,0,0,0,0Z"/><path class="uuid-ccb232fc-166e-41d1-bf9f-0d307dd1225e" d="m4.8,40.2s0,0,0,0c0,0,0,0,0,0s0,0,0,0c0,0,0,0,0,0Z"/><path class="uuid-ea364f35-6331-4ff5-8b02-298f7849d42d" d="m4.8,40.2s0,0,0,0c0,0,0,0,0,0,0,0,0,0,0,0,0,0,0,0,0,0,0,0,0,0,0,0,0,0,0,0,0,0Z"/><path class="uuid-ccb232fc-166e-41d1-bf9f-0d307dd1225e" d="m4.9,40.3s0,0,0,0,0,0,0,0c0,0,0,0,0,0,0,0,0,0,0,0Z"/><path class="uuid-ea364f35-6331-4ff5-8b02-298f7849d42d" d="m4.9,40.3s0,0,0,0c0,0,0,0,0,0,0,0,0,0,0,0,0,0,0,0,0,0,0,0,0,0,0,0,0,0,0,0,0,0Z"/><path class="uuid-ccb232fc-166e-41d1-bf9f-0d307dd1225e" d="m4.9,40.4s0,0,0,0c0,0,0,0,0,0,0,0,0,0,0,0s0,0,0,0Z"/><path class="uuid-ea364f35-6331-4ff5-8b02-298f7849d42d" d="m4.9,40.3s0,0,0,0c0,0,0,0,0,0,0,0,0,0,0,0,0,0,0,0,0,0,0,0,0,0,0,0,0,0,0,0,0,0Z"/><path class="uuid-ccb232fc-166e-41d1-bf9f-0d307dd1225e" d="m5,40.4s0,0,0,0c0,0,0,0,0,0,0,0,0,0,0,0,0,0,0,0,0,0Z"/><path class="uuid-ea364f35-6331-4ff5-8b02-298f7849d42d" d="m5,40.4s0,0,0,0c0,0,0,0,0,0,0,0,0,0,0,0,0,0,0,0,0,0,0,0,0,0,0,0,0,0,0,0,0,0Z"/><path class="uuid-aa7ff8a8-7d52-498f-8936-6fa81d68ced4" d="m4.7,40.2c0-.2-.2-.3-.3-.5h0c0-.1,0-.1-.1-.1h0s0,0,0,0h0s0,0,0,0l.5.5Z"/><path class="uuid-619fb3d4-cd3f-45d9-8590-07a1d480254f" d="m3.8,39.1s0,0,0,0c0,0,0,0,0,0,0,0-.1,0-.2,0,0,0,0,0,0,0,0,0,0,0,0,0,0,0,0,0,0,0,0,0,.1,0,.2,0,0,0,0,0,0,0Z"/><path class="uuid-d7f7afb9-b179-48c8-851f-176e49e57f28" d="m3.8,39.1s0,0,0,0c0,0,0,0,0,0,0,0-.1,0-.2,0,0,0,0,0,0,0,0,0,0,0,0,0,0,0,0,0,0,0,0,0,.1,0,.2,0,0,0,0,0,0,0Z"/><path class="uuid-191cf95d-18a1-4668-a79e-9fdaf5a20d75" d="m3.7,39.1s0,0,0,0c0,0,0,0,0,0,0,0,0,0-.1,0,0,0,0,0,0,0,0,0,0,0,0,0,0,0,0,0,0,0,0,0,0,0,.1,0,0,0,0,0,0,0Z"/><path class="uuid-e59f0a01-619d-4f48-a449-53806ec2de79" d="m3.7,39.1s0,0,0,0c0,0,0,0,0,0,0,0,0,0,0,0,0,0,0,0,0,0h0s0,0,0,0c0,0,0,0,0,0,0,0,0,0,0,0Z"/><path class="uuid-e2f1f5ba-fe5a-4d71-89ef-4630066c0688" d="m3.7,39.2h0s0,0,0,0c0,0,0,0,0,0,0,0,0,0,0,0,0,0,0,0,0,0,0,0,0,0,0,0,0,0,0,0,0,0,0,0,0,0,0,0Z"/><path class="uuid-0c1392ff-a515-42f3-b3d9-c0dd5d45994b" d="m3.7,39.2h0s0,0,0,0c0,0,0,0,0,0,0,0,0,0,0,0h0s0,0,0,0c0,0,0,0,0,0,0,0,0,0,0,0Z"/><path class="uuid-c79711a3-6e94-4e25-8a5c-b56afb7cfbd6" d="m3.6,39.1h0s0,0,0,0c0,0,0,0,0,0,0,0,0,0,0,0,0,0,0,0,0,0,0,0,0,0,0,0,0,0,0,0,0,0,0,0,0,0,0,0Z"/><path class="uuid-c79711a3-6e94-4e25-8a5c-b56afb7cfbd6" d="m3.6,39.1h0s0,0,0,0c0,0,0,0,0,0s0,0,0,0h0s0,0,0,0c0,0,0,0,0,0,0,0,0,0,0,0Z"/><polygon class="uuid-c79711a3-6e94-4e25-8a5c-b56afb7cfbd6" points="3.6 39.1 3.6 39.1 3.6 39.1 3.6 39.1 3.6 39.1 3.6 39.1 3.6 39.1 3.6 39.1 3.6 39.1"/><path class="uuid-619fb3d4-cd3f-45d9-8590-07a1d480254f" d="m3.6,38.9s0,0,0,0c0,0,0,0,0,0,0,0-.2-.1-.3,0,0,0,0,0,0,0h0s0,0,0,0c0,0,.2.1.3,0,0,0,0,0,0,0Z"/><path class="uuid-d7f7afb9-b179-48c8-851f-176e49e57f28" d="m3.5,38.9s0,0,0,0c0,0,0,0,0,0,0,0-.2,0-.3,0,0,0,0,0,0,0,0,0,0,0,0,0,0,0,0,0,0,0,0,0,.2,0,.3,0,0,0,0,0,0,0Z"/><path class="uuid-191cf95d-18a1-4668-a79e-9fdaf5a20d75" d="m3.5,38.9s0,0,0,0c0,0,0,0,0,0,0,0-.2,0-.2,0,0,0,0,0,0,0,0,0,0,0,0,0,0,0,0,0,0,0,0,0,.2,0,.2,0,0,0,0,0,0,0Z"/><path class="uuid-e59f0a01-619d-4f48-a449-53806ec2de79" d="m3.5,38.9s0,0,0,0c0,0,0,0,0,0,0,0-.1,0-.2,0,0,0,0,0,0,0,0,0,0,0,0,0,0,0,0,0,0,0,0,0,.1,0,.2,0,0,0,0,0,0,0Z"/><path class="uuid-e2f1f5ba-fe5a-4d71-89ef-4630066c0688" d="m3.4,38.9h0s0,0,0,0c0,0,0,0-.1,0,0,0,0,0,0,0,0,0,0,0,0,0,0,0,0,0,0,0,0,0,0,0,.1,0,0,0,0,0,0,0Z"/><path class="uuid-0c1392ff-a515-42f3-b3d9-c0dd5d45994b" d="m3.4,38.9h0s0,0,0,0c0,0,0,0,0,0,0,0,0,0,0,0,0,0,0,0,0,0,0,0,0,0,0,0,0,0,0,0,0,0,0,0,0,0,0,0Z"/><path class="uuid-c79711a3-6e94-4e25-8a5c-b56afb7cfbd6" d="m3.3,38.8s0,0,0,0c0,0,0,0,0,0,0,0,0,0,0,0,0,0,0,0,0,0,0,0,0,0,0,0,0,0,0,0,0,0,0,0,0,0,0,0,0,0,0,0,0,0Z"/><path class="uuid-c79711a3-6e94-4e25-8a5c-b56afb7cfbd6" d="m3.3,38.8s0,0,0,0c0,0,0,0,0,0,0,0,0,0,0,0,0,0,0,0,0,0h0s0,0,0,0c0,0,0,0,0,0,0,0,0,0,0,0Z"/><path class="uuid-c79711a3-6e94-4e25-8a5c-b56afb7cfbd6" d="m3.3,38.8h0s0,0,0,0c0,0,0,0,0,0,0,0,0,0,0,0h0s0,0,0,0c0,0,0,0,0,0,0,0,0,0,0,0Z"/><path class="uuid-ccb232fc-166e-41d1-bf9f-0d307dd1225e" d="m11.2,39.1h0s0,0,0,0h0s0,0,0,0h0s0,0,0,0c0,0-.2,0-.2,0,0,0,0,0,0,0l-.6-.6s0,0,0,0h0s0,0,0,0c0,0,0,0,0,0l.6.6s0,0,0,0c0,0,.1,0,.2,0,0,0,0,0,0,0Z"/><path class="uuid-ea364f35-6331-4ff5-8b02-298f7849d42d" d="m11,39.1h0s0,0,0,0l-.6-.6s0,0,0,0h0s0,0,0,0c0,0,0,0,0,0l.6.6s0,0,0,0Z"/><path class="uuid-e3455ab5-b61a-4f62-b7cb-13d1b434b97e" d="m11.2,39.1h0c0,0-.2,0-.2-.1h0c0,0,.1.1.2.1Z"/><path class="uuid-eee374df-fb0d-42ae-81af-c008d8fba91b" d="m11.2,39.1h0s0,0,0,0c0,0,0,0,0,0,0,0,0,0,0,0l-.6-.6s-.1,0-.2,0h0s0,0,0,0h0s0,0,0,0l.6.6c0,0,.1,0,.2,0Z"/><path class="uuid-ea364f35-6331-4ff5-8b02-298f7849d42d" d="m11.2,39.1h0s0,0,0,0c0,0,0,0,0,0,0,0,0,0,0,0l-.6-.6h0c0,0-.1-.1-.2-.1h0s0,0,0,0h0s0,0,0,0c0,0,0,0,0,0l.6.6h0s.1,0,.2,0Z"/><path class="uuid-f6509565-e20a-4fd7-bc07-85a0dab362c1" d="m11,39c0-.2-.2-.4-.3-.6h0c0,0-.1-.1-.2-.1h0s0,0,0,0h0s0,0,0,0c0,0,0,0,0,0l.6.6Z"/><path class="uuid-8613e6dd-1daf-48bc-b379-15319d57944c" d="m42.5,34.4c0,.3,0,.6-.2.8-.1.2-.3.3-.5.4-1.1.6-2.4,1.1-3.6,1.3-.4,0-.8.1-1.2.1-1.3,0-2.6-.2-3.7-.8-.5-.3-.9-.5-1.1-1.1-.1-.6,0-1.2,0-1.8.1-.9.3-1.7.5-2.6.4-1.7.9-3.3,1.5-4.9.6-1.4,1.3-2.8,2.4-3.8.6-.5,1.2-.9,2-1.2.3,0,.6-.2,1-.2.9,0,1.6,1.1,1.9,1.9.6,1.2.7,2.9.8,4.2.3,2.6.4,5.2.2,7.8Z"/><g class="uuid-fe8b8ec3-bb02-4f43-a452-e0e087095359"><path class="uuid-8613e6dd-1daf-48bc-b379-15319d57944c" d="m42.5,34.4c0,.3,0,.6-.2.8-.1.2-.3.3-.5.4-1.1.6-2.4,1.1-3.6,1.3.8-2.5,1.5-5.1,1.6-7.8,0-1.4,0-2.7,0-4.1-.2-1.2-.4-2.4-.8-3.5,0-.3-.2-.5-.3-.7.3,0,.6-.2,1-.2.9,0,1.6,1.1,1.9,1.9.6,1.2.7,2.9.8,4.2.3,2.6.4,5.2.2,7.8Z"/></g><path class="uuid-255a3a9a-ba19-48bd-822b-fd8b98cde04a" d="m10.6,40c-.6,0-1.2-.2-1.8-.2-.4,0-.9,0-1.2.4-.1.2-.1.6,0,.8.3.4.8.4,1.3.5.5,0,1.1,0,1.6.1.9.2,1.7.7,2.6.9.5.1,1,.2,1.4,0,.5-.2.8-.6.7-1.1,0-.2-.1-.4-.3-.5-.7-.9-2-1.2-3.1-1.1-.4,0-.8.2-1.3.2Z"/><path class="uuid-255a3a9a-ba19-48bd-822b-fd8b98cde04a" d="m4,1.7c-.6.3-.6,1.5.1,1.7.2,0,.3,0,.5,0,.2,0,.3,0,.4.2,0,0,0,0,0,0,0,0,0,0,0,.1,0,.1,0,.2,0,.3s-.1.2-.1.3c0,.1.1.2.2.2.1,0,.3.2.4.2s.3,0,.4,0c0,0,.1-.2.2-.2,0,0,.2,0,.3,0,.3,0,.7-.1.8-.5.2,0,.5,0,.7-.1.2-.1.4-.4.4-.6.2.1.5.1.7,0,.2-.1.3-.4.4-.6.2-.3.3-.7.3-1.1,0-.4-.2-.8-.5-1-.3-.2-.7-.2-1,0-.1,0-.3,0-.3.2-.3,0-.6,0-.9,0-.3,0-.6.2-.7.5-.4-.2-1,0-1.2.4-.4-.1-.8-.3-1.2,0Z"/></g></g></g></svg>