<?xml version="1.0" encoding="UTF-8"?><svg id="uuid-4038b4ba-1b87-4366-ab4a-d1135efcc34b" xmlns="http://www.w3.org/2000/svg" viewBox="0 0 1058.4 1280.3"><defs><style>.uuid-e449d0db-d2b1-4021-a929-0778476331cc{fill:#f48c7f;}.uuid-c142023f-6fb7-4c02-899e-3d4dfaee5383{fill:#f7a491;}.uuid-c436af4f-6424-4940-8c12-09635cc6fc0a{fill:#fff;}.uuid-e8c07d44-e6fc-4804-b374-38fd7bbc3fe9{fill:#b75742;}.uuid-ce6a137a-bc86-47f0-b8df-34f2d6264e02{fill:#d5dce8;}.uuid-b6a49f13-a3a6-4999-a8ce-f4acd6b4d46a{fill:#96d9c9;}.uuid-d0ae099c-b822-4742-9c34-95d77e501dd4{fill:#fae0b2;}.uuid-24bf8abc-96c7-4d97-bc9e-d2596b3275e1{fill:#2b549e;}.uuid-be8bd98f-8c02-4d1b-a9b0-5de8134fed99{fill:#f47458;}.uuid-d7331cdb-5db9-4704-a7b7-15ff6058891d{fill:#f8a492;}.uuid-a06a2a52-2da2-442e-a606-e603558aad72{fill:#233f75;}.uuid-e521f077-badc-4848-a5af-c0f01d381cf6{fill:#8fade6;}</style></defs><g id="uuid-b94666d9-14bf-460a-afe8-23265254a80f"><path class="uuid-d7331cdb-5db9-4704-a7b7-15ff6058891d" d="m551.3,521.7c10.2-7,27-15.6,26.2-24.9-.8-9.3-23-32.3-23-32.3-15.8,10-28,38.6-28,38.6l24.8,18.6Z"/><rect class="uuid-d0ae099c-b822-4742-9c34-95d77e501dd4" x="535.5" y="47.9" width="436.8" height="673.5" transform="translate(-77.9 228.2) rotate(-16.4)"/><rect class="uuid-e449d0db-d2b1-4021-a929-0778476331cc" x="539.9" y="343.5" width="403" height="35.3" transform="translate(-71.7 223.7) rotate(-16.4)"/><rect class="uuid-b6a49f13-a3a6-4999-a8ce-f4acd6b4d46a" x="579.7" y="436.2" width="171.9" height="7.5" transform="translate(-97.1 205.6) rotate(-16.4)"/><rect class="uuid-b6a49f13-a3a6-4999-a8ce-f4acd6b4d46a" x="780.7" y="378.9" width="160" height="7.5" transform="translate(-73 258.2) rotate(-16.4)"/><rect class="uuid-b6a49f13-a3a6-4999-a8ce-f4acd6b4d46a" x="585.1" y="454.5" width="171.9" height="7.5" transform="translate(-102 207.8) rotate(-16.4)"/><rect class="uuid-b6a49f13-a3a6-4999-a8ce-f4acd6b4d46a" x="786.1" y="397.1" width="160" height="7.5" transform="translate(-77.9 260.5) rotate(-16.4)"/><rect class="uuid-b6a49f13-a3a6-4999-a8ce-f4acd6b4d46a" x="590.4" y="472.7" width="171.9" height="7.5" transform="translate(-106.9 210.1) rotate(-16.4)"/><rect class="uuid-b6a49f13-a3a6-4999-a8ce-f4acd6b4d46a" x="791.5" y="415.4" width="160" height="7.5" transform="translate(-82.8 262.8) rotate(-16.4)"/><rect class="uuid-b6a49f13-a3a6-4999-a8ce-f4acd6b4d46a" x="595.8" y="491" width="171.9" height="7.5" transform="translate(-111.9 212.3) rotate(-16.4)"/><rect class="uuid-b6a49f13-a3a6-4999-a8ce-f4acd6b4d46a" x="796.8" y="433.7" width="160" height="7.5" transform="translate(-87.8 265.1) rotate(-16.4)"/><rect class="uuid-b6a49f13-a3a6-4999-a8ce-f4acd6b4d46a" x="802.2" y="451.9" width="160" height="7.5" transform="translate(-92.7 267.4) rotate(-16.4)"/><rect class="uuid-b6a49f13-a3a6-4999-a8ce-f4acd6b4d46a" x="601.2" y="509.3" width="171.9" height="7.5" transform="translate(-116.8 214.6) rotate(-16.4)"/><rect class="uuid-b6a49f13-a3a6-4999-a8ce-f4acd6b4d46a" x="606.6" y="527.5" width="171.9" height="7.5" transform="translate(-121.7 216.8) rotate(-16.4)"/><rect class="uuid-b6a49f13-a3a6-4999-a8ce-f4acd6b4d46a" x="807.6" y="470.2" width="160" height="7.5" transform="translate(-97.6 269.6) rotate(-16.4)"/><rect class="uuid-b6a49f13-a3a6-4999-a8ce-f4acd6b4d46a" x="611.9" y="545.8" width="171.9" height="7.5" transform="translate(-126.7 219.1) rotate(-16.4)"/><rect class="uuid-b6a49f13-a3a6-4999-a8ce-f4acd6b4d46a" x="813" y="488.5" width="160" height="7.5" transform="translate(-102.6 271.9) rotate(-16.4)"/><rect class="uuid-b6a49f13-a3a6-4999-a8ce-f4acd6b4d46a" x="617.3" y="564.1" width="171.9" height="7.5" transform="translate(-131.6 221.4) rotate(-16.4)"/><rect class="uuid-b6a49f13-a3a6-4999-a8ce-f4acd6b4d46a" x="818.3" y="506.7" width="160" height="7.5" transform="translate(-107.5 274) rotate(-16.4)"/><rect class="uuid-b6a49f13-a3a6-4999-a8ce-f4acd6b4d46a" x="622.7" y="582.3" width="171.9" height="7.5" transform="translate(-136.5 223.6) rotate(-16.4)"/><rect class="uuid-b6a49f13-a3a6-4999-a8ce-f4acd6b4d46a" x="823.7" y="525" width="160" height="7.5" transform="translate(-112.4 276.3) rotate(-16.4)"/><rect class="uuid-b6a49f13-a3a6-4999-a8ce-f4acd6b4d46a" x="628" y="600.6" width="171.9" height="7.5" transform="translate(-141.5 225.9) rotate(-16.4)"/><rect class="uuid-b6a49f13-a3a6-4999-a8ce-f4acd6b4d46a" x="829.1" y="543.3" width="160" height="7.5" transform="translate(-117.4 278.6) rotate(-16.4)"/><rect class="uuid-b6a49f13-a3a6-4999-a8ce-f4acd6b4d46a" x="834.4" y="561.5" width="160" height="7.5" transform="translate(-122.3 280.8) rotate(-16.4)"/><rect class="uuid-b6a49f13-a3a6-4999-a8ce-f4acd6b4d46a" x="633.4" y="618.9" width="171.9" height="7.5" transform="translate(-146.4 228.1) rotate(-16.4)"/><rect class="uuid-b6a49f13-a3a6-4999-a8ce-f4acd6b4d46a" x="638.8" y="637.1" width="171.9" height="7.5" transform="translate(-151.3 230.4) rotate(-16.4)"/><rect class="uuid-b6a49f13-a3a6-4999-a8ce-f4acd6b4d46a" x="839.8" y="579.8" width="160" height="7.5" transform="translate(-127.2 283.1) rotate(-16.4)"/><rect class="uuid-b6a49f13-a3a6-4999-a8ce-f4acd6b4d46a" x="845.2" y="598.1" width="160" height="7.5" transform="translate(-132.2 285.4) rotate(-16.4)"/><rect class="uuid-b6a49f13-a3a6-4999-a8ce-f4acd6b4d46a" x="644.1" y="655.4" width="171.9" height="7.5" transform="translate(-156.3 232.6) rotate(-16.4)"/><rect class="uuid-b6a49f13-a3a6-4999-a8ce-f4acd6b4d46a" x="709.6" y="65.8" width="135.7" height="7.5" transform="translate(11.9 222) rotate(-16.4)"/><rect class="uuid-b6a49f13-a3a6-4999-a8ce-f4acd6b4d46a" x="715" y="84.1" width="135.7" height="7.5" transform="translate(7 224.3) rotate(-16.4)"/><rect class="uuid-b6a49f13-a3a6-4999-a8ce-f4acd6b4d46a" x="720.3" y="102.3" width="135.7" height="7.5" transform="translate(2.1 226.6) rotate(-16.4)"/><rect class="uuid-b6a49f13-a3a6-4999-a8ce-f4acd6b4d46a" x="725.7" y="120.6" width="135.7" height="7.5" transform="translate(-2.9 228.8) rotate(-16.4)"/><rect class="uuid-b6a49f13-a3a6-4999-a8ce-f4acd6b4d46a" x="731.1" y="138.9" width="135.7" height="7.5" transform="translate(-7.8 231.1) rotate(-16.4)"/><rect class="uuid-b6a49f13-a3a6-4999-a8ce-f4acd6b4d46a" x="740.8" y="169.9" width="135.7" height="7.5" transform="translate(-16.1 235.2) rotate(-16.4)"/><rect class="uuid-b6a49f13-a3a6-4999-a8ce-f4acd6b4d46a" x="746.2" y="188.1" width="135.7" height="7.5" transform="translate(-21.1 237.3) rotate(-16.4)"/><rect class="uuid-b6a49f13-a3a6-4999-a8ce-f4acd6b4d46a" x="751.6" y="206.4" width="135.7" height="7.5" transform="translate(-26 239.7) rotate(-16.4)"/><rect class="uuid-b6a49f13-a3a6-4999-a8ce-f4acd6b4d46a" x="756.9" y="224.7" width="135.7" height="7.5" transform="translate(-30.9 241.8) rotate(-16.4)"/><rect class="uuid-b6a49f13-a3a6-4999-a8ce-f4acd6b4d46a" x="762.3" y="242.9" width="135.7" height="7.5" transform="translate(-35.9 244.1) rotate(-16.4)"/><rect class="uuid-b6a49f13-a3a6-4999-a8ce-f4acd6b4d46a" x="528.1" y="118.4" width="185.4" height="229.8" transform="translate(-40.6 184.5) rotate(-16.4)"/><path class="uuid-e8c07d44-e6fc-4804-b374-38fd7bbc3fe9" d="m602.9,274.4l-1.7,50.5-19.5,5.7,6.7-160.8,22.8-6.7,92.9,131.5-20.2,5.9-29.1-41.4-51.8,15.2Zm43.6-28.8l-26.7-37.9c-6.1-8.6-10.8-16.6-15.4-24.5h-.4c.4,9.4.6,19,.4,28.8l-1.9,46.5,44-12.9Z"/><path class="uuid-a06a2a52-2da2-442e-a606-e603558aad72" d="m373.4,1280.3h-97.3l3.7-16.2-26.5-118.2-37.5-233.6,119.1-34.1,31.5,81.6s20.6,194.7,8.6,311.3c-.3,2.5-.8,5.6-1.5,9.2Z"/><polygon class="uuid-24bf8abc-96c7-4d97-bc9e-d2596b3275e1" points="138.4 1280.3 144.2 1264 155.9 973.4 182.9 882.5 319.6 885.3 323.4 957.4 254.2 1280.3 138.4 1280.3"/><path class="uuid-d7331cdb-5db9-4704-a7b7-15ff6058891d" d="m526.5,503.1c4.7-24.2,10.9-33.7,19.8-41.7,8.9-8,11.5-16.2,13.4-16,2.4.2,6.5,13.9-7.6,30-11.4,11.6-25.5,27.7-25.5,27.7Z"/><path class="uuid-c436af4f-6424-4940-8c12-09635cc6fc0a" d="m306,555.6l138.6,80.1,81.2-140.7,33.8,26.7s-49,187.3-74.1,203c-31.9,20-149-23.3-149-23.3l-30.5-145.8Z"/><path class="uuid-e521f077-badc-4848-a5af-c0f01d381cf6" d="m197.8,549.2s-45.8,5.8-56.5,13.6c-12,8.8-49.3,50.1-49.3,50.1,0,0,77.6,222.3,74.6,261.8-3,39.5-11.5,98.1-11.5,98.1,0,0,150.7,9.5,207.8-13,0,0-18-89.6-18-113.1s-26.5-255.5-33.7-267.8c-7.2-12.3-54.2-31.1-54.2-31.1l-59.2,1.4Z"/><path class="uuid-c436af4f-6424-4940-8c12-09635cc6fc0a" d="m404.7,1147.2c1-4.7-31-229-31.6-237-6.5-79-36.1-319.1-63.8-352.5-3.3-3.1-11.6-5.7-20.7-6.8-15.2-1.9-31.6-3.1-31.6-3.1,0,0,19.4,15.3,24,21.9,20.7,29.3,29.2,63.2,33.7,99.4,13.2,105,25.3,487.8,30,489.5,5.3,1.9,57.9-.9,60-11.4Z"/><path class="uuid-e8c07d44-e6fc-4804-b374-38fd7bbc3fe9" d="m209.1,345.7s-27.6-18.6-39.2,14c0-.3-9.7-.2-11.1.3-5.7,1.9-11.2,7.8-16.2,11.1-18,11.5-26.3,33.9-27.3,54.5-1.2,25,9.1,43.2,25.5,61.3,4.8,5.3,10,10.5,16.3,13.9,7.6,4.1,13.7.8,20.9,2.6,6,1.5,8.2,7.9,15.3,5.5,10-3.2,20.5-15.7,32.9-13.9,12.4,1.9,41-9.3,41-9.3,36.7-14.3,11.9-85.4,4.9-110.6-6.6-23.7-40.4-37.9-63.1-29.3Z"/><path class="uuid-c142023f-6fb7-4c02-899e-3d4dfaee5383" d="m242.3,507.2l9.5,26,5.1,14.6s.4,26-5.7,32.8c-10.5,11.6-53.4-31.4-53.4-31.4l-13.6-81.9,58.1,39.9Z"/><path class="uuid-be8bd98f-8c02-4d1b-a9b0-5de8134fed99" d="m188.6,493.8c16.3,25.3,44.5,36.9,63.3,39.7l-9.6-26.3-58.1-39.9,4.4,26.5Z"/><path class="uuid-c142023f-6fb7-4c02-899e-3d4dfaee5383" d="m195.4,383.2c21.9-13.4,50.6-3.2,59.6,20.4,3.9,10.3,8.3,23.3,11.8,37.8,8.4,35-2.2,73.1-18.2,76.6-15.9,3.5-65-9.5-77.6-58.9-7.8-30.5,1.4-61.9,24.4-75.9Z"/><path class="uuid-c142023f-6fb7-4c02-899e-3d4dfaee5383" d="m183.6,460.5c1.7,7.7-2,15.2-8.4,16.6-6.3,1.4-12.8-3.7-14.6-11.5-1.7-7.7,2-15.2,8.4-16.6,6.3-1.4,12.8,3.7,14.6,11.5Z"/><path class="uuid-c436af4f-6424-4940-8c12-09635cc6fc0a" d="m197.8,549.2s-66.9,6.6-84,17.8c-10.8,7.1-2.4,86.4-2.4,86.4,0,0,15.3,119.8,13.2,180.3-.2,5.9-.5,11.6-.9,17.2-5.9,91.1-54.6,309.1-50.4,312.9,27.4,15.3,177,14.7,178.7,2.6,14.6-102.4-54.4-617.2-54.4-617.2Z"/><path class="uuid-ce6a137a-bc86-47f0-b8df-34f2d6264e02" d="m124.8,828.7c0,1.7,0,3.3-.1,4.9-.2,5.8-.5,11.4-.8,17l91.1-42.4-90.1,20.6Z"/><path class="uuid-d7331cdb-5db9-4704-a7b7-15ff6058891d" d="m313.1,741.1c-3.1,1.4-8.2,3.9-11.6,6.2-3.7,2.5-7.8,3.6-11.2,5.2-6.7,3.2-11.6,5.6-11.6,5.3,0-.4-1.7-.7,1.6-3,4-2.8,13.9-6.9,19.5-11.4,3.2-2.6,10.2-7.6,10.2-7.6,0,0,9.2-9.4,8.8-10.1-2-3.8-10,1-13.9,5-3.8,1.4-11,6.8-11,6.8,0,0-17,7.8-18.1,5.5-.5-1,9.4-7,18.2-14.4,8.1-6.9,15.3-15.1,14.2-16.8-1.8-3-11.7,3.7-11.7,3.7,0,0-6.6,5-9,6.5-2.7,1.8-11.3,6.5-11.3,6.5,0,0-30.6,15-31.4,12.7-.8-2.3-.6-9.1,1-10.7,1.6-1.6,5.7-3.3,7.6-4.5,2.5-1.6,6.2-5.6,4.5-7.6-1.7-2-16.2,3.4-16.2,3.4,0,0-8.5,3.9-12.4,9.2-13.3,18.1-9.8,19.5-11.5,21.8-2.1,2.7-45,18.4-45,18.4,0,0-128.9,32-135.9,34.3l17.1,52c7.9-1.1,152.3-58.9,166.9-65.8,0,0,20.3-1.9,33.1-3.5,12.7-1.6,24.3-8.7,27.8-9.7.5-.1,12.1-4.1,25.2-12.8,11.2-7.4-2.7-5.4-2.7-5.4,0,0-23.2,10.1-23.7,8.2-.3-1.5,12.7-6.3,25.2-14.4,3.2-2.1,6.4-4.1,9.3-6.1,7.6-5,6.8-11-2-7Z"/><path class="uuid-c436af4f-6424-4940-8c12-09635cc6fc0a" d="m119.6,564.3s-21.7,3-40.4,29.8c-18.7,26.8-59.9,142.5-72.8,186.8-13,44.7-6.4,69.6,22.9,76.9,29.3,7.3,185.7-49.6,185.7-49.6l-14.6-53.7s-103.7,22.9-107.3,21.1l32.5-56.1s25.5-90.8-6-155.3Z"/><path class="uuid-e8c07d44-e6fc-4804-b374-38fd7bbc3fe9" d="m233.4,472.7s-21,6.9-22.7,14.6c-1.7,7.7.9,18.9,11.1,27.4,10.3,8.6,32.3,3.3,38.3-1.4,6-4.7,10.6-24.7,4.6-35.9-6-11.1-31.3-4.7-31.3-4.7Z"/><path class="uuid-c142023f-6fb7-4c02-899e-3d4dfaee5383" d="m226.5,488.8s.1,8.6,3,10.1c2.8,1.5,6.3,2.8,9.6,3.1,5.3.5,10.1-1.8,12.8-5.8.3-.4.5-.8.7-1.2,2.1-4.3,2.6-11.9,2.6-11.9,0,0-8.9-2.1-14-1.3-5.1.9-14.7,7-14.7,7Z"/></g></svg>