<svg width="376" height="377" viewBox="0 0 376 377" fill="none" xmlns="http://www.w3.org/2000/svg">
<g clip-path="url(#clip0_14328_9179)">
<mask id="mask0_14328_9179" style="mask-type:luminance" maskUnits="userSpaceOnUse" x="0" y="0" width="376" height="377">
<path d="M376 0H0V377H376V0Z" fill="white"/>
</mask>
<g mask="url(#mask0_14328_9179)">
<path opacity="0.14" d="M307.74 244.253C356.9 194.962 356.9 115.045 307.74 65.7536C258.579 16.4622 178.874 16.4622 129.713 65.7535C80.5527 115.045 80.5527 194.962 129.713 244.253C178.874 293.545 258.579 293.545 307.74 244.253Z" fill="#00D3C2"/>
<path d="M-41.8113 282.599C-41.8113 282.599 38.427 256.888 54.219 229.819C68.5822 205.239 108.513 198.679 115.357 193.627C125.057 186.54 148.67 173.571 158.521 172.44C167.846 171.384 176.269 177.492 173.561 187.595C170.328 199.508 121.974 218.358 121.974 218.358C121.974 218.358 120.32 243.542 155.664 250.026C191.008 256.511 206.424 254.249 225.525 248.518C244.625 242.788 249.513 241.582 249.513 241.582C249.513 241.582 253.95 226.954 260.718 223.561C268.013 219.866 273.953 223.033 275.307 225.22C276.661 227.406 268.84 249.725 266.358 256.435C263.877 263.071 244.249 278.075 244.249 278.075C242.52 279.432 241.016 281.167 240.038 283.127C236.053 290.667 224.848 308.16 220.937 310.196C216.049 312.608 202.513 315.624 202.513 315.624C202.513 315.624 200.032 320.902 189.429 326.708C176.72 333.645 167.32 344.427 141.301 343.07C124.606 342.165 81.4414 329.347 46.323 338.546C31.3582 342.467 -44.5938 398.564 -44.5938 398.564L-41.8113 282.599Z" fill="#FFB681"/>
<g opacity="0.11">
<path opacity="0.9608" d="M222.141 178.321C219.434 176.738 214.997 176.738 212.29 178.321L55.6481 269.631C52.9409 271.214 52.9408 273.778 55.7232 275.361L137.24 322.562C139.947 324.145 144.384 324.145 147.091 322.562L303.658 231.252C306.29 229.669 306.29 227.105 303.582 225.522L222.141 178.321Z" fill="#1D4B5B"/>
</g>
<g opacity="0.9608">
<path d="M305.312 217.68V229.065C305.463 228.99 305.463 228.915 305.614 228.915V217.529C305.539 217.605 305.388 217.605 305.312 217.68Z" fill="#1D546D"/>
<path d="M305.538 217.529V228.915C306.666 228.161 307.268 227.256 307.268 226.276V214.89C307.343 215.87 306.741 216.775 305.538 217.529Z" fill="#1D546D"/>
</g>
<g opacity="0.9608">
<path d="M55.1973 258.924V270.309C55.1973 270.988 55.4981 271.742 56.0997 272.27V260.884C55.4981 260.356 55.1973 259.678 55.1973 258.924Z" fill="#1D546D"/>
<path d="M56.1748 260.959V272.345C56.4756 272.646 56.8516 272.948 57.3028 273.25V261.864C56.8516 261.563 56.4756 261.261 56.1748 260.959Z" fill="#1D546D"/>
</g>
<path opacity="0.9608" d="M223.72 164.825C221.013 163.241 216.576 163.241 213.869 164.825L57.2274 256.134C54.5954 257.718 54.5954 260.281 57.3026 261.865L138.819 309.065C141.527 310.648 145.963 310.648 148.671 309.065L305.312 217.68C307.944 216.097 307.944 213.533 305.237 211.95L223.72 164.825Z" fill="#1D546D"/>
<g opacity="0.9608">
<path d="M138.819 308.989V320.45C138.97 320.525 139.046 320.601 139.196 320.601V309.14C139.046 309.14 138.895 309.065 138.819 308.989Z" fill="#1D546D"/>
<path d="M139.12 309.215V320.601C141.301 321.732 144.535 321.883 147.091 321.053V309.668C144.61 310.497 141.376 310.346 139.12 309.215Z" fill="#1D546D"/>
<path d="M147.092 309.668V321.053C147.693 320.902 148.22 320.676 148.671 320.375V308.989C148.22 309.291 147.693 309.517 147.092 309.668Z" fill="#1D546D"/>
</g>
<path d="M305.312 217.68L148.671 308.989C145.964 310.573 141.527 310.573 138.82 308.989L56.7765 261.487C55.7989 260.809 55.2725 259.904 55.2725 258.999V270.385C55.2725 271.289 55.7989 272.27 56.9269 272.948L138.895 320.375C141.602 321.958 146.039 321.958 148.746 320.375L305.312 229.141C306.666 228.387 307.343 227.331 307.343 226.276V214.89C307.343 215.87 306.591 216.851 305.312 217.68Z" fill="#164859"/>
<path d="M203.115 174.174L76.0273 248.293L160.703 297.378L287.941 223.26L203.115 174.174Z" fill="#EDF8FF"/>
<path d="M265.982 199.283C265.306 198.906 264.102 198.906 263.35 199.283C262.674 199.66 262.674 200.414 263.35 200.791C264.027 201.168 265.23 201.168 265.982 200.791C266.734 200.338 266.734 199.735 265.982 199.283Z" fill="#173E49"/>
<path d="M249.063 189.858C248.536 189.556 247.709 189.556 247.183 189.858C246.656 190.159 246.656 190.612 247.183 190.913L258.312 197.398C258.839 197.699 259.666 197.699 260.192 197.398C260.719 197.096 260.719 196.644 260.192 196.267L249.063 189.858Z" fill="#173E49"/>
<path d="M108.588 277.472C107.987 277.095 107.084 277.095 106.483 277.472L105.129 278.226C104.527 278.603 104.527 279.131 105.129 279.433L106.633 280.337C107.235 280.714 108.137 280.714 108.739 280.337L110.092 279.583C110.694 279.206 110.694 278.679 110.092 278.377L108.588 277.472Z" stroke="#EDF8FF" stroke-width="0.7717" stroke-miterlimit="10"/>
<path d="M135.209 293.08L132.276 291.346" stroke="#EDF8FF" stroke-width="0.7717" stroke-miterlimit="10" stroke-linecap="round"/>
<path d="M134.081 293.758L131.224 292.1" stroke="#EDF8FF" stroke-width="0.7717" stroke-miterlimit="10" stroke-linecap="round"/>
<path d="M132.953 294.588L130.021 292.929" stroke="#EDF8FF" stroke-width="0.7717" stroke-miterlimit="10" stroke-linecap="round"/>
<path d="M84.0734 263.976L84.5998 266.464H81.5918" stroke="#EDF8FF" stroke-width="0.7717" stroke-miterlimit="10" stroke-linecap="round" stroke-linejoin="round"/>
<path d="M275.157 230.875L287.941 223.26L203.115 174.174L190.481 181.714L275.157 230.875Z" fill="#C7E0EF"/>
<path d="M146.489 214.362L144.309 215.644L215.373 256.813L217.629 255.531L146.489 214.362Z" fill="white"/>
<path d="M138.217 219.415L135.961 220.696L207.1 261.789L209.356 260.583L138.217 219.415Z" fill="white"/>
<path d="M129.72 224.24L127.539 225.522L198.603 266.69L200.859 265.408L129.72 224.24Z" fill="white"/>
<path d="M121.447 229.292L119.267 230.498L190.331 271.667L192.587 270.46L121.447 229.292Z" fill="white"/>
<path d="M270.945 218.133C271.547 218.51 271.547 219.037 270.945 219.414L220.486 248.896C219.884 249.273 218.907 249.273 218.305 248.896L150.775 209.763C150.174 209.386 150.174 208.858 150.775 208.481L201.235 179C201.836 178.623 202.814 178.623 203.415 179L270.945 218.133Z" fill="#00D3C2"/>
<path d="M163.936 270.762C167.471 272.798 167.471 276.115 163.936 278.227C160.402 280.262 154.687 280.262 151.152 278.227L109.04 253.872C105.506 251.837 105.506 248.519 108.965 246.408C112.499 244.372 118.215 244.372 121.749 246.408L163.936 270.762Z" fill="#00D3C2"/>
<path d="M119.192 249.725C119.267 250.329 118.816 250.932 117.914 251.46C117.011 251.987 116.034 252.214 114.981 252.214C113.928 252.214 112.8 251.912 111.672 251.233L109.642 250.102L115.507 246.709L117.613 247.916C118.59 248.444 119.117 249.047 119.192 249.725ZM114.755 251.158C115.357 251.158 115.958 251.007 116.56 250.706C117.162 250.404 117.387 250.027 117.387 249.65C117.387 249.273 117.011 248.896 116.334 248.519L115.582 248.067L112.048 250.102L112.875 250.555C113.552 250.932 114.154 251.158 114.755 251.158Z" fill="white"/>
<path d="M123.252 251.158L117.387 254.551L116.108 253.797L121.974 250.404L123.252 251.158Z" fill="white"/>
<path d="M127.765 253.722L124.456 258.623L123.028 257.793L123.704 256.738L121.223 255.305L119.418 255.758L117.989 254.928L126.336 252.968L127.765 253.722ZM122.952 254.928L124.456 255.758L125.434 254.325L122.952 254.928Z" fill="white"/>
<path d="M133.781 257.115C134.608 257.567 135.059 258.17 135.134 258.849L133.48 259C133.48 258.698 133.33 258.472 133.254 258.321C133.104 258.17 132.954 257.944 132.653 257.793C132.126 257.492 131.6 257.341 130.923 257.341C130.246 257.341 129.645 257.492 129.043 257.793C128.517 258.095 128.216 258.472 128.216 258.849C128.216 259.226 128.442 259.528 128.893 259.829C129.344 260.055 129.795 260.282 130.322 260.357L131.901 259.452L133.254 260.206L131.149 261.413C129.946 261.413 128.818 261.186 127.765 260.583C126.862 260.055 126.486 259.528 126.411 258.849C126.411 258.17 126.787 257.567 127.69 257.115C128.592 256.587 129.57 256.361 130.773 256.361C131.976 256.361 132.954 256.587 133.781 257.115Z" fill="white"/>
<path d="M142.654 262.393L136.864 265.786L135.51 265.032L136.412 261.262L132.728 263.448L131.449 262.694L137.24 259.226L138.518 259.98L137.616 263.825L141.376 261.639L142.654 262.393Z" fill="white"/>
<path d="M148.37 266.54C148.37 267.218 147.994 267.821 147.091 268.274C146.264 268.802 145.211 269.028 144.083 269.028C142.88 269.028 141.902 268.726 141 268.274C140.098 267.746 139.646 267.143 139.646 266.464C139.646 265.786 140.022 265.182 140.925 264.73C141.752 264.202 142.805 263.976 143.933 263.976C145.136 263.976 146.114 264.202 147.016 264.73C147.918 265.258 148.294 265.861 148.37 266.54ZM143.933 267.972C144.61 267.972 145.286 267.821 145.738 267.52C146.264 267.218 146.565 266.841 146.565 266.464C146.565 266.087 146.339 265.71 145.888 265.409C145.362 265.107 144.76 264.956 144.083 265.032C143.406 265.032 142.805 265.182 142.278 265.484C141.752 265.786 141.451 266.163 141.451 266.54C141.451 266.917 141.677 267.294 142.128 267.595C142.654 267.897 143.181 268.048 143.933 267.972Z" fill="white"/>
<path d="M153.107 268.274C153.483 268.5 153.859 268.802 154.085 269.103C154.31 269.405 154.461 269.707 154.536 270.008L152.881 270.159C152.731 269.631 152.43 269.254 151.904 268.877C151.678 268.726 151.453 268.651 151.227 268.651C151.001 268.651 150.776 268.651 150.625 268.802C150.475 268.877 150.4 269.028 150.475 269.179C150.55 269.33 150.776 269.631 151.152 270.008C151.603 270.385 151.829 270.762 151.829 271.139C151.829 271.441 151.603 271.818 151.077 272.119C150.55 272.421 149.949 272.572 149.197 272.496C148.445 272.496 147.768 272.27 147.166 271.893C146.264 271.365 145.737 270.687 145.662 269.857L147.392 269.782C147.467 270.461 147.768 270.988 148.294 271.29C148.52 271.441 148.745 271.516 149.046 271.516C149.272 271.516 149.497 271.516 149.648 271.365C149.798 271.29 149.873 271.139 149.873 270.988C149.798 270.838 149.648 270.611 149.347 270.31C148.821 269.782 148.52 269.405 148.445 269.103C148.369 268.802 148.595 268.425 149.197 268.123C149.723 267.822 150.4 267.671 151.077 267.746C151.829 267.746 152.505 267.897 153.107 268.274Z" fill="white"/>
<path d="M157.695 271.064L151.829 274.457L150.551 273.703L156.416 270.31L157.695 271.064Z" fill="white"/>
<path d="M161.229 272.949C161.605 273.175 161.981 273.477 162.207 273.778C162.432 274.08 162.583 274.381 162.658 274.683L161.003 274.834C160.853 274.306 160.552 273.929 160.026 273.552C159.8 273.401 159.575 273.326 159.349 273.326C159.123 273.326 158.898 273.326 158.747 273.477C158.597 273.552 158.522 273.703 158.597 273.854C158.672 274.004 158.898 274.306 159.274 274.683C159.725 275.06 159.951 275.437 159.951 275.814C160.026 276.116 159.725 276.493 159.199 276.794C158.672 277.096 158.071 277.247 157.319 277.171C156.567 277.171 155.89 276.945 155.288 276.568C154.386 276.04 153.859 275.362 153.784 274.532L155.514 274.457C155.589 275.135 155.89 275.663 156.416 275.965C156.642 276.116 156.867 276.191 157.168 276.191C157.394 276.191 157.619 276.191 157.77 276.04C157.92 275.965 157.995 275.814 157.995 275.663C157.92 275.512 157.77 275.286 157.469 274.985C156.943 274.457 156.642 274.08 156.567 273.778C156.491 273.477 156.792 273.1 157.319 272.798C157.845 272.496 158.522 272.346 159.199 272.421C159.951 272.421 160.627 272.647 161.229 272.949Z" fill="white"/>
<mask id="mask1_14328_9179" style="mask-type:luminance" maskUnits="userSpaceOnUse" x="97" y="35" width="201" height="200">
<path d="M160.401 202.751C160.401 202.751 177.622 230.8 227.705 234.042C259.364 236.078 258.762 220.093 258.762 212.628C258.762 205.164 297.791 143.26 297.791 136.022C297.791 128.784 288.09 69.5191 242.143 45.7681C207.326 27.7475 132.802 33.7041 123.929 63.3363C114.98 93.0439 91.5929 160.075 98.9625 173.571C106.332 187.068 160.401 202.751 160.401 202.751Z" fill="white"/>
</mask>
<g mask="url(#mask1_14328_9179)">
<path opacity="0.07" d="M196.121 144.089C196.121 144.089 211.913 145.446 216.726 142.883C216.726 142.883 211.161 147.784 195.82 146.502L196.121 144.089Z" fill="#010101"/>
<path d="M216.275 67.6338C216.275 67.6338 223.118 69.1418 230.413 73.2888C237.857 77.5866 245.753 84.6742 247.107 95.8334C247.934 102.318 247.558 108.576 246.129 114.306C242.595 128.331 232.518 139.565 216.049 143.411C204.469 146.125 191.76 144.843 182.134 137.907C172.509 130.894 166.417 115.588 168.373 102.619C170.328 89.6506 175.742 82.563 184.24 76.3048C192.662 69.9712 203.792 67.106 216.275 67.6338Z" fill="#FFB681"/>
<path d="M194.467 119.735C195.069 121.922 196.648 123.656 198.829 123.957C201.31 124.334 203.491 122.751 204.845 120.715C205.597 119.66 194.091 118.453 194.467 119.735Z" fill="white"/>
<path d="M198.979 114.985C198.829 114.985 197.776 114.91 197.175 114.759C195.595 114.306 195.069 113.477 194.843 112.874C194.618 112.195 194.618 111.14 195.595 109.707C196.498 108.425 196.648 105.862 196.573 105.032C196.573 104.58 196.874 104.203 197.325 104.127C197.776 104.127 198.152 104.429 198.152 104.881C198.152 105.032 198.303 108.651 196.874 110.687C196.423 111.366 196.197 111.969 196.347 112.346C196.498 112.723 196.874 113.025 197.626 113.175C198.077 113.251 198.829 113.326 199.055 113.402C199.506 113.402 199.807 113.854 199.807 114.306C199.731 114.683 199.355 114.985 198.979 114.985Z" fill="#ED8A43"/>
<path opacity="0.32" d="M170.629 122.827C171.757 123.354 173.035 123.656 174.314 123.581C178.826 123.43 182.36 119.434 182.21 114.683C182.059 109.933 178.299 106.163 173.787 106.314C172.133 106.389 170.554 106.993 169.275 107.973" fill="#FB9A4D"/>
<path d="M181.758 105.183C181.683 106.917 182.585 108.425 183.789 108.501C184.992 108.576 185.969 107.144 186.045 105.409C186.12 103.675 185.217 102.167 184.014 102.092C182.811 102.016 181.833 103.449 181.758 105.183Z" fill="#002019"/>
<path d="M215.222 107.822C215.147 109.556 216.049 111.064 217.253 111.139C218.456 111.215 219.433 109.782 219.509 108.048C219.584 106.314 218.681 104.806 217.478 104.73C216.275 104.655 215.297 106.088 215.222 107.822Z" fill="#002019"/>
<path opacity="0.32" d="M238.46 116.191C238.61 121.243 234.85 125.541 230.037 125.692C225.224 125.843 221.239 121.846 221.088 116.795C220.938 111.743 224.698 107.445 229.511 107.294C234.324 107.143 238.309 111.14 238.46 116.191Z" fill="#FB9A4D"/>
<path d="M238.158 123.053C238.609 123.204 239.662 123.279 240.113 123.279C243.046 123.204 245.377 120.565 245.227 117.473C245.152 114.382 242.67 111.969 239.737 112.044C238.985 112.044 238.008 111.818 237.406 112.12C237.406 112.12 238.309 115.437 238.233 119.283C238.158 123.053 238.158 123.053 238.158 123.053Z" fill="#FFB681"/>
<g opacity="0.37">
<path d="M242.595 118.68C242.219 118.68 241.843 118.378 241.768 118.001C241.317 115.664 239.286 115.438 239.211 115.438C238.76 115.362 238.459 114.985 238.459 114.533C238.534 114.08 238.91 113.703 239.286 113.779C240.414 113.854 242.745 114.834 243.272 117.7C243.347 118.152 243.046 118.604 242.67 118.68C242.67 118.68 242.67 118.68 242.595 118.68Z" fill="#ED8A43"/>
</g>
<path d="M182.511 151.102C182.511 151.102 175.743 153.062 171.983 164.447C167.922 176.888 163.861 201.243 162.583 214.362C160.026 239.47 160.778 250.856 160.778 250.856L177.096 255.455L182.511 151.102Z" fill="white"/>
<path d="M172.885 195.135C172.885 195.135 174.54 200.564 174.54 208.632C174.54 216.7 165.44 297.076 165.44 297.076C165.44 297.076 248.236 312.005 247.784 300.167C247.333 288.33 247.784 224.692 247.784 224.692C247.784 224.692 251.319 167.69 230.864 152.61C219.359 144.165 212.816 144.768 204.093 144.617C194.242 144.466 188.301 145.748 182.661 149.594C165.365 161.582 172.885 195.135 172.885 195.135Z" fill="white"/>
<path opacity="0.08" d="M188.075 291.346L193.941 207.576C193.941 207.501 193.941 207.501 194.016 207.425L220.712 175.757L215.974 169.273L223.72 168.594L228.157 151.102L229.736 151.931L226.051 170.178L219.509 170.932L223.043 176.662L194.317 207.576L190.03 292.477" fill="#070707"/>
<path opacity="0.08" d="M187.624 146.879L186.797 161.959L191.61 164.825L186.195 165.956L193.941 207.501L183.714 164.523L187.173 163.92L184.391 162.186L184.015 148.689L187.624 146.879Z" fill="#070707"/>
<path d="M222.968 148.387L194.542 204.409L194.166 145.145C194.166 145.145 216.952 147.181 222.968 148.387Z" fill="#00D3C2"/>
<path d="M194.016 145.522C194.692 143.637 195.219 141.828 195.52 139.792C207.777 141.526 229.134 124.41 222.065 141.526C221.313 143.336 221.012 146.804 222.968 148.463C222.968 148.463 213.944 151.403 205.371 150.574C196.196 149.669 194.166 145.221 194.166 145.221" fill="#FFB681"/>
<path opacity="0.32" d="M194.768 143.335C194.768 143.335 213.192 145.522 218.832 142.808C218.832 142.808 212.064 147.332 194.166 145.22L194.768 143.335Z" fill="#FB9A4D"/>
<path d="M189.579 190.083C189.579 194.23 187.022 197.548 183.864 197.548C180.705 197.548 178.148 194.23 178.148 190.083C178.148 185.936 180.705 182.619 183.864 182.619C187.022 182.619 189.579 186.012 189.579 190.083Z" fill="#7AE2E2"/>
<path d="M186.797 190.083C186.797 193.702 184.541 196.643 181.758 196.643C178.976 196.643 176.72 193.702 176.72 190.083C176.72 186.464 178.976 183.523 181.758 183.523C184.541 183.523 186.797 186.464 186.797 190.083Z" fill="#1D546D"/>
<path d="M183.863 184.202C183.863 184.202 186.345 160.074 188.977 151.931C189.954 148.84 191.609 145.899 194.09 144.466" stroke="#1D546D" stroke-width="2.1291" stroke-miterlimit="10" stroke-linecap="round" stroke-linejoin="round"/>
<path opacity="0.08" d="M231.165 198.905V257.491H234.323L231.165 198.905Z" fill="#070707"/>
<path d="M220.787 170.857C222.442 165.579 225.374 149.594 222.441 146.879" stroke="#1D546D" stroke-width="2.1291" stroke-miterlimit="10" stroke-linecap="round" stroke-linejoin="round"/>
<path d="M207.702 199.207C207.702 199.207 208.83 168.067 221.915 172.44C230.187 175.23 230.037 199.207 230.037 199.207" stroke="#1D546D" stroke-width="2.1291" stroke-miterlimit="10" stroke-linecap="round" stroke-linejoin="round"/>
<path d="M209.808 199.207C209.808 200.64 208.83 201.771 207.702 201.771C206.499 201.771 205.597 200.64 205.597 199.207C205.597 197.775 206.574 196.644 207.702 196.644C208.83 196.644 209.808 197.85 209.808 199.207Z" fill="#7AE2E2"/>
<path d="M232.142 200.036C232.142 201.469 231.164 202.6 230.036 202.6C228.833 202.6 227.931 201.469 227.931 200.036C227.931 198.604 228.908 197.473 230.036 197.473C231.239 197.473 232.142 198.679 232.142 200.036Z" fill="#7AE2E2"/>
<path d="M250.642 146.125C261.32 141.752 273.878 130.744 269.066 116.568C265.907 107.445 262.674 89.8014 251.394 70.6498C243.347 57.0024 220.035 51.4228 203.04 54.5896C186.797 57.6056 173.862 60.9232 165.666 93.119C157.469 125.315 157.168 121.469 154.536 125.616C151.979 129.763 162.282 142.204 184.917 139.792L181.458 137.53C181.458 137.53 173.261 132.402 170.93 116.041C168.523 99.6788 176.118 85.4282 176.118 85.4282C176.118 85.4282 203.792 99.7542 223.871 102.318C234.85 103.675 234.474 122.902 231.917 128.331C228.006 136.399 219.885 140.395 221.991 143.109C228.232 151.102 241.843 149.669 250.642 146.125Z" fill="#554047"/>
<path d="M263.801 79.8489C260.718 79.8489 257.635 79.2457 257.033 79.1703C256.808 79.0949 256.582 78.9441 256.507 78.6425C256.432 78.3409 256.507 78.1147 256.657 77.8885C257.334 77.1345 263.651 70.5747 267.862 71.6303C269.216 72.0073 270.193 73.0629 270.72 74.7971C271.246 76.3805 270.72 77.4361 270.269 77.9639C269.065 79.3965 266.433 79.8489 263.801 79.8489ZM258.688 77.8885C262.523 78.4917 267.787 78.6425 269.216 76.9837C269.441 76.6821 269.667 76.2297 269.366 75.2495C268.99 73.9677 268.389 73.2891 267.486 73.0629C265.005 72.4597 260.944 75.7773 258.688 77.8885Z" fill="#00BCAA"/>
<path d="M267.185 87.7659C263.275 87.7659 257.334 80.9045 256.657 80.0751C256.507 79.8489 256.432 79.5473 256.507 79.3211C256.582 79.0949 256.808 78.8687 257.109 78.8687C258.086 78.7179 266.885 77.5869 269.592 81.1307C270.494 82.2617 270.645 83.7697 270.043 85.5039C269.517 87.0873 268.539 87.6151 267.787 87.7659C267.637 87.7659 267.411 87.7659 267.185 87.7659ZM258.688 80.1505C261.395 83.0911 265.456 86.6349 267.486 86.1825C267.787 86.1071 268.313 85.8809 268.614 84.9007C269.065 83.6943 268.99 82.7141 268.389 81.9601C266.885 79.9243 261.771 79.9243 258.688 80.1505Z" fill="#00BCAA"/>
<path d="M258.463 91.2342C258.463 91.2342 216.351 99.8298 170.704 78.3408C170.704 78.3408 173.411 63.4116 177.998 57.3796C182.586 51.3476 233.722 43.0536 254.176 66.8046C254.627 67.3324 255.079 67.8602 255.455 68.4634C259.591 75.174 260.944 91.0834 260.944 91.0834" fill="#00D3C2"/>
<path d="M234.248 70.8764C220.11 70.8764 199.505 68.9914 180.781 60.0942C180.254 59.868 180.029 59.1894 180.254 58.5862C180.48 57.983 181.157 57.7568 181.683 57.983C213.718 73.1384 251.168 67.5588 251.544 67.4834C252.145 67.408 252.672 67.785 252.747 68.4636C252.822 69.0668 252.446 69.67 251.845 69.7454C251.619 69.8208 244.701 70.8764 234.248 70.8764Z" fill="#00BCAA"/>
<path d="M135.66 124.184L138.518 153.59C138.518 153.59 177.471 152.459 182.51 149.669C182.51 149.669 178.148 174.475 175.667 178.773C173.185 183.071 132.652 178.019 125.734 176.436C118.815 174.777 117.988 127.275 117.988 127.275L135.66 124.184Z" fill="white"/>
<path d="M120.696 126.747C120.696 126.747 115.808 119.66 115.808 115.814C115.808 111.969 128.667 110.612 128.667 110.612C128.667 110.612 126.636 104.354 128.667 103.147C130.697 102.016 133.254 109.405 133.254 114.608C133.254 119.811 133.254 124.561 133.254 124.561L120.696 126.747Z" fill="#FFB681"/>
<path opacity="0.32" d="M117.312 119.66C117.312 119.66 121.673 121.319 124.531 121.319C127.388 121.319 130.848 118.227 130.848 116.192C130.848 114.156 129.268 111.441 129.268 111.441C129.268 111.441 131.976 114.156 131.976 115.513C131.976 117.926 130.02 120.112 127.99 121.243C125.96 122.45 121.748 122.676 119.267 121.243C117.913 120.414 117.312 119.66 117.312 119.66Z" fill="#FB9A4D"/>
<path opacity="0.32" d="M127.013 115.437C127.013 115.437 128.592 118.981 131.525 119.057C132.427 119.057 132.502 118.981 132.502 118.981C132.502 118.981 132.878 118.529 132.277 117.473C131.675 116.418 131.976 113.552 131.976 113.552C131.976 113.552 129.269 112.271 127.915 113.025C126.637 113.779 127.013 115.437 127.013 115.437Z" fill="#FB9A4D"/>
<path d="M130.246 118.303C130.246 118.303 127.689 116.644 127.689 114.834C127.689 113.1 130.848 113.1 132.051 113.553C134.232 114.382 133.781 116.719 133.329 118.529C132.803 120.339 130.246 118.303 130.246 118.303Z" fill="#FFB681"/>
<path opacity="0.08" d="M168.447 167.388L166.492 180.432H167.996L168.447 167.388Z" fill="#070707"/>
</g>
<path d="M51.9629 88.9721L58.2045 71.9317L67.3037 91.0833L78.9597 76.0787L84.9757 86.5593L94.6765 51.5737L102.572 98.6233L108.739 75.0985L112.95 90.2539L141.526 91.0833" stroke="#00D3C2" stroke-width="3.3067" stroke-miterlimit="10" stroke-linecap="round" stroke-linejoin="round"/>
<path d="M257.185 271.893C257.185 271.893 278.316 260.357 284.181 246.558C285.309 243.844 286.212 241.733 286.663 239.999C282.753 242.261 261.546 254.023 259.29 255.456" fill="#FFB681"/>
<path opacity="0.47" d="M285.159 240.828C285.159 240.828 285.084 241.431 284.934 241.884C284.031 246.332 283.054 248.971 283.054 248.971C283.054 248.971 286.663 241.431 286.663 239.999C285.761 240.526 285.159 240.828 285.159 240.828Z" fill="#EAB28C"/>
<path d="M189.053 292.552L184.015 277.472C184.015 277.472 164.538 263.448 166.568 256.511C168.524 249.574 172.208 247.614 174.765 248.292C179.578 249.65 194.016 259.829 200.333 263.599C201.762 264.503 202.89 265.785 203.567 267.369L213.042 287.802L191.008 317.962C190.933 317.887 186.196 305.144 189.053 292.552Z" fill="#FFB681"/>
<path opacity="0.29" d="M167.471 253.721C167.471 253.721 176.194 259.904 179.728 260.356C183.263 260.809 186.346 254.701 186.346 254.701C184.992 253.797 178.149 248.82 173.487 247.915C171.908 247.614 169.652 250.102 169.652 250.102L167.471 253.721Z" fill="white"/>
<path d="M235.903 272.722L237.332 256.888C237.332 256.888 225.15 236.153 229.737 230.649C234.324 225.069 238.46 224.768 240.49 226.426C244.326 229.593 253.5 244.749 257.786 250.705C258.764 252.062 259.29 253.721 259.29 255.455L257.185 271.968C256.508 277.095 253.425 281.544 248.838 283.881C241.919 287.425 232.519 292.175 231.166 291.949C224.924 290.969 233.948 276.266 235.903 272.722Z" fill="#FFB681"/>
<path opacity="0.29" d="M234.024 230.95C234.024 230.95 237.182 238.038 240.265 239.848C243.348 241.733 248.688 236.907 248.688 236.907C247.86 235.55 243.499 227.934 239.137 225.748C236.656 224.541 232.745 227.708 232.745 227.708L234.024 230.95Z" fill="white"/>
<path d="M214.622 288.179C213.193 284.409 209.884 274.682 211.087 267.067C211.087 267.067 193.791 247.237 197.702 237.812C200.785 230.498 206.199 231.177 209.282 234.193C212.366 237.209 228.233 252.138 230.113 254.626C231.993 257.114 235.377 263.372 236.43 269.857L238.234 281.921" fill="#FFB681"/>
<path d="M215.298 289.838C215.298 289.838 215.072 289.235 214.621 288.254L215.298 289.838Z" fill="#F9D0AF"/>
<path opacity="0.29" d="M200.484 239.546C200.484 239.546 205.823 246.558 209.583 247.84C213.418 249.122 219.434 243.919 219.434 243.919C219.434 243.919 208.68 232.383 205.672 231.78C202.439 231.101 197.927 236.53 197.927 236.53L200.484 239.546Z" fill="white"/>
<path opacity="0.32" d="M209.883 298.961C211.538 294.965 212.741 291.873 212.741 291.346C212.741 289.536 211.312 283.956 211.312 283.956L213.342 282.75C213.342 282.75 216.952 286.972 215.749 291.119C214.546 295.266 204.694 315.097 204.694 315.097L202.363 315.624C202.363 315.624 208.755 301.298 212.59 292.024" fill="#FB9A4D"/>
<path opacity="0.32" d="M236.654 264.88C236.654 264.88 240.866 273.099 240.866 278.754C240.866 280.564 239.362 288.631 239.362 288.631L235.827 290.29C235.827 290.29 238.384 278.829 238.083 276.794C237.782 274.984 236.278 268.273 236.278 268.273L236.654 264.88Z" fill="#FB9A4D"/>
<path opacity="0.32" d="M261.546 254.098C261.546 254.098 261.697 257.039 261.471 260.507C261.321 262.317 259.365 270.686 259.365 270.686L257.26 271.893C257.26 271.893 259.666 260.281 259.666 258.245C259.666 257.19 259.441 255.38 259.441 255.38L261.546 254.098Z" fill="#FB9A4D"/>
</g>
</g>
<defs>
<clipPath id="clip0_14328_9179">
<rect width="376" height="377" fill="white"/>
</clipPath>
</defs>
</svg>
