<svg width="376" height="301" viewBox="0 0 376 301" fill="none" xmlns="http://www.w3.org/2000/svg">
<path d="M352.049 243.009H60.0852C50.8356 243.009 43.278 246.468 43.278 250.679C43.278 253.612 46.8876 256.169 52.1892 257.447H26.5084C17.2588 257.447 9.70117 260.906 9.70117 265.118C9.70117 269.329 17.2588 272.788 26.5084 272.788H35.4572C32.938 274.142 31.434 275.871 31.434 277.751V280.834C31.434 285.046 38.9916 288.505 48.2412 288.505H335.881C345.131 288.505 352.688 285.046 352.688 280.834V277.751C352.688 273.54 345.131 270.081 335.881 270.081L316.329 270.269C317.833 270.269 320.24 269.742 321.856 268.652C324.714 266.772 324.827 263.877 323.436 261.508C322.533 259.966 321.104 258.726 317.495 258.274L352.049 258.387C361.299 258.387 368.856 254.928 368.856 250.717C368.856 246.468 361.299 243.009 352.049 243.009Z" fill="#F1F2F2"/>
<path d="M121.937 34.6673C114.981 35.4569 107.085 40.8337 106.183 47.0753C102.987 41.6233 91.7443 40.1193 85.0139 42.0369C67.2291 47.0753 65.1235 68.432 75.4635 80.4641C81.0283 86.9312 88.2099 92.1576 95.8051 96.5944C102.159 100.317 118.139 107.724 118.177 107.686C118.215 107.724 130.171 94.7896 134.646 88.9241C139.985 81.9305 144.647 74.3728 147.317 66.2512C152.28 51.1736 140.286 32.5617 121.937 34.6673Z" fill="#D34E4E"/>
<g opacity="0.12">
<path d="M144.121 68.6576C140.7 74.9744 136.488 81.1408 131.713 86.6304C127.088 91.9696 121.411 96.9328 114.568 99.5272C111.296 100.806 107.95 101.37 104.679 101.257C111.334 104.566 118.478 107.874 118.516 107.837C118.553 107.874 130.51 94.94 134.984 89.0744C140.324 82.0808 144.986 74.5232 147.656 66.4016C148.52 63.7696 148.859 61.0624 148.784 58.3552C147.505 61.8896 145.926 65.3488 144.121 68.6576Z" fill="black"/>
</g>
<path d="M142.693 62.9801C137.993 64.0329 133.293 65.0857 128.593 66.1385C125.66 60.2729 122.727 54.4073 119.757 48.5417C119.343 47.6769 118.027 48.0153 117.877 48.9177C116.335 60.4609 114.831 71.9665 113.289 83.5097C113.214 84.1865 113.101 84.8633 113.026 85.5025C109.116 78.8849 105.243 72.2673 101.333 65.6497C100.693 64.5969 100.092 63.5441 99.4526 62.4537C99.0766 61.8145 97.8734 61.7769 97.6478 62.6041C96.5198 66.4017 95.3918 70.2369 94.2638 74.0345C88.9622 75.0873 83.6606 76.1401 78.3966 77.1929C77.1558 77.4561 77.4942 79.2609 78.7726 78.9977C84.2622 77.9073 89.7518 76.8169 95.2414 75.7265C95.5798 75.6513 95.8806 75.4257 95.9934 75.1249C96.971 71.8537 97.911 68.5825 98.8886 65.3113C102.874 72.1169 106.897 78.8849 110.883 85.6905C111.522 86.7433 112.124 87.7961 112.763 88.8865C113.214 89.6761 114.493 89.4505 114.643 88.5105C116.185 76.9673 117.689 65.4617 119.23 53.9185C119.305 53.3545 119.381 52.8281 119.456 52.2641C122.013 57.3777 124.607 62.5289 127.164 67.6425C127.352 67.9809 127.803 68.2065 128.217 68.1313C133.18 67.0033 138.105 65.9129 143.069 64.7849C144.309 64.5217 143.933 62.7169 142.693 62.9801Z" fill="white"/>
<path d="M283.166 61.9272C283.053 62.1152 282.827 62.228 282.639 62.1152L266.772 54.708C266.584 54.5952 266.471 54.3696 266.584 54.1816C266.697 53.9936 266.922 53.8808 267.11 53.9936L282.978 61.4008C283.166 61.476 283.278 61.7016 283.166 61.9272Z" fill="#3B455A"/>
<path d="M285.986 62.04L285.083 63.92L276.623 59.972C276.097 59.7088 275.871 59.1072 276.135 58.5808C276.398 58.0544 276.999 57.8288 277.526 58.092L285.986 62.04Z" fill="#8EC3CB"/>
<path d="M354.53 92.2703L353.327 94.5639L343.137 89.2247L339.49 96.1807L349.68 101.52L348.477 103.814C347.988 104.754 348.364 105.882 349.266 106.37C350.206 106.859 351.334 106.483 351.823 105.581L357.877 94.0375C358.365 93.0975 357.989 91.9695 357.087 91.4807C356.147 90.9543 355.019 91.3303 354.53 92.2703Z" fill="#474EBB"/>
<g opacity="0.12">
<path d="M345.28 99.2264L348.927 92.2704L351.672 93.6992L346.032 99.6024L345.28 99.2264Z" fill="black"/>
</g>
<path d="M351.447 87.4575L342.761 104.001C342.498 104.528 341.859 104.716 341.37 104.453L337.347 102.347L346.972 83.9607L350.995 86.0663C351.522 86.2919 351.747 86.9311 351.447 87.4575Z" fill="#3B455A"/>
<path d="M350.657 78.9976C349.792 78.6216 348.815 78.9976 348.364 79.8248L347.649 81.1784C347.198 82.0056 346.183 82.344 345.318 81.8928L298.957 57.5656C298.393 57.2648 297.754 57.1896 297.152 57.3024L283.88 60.16C283.616 60.1976 283.428 60.3856 283.278 60.6112L281.887 63.2432C281.774 63.4688 281.774 63.732 281.849 63.9576L287.076 76.4408C287.301 77.0048 287.752 77.4935 288.316 77.7943L334.715 102.122C335.542 102.573 335.88 103.588 335.429 104.453L334.715 105.806C334.301 106.634 334.527 107.686 335.316 108.175C336.181 108.702 337.309 108.401 337.76 107.498L351.447 81.404C351.973 80.5016 351.597 79.4112 350.657 78.9976Z" fill="#8EC3CB"/>
<g opacity="0.17">
<path d="M299.033 60.2351C298.507 59.9719 297.905 59.8591 297.341 59.8967L285.309 61.4007C285.083 61.4383 284.895 61.5511 284.783 61.7391L283.692 63.8447C283.579 64.0327 283.617 64.2583 283.73 64.4463L289.332 75.1623C289.595 75.6511 290.009 76.0647 290.573 76.3655L334.828 99.5647L299.033 60.2351Z" fill="#DBE8EB"/>
</g>
<path d="M313.17 82.9831L310.087 88.8863L308.959 88.2847L312.042 82.3815C312.08 82.3063 312.155 82.3063 312.193 82.3439L313.095 82.8327C313.17 82.8327 313.208 82.9079 313.17 82.9831Z" fill="#3B455A"/>
<path d="M297.378 74.6735L294.295 80.5767L293.167 79.9751L296.25 74.0719C296.288 73.9967 296.363 73.9967 296.401 74.0343L297.303 74.5231C297.378 74.5607 297.416 74.6359 297.378 74.6735Z" fill="#3B455A"/>
<path d="M328.962 91.2551L325.879 97.1583L324.751 96.5567L327.834 90.6535C327.872 90.5783 327.947 90.5783 327.985 90.6159L328.887 91.1047C328.962 91.1047 329 91.1799 328.962 91.2551Z" fill="#3B455A"/>
<path d="M319.45 89.9768L317.871 92.9472L316.931 92.4584L318.51 89.488C318.547 89.4504 318.585 89.4128 318.66 89.4504L319.412 89.864C319.45 89.864 319.45 89.9016 319.45 89.9768Z" fill="#3B455A"/>
<path d="M303.658 81.6671L302.079 84.6375L301.139 84.1487L302.718 81.1783C302.755 81.1407 302.793 81.1031 302.868 81.1407L303.62 81.5543C303.658 81.5919 303.658 81.6295 303.658 81.6671Z" fill="#3B455A"/>
<path d="M155.175 194.392L153.22 221.126L146.715 265.381H141.752L138.631 224.547L137.24 191.497L155.175 194.392Z" fill="#CCD2D9"/>
<path d="M141.79 264.779V267.487L147.167 270.194L149.874 267.487L147.167 264.779H141.79Z" fill="#3B455A"/>
<path d="M119.906 188.075L121.824 225.562L126.148 268.577H131.224L135.36 227.818L141.413 184.917L119.906 188.075Z" fill="#CCD2D9"/>
<path d="M131.187 267.975V270.72L125.697 273.503L122.952 270.72L125.697 267.975H131.187Z" fill="#3B455A"/>
<path d="M137.278 127.99C135.548 127.802 133.819 127.652 132.051 127.464C132.014 126.073 132.127 124.682 132.315 123.29C130.848 122.802 129.194 122.012 128.931 120.508C128.855 120.019 128.931 119.53 129.006 119.079C129.344 117.124 129.683 115.131 130.021 113.176C130.134 112.499 130.247 111.785 130.623 111.221C131.262 110.206 132.54 109.754 133.743 109.529C136.789 109.002 140.135 109.642 142.504 111.634C143.143 112.161 143.707 112.8 143.971 113.59C144.384 114.793 144.083 116.109 143.745 117.35C143.444 118.478 143.143 119.606 142.843 120.771C142.504 122.087 142.015 123.554 140.737 124.042C140.06 124.306 139.271 124.23 138.669 124.606C137.691 125.283 137.842 126.862 137.278 127.99Z" fill="#EFBFA5"/>
<path d="M149.498 107.837C149.648 106.22 149.723 104.904 149.385 103.325C149.197 102.385 147.994 99.4897 148.37 98.6625C147.693 100.091 145.888 100.467 144.309 100.618C138.443 101.219 131.901 99.7529 126.487 102.761C125.509 103.325 124.719 104.152 124.118 105.13C122.012 108.401 121.975 112.95 124.118 116.222C124.607 116.974 125.171 117.65 125.735 118.29C126.975 119.606 128.442 121.26 130.134 121.749C130.171 120.245 128.78 115.47 129.946 114.229C131.563 112.499 134.533 112.838 136.676 113.138C139.383 113.514 142.053 113.514 144.798 113.176C145.663 113.063 146.565 112.95 147.392 112.612C149.347 111.785 149.272 109.98 149.46 108.1C149.46 108.025 149.498 107.95 149.498 107.837Z" fill="#3B455A"/>
<path d="M102.798 105.581L102.159 102.347L103.851 99.9409L103.513 99.3393L102.761 99.7153L103.55 97.3465L102.836 95.4289L100.204 94.7521L97.647 95.8425L97.2334 98.5121L98.399 101.52L99.0758 105.994L102.798 105.581Z" fill="#EFBFA5"/>
<path d="M103.212 103.287L98.249 102.986L100.467 130.096L121.561 141.263L126.449 128.103L109.755 120.433L103.212 103.287Z" fill="#EBB044"/>
<path d="M160.176 93.8121L160.327 90.5033L158.334 88.3601L158.597 87.7209L159.387 87.9841L158.259 85.7281L158.71 83.7729L161.192 82.6825L163.899 83.4345L164.688 86.0289L163.974 89.1497L163.936 93.6617L160.176 93.8121Z" fill="#EFBFA5"/>
<path d="M159.424 91.5937L164.312 90.5785L164.688 109.341L162.77 123.854L150.325 142.166L140.098 127.389L151.942 118.666L159.424 91.5937Z" fill="#EBB044"/>
<path d="M141.413 126.637L124.944 127.351L116.635 159.01L109.754 202.89L162.77 204.168L150.324 142.166L141.413 126.637Z" fill="#EBB044"/>
<path d="M223.119 115.319L222.517 112.161L224.134 109.83L223.833 109.228L223.081 109.604L223.871 107.273L223.194 105.43L220.637 104.716L218.118 105.806L217.704 108.401L218.832 111.334L219.471 115.695L223.119 115.319Z" fill="#C1796B"/>
<path d="M223.269 112.01L218.306 116.222L219.02 137.954L227.405 143.782L243.385 141.752L241.242 127.99L227.894 130.547L223.269 112.01Z" fill="#474EBB"/>
<path d="M274.292 263.388L274.894 266.283L269.931 270.344L266.547 268.088L268.69 264.629L273.653 260.531L274.292 263.388Z" fill="#3B455A"/>
<path d="M256.921 175.141L262.486 187.887L262.974 223.795L274.367 262.41L269.066 264.742L245.866 219.922L243.234 205.71L242.182 175.818L256.921 175.141Z" fill="#474EBB"/>
<path d="M230.149 177.999L229.698 215.599L236.805 264.14H242.257L245.678 219.359L253.161 174.615L230.149 177.999Z" fill="#474EBB"/>
<path d="M242.219 263.463V266.434L236.316 269.366L233.383 266.434L236.316 263.463H242.219Z" fill="#3A332D"/>
<path d="M240.866 127.05L255.342 126.524C255.342 126.524 263.99 134.119 268.464 153.859C273.014 173.975 267.637 202.927 267.637 202.927C267.637 202.927 228.796 197.738 222.404 196.949L232.105 157.243L240.866 127.05Z" fill="#474EBB"/>
<path d="M246.054 128.517C247.746 128.366 249.438 128.178 251.13 128.028C251.13 126.674 251.055 125.321 250.867 123.967C252.258 123.478 253.912 122.726 254.138 121.26C254.213 120.809 254.138 120.32 254.063 119.869C253.724 117.951 253.423 116.034 253.085 114.116C252.972 113.439 252.859 112.762 252.483 112.198C251.844 111.183 250.641 110.77 249.475 110.544C246.505 110.018 243.271 110.657 240.978 112.612C240.376 113.138 239.812 113.74 239.549 114.492C239.135 115.658 239.436 116.936 239.737 118.139C240.038 119.23 240.301 120.358 240.602 121.448C240.94 122.726 241.429 124.155 242.632 124.644C243.271 124.907 244.061 124.832 244.625 125.208C245.678 125.885 245.527 127.426 246.054 128.517Z" fill="#C1796B"/>
<path d="M229.548 109.378C229.51 108.062 229.698 106.746 229.961 105.543C230.413 103.475 232.857 102.573 234.962 102.422C239.512 102.122 243.873 100.054 248.31 101.633C250.829 102.535 254.251 102.761 256.545 104.039C257.485 104.566 258.274 105.393 258.876 106.333C260.944 109.529 260.944 113.928 258.876 117.124C258.425 117.838 257.861 118.515 257.297 119.117C256.093 120.395 254.665 122.012 253.01 122.501C252.973 121.034 254.326 116.372 253.198 115.169C251.393 113.251 247.333 113.928 245.114 114.379C242.67 114.906 240.527 116.598 238.121 116.974C236.391 117.237 234.173 116.372 232.706 115.47C230.375 114.078 229.623 111.747 229.548 109.378Z" fill="#3B455A"/>
<path d="M244.889 128.855L229.661 189.73L228.42 197.701L247.37 200.182C247.37 200.182 246.618 171.005 246.882 167.132C247.145 163.259 249.927 154.837 250.378 145.775C250.642 140.549 252.296 131.111 251.13 128.066L244.889 128.855Z" fill="white"/>
<path d="M43.8037 265.418L43.7285 266.208L43.4653 268.915L38.0133 271.284L35.6445 268.389L38.5021 265.87L38.7653 265.757L38.8029 266.095L43.8037 265.418Z" fill="#3B455A"/>
<path d="M44.1046 265.381L43.8414 265.419H43.5406L38.8406 266.095L34.4414 220.073L33.915 217.93C38.0134 218.005 42.9014 218.042 47.7894 218.08L44.1046 265.381Z" fill="#C1796B"/>
<path d="M65.9878 218.042L64.9726 229.999L54.8958 261.019L49.9702 260.38L49.895 260.982H49.8574L53.5046 229.022L50.3838 218.118C56.099 218.118 61.7014 218.118 65.9878 218.042Z" fill="#C1796B"/>
<path d="M54.8958 261.019L55.1966 261.057L57.4526 264.14L54.4446 266.547L49.5566 263.087L49.8574 260.944L54.6702 261.583L54.8958 261.019Z" fill="#3B455A"/>
<path d="M54.8958 261.019L54.6702 261.583L49.8574 260.944L49.9326 260.343L54.8958 261.019Z" fill="#3E3D3B"/>
<path d="M31.7342 148.482C31.095 151.49 28.7262 153.671 26.4326 155.739C28.1246 151.378 29.8918 147.505 31.6214 144.158C31.8846 145.625 32.035 147.054 31.7342 148.482Z" fill="#8EC3CB"/>
<path d="M23.1619 217.704C23.1619 217.704 27.6363 217.779 33.9155 217.892C38.0139 217.967 42.9019 218.005 47.7899 218.043C48.6547 218.043 49.4819 218.043 50.3467 218.043C56.0995 218.08 61.7019 218.08 65.9883 218.005C69.2595 217.93 71.7411 217.855 72.9819 217.704L62.4915 163.41L62.4539 163.259L59.6715 151.904L55.6107 135.323L45.4587 130.472C44.3683 130.284 43.3907 129.795 42.5635 129.081L42.1875 128.893C42.3003 129.344 42.4507 129.795 42.6011 130.171C42.6763 130.322 42.7515 130.472 42.8267 130.623C43.6915 132.164 44.9699 133.631 44.9323 135.36C44.9323 135.699 44.8571 135.999 44.7819 136.338C44.6315 136.902 44.4059 137.466 44.1803 138.03C41.9243 143.933 44.4059 150.588 48.0531 155.589C49.9331 158.146 52.4147 160.364 53.4675 163.335C53.6555 163.861 53.7683 164.387 53.8059 164.951C54.0691 167.621 52.7907 170.554 50.1963 171.005C49.5947 171.118 48.9555 171.08 48.3915 171.343C46.4739 172.246 47.3011 175.367 45.8723 176.946C44.9699 177.961 43.4283 177.999 42.0371 177.961C41.5859 177.961 41.1347 177.923 40.7587 177.698C39.9691 177.171 40.0443 176.006 39.8187 175.103C39.4051 173.449 37.7131 172.359 36.0587 171.983C34.3667 171.607 32.6371 171.795 30.9075 171.795C28.7643 171.795 26.5459 171.494 24.6659 170.479C23.9139 170.065 23.2371 169.576 22.6355 168.937C19.3267 189.655 23.1619 217.704 23.1619 217.704Z" fill="#8EC3CB"/>
<path d="M42.1498 128.742C41.2098 124.606 42.225 118.102 44.9698 115.695C46.0602 114.755 47.301 114.567 48.6546 114.567C49.2938 114.567 49.5194 114.718 49.8578 114.68C50.873 115.996 51.5874 117.613 51.437 119.154C51.3242 120.433 50.6098 121.41 50.5346 122.802C50.4218 125.321 46.8122 127.84 48.2034 130.322C47.2258 130.66 46.2858 130.698 45.421 130.585L42.5258 129.194C42.413 129.006 42.3002 128.855 42.1498 128.742Z" fill="#C1796B"/>
<path d="M45.4587 130.51C44.3683 130.322 43.3907 129.833 42.5635 129.119L45.4587 130.51Z" fill="#E1CFB5"/>
<path d="M50.5725 122.726C50.6477 121.335 51.3621 120.358 51.4749 119.079C51.5877 117.538 50.9109 115.958 49.8957 114.605C50.0461 114.567 50.2341 114.492 50.4597 114.342C50.9485 114.041 51.3997 113.214 51.6253 112.574C52.9037 113.402 53.8437 114.83 54.1069 117.086C54.3701 119.493 54.3701 122.05 53.5429 124.494C52.7157 126.9 50.9485 129.194 48.6549 130.096C48.5045 130.134 48.3917 130.209 48.2413 130.246C46.8877 127.765 50.4597 125.246 50.5725 122.726Z" fill="#C1796B"/>
<path d="M20.9433 165.515C21.1689 166.794 21.8081 167.959 22.7481 168.899C22.8233 168.448 22.8985 167.997 22.9737 167.583C22.8985 168.034 22.8233 168.448 22.7481 168.899C23.3497 169.501 24.0265 170.027 24.7785 170.441C26.6585 171.456 28.8769 171.757 31.0201 171.757C32.7497 171.757 34.4793 171.569 36.1713 171.945C37.8633 172.321 39.5177 173.411 39.9313 175.066C40.1569 175.968 40.0817 177.134 40.8713 177.66C41.2473 177.886 41.6985 177.923 42.1497 177.923C43.5033 177.961 45.0449 177.923 45.9849 176.908C47.4137 175.329 46.5865 172.208 48.5041 171.306C49.0681 171.042 49.7073 171.08 50.3089 170.967C52.9033 170.516 54.1441 167.621 53.9185 164.914C53.8809 164.35 53.7681 163.823 53.5801 163.297C52.5273 160.326 50.0457 158.108 48.1657 155.551C44.5185 150.55 42.0369 143.895 44.2929 137.992C44.5185 137.428 44.7441 136.864 44.8945 136.3C44.9697 135.999 45.0449 135.661 45.0449 135.322C45.0825 133.555 43.7665 132.126 42.9393 130.585C42.8641 130.434 42.7889 130.284 42.7137 130.134C42.5257 129.758 42.4129 129.306 42.3001 128.855C42.3001 128.78 42.2625 128.705 42.2625 128.63C39.6681 126.035 38.6153 121.222 40.3449 117.613C40.4577 117.425 40.5329 117.199 40.6457 117.011C40.5329 117.199 40.4201 117.425 40.3449 117.613C38.6529 121.222 39.6681 126.035 42.2625 128.63C41.3225 124.494 42.3377 117.989 45.0825 115.582C46.1729 114.642 47.4137 114.454 48.7673 114.454C49.4065 114.454 49.6321 114.605 49.9705 114.567C50.1209 114.53 50.3089 114.454 50.5345 114.304C51.0233 114.003 51.4745 113.176 51.7001 112.537C52.9785 113.364 53.9185 114.793 54.1817 117.049C54.4449 119.455 54.4449 122.012 53.6177 124.456C52.7905 126.862 51.0233 129.156 48.7297 130.058C48.5793 130.096 48.4665 130.171 48.3161 130.209C48.4289 130.397 48.5793 130.622 48.7673 130.81C50.0081 132.202 52.0385 132.502 53.8809 132.766C54.1065 132.803 54.3321 132.841 54.5577 132.728C54.8961 132.578 55.0841 132.202 55.0841 131.826C55.0841 131.45 54.9713 131.111 54.8585 130.735C53.7681 126.975 55.6857 122.689 56.0241 118.929C56.3249 115.169 55.5729 111.033 52.5273 108.476C52.0009 108.626 51.5121 108.814 51.0233 109.04C50.9857 108.965 50.9105 108.927 50.8729 108.852C46.4737 103.588 40.3073 108.1 36.9609 112.123C34.2161 115.432 31.9225 119.23 30.8697 123.441C29.8921 127.389 29.5537 133.142 29.9673 137.165C30.1929 139.496 31.1329 141.827 31.6217 144.121C31.9225 145.55 32.0729 146.978 31.7721 148.407C31.1329 151.415 28.7641 153.596 26.4705 155.664C26.2449 156.19 26.0569 156.754 25.8313 157.318C25.6057 157.882 25.4177 158.446 25.1921 159.01C25.0417 159.386 24.9289 159.762 24.8161 160.138C24.9289 159.762 25.0793 159.386 25.1921 159.01C25.3801 158.446 25.6057 157.882 25.8313 157.318C26.0569 156.754 26.2449 156.228 26.4705 155.664C26.1321 155.965 25.8313 156.228 25.5305 156.529C22.8985 158.973 20.3417 162.094 20.9433 165.515ZM43.9921 113.402C44.3305 113.176 44.6689 112.988 45.0449 112.8C44.7065 112.95 44.3305 113.138 43.9921 113.402Z" fill="#3B455A"/>
<path d="M301.478 196.31L322.872 188.414L318.435 225.901L320.992 258.199L321.218 260.267L317.044 260.38L307.23 230.112L302.23 199.468L301.478 196.31Z" fill="#EFBFA5"/>
<path d="M317.044 260.38L321.406 260.267L322.534 263.952L322.421 263.99L315.202 268.276L311.78 268.652L311.329 264.742L312.269 264.065L317.044 260.38Z" fill="#3B455A"/>
<path d="M286.926 196.949L293.468 262.599L297.717 263.2L301.815 226.653L309.185 192.136L286.926 196.949Z" fill="#EFBFA5"/>
<path d="M293.318 262.561L287.716 265.757L288.242 268.389L298.281 266.885L297.68 263.087L293.318 262.561Z" fill="#3B455A"/>
<path d="M276.887 213.042C275.534 212.102 275.496 210.485 275.496 208.83C275.496 205.747 276.06 202.626 276.774 199.618C278.128 194.016 279.632 187.248 280.309 179.991C282.038 161.191 287.979 148.595 287.979 148.595L289.897 143.482C290.273 142.805 290.686 142.166 291.1 141.526C293.506 137.766 297.642 131.412 302.079 130.359C302.154 130.322 302.267 130.322 302.342 130.284C307.005 129.269 312.983 129.72 317.194 132.014C317.984 132.427 318.698 133.029 319.413 133.593C321.481 135.247 323.173 136.15 324.038 138.706C324.827 140.925 324.978 143.294 325.429 145.587C326.294 150.212 326.82 154.912 327.497 159.574C328.775 168.298 329.903 177.096 331.294 185.819C332.009 190.294 332.723 194.806 333.062 199.355C333.362 203.378 336.972 207.439 339.002 211.049C339.717 212.29 329.527 215.561 328.625 215.749C324.414 216.726 319.902 216.463 315.578 216.501C306.065 216.538 296.514 216.238 287.002 215.636C283.843 215.41 279.933 214.809 277.15 213.267C277.038 213.154 276.962 213.117 276.887 213.042Z" fill="#D34E4E"/>
<path d="M307.568 129.795C307.568 129.795 312.945 128.329 313.659 140.474C314.411 152.581 315.652 183.225 317.382 191.647C319.111 200.032 321.706 216.539 321.706 216.539L305.275 217.103L286.475 215.636C286.475 215.636 292.904 203.755 293.882 195.37C294.859 186.985 293.13 155.326 297.341 143.482C301.552 131.638 302.455 129.983 307.568 129.795Z" fill="white"/>
<path d="M283.279 156.755L274.706 155.439V148.031L295.386 132.277L302.041 130.322L298.845 138.97L283.279 156.755Z" fill="#D34E4E"/>
<path d="M300.086 120.17C299.259 122.614 300.462 125.208 301.477 127.427C302.379 129.382 302.718 130.698 300.387 131.224C299.071 131.525 296.739 132.089 295.611 131.074C294.747 130.322 295.235 127.953 295.649 127.051C295.987 126.336 296.815 125.96 297.115 125.246C297.228 124.945 297.266 124.607 297.266 124.306C297.266 122.99 297.115 121.674 296.739 120.395C296.476 119.531 296.138 118.703 296.063 117.801C295.95 116.523 296.852 115.019 297.341 113.815C298.243 111.597 301.327 108.664 303.921 110.394C304.523 110.77 304.861 111.447 305.162 112.086C305.35 112.462 305.5 112.875 305.5 113.289C305.538 114.981 303.959 115.282 302.906 116.071C301.59 117.162 300.575 118.628 300.086 120.17Z" fill="#3B455A"/>
<path d="M305.011 129.682C302.755 129.156 300.988 127.276 300.161 125.095C299.296 122.952 299.258 120.546 299.521 118.252C300.311 110.582 309.824 111.07 313.057 116.936C315.84 122.087 311.553 131.262 305.011 129.682Z" fill="#EFBFA5"/>
<path d="M305.011 128.893C305.049 129.758 305.086 130.622 305.124 131.525C305.124 131.638 305.124 131.788 305.237 131.901C305.35 132.014 305.5 132.014 305.65 132.014C306.365 131.976 307.079 131.976 307.794 131.938C308.132 131.938 308.508 131.901 308.809 131.75C309.486 131.374 309.636 130.472 309.523 129.682C309.41 128.93 309.147 128.141 309.298 127.389C307.831 128.103 306.44 126.486 304.974 127.201L305.011 128.893Z" fill="#EFBFA5"/>
<path d="M308.095 104.979C310.615 105.844 312.194 108.363 314.638 109.378C316.029 109.942 317.683 110.018 318.849 111.033C321.406 113.251 319.338 117.951 321.443 120.621C321.895 121.185 322.459 121.598 322.91 122.162C323.85 123.366 324 124.982 324.075 126.524C324.113 126.862 324.113 127.238 324.038 127.577C323.699 131.074 318.623 130.886 316.593 130.66C314.375 130.397 315.127 129.194 315.127 129.194L315.202 129.081C315.427 127.652 314.826 126.148 313.698 125.208C313.284 124.87 312.795 124.607 312.495 124.155C311.818 123.14 312.457 121.824 312.382 120.621C312.006 115.808 303.884 116.823 301.591 113.402C298.771 109.153 303.358 103.363 308.095 104.979Z" fill="#3B455A"/>
<path d="M328.023 98.3616L324.902 94.0376L322.984 95.2784L324.451 98.7L323.285 98.888L326.368 102.272L328.549 101.257L328.023 98.3616Z" fill="#EFBFA5"/>
<path d="M314.862 135.398L331.105 122.275L325.089 102.272L331.068 99.828L342.197 126.223L325.954 146.715L314.862 135.398Z" fill="#D34E4E"/>
<path d="M292.716 157.995L297.567 157.168L297.304 155.1L293.882 154.912L294.22 153.859L290.16 155.062L290.122 157.281L292.716 157.995Z" fill="#EFBFA5"/>
<path d="M279.556 150.137L279.519 150.588L291.4 154.198L291.1 158.559L274.706 154.348L279.556 150.137Z" fill="#D34E4E"/>
<path d="M252.559 270.795H205.521C201.799 270.795 198.791 267.787 198.791 264.065V232.18C198.791 228.458 201.799 225.45 205.521 225.45H252.559C256.281 225.45 259.289 228.458 259.289 232.18V264.065C259.289 267.787 256.281 270.795 252.559 270.795Z" fill="#D34E4E"/>
<path d="M242.294 223.006C242.294 220.11 242.294 217.215 242.294 214.32C242.294 213.53 241.542 212.854 240.677 212.854C233.797 212.854 226.953 212.854 220.073 212.854C219.095 212.854 218.117 212.854 217.14 212.854C216.275 212.854 215.523 213.53 215.523 214.32C215.523 217.215 215.523 220.11 215.523 223.006C214.207 223.043 213.154 224.134 213.154 225.487H221.088C221.088 224.134 220.035 223.043 218.719 223.006C218.719 220.599 218.719 218.193 218.719 215.786C225.036 215.786 231.353 215.786 237.707 215.786C238.158 215.786 238.572 215.786 239.023 215.786C239.023 218.193 239.023 220.599 239.023 223.006H238.873C237.519 223.006 236.429 224.134 236.429 225.487H244.4C244.4 224.209 243.497 223.156 242.294 223.006Z" fill="#D34E4E"/>
<path d="M243.084 243.573C239.813 243.573 236.542 243.573 233.27 243.573C232.97 243.573 232.669 243.573 232.368 243.573C232.368 241.129 232.368 238.722 232.368 236.278C232.368 235.075 232.368 233.834 232.368 232.631C232.368 232.218 232.029 231.879 231.616 231.879C229.585 231.879 227.555 231.879 225.525 231.879C225.111 231.879 224.773 232.218 224.773 232.631C224.773 235.978 224.773 239.286 224.773 242.633C224.773 242.934 224.773 243.272 224.773 243.573C222.404 243.573 219.997 243.573 217.629 243.573C216.425 243.573 215.222 243.573 214.057 243.573C213.643 243.573 213.305 243.911 213.305 244.325C213.305 246.393 213.305 248.461 213.305 250.529C213.305 250.754 213.38 250.942 213.53 251.055C213.643 251.206 213.831 251.281 214.057 251.281C217.328 251.281 220.599 251.281 223.87 251.281C224.171 251.281 224.472 251.281 224.773 251.281C224.773 253.725 224.773 256.131 224.773 258.575C224.773 259.778 224.773 261.019 224.773 262.222C224.773 262.636 225.111 262.974 225.525 262.974C227.555 262.974 229.585 262.974 231.616 262.974C231.841 262.974 232.03 262.899 232.142 262.749C232.293 262.636 232.368 262.448 232.368 262.222C232.368 258.876 232.368 255.567 232.368 252.221C232.368 251.92 232.368 251.582 232.368 251.281C234.737 251.281 237.143 251.281 239.512 251.281C240.715 251.281 241.918 251.281 243.084 251.281C243.497 251.281 243.836 250.942 243.836 250.529C243.836 248.461 243.836 246.393 243.836 244.325C243.798 243.911 243.46 243.573 243.084 243.573Z" fill="white"/>
<path d="M120.358 149.498C122.012 157.13 129.532 162.018 137.165 160.364C144.798 158.71 149.611 151.152 147.956 143.519C146.302 135.886 138.782 130.998 131.149 132.653C123.554 134.307 118.704 141.865 120.358 149.498Z" fill="#3B455A"/>
<path d="M124.681 148.558C125.809 153.822 130.998 157.168 136.225 156.002C141.451 154.874 144.797 149.686 143.632 144.422C142.504 139.158 137.315 135.811 132.089 136.977C126.862 138.142 123.553 143.331 124.681 148.558Z" fill="#CCD2D9"/>
<path d="M143.156 196.829L146.867 196.023L137.281 151.859L133.57 152.664L143.156 196.829Z" fill="#CCD2D9"/>
<path d="M131.074 147.542C131.45 149.347 133.217 150.475 135.022 150.099C136.827 149.723 137.955 147.918 137.579 146.151C137.203 144.346 135.435 143.218 133.631 143.594C131.826 143.97 130.66 145.738 131.074 147.542Z" fill="#3B455A"/>
<g opacity="0.13">
<path d="M132.954 149.874L135.285 160.627C135.285 160.627 133.105 160.74 131.901 160.477L132.39 149.498L132.954 149.874Z" fill="black"/>
</g>
<path d="M207.928 184.014C207.101 184.165 206.386 184.879 205.484 184.766C205.672 186.082 205.221 183.037 205.371 184.353C205.559 186.12 205.634 187.85 205.672 189.617C205.71 190.632 205.71 191.61 205.672 192.625C205.672 192.813 205.634 193.753 205.672 193.038C205.672 193.302 205.634 193.565 205.634 193.828C205.597 194.354 205.597 194.843 205.522 195.37C205.371 197.588 205.07 199.806 204.619 202.025C204.394 203.153 204.13 204.281 203.792 205.371C203.642 205.973 203.454 206.537 203.228 207.101C203.153 207.364 203.04 207.59 202.965 207.853C202.965 207.89 202.927 207.966 202.89 208.041C202.89 208.078 202.852 208.116 202.852 208.191C201.987 210.334 200.934 212.44 199.581 214.433C199.43 214.658 199.242 214.922 199.054 215.147C199.242 214.884 198.791 215.523 198.678 215.636C198.34 216.05 198.002 216.463 197.626 216.877C196.836 217.704 196.009 218.494 195.106 219.283C195.294 219.133 194.58 219.697 194.43 219.81C194.166 219.998 193.903 220.186 193.64 220.374C193.151 220.712 192.662 221.013 192.136 221.314C191.798 221.502 191.422 221.727 191.083 221.915C190.97 221.99 190.858 222.028 190.707 222.103C190.707 222.103 190.67 222.103 190.67 222.141H190.632C190.068 222.404 189.466 222.667 188.902 222.893C188.15 223.194 187.398 223.457 186.609 223.682C186.27 223.795 185.97 223.87 185.631 223.983C185.481 224.021 185.33 224.058 185.18 224.096H185.142C183.563 224.434 181.984 224.735 180.367 224.886C179.916 224.923 179.427 224.961 178.976 224.998C178.938 224.998 178.901 224.998 178.901 224.998C178.901 224.998 178.901 224.998 178.863 224.998C178.75 224.998 178.638 224.998 178.562 224.998C178.638 224.998 178.713 224.998 178.75 224.998C178.675 224.998 178.6 224.998 178.562 224.998C177.848 224.998 177.171 224.998 176.494 224.961C175.742 224.923 175.028 224.848 174.276 224.773C173.975 224.735 173.674 224.698 173.374 224.622C173.374 224.622 173.374 224.622 173.336 224.622H173.298C173.186 224.585 173.035 224.585 172.885 224.547C171.569 224.284 170.328 223.908 169.125 223.457C168.937 223.382 167.846 222.93 168.523 223.231C168.26 223.118 167.997 223.006 167.734 222.893C167.207 222.63 166.681 222.366 166.154 222.103C165.102 221.539 164.124 220.9 163.222 220.223C163.146 220.186 163.034 220.11 162.996 220.073C162.846 219.96 162.695 219.847 162.582 219.734C162.357 219.546 162.169 219.396 161.943 219.208C161.492 218.832 161.078 218.456 160.665 218.042C159.762 217.215 158.935 216.313 158.146 215.41C157.732 214.922 157.318 214.433 156.942 213.944C156.83 213.794 156.416 213.267 156.642 213.568C156.491 213.342 156.341 213.117 156.153 212.929C153.408 209.094 151.34 204.92 149.723 200.671C149.347 199.694 148.971 198.716 148.633 197.738C148.558 197.475 148.445 197.212 148.37 196.949C148.37 196.911 148.37 196.911 148.332 196.874C148.332 196.836 148.294 196.798 148.294 196.761C148.144 196.31 148.031 195.858 147.881 195.407C147.43 193.866 147.016 192.286 146.64 190.707C146.302 189.241 146.001 187.774 145.775 186.308C145.362 183.413 139.496 184.24 139.91 187.135C139.91 187.248 139.947 187.323 139.947 187.436C140.248 189.654 140.812 191.835 141.376 194.016C142.466 198.152 143.858 202.213 145.662 206.161C149.573 214.771 155.777 223.87 166.831 227.856C178.374 232.03 193.602 228.345 201.686 220.035C209.319 212.177 211.199 201.912 211.462 192.7C211.613 188.263 212.064 188.075 211.312 183.714C210.334 184.127 208.981 183.826 207.928 184.014ZM185.218 224.021C185.368 223.983 185.631 223.908 185.218 224.021V224.021ZM202.89 208.116C202.89 208.154 202.89 208.154 202.89 208.116V208.116Z" fill="#7FC5A3"/>
<path d="M208.944 94.3761C213.155 93.6617 217.404 92.9473 221.615 92.2329C222.518 92.0825 223.42 92.7217 223.57 93.6241C225.187 103.287 226.804 112.951 228.421 122.614C228.646 123.967 228.872 125.321 229.098 126.712C229.474 128.855 226.127 129.419 225.751 127.276C224.134 117.613 222.518 107.95 220.901 98.2865C220.75 97.4969 220.638 96.6697 220.487 95.8801C216.802 96.4817 213.155 97.1209 209.47 97.7225C207.365 98.0985 206.801 94.7521 208.944 94.3761Z" fill="#CCD2D9"/>
<path d="M204.996 100.091L208.831 99.4521L207.703 92.7593L203.868 93.3985C202.326 93.6617 201.274 95.1281 201.499 96.7073L201.687 97.7601C201.95 99.3017 203.417 100.354 204.996 100.091Z" fill="#3B455A"/>
<path d="M208.418 100.054L211.689 99.4897C213.494 99.1889 214.697 97.4969 214.396 95.6921L214.208 94.4889C213.908 92.6841 212.216 91.4809 210.411 91.7817L207.14 92.3457L208.418 100.054Z" fill="#CCD2D9"/>
<path d="M175.856 99.7153C171.645 100.43 167.396 101.144 163.185 101.859C162.282 102.009 161.643 102.911 161.793 103.814C163.41 113.477 165.027 123.14 166.644 132.766C166.869 134.119 167.095 135.473 167.321 136.864C167.697 139.007 171.005 138.481 170.667 136.3C169.05 126.637 167.433 116.974 165.817 107.348C165.666 106.559 165.553 105.731 165.403 104.942C169.088 104.34 172.735 103.701 176.42 103.099C178.563 102.686 177.999 99.3393 175.856 99.7153Z" fill="#CCD2D9"/>
<path d="M181.458 103.814L177.623 104.453L176.495 97.7601L180.33 97.1209C181.872 96.8577 183.376 97.9105 183.639 99.4521L183.827 100.505C184.09 102.084 183.038 103.551 181.458 103.814Z" fill="#3B455A"/>
<path d="M178.225 104.904L174.954 105.468C173.149 105.769 171.457 104.566 171.156 102.761L170.968 101.558C170.667 99.753 171.87 98.061 173.675 97.7602L176.946 97.1962L178.225 104.904Z" fill="#CCD2D9"/>
<g opacity="0.13">
<path d="M205.484 187.398C205.484 187.398 205.71 189.466 205.898 191.873L211.538 188.226L211.162 185.744L205.484 187.398Z" fill="black"/>
</g>
<path d="M230.301 126.787C231.692 132.803 232.293 139.082 232.519 145.249C232.895 156.19 231.88 168.335 225.413 177.51C218.569 187.248 204.845 191.384 193.941 186.233C183.526 181.345 177.209 170.441 172.998 160.138C171.081 155.438 169.501 150.55 168.223 145.625C167.546 143.03 166.869 140.436 166.456 137.804C166.418 137.691 166.418 137.578 166.381 137.428C165.817 133.969 171.156 133.066 171.72 136.526C172.021 138.293 172.397 140.022 172.81 141.752C173.261 143.632 173.75 145.512 174.277 147.354C174.427 147.881 174.577 148.445 174.765 148.971C174.991 149.686 174.653 148.595 174.841 149.197C174.953 149.498 175.029 149.836 175.141 150.137C175.517 151.302 175.931 152.468 176.345 153.634C178.149 158.71 180.33 163.673 183.113 168.298C183.301 168.598 183.489 168.899 183.639 169.162C183.301 168.598 183.752 169.35 183.865 169.501C184.241 170.102 184.654 170.704 185.068 171.268C185.857 172.358 186.685 173.411 187.549 174.426C187.963 174.915 188.377 175.366 188.828 175.818C189.016 176.043 189.241 176.231 189.429 176.457C189.58 176.607 189.693 176.72 189.843 176.87C189.956 176.983 190.407 177.397 189.918 176.946C190.858 177.81 191.873 178.638 192.926 179.352C193.415 179.69 193.904 180.029 194.43 180.33C194.656 180.48 194.919 180.63 195.182 180.743C194.505 180.367 195.558 180.931 195.746 181.006C196.874 181.57 198.077 182.022 199.281 182.36C199.393 182.398 199.544 182.435 199.657 182.473C200.296 182.661 199.055 182.36 199.732 182.473C200.033 182.51 200.296 182.586 200.597 182.661C201.273 182.774 201.95 182.886 202.627 182.924C203.266 182.962 203.905 182.999 204.545 182.999C204.695 182.999 205.184 182.962 204.545 182.999C204.695 182.999 204.808 182.999 204.958 182.962C205.372 182.924 205.785 182.886 206.237 182.849C207.703 182.698 209.132 182.36 210.598 181.984C210.711 181.946 211.125 181.834 210.523 182.022C210.673 181.984 210.861 181.909 211.012 181.871C211.313 181.758 211.613 181.646 211.914 181.533C212.591 181.27 213.305 180.969 213.945 180.63C214.471 180.367 214.997 180.066 215.486 179.766C216.05 179.427 214.997 180.104 215.561 179.728C215.674 179.653 215.787 179.578 215.9 179.502C216.201 179.277 216.539 179.051 216.84 178.826C217.291 178.487 217.742 178.111 218.156 177.735C218.381 177.51 218.607 177.322 218.833 177.096C218.983 176.946 219.773 176.081 219.284 176.645C220.111 175.705 220.901 174.727 221.577 173.674C221.878 173.186 222.179 172.734 222.48 172.246C222.555 172.095 223.044 171.193 222.705 171.87C222.893 171.531 223.044 171.193 223.232 170.854C224.36 168.486 225.187 166.042 225.826 163.485C225.864 163.372 225.901 163.222 225.901 163.109C225.751 163.748 225.864 163.259 225.901 163.109C225.977 162.808 226.014 162.507 226.089 162.244C226.24 161.567 226.353 160.853 226.465 160.176C226.691 158.86 226.841 157.544 226.992 156.19C227.255 153.558 227.368 150.926 227.368 148.294C227.368 147.693 227.368 147.091 227.33 146.49C227.33 146.189 227.33 145.85 227.293 145.55C227.33 146.377 227.293 145.286 227.255 145.061C227.217 143.858 227.142 142.692 227.029 141.489C226.879 139.383 226.653 137.315 226.39 135.21C226.052 132.766 225.601 130.359 225.187 127.953C225.149 127.84 225.149 127.727 225.112 127.614C224.773 126.186 225.939 124.719 227.33 124.494C228.721 124.306 230 125.358 230.301 126.787Z" fill="#7FC5A3"/>
<path d="M181.194 230.45C181.345 230.375 181.42 230.375 181.458 230.375C181.42 230.413 181.345 230.413 181.194 230.45Z" fill="#A0A2A5"/>
<path d="M203.792 177.622C203.83 177.585 203.867 177.585 203.867 177.585V177.622H203.792Z" fill="#A0A2A5"/>
<path d="M209.094 178.826C209.131 178.788 209.244 178.75 209.282 178.75C209.244 178.788 209.207 178.788 209.094 178.826Z" fill="#A0A2A5"/>
<path d="M222.516 162.319C222.516 162.282 222.516 162.244 222.516 162.169C222.516 162.169 222.516 162.169 222.516 162.131V162.056H222.554C222.554 162.094 222.554 162.131 222.516 162.169C222.554 162.244 222.516 162.282 222.516 162.319Z" fill="#A0A2A5"/>
<path d="M222.516 162.394C222.479 162.357 222.479 162.394 222.516 162.394V162.394Z" fill="#A0A2A5"/>
<path d="M203.867 179.728C203.98 179.69 204.018 179.69 204.018 179.69V179.728H203.98C203.942 179.728 203.905 179.728 203.867 179.728Z" fill="#A0A2A5"/>
<path d="M122.965 146.263L64.4092 136.693L51.7154 214.358L110.271 223.929L122.965 146.263Z" fill="#3B455A"/>
<g opacity="0.26">
<path d="M56.6631 211.726L57.5279 211.876L108.965 221.915L119.605 148.257L117.086 148.558L56.6631 211.726Z" fill="#040909"/>
</g>
<path d="M119.595 148.259L66.9766 139.659L55.235 211.499L107.853 220.099L119.595 148.259Z" fill="#F7F7F7"/>
<g opacity="0.05">
<path d="M66.7396 139.346L104.603 145.512L61.4756 171.005L66.7396 139.346Z" fill="black"/>
</g>
<g opacity="0.12">
<path d="M104.773 145.44L81.915 141.704L81.5693 143.819L104.428 147.555L104.773 145.44Z" fill="black"/>
</g>
<path d="M101.144 138.218L100.805 138.142L100.843 137.917C101.219 135.661 99.4142 133.518 96.8198 133.104L93.3982 132.54C90.8038 132.126 88.3974 133.593 88.059 135.811L88.0214 136.037L87.683 135.962C85.0886 135.548 82.6822 137.014 82.3438 139.233L81.5918 143.745L104.453 147.467L105.205 142.955C105.543 140.812 103.738 138.669 101.144 138.218ZM97.3838 137.729L91.3678 136.751C90.7662 136.638 90.315 136.074 90.4278 135.473C90.5406 134.871 91.1046 134.458 91.7438 134.533L97.7598 135.51C98.3614 135.623 98.8126 136.187 98.6998 136.789C98.587 137.39 98.023 137.804 97.3838 137.729Z" fill="#BEC6CC"/>
<g opacity="0.47">
<path d="M78.3955 162.131C75.8011 161.718 73.2443 161.304 70.6499 160.853C70.4243 160.815 70.1987 160.966 70.1987 161.191C69.7851 163.748 69.3715 166.305 68.9579 168.862C68.9203 169.087 69.0707 169.275 69.2963 169.313C71.8907 169.726 74.4475 170.14 77.0419 170.591C77.1547 170.629 77.2675 170.591 77.3427 170.516C77.4179 170.478 77.4931 170.366 77.4931 170.253C77.9067 167.696 78.3203 165.139 78.7339 162.582C78.7715 162.394 78.6211 162.169 78.3955 162.131ZM76.7411 169.764C74.4475 169.388 72.1163 169.012 69.8227 168.636C70.1987 166.342 70.5747 164.049 70.9507 161.755C73.2443 162.131 75.5755 162.507 77.8691 162.883C77.4931 165.177 77.1171 167.47 76.7411 169.764Z" fill="#C0C4C9"/>
<path d="M76.0645 176.344C73.4701 175.93 70.9133 175.517 68.3189 175.066C68.0933 175.028 67.8677 175.178 67.8677 175.404C67.4541 177.961 67.0405 180.518 66.6269 183.074C66.5893 183.3 66.7397 183.488 66.9653 183.526C69.5597 183.939 72.1165 184.353 74.7109 184.804C74.8237 184.842 74.9365 184.804 75.0117 184.729C75.0869 184.691 75.1621 184.578 75.1621 184.466C75.5757 181.909 75.9893 179.352 76.4029 176.795C76.4405 176.607 76.2901 176.382 76.0645 176.344ZM74.4101 183.977C72.1165 183.601 69.7853 183.225 67.4917 182.849C67.8677 180.555 68.2437 178.262 68.6197 175.968C70.9133 176.344 73.2445 176.72 75.5381 177.096C75.1621 179.39 74.7861 181.683 74.4101 183.977Z" fill="#C0C4C9"/>
<path d="M73.7705 190.557C71.1761 190.143 68.6193 189.73 66.0249 189.278C65.7993 189.241 65.5737 189.391 65.5737 189.617C65.1601 192.174 64.7465 194.73 64.3329 197.287C64.2953 197.513 64.4457 197.701 64.6713 197.738C67.2657 198.152 69.8225 198.566 72.4169 199.017C72.5297 199.054 72.6425 199.017 72.7177 198.942C72.7929 198.904 72.8681 198.791 72.8681 198.678C73.2817 196.122 73.6953 193.565 74.1089 191.008C74.1089 190.82 73.9585 190.594 73.7705 190.557ZM72.0785 198.152C69.7849 197.776 67.4537 197.4 65.1601 197.024C65.5361 194.73 65.9121 192.437 66.2881 190.143C68.5817 190.519 70.9129 190.895 73.2065 191.271C72.8305 193.565 72.4545 195.858 72.0785 198.152Z" fill="#C0C4C9"/>
</g>
<path d="M72.793 164.199L74.673 163.898L75.3498 165.854L84.825 161.154L85.8026 161.492L74.5978 167.922L72.793 164.199Z" fill="#D34E4E"/>
<path d="M69.7852 178.675L71.6276 178.374L72.342 180.292L81.8172 175.592L82.7572 175.968L71.59 182.398L69.7852 178.675Z" fill="#D34E4E"/>
<path d="M67.416 192.098L69.296 191.798L69.9728 193.715L79.448 189.015L80.4256 189.391L69.2208 195.821L67.416 192.098Z" fill="#D34E4E"/>
<g opacity="0.32">
<path d="M105.483 198.942L78.209 194.484L77.5782 198.344L104.852 202.801L105.483 198.942Z" fill="#8EC3CB"/>
</g>
<g opacity="0.32">
<path d="M107.926 183.9L80.6523 179.442L80.0216 183.302L107.296 187.759L107.926 183.9Z" fill="#8EC3CB"/>
</g>
<g opacity="0.32">
<path d="M110.408 168.864L83.1338 164.406L82.503 168.266L109.777 172.723L110.408 168.864Z" fill="#8EC3CB"/>
</g>
<path d="M304.222 190.482L277.676 196.911C267.862 199.28 258.011 193.377 255.642 183.676C253.274 173.975 259.327 164.199 269.141 161.793L295.611 155.363L304.222 190.482Z" fill="#E0E0E0"/>
<path d="M305.124 190.256L334.978 182.962C344.002 180.781 349.53 171.682 347.349 162.658L346.747 160.176C344.566 151.152 335.467 145.625 326.443 147.806L296.589 155.1L305.124 190.256Z" fill="#3B455A"/>
<path d="M289.482 172.434C287.226 172.998 284.97 173.524 282.752 174.088C282.526 174.126 282.338 174.201 282.113 174.238C281.737 172.622 281.323 171.005 280.947 169.388C280.759 168.561 280.571 167.771 280.346 166.944C280.27 166.681 280.007 166.493 279.706 166.568C278.315 166.906 276.924 167.245 275.533 167.583C275.27 167.658 275.082 167.922 275.157 168.222C275.683 170.441 276.247 172.659 276.774 174.878C276.811 175.103 276.886 175.291 276.924 175.517C275.27 175.93 273.653 176.306 271.998 176.72C271.171 176.908 270.344 177.134 269.517 177.322C269.254 177.397 269.066 177.66 269.141 177.961C269.479 179.352 269.818 180.706 270.156 182.097C270.194 182.247 270.269 182.36 270.382 182.398C270.494 182.473 270.607 182.51 270.795 182.473C273.051 181.909 275.307 181.382 277.526 180.818C277.751 180.781 277.939 180.706 278.165 180.668C278.541 182.285 278.954 183.902 279.33 185.518C279.518 186.346 279.706 187.135 279.932 187.962C280.007 188.226 280.27 188.414 280.571 188.338C281.962 188 283.354 187.662 284.745 187.323C284.895 187.286 285.008 187.21 285.046 187.098C285.121 186.985 285.158 186.872 285.121 186.722C284.594 184.503 284.03 182.285 283.504 180.066C283.466 179.841 283.391 179.653 283.354 179.427C285.008 179.014 286.625 178.638 288.279 178.224C289.106 178.036 289.934 177.81 290.761 177.622C291.024 177.547 291.212 177.284 291.137 176.983C290.798 175.592 290.46 174.238 290.122 172.847C290.046 172.509 289.746 172.358 289.482 172.434Z" fill="#3B455A"/>
<path d="M230.751 160.966L227.33 162.056L224.585 160.552L223.983 160.966L224.472 161.755L221.802 161.154L219.847 162.169L219.434 165.064L220.938 167.696L223.833 167.809L226.916 166.192L231.616 164.914L230.751 160.966Z" fill="#C1796B"/>
<path d="M227.856 161.191C233.12 159.95 238.384 158.71 243.648 157.469C245.077 157.13 246.544 157.055 247.972 156.717C250.04 156.228 250.604 156.04 250.905 154.047C251.732 148.332 250.68 142.354 251.544 136.714C253.612 136.526 255.643 135.999 257.748 136.037C261.208 136.074 260.907 138.481 261.095 141.113C261.32 144.271 261.471 147.43 261.471 150.588C261.471 153.22 262.336 164.575 258.5 165.402C255.756 166.004 227.932 167.47 227.969 168.072C228.007 167.922 227.856 161.191 227.856 161.191Z" fill="#474EBB"/>
<path d="M76.3282 171.118C77.005 170.892 81.893 172.133 81.5922 172.584C81.2538 173.035 80.8026 173.411 80.3514 173.825C81.7426 174.69 86.1418 176.156 83.021 177.735C81.6674 178.412 78.0578 177.472 77.005 176.532C76.9674 176.494 76.9674 176.494 76.9298 176.457L75.2002 171.794C75.4258 171.569 75.7642 171.306 76.3282 171.118Z" fill="#C1796B"/>
<path d="M55.6484 157.657L75.1252 171.794L75.1628 171.87L76.8924 176.532L77.3436 177.735C66.8532 176.382 65.9508 173.599 56.0244 169.313L55.6484 157.657Z" fill="#8EC3CB"/>
</svg>
