<svg xmlns="http://www.w3.org/2000/svg" viewBox="0 0 750 500"><g id="freepik--background-simple--inject-3"><path d="M249.39,357.37H552.26c15.5-9.59,29.84-24.38,39.69-37.75,18.44-25,23.22-62.83,11.9-94.05s-38.25-54.42-67-57.7c-18.17-2.07-36.36,3.23-54.52.76-18-2.45-34.73-12.35-51.27-21.46-37.33-20.56-76.53-38.06-117.25-42.55S230.44,109.8,199.08,139s-49,79.85-37.62,125.89S209.92,343.61,249.39,357.37Z" style="fill:#ebebeb"></path><polygon points="259.87 139.67 265.57 151.23 278.33 153.08 269.1 162.08 271.28 174.78 259.87 168.79 248.46 174.78 250.64 162.08 241.41 153.08 254.16 151.23 259.87 139.67" style="fill:#fafafa"></polygon><polygon points="296.26 201.57 300.09 209.32 308.65 210.57 302.45 216.6 303.91 225.13 296.26 221.1 288.61 225.13 290.07 216.6 283.87 210.57 292.43 209.32 296.26 201.57" style="fill:#fafafa"></polygon><polygon points="512.45 215.39 516.27 223.15 524.83 224.39 518.64 230.43 520.1 238.95 512.45 234.93 504.79 238.95 506.25 230.43 500.06 224.39 508.62 223.15 512.45 215.39" style="fill:#fafafa"></polygon><polygon points="526.79 100.67 533.13 113.51 547.3 115.57 537.05 125.56 539.47 139.67 526.79 133.01 514.12 139.67 516.54 125.56 506.29 115.57 520.46 113.51 526.79 100.67" style="fill:#ebebeb"></polygon><polygon points="486.1 128.86 489.62 135.98 497.47 137.12 491.79 142.66 493.13 150.49 486.1 146.79 479.07 150.49 480.42 142.66 474.73 137.12 482.59 135.98 486.1 128.86" style="fill:#ebebeb"></polygon><polygon points="616.16 163.46 619.68 170.58 627.53 171.72 621.85 177.27 623.19 185.09 616.16 181.4 609.13 185.09 610.48 177.27 604.79 171.72 612.65 170.58 616.16 163.46" style="fill:#ebebeb"></polygon><polygon points="338.74 170.46 341.81 176.67 348.65 177.66 343.7 182.49 344.87 189.31 338.74 186.09 332.62 189.31 333.79 182.49 328.84 177.66 335.68 176.67 338.74 170.46" style="fill:#fafafa"></polygon><polygon points="437.53 238.99 440.6 245.19 447.44 246.19 442.49 251.02 443.66 257.84 437.53 254.62 431.41 257.84 432.58 251.02 427.63 246.19 434.47 245.19 437.53 238.99" style="fill:#fafafa"></polygon></g><g id="freepik--Character--inject-3"><path d="M231.49,351.13c-9.08-6.69-20.45-8.19-31.15-10.92-16-4.07-31.24-11.22-47.25-15.28s-33.64-4.74-48.14,3.64S80.7,356.51,86.57,373.1c-8.32,3.62-14.35,12.71-14.83,22.38L244.09,394C249.32,378.87,243.85,360.24,231.49,351.13Z" style="fill:#f5f5f5"></path><path d="M165.8,373.19a12,12,0,0,1-1.51-.95l-.79-.52-1-.56c-.7-.4-1.5-.86-2.43-1.28l-1.44-.7-1.6-.65c-1.1-.49-2.33-.85-3.6-1.31a71.13,71.13,0,0,0-8.52-2,86.32,86.32,0,0,0-8.71-1c-2.7-.11-5.13-.14-7.17,0-1,0-1.94.09-2.75.16s-1.51.11-2.07.19a13.47,13.47,0,0,1-1.78.14,10.49,10.49,0,0,1,1.75-.34c.57-.11,1.26-.19,2.07-.28s1.74-.18,2.76-.24a70.05,70.05,0,0,1,7.21-.07,76.88,76.88,0,0,1,8.78.93,64.93,64.93,0,0,1,8.58,2.1c1.28.47,2.51.85,3.61,1.36l1.61.69,1.44.73a21.55,21.55,0,0,1,2.41,1.37l1,.59.77.57A12.25,12.25,0,0,1,165.8,373.19Z" style="fill:#263238"></path><path d="M165.27,332.66a28.34,28.34,0,0,1-10-37.12l.68-1.31c8.16-13.59,24.26-14.26,37.63-5.74l54.79,31.89h0L244.09,359l-25-13.27s-9.15,12.39-22.72,5.5C189.83,347.93,176.89,340,165.27,332.66Z" style="fill:#ffbe9d"></path><path d="M219,345.85a36.92,36.92,0,0,0,4.07-20.37s7.53,9.23-.72,22Z" style="fill:#eb996e"></path><path d="M176.93,334.42a2.18,2.18,0,0,0,2.92-.84,2.08,2.08,0,0,0-.7-2.89,2.18,2.18,0,0,0-2.92.84A2.08,2.08,0,0,0,176.93,334.42Z" style="fill:#263238"></path><path d="M172.78,332.94c.37-.1.06-2.13,1.15-4.2s2.92-3,2.78-3.4c-.06-.17-.64-.16-1.46.25a5.93,5.93,0,0,0-2.54,2.56,5.71,5.71,0,0,0-.6,3.51C172.26,332.55,172.6,333,172.78,332.94Z" style="fill:#263238"></path><path d="M187.47,316.12a2.17,2.17,0,0,0,2.91-.84,2.08,2.08,0,0,0-.7-2.89,2.17,2.17,0,0,0-2.91.84A2.08,2.08,0,0,0,187.47,316.12Z" style="fill:#263238"></path><path d="M183.5,312.64c.37-.11.06-2.13,1.15-4.2s2.92-3,2.78-3.4c-.06-.17-.63-.17-1.46.25a5.93,5.93,0,0,0-2.54,2.56,5.68,5.68,0,0,0-.6,3.5C183,312.24,183.32,312.7,183.5,312.64Z" style="fill:#263238"></path><path d="M195.85,328.6c-.12-.07-1,1.1-2.37,3-.33.5-.7.94-1.11.84s-.9-.59-1.38-1.17l-3.21-3.67c-4.6-5.17-8.49-9.21-8.7-9s3.35,4.53,7.95,9.7L190.3,332a3.52,3.52,0,0,0,1.93,1.36,1.52,1.52,0,0,0,1.23-.47,4.38,4.38,0,0,0,.6-.83A15.49,15.49,0,0,0,195.85,328.6Z" style="fill:#263238"></path><path d="M183.37,300.41c-.57-.33-1.94,1.3-4,2.7s-4.05,2.17-3.92,2.82c.08.3.73.51,1.74.43a7.41,7.41,0,0,0,3.58-1.34,7.19,7.19,0,0,0,2.47-2.86C183.63,301.26,183.64,300.58,183.37,300.41Z" style="fill:#263238"></path><path d="M169,320.63c-.6.38-.35,2.26-.68,4.43s-1,3.94-.52,4.45c.24.22.81,0,1.44-.7a7.2,7.2,0,0,0,1-7.15C169.79,320.81,169.29,320.47,169,320.63Z" style="fill:#263238"></path><path d="M150.87,331.44a2.89,2.89,0,0,1-.76-3.76,6.19,6.19,0,0,1-1.89,1.41,2.1,2.1,0,0,1-2.22-.29c-.88-.87-.44-2.33-.21-3.55a7.82,7.82,0,0,0-.63-4.72c-1-2.11-2.89-3.65-4.11-5.64a10.11,10.11,0,0,1,5.36-14.84A10.51,10.51,0,0,1,156.17,286a12.28,12.28,0,0,1,19.47-9.17l1,11.06a5.12,5.12,0,0,0-6.73,3.65c-.52,2.93,1.65,6,.54,8.79-.86,2.15-3.33,3.13-4.85,4.88-1.85,2.11-2.14,5.17-2,8s.67,5.65.09,8.4a15.68,15.68,0,0,1-5.28,8.16A10,10,0,0,1,154.9,332,4.42,4.42,0,0,1,150.87,331.44Z" style="fill:#263238"></path><path d="M171.94,287.4l-19.33,38.84a19.68,19.68,0,0,1-3.56-9.07,33.9,33.9,0,0,1,2.88-20.67c3.18-6.32,17.51-15.06,24.21-17.33,5.36-1.81,8.34-.22,8.34-.22,5.28,2,9.47,7.8,13.78,11.48,2.22,1.9,9.27,7,9.27,7h0c-1.11,2.11-3.21,2-5.13.59l-8-4.71s-8.9,4.51-16.46-3.82C177.47,288.56,174.67,285.6,171.94,287.4Z" style="fill:#263238"></path><path d="M194.13,292.44c-5.92-5.36-12.42-10.81-20.31-12.07.17-.39.34-.79.52-1.18l.59-.31a6.07,6.07,0,0,1,11.4-2,5.24,5.24,0,0,1,6.44-2.71,9.79,9.79,0,0,1,3.94,3.49,11.85,11.85,0,0,0,3.77,3.69c1.59.79,3.82.62,4.79-.87a4.32,4.32,0,0,1,0,5.46,8.49,8.49,0,0,0,4.68-1c.49,3.39-1.81,6.58-4.51,8.68a8.24,8.24,0,0,1-5.55,2.13C197.63,295.55,195.8,294,194.13,292.44Z" style="fill:#263238"></path><path d="M202.48,295.75c0-.28,2.11-10.69,11.17-5.58s2.06,13.16,1.79,13S202.48,295.75,202.48,295.75Z" style="fill:#ffbe9d"></path><path d="M213.14,299.3c0-.05.2-.09.48-.29a1.85,1.85,0,0,0,.69-1.17c.18-1.15-.88-2.82-2.49-3.78a6,6,0,0,0-2.51-.84,2.1,2.1,0,0,0-1.88.51.91.91,0,0,0-.09,1.17c.18.27.39.31.38.37s-.26.11-.59-.18a1.17,1.17,0,0,1-.37-.67,1.43,1.43,0,0,1,.26-1,2.56,2.56,0,0,1,2.34-.85,6.16,6.16,0,0,1,2.83.87c1.8,1.09,3,3,2.62,4.52a2,2,0,0,1-1.06,1.31C213.37,299.41,213.14,299.34,213.14,299.3Z" style="fill:#eb996e"></path><path d="M199.5,282.27s-.22-.43-1-.7a3.87,3.87,0,0,0-3.29.55,12.05,12.05,0,0,0-3.13,3.77c-.94,1.48-2.26,3.05-4.25,3.19a8.59,8.59,0,0,1-5.25-1.67c-1.46-1-2.68-2.1-3.8-2.91-2.23-1.7-4-2-4-1.9a19.61,19.61,0,0,1,3.69,2.35c1.06.85,2.21,2,3.73,3.08a9.13,9.13,0,0,0,5.75,1.86,5.17,5.17,0,0,0,3-1.3,10.39,10.39,0,0,0,1.83-2.3,12.29,12.29,0,0,1,2.83-3.7,3.76,3.76,0,0,1,2.88-.72A9.79,9.79,0,0,1,199.5,282.27Z" style="fill:#455a64"></path><path d="M196.54,278s-.17-.33-.71-.7a4.51,4.51,0,0,0-2.62-.71,4.82,4.82,0,0,0-1.88.45,5.4,5.4,0,0,0-1.71,1.38,5.75,5.75,0,0,1-1.6,1.42,2.38,2.38,0,0,1-2.05-.14c-.73-.32-1.42-.79-2.18-1.14a11.29,11.29,0,0,0-2.23-.8,11.07,11.07,0,0,0-4-.3,2.88,2.88,0,0,0-2.33,1.42c-.3.62-.15,1-.11,1s.05-.37.38-.84a2.63,2.63,0,0,1,2.12-1,11.88,11.88,0,0,1,3.74.45,12.41,12.41,0,0,1,2.08.79c.69.33,1.36.8,2.19,1.17a3.16,3.16,0,0,0,2.72.12,6.24,6.24,0,0,0,1.82-1.64,4.27,4.27,0,0,1,3.06-1.76A5.94,5.94,0,0,1,196.54,278Z" style="fill:#455a64"></path><path d="M145.16,320.54c0,.06.86-.46.88-2a6.12,6.12,0,0,0-.64-2.5,8.38,8.38,0,0,1-.85-3.11,7.18,7.18,0,0,1,3.91-6.8c1.41-.75,3.07-1.19,4.71-2.06a6.7,6.7,0,0,0,2.23-1.8,5.74,5.74,0,0,0,1-2.78c.22-2-.16-3.81,0-5.52a13.21,13.21,0,0,1,1.36-4.76,12.91,12.91,0,0,1,5.9-5.88,14.17,14.17,0,0,1,5.55-1.41c1.36,0,2.13.06,2.14,0s-.19-.08-.55-.15a11.43,11.43,0,0,0-1.6-.16,13.47,13.47,0,0,0-5.78,1.22,13.17,13.17,0,0,0-6.32,6.05,13.53,13.53,0,0,0-1.49,5c-.2,1.84.17,3.71,0,5.49a4.86,4.86,0,0,1-.89,2.4,6.08,6.08,0,0,1-2,1.59c-1.51.81-3.19,1.28-4.68,2.09a7.53,7.53,0,0,0-3.34,3.41A8.07,8.07,0,0,0,144,313a8.69,8.69,0,0,0,1,3.26,6,6,0,0,1,.73,2.31A3,3,0,0,1,145.16,320.54Z" style="fill:#455a64"></path><path d="M205,323.93c.28.07.09,1.76-.43,3.77s-1.16,3.57-1.44,3.5-.08-1.76.43-3.76S204.71,323.86,205,323.93Z" style="fill:#263238"></path><path d="M184.3,331.26c.06,0,.19.32.18.89a4.29,4.29,0,0,1-.62,2.12,4.49,4.49,0,0,1-1.57,1.55c-.5.27-.86.32-.88.26a9.87,9.87,0,0,0,2-2.08A10,10,0,0,0,184.3,331.26Z" style="fill:#eb996e"></path><path d="M184.82,333.47c.14,0,0,1-.72,1.92s-1.72,1.19-1.76,1.06.69-.58,1.36-1.39S184.68,333.43,184.82,333.47Z" style="fill:#eb996e"></path><path d="M195.6,311.16c.06,0,.27.36.37,1.06a4.9,4.9,0,0,1-2.21,4.74c-.6.37-1,.45-1.06.39a8.37,8.37,0,0,0,2.38-2.66A8.64,8.64,0,0,0,195.6,311.16Z" style="fill:#eb996e"></path><path d="M196.27,310.58c.13-.06.6.85.55,2.07s-.59,2.1-.71,2,.15-.94.19-2.05A16,16,0,0,1,196.27,310.58Z" style="fill:#eb996e"></path><path d="M241.9,316.62l6.46-2.22s18-30.72,22.38-33.58,7.95-2,7.95-2S344.9,313.11,344,314.21s-11.22,77-11.22,77l-93.55-1-26.12-24.83s17-11.74,20.54-12.62,5.72-4.24,6.42-6.15C243.11,338.29,246.63,323.81,241.9,316.62Z" style="fill:#FF725E"></path><path d="M245.4,351a7.89,7.89,0,0,1,.45-1.38c.33-.87.77-2.14,1.26-3.72s1-3.5,1.44-5.64a59.5,59.5,0,0,0,1.21-14.17c-.08-2.19-.25-4.16-.47-5.8s-.42-3-.6-3.89a8,8,0,0,1-.21-1.43,7.19,7.19,0,0,1,.41,1.39c.24.9.51,2.23.77,3.88a53.09,53.09,0,0,1,.58,5.83A54.7,54.7,0,0,1,249,340.35a54.44,54.44,0,0,1-1.56,5.65c-.54,1.58-1,2.84-1.42,3.69A7.25,7.25,0,0,1,245.4,351Z" style="fill:#263238"></path><path d="M243.48,352.65a59.82,59.82,0,0,0-6.37,0,25.8,25.8,0,0,0-4.41.76,17.73,17.73,0,0,1-1.8.53,4.47,4.47,0,0,1,1.69-.88,18.47,18.47,0,0,1,4.48-.93A15.19,15.19,0,0,1,243.48,352.65Z" style="fill:#263238"></path><path d="M270.7,281.12a23.6,23.6,0,0,0-1.1,4,19,19,0,0,0,1.35,9.67,40.93,40.93,0,0,0,5,8.55l1.79,2.44a4.19,4.19,0,0,1,.61.94,4.83,4.83,0,0,1-.77-.81c-.47-.54-1.13-1.34-1.93-2.35a37.12,37.12,0,0,1-5.22-8.58,18.29,18.29,0,0,1-1.22-9.92,11.63,11.63,0,0,1,.91-2.92A4.32,4.32,0,0,1,270.7,281.12Z" style="fill:#263238"></path><path d="M245.44,385.1a29,29,0,0,0-.14-6.15,21.9,21.9,0,0,0-2-6.34,21.32,21.32,0,0,0-4.84-6.49,19,19,0,0,0-7-3.94,21.66,21.66,0,0,0-6.56-1,35.27,35.27,0,0,0-6.13.67,1.37,1.37,0,0,1,.41-.15,12.23,12.23,0,0,1,1.19-.33,22.13,22.13,0,0,1,11.23.34,19.11,19.11,0,0,1,7.25,4,21.16,21.16,0,0,1,4.92,6.67,21.47,21.47,0,0,1,1.9,6.5,19.55,19.55,0,0,1,.06,4.56c0,.53-.14.94-.18,1.22A1.16,1.16,0,0,1,245.44,385.1Z" style="fill:#263238"></path><path d="M303.5,371.29a1.66,1.66,0,0,1-.32.29c-.23.17-.55.45-1,.74a21.59,21.59,0,0,1-4.08,2.11,32.45,32.45,0,0,1-6.56,1.83,28.59,28.59,0,0,1-8.34.1,58.82,58.82,0,0,1-14.72-3.43,40.48,40.48,0,0,1-4.19-1.85c-.49-.24-.85-.47-1.09-.61s-.37-.23-.36-.25a16.44,16.44,0,0,1,1.54.67c1,.45,2.42,1.05,4.23,1.7a63.82,63.82,0,0,0,14.64,3.25,29.56,29.56,0,0,0,8.21,0,34.17,34.17,0,0,0,6.51-1.7,25.75,25.75,0,0,0,4.11-1.94A12.86,12.86,0,0,1,303.5,371.29Z" style="fill:#263238"></path><g style="opacity:0.30000000000000004"><path d="M313.28,325.5a26.22,26.22,0,0,1-21.72-9.56Z"></path></g><g style="opacity:0.30000000000000004"><path d="M245.57,350.37A21.83,21.83,0,0,0,252.82,336c.48-6.16-1.08-14.42-3.49-18.65C249.33,317.35,252,336,245.57,350.37Z"></path></g><path d="M306.09,393.75,298.33,374a56.28,56.28,0,0,1,7.51-40.86c2.68-4.24,6-8.17,7.68-12.88,4.06-11.1-1.21-24.62,5-34.69,3.79-6.19,11-9.36,18-11.34,0,0,13.24-2.32,19.55,8.8l1.2,6.31,19.23,10.22s8.41-12.32,16.83-12,10.81,3.9,10.81,3.9,15.63-11.72,34-7.81,52.58,30.65,52.58,30.65l60.77,10.62c98.88,17.32,135.28,68.84,135.28,68.84" style="fill:#455a64"></path><g style="opacity:0.30000000000000004"><path d="M311.89,389c6.39.24,12.44-2.63,18.19-5.44,12.77-6.23,25.6-12.49,37.22-20.67,4.63-3.26,9.12-6.89,12.25-11.61s4.74-10.68,3.2-16.13a7.44,7.44,0,0,0-3.32-4.75c-2.52-1.32-5.6-.2-8.09,1.16-5.55,3.05-10.33,7.28-15.06,11.48q-17.13,15.22-34.12,30.59c-4.58,4.14-9.38,8.67-10.8,14.68"></path></g><path d="M433.8,391.19s-.09-.05-.24-.18l-.66-.58-2.51-2.23c-2.2-1.92-5.39-4.68-9.54-7.84a144.5,144.5,0,0,0-15.23-10.12,51.14,51.14,0,0,0-21.35-6,52.25,52.25,0,0,0-11.53.59A40.6,40.6,0,0,0,362.49,368a64.64,64.64,0,0,0-15.22,10c-3.95,3.4-6.93,6.39-9,8.43l-2.39,2.37-.63.6-.23.2s.06-.09.19-.23l.59-.65,2.32-2.43c2-2.09,5-5.12,8.92-8.57a64.29,64.29,0,0,1,15.26-10.17,40.79,40.79,0,0,1,10.37-3.23,52.44,52.44,0,0,1,33.19,5.45,138.37,138.37,0,0,1,15.23,10.25c4.13,3.2,7.29,6,9.44,8,1.08,1,1.9,1.77,2.45,2.31l.63.61C433.74,391.11,433.81,391.18,433.8,391.19Z" style="fill:#263238"></path><path d="M388.81,364.08a4.33,4.33,0,0,1-.21-.76c-.13-.55-.3-1.29-.51-2.2l-.36-1.6c-.09-.59-.2-1.23-.31-1.92-.24-1.38-.5-2.94-.66-4.69-.1-.88-.2-1.8-.3-2.75s-.12-2-.18-3c-.17-2.06-.12-4.27-.15-6.6a101.74,101.74,0,0,1,1.36-15.05,83.13,83.13,0,0,1,3.91-14.6c.41-1.09.89-2.12,1.32-3.14.21-.5.43-1,.64-1.49s.49-.95.72-1.41l1.41-2.64c.46-.84,1-1.59,1.47-2.34s.92-1.45,1.39-2.09,1-1.2,1.41-1.75l1.22-1.51c.4-.45.8-.82,1.15-1.17l1.61-1.58a5.67,5.67,0,0,1,.59-.53,4.47,4.47,0,0,1-.52.6c-.38.42-.89,1-1.54,1.65-.33.36-.72.74-1.11,1.19s-.76,1-1.18,1.54L398.62,298c-.46.63-.87,1.36-1.35,2.09s-1,1.5-1.43,2.33-.9,1.73-1.37,2.65c-.23.46-.49.91-.71,1.39l-.62,1.5c-.42,1-.89,2-1.29,3.12A86.14,86.14,0,0,0,388,325.62a106.49,106.49,0,0,0-1.39,15c0,2.31-.05,4.51.1,6.57.05,1,.1,2,.15,3s.18,1.86.26,2.74c.14,1.74.38,3.31.58,4.68.1.69.19,1.33.28,1.92s.21,1.12.31,1.61c.17.92.31,1.66.41,2.21A4.09,4.09,0,0,1,388.81,364.08Z" style="fill:#263238"></path><path d="M387.15,326.18a7.75,7.75,0,0,1,.05-1.43c.06-.92.16-2.25.31-3.89.3-3.27.76-7.79,1.43-12.76s1.43-9.46,2.15-12.68c.36-1.6.7-2.89,1-3.78a8.69,8.69,0,0,1,.46-1.35,6.94,6.94,0,0,1-.26,1.4c-.2.9-.49,2.2-.8,3.81-.63,3.22-1.33,7.7-2,12.67s-1.18,9.47-1.57,12.73c-.19,1.56-.36,2.86-.48,3.87A7.53,7.53,0,0,1,387.15,326.18Z" style="fill:#263238"></path><path d="M463.42,318.26a4.55,4.55,0,0,1-.83-.11c-.54-.07-1.33-.25-2.36-.37a57.87,57.87,0,0,0-8.73-.6,58.52,58.52,0,0,0-52.84,34.17c-.45.93-.73,1.69-1,2.18a4.34,4.34,0,0,1-.36.75,4.67,4.67,0,0,1,.26-.79c.2-.51.45-1.28.88-2.22a52.83,52.83,0,0,1,4.1-7.79,57.84,57.84,0,0,1,21-19.73,58.2,58.2,0,0,1,15-5.58,57.24,57.24,0,0,1,13-1.36,53.2,53.2,0,0,1,8.76.77c1,.15,1.81.36,2.35.47A5,5,0,0,1,463.42,318.26Z" style="fill:#263238"></path><path d="M374.75,314.15a7.24,7.24,0,0,1-.31-2.16,28.5,28.5,0,0,1,1.35-10.43,7,7,0,0,1,.85-2c.15.05-1,3.18-1.49,7.23S374.91,314.14,374.75,314.15Z" style="fill:#263238"></path><path d="M622.21,373.71l-.29-.22-.81-.69L618,370.14l-2.23-1.93c-.84-.69-1.79-1.37-2.79-2.14-2-1.5-4.24-3.34-6.93-5q-2-1.31-4.15-2.75c-1.45-1-3-1.79-4.65-2.74s-3.25-2-5.06-2.79L586.7,350a143.85,143.85,0,0,0-52.58-13.36l-6.13-.22a28.89,28.89,0,0,0-2.94,0l-2.84.07c-1.86.07-3.67.05-5.39.19l-5,.44c-3.18.19-6,.75-8.49,1.11-1.25.2-2.41.34-3.47.54l-2.89.64-4,.86-1,.21a2,2,0,0,1-.36,0,1.56,1.56,0,0,1,.34-.1l1-.27,4-1,2.88-.68c1.06-.22,2.22-.38,3.47-.59,2.49-.38,5.32-1,8.5-1.19l5-.47c1.73-.15,3.54-.14,5.41-.22l2.85-.08a29.06,29.06,0,0,1,3,0l6.14.2a141.94,141.94,0,0,1,52.76,13.4l5.5,2.76c1.81.84,3.43,1.91,5.06,2.83s3.2,1.81,4.65,2.77l4.15,2.79c2.68,1.71,4.89,3.57,6.9,5.1,1,.78,1.94,1.48,2.77,2.17l2.21,2,3,2.74.78.72C622.13,373.61,622.22,373.7,622.21,373.71Z" style="fill:#263238"></path><g style="opacity:0.30000000000000004"><path d="M445.33,386.05c-.45-3.14-2.58-5.79-5-7.87-5.74-5-13.19-7.47-20.54-9.36A176.33,176.33,0,0,0,389,363.74l.55,1c5,.91,9.63,2,13.76,4.08s7.43,3.79,11,6.71l18.13,14.7c2.44,2,5.4,4.1,8.46,3.35S445.79,389.19,445.33,386.05Z"></path></g><g style="opacity:0.30000000000000004"><path d="M521.92,326.37c-6.64.32-13.22,2.11-19.83,1.52-12.95-1.17-24.29-11.31-37.26-10.46l-4.32.28c7.83,1.93,16.15,6,21.14,10.84s10.26,8.8,17.05,10.33c0,0,6.8-1,11.51-1.84,15.19-2.56,30.8-.88,46.7,2.56C548.07,329.6,535.24,325.72,521.92,326.37Z"></path></g><path d="M351.53,302.19a5.17,5.17,0,0,0,1.71-1.32,16.93,16.93,0,0,0,2.24-4.81,63,63,0,0,0,1.72-7.41,7.52,7.52,0,0,1-.05,2.26,25.21,25.21,0,0,1-1.18,5.31,14.28,14.28,0,0,1-2.45,4.89A2.7,2.7,0,0,1,351.53,302.19Z" style="fill:#263238"></path><path d="M325.77,331.32,338.58,336s-4.19,8.4-8.94,13.87-28.22,23-28.22,23L313,388.72l16.06-8c23-11.68,47.06-32.47,49.25-34.48s4.38-5.29,3.65-15-12.41-17.15-22.44-23.53a101.41,101.41,0,0,0-19.7-9.63s-6.44,3.67-10.56,14.19C324.86,323.62,325.77,331.32,325.77,331.32Z" style="fill:#ffbe9d"></path><path d="M301.83,372.55s-6.11,3.22-10.88,3.74-14.4-1.34-16.19-1.57-3.95-1.64-6.27-.29-16.11,5.44-16.78,6-11.71,9-12.46,9.78a2,2,0,0,0-.45,1.79l-.05.44c-.66,1.27.09,1.67.09,1.67l41.37-.32s24,.67,25.88,0,7-5,7-5Z" style="fill:#ffbe9d"></path><path d="M251.71,380.39a6.82,6.82,0,0,1-1,.91l-2.94,2.4-4.5,3.6-2.72,2.16-.72.58-.37.29a1,1,0,0,0-.24.3,3.22,3.22,0,0,0-.21,1.74l-.4-.17c1.66-1.25,3.49-2.53,5.45-3.75a73.32,73.32,0,0,1,15.86-7.52c2.13-.72,3.9-1.16,5.12-1.47l1.42-.3a1.44,1.44,0,0,1,.5-.07,3,3,0,0,1-.48.17l-1.39.4c-1.2.36-2.94.86-5.05,1.62a79.49,79.49,0,0,0-15.71,7.61c-1.94,1.22-3.76,2.48-5.41,3.71l-.36.27,0-.43a3.54,3.54,0,0,1,.27-2.05,1.61,1.61,0,0,1,.35-.43l.37-.29.73-.56L243,387l4.58-3.52c1.25-.93,2.26-1.7,3-2.28A8.75,8.75,0,0,1,251.71,380.39Z" style="fill:#eb996e"></path><path d="M267.36,384.24a29.41,29.41,0,0,1-3.05,1.21c-1.89.74-4.46,1.84-7.22,3.22s-5.2,2.77-6.94,3.79a23.15,23.15,0,0,1-2.87,1.61,18.28,18.28,0,0,1,2.67-1.92,72.86,72.86,0,0,1,6.91-3.94,59.65,59.65,0,0,1,7.32-3.1c1-.33,1.75-.57,2.31-.7A2.79,2.79,0,0,1,267.36,384.24Z" style="fill:#eb996e"></path><path d="M275.76,387.91a9.77,9.77,0,0,1-2.31.75,53.56,53.56,0,0,0-5.57,1.66c-2.09.83-3.95,1.77-5.29,2.4a15.1,15.1,0,0,1-2.19,1,8.7,8.7,0,0,1,2-1.35,46.21,46.21,0,0,1,5.28-2.57,35.64,35.64,0,0,1,5.67-1.53A13.79,13.79,0,0,1,275.76,387.91Z" style="fill:#eb996e"></path><path d="M353.06,325.35c0,.09-1.11.26-2.82.84a20.82,20.82,0,0,0-6.14,3.39,20.51,20.51,0,0,0-4.63,5.27c-.93,1.54-1.34,2.6-1.43,2.57a2.64,2.64,0,0,1,.22-.77,12.67,12.67,0,0,1,.9-2,18.51,18.51,0,0,1,11-8.82,12.81,12.81,0,0,1,2.13-.45A2.24,2.24,0,0,1,353.06,325.35Z" style="fill:#eb996e"></path><rect x="65.03" y="393.99" width="628.5" height="69.9" rx="5.41" style="fill:#e0e0e0"></rect><path d="M71.86,394c0-.15,137.64-.24,307.4-.22s307.42.16,307.42.3-137.61.24-307.42.22S71.86,394.13,71.86,394Z" style="fill:#263238"></path><path d="M238.71,394.07c-.12.06-.45-.25-.53-.84a.89.89,0,0,1,.22-.75c.16-.15.32-.14.35-.08a3.23,3.23,0,0,0-.05.78C238.75,393.6,238.85,394,238.71,394.07Z" style="fill:#eb996e"></path><path d="M152.46,302.82l-3.88-4.35h-8.25s-1.4.15-2.17,2.17c0,0-1.87-1.08-3,2.18a75.54,75.54,0,0,0-2,9.33,3.79,3.79,0,0,0-.62,3.89s-2.65,2.65-1.09,4.51S143,328,145.78,331.13a46.19,46.19,0,0,1,4.82,6.53L166,327s-9.18-11.93-12.76-15.2a19.06,19.06,0,0,0-7.77-4.2,2.74,2.74,0,0,0-2.18-3.11,2.71,2.71,0,0,0,1.4-1.86s.62,1.86,1.71,1.55C146.4,304.22,149.35,308.11,152.46,302.82Z" style="fill:#ffbe9d"></path><path d="M175.42,389.11l-25.17-52.17,15.4-10.62s11.56,12.39,18.81,17.56,16.39,16.79,20.43,23.49c0,0,17.53-6,22.82-3.21l.57.31A24.22,24.22,0,0,1,240,390.71l-.72,3.36H183A8.41,8.41,0,0,1,175.42,389.11Z" style="fill:#ffbe9d"></path><path d="M204.89,367.37c-.06,0-.43-.81-1.3-2.2a55.76,55.76,0,0,0-4.12-5.59A201.82,201.82,0,0,0,183.57,343c-1.64-1.53-3.24-3-4.83-4.41s-3.15-2.73-4.55-4.08c-2.84-2.68-5.28-5.2-7.31-7.33s-3.63-3.9-4.72-5.13c-.51-.59-.93-1.06-1.24-1.43a3.43,3.43,0,0,1-.41-.53,3.71,3.71,0,0,1,.48.46l1.32,1.36,4.84,5c2.06,2.1,4.52,4.59,7.36,7.24,1.42,1.34,3,2.66,4.57,4s3.21,2.89,4.85,4.43a176.75,176.75,0,0,1,15.82,16.7,48.73,48.73,0,0,1,4,5.71,13.51,13.51,0,0,1,.86,1.69A3.43,3.43,0,0,1,204.89,367.37Z" style="fill:#eb996e"></path><path d="M138.55,311.5a3.31,3.31,0,0,1-1.72-.82,2.59,2.59,0,0,1-.93-1.93,12.43,12.43,0,0,1,.23-2.52c.15-.88.31-1.68.5-2.46a11.9,11.9,0,0,1,.83-1.89,14,14,0,0,1,.88-1.65,4.49,4.49,0,0,1-.55,1.8,17,17,0,0,0-.69,1.87c-.16.71-.31,1.57-.46,2.42a13.6,13.6,0,0,0-.26,2.42,2.25,2.25,0,0,0,.7,1.67C137.89,311.15,138.6,311.42,138.55,311.5Z" style="fill:#eb996e"></path><path d="M143.66,304.56c0,.14-.63.11-1.3.33s-1.15.57-1.27.47.29-.71,1.11-1S143.71,304.43,143.66,304.56Z" style="fill:#eb996e"></path><path d="M144.17,301c.11-.09.51.25.65.84s0,1.08-.19,1.05-.19-.44-.31-.92S144.05,301.09,144.17,301Z" style="fill:#eb996e"></path><path d="M134.88,318c0,.14-.92,0-1.68-.73s-.86-1.67-.72-1.68.44.67,1.09,1.32S134.92,317.89,134.88,318Z" style="fill:#eb996e"></path><path d="M195.05,393.11c-.05-.07.44-.39,1-1.08a7.17,7.17,0,0,0,1.42-6.65c-.26-.87-.57-1.36-.5-1.41s.48.39.85,1.29a6.59,6.59,0,0,1-1.5,7C195.64,393,195.07,393.16,195.05,393.11Z" style="fill:#eb996e"></path><path d="M349.17,295.72s2.53.2,2.57,4a16.38,16.38,0,0,1-1,6.22L334.69,303A12.47,12.47,0,0,1,349.17,295.72Z" style="fill:#FF725E"></path><g style="opacity:0.30000000000000004"><path d="M349.17,295.72s2.53.2,2.57,4a16.38,16.38,0,0,1-1,6.22L334.69,303A12.47,12.47,0,0,1,349.17,295.72Z"></path></g><path d="M269.8,281.64s6.12-5.38,12.31-7.26,18.2-.19,23.07,1.5,45.77,20.41,45.19,20.26c-15.93-4.19-25.79,23.32-24.6,35.18l-31.92-14.49Z" style="fill:#FF725E"></path><path d="M338.58,336a1.85,1.85,0,0,1-.53-.12l-1.48-.45c-1.28-.43-3.11-1.08-5.36-1.94-4.49-1.72-10.61-4.3-17.32-7.27s-12.74-5.77-17.08-7.82l-5.13-2.47-1.39-.69a2.62,2.62,0,0,1-.47-.28,2.84,2.84,0,0,1,.52.18l1.42.61,5.2,2.31,17.14,7.68c6.7,3,12.8,5.6,17.25,7.41,2.22.9,4,1.6,5.29,2.08l1.45.55A2.42,2.42,0,0,1,338.58,336Z" style="fill:#263238"></path></g><g id="freepik--Floor--inject-3"><path d="M713.48,463.72c0,.15-151.56.26-338.46.26s-338.5-.11-338.5-.26,151.53-.26,338.5-.26S713.48,463.58,713.48,463.72Z" style="fill:#263238"></path></g><g id="freepik--Sheep--inject-3"><path d="M247.9,258.73a49.11,49.11,0,0,1-1.29-7,49.61,49.61,0,0,1-.78-7.07,49.08,49.08,0,0,1,1.29,7A49.55,49.55,0,0,1,247.9,258.73Z" style="fill:#263238"></path><path d="M222.35,263.17a63.07,63.07,0,0,1-1.32-7.91,63.45,63.45,0,0,1-.8-8,61,61,0,0,1,1.32,7.91A63.45,63.45,0,0,1,222.35,263.17Z" style="fill:#263238"></path><path d="M227.49,262.83a35.43,35.43,0,0,1-1.05-5.92,33.47,33.47,0,0,1-.53-6,35.43,35.43,0,0,1,1.05,5.92A33.47,33.47,0,0,1,227.49,262.83Z" style="fill:#263238"></path><path d="M242.64,259.67a37.18,37.18,0,0,1-1.07-6.05,37.47,37.47,0,0,1-.55-6.11,36.64,36.64,0,0,1,1.07,6A36.26,36.26,0,0,1,242.64,259.67Z" style="fill:#263238"></path><path d="M213.39,241.13a4.68,4.68,0,0,0,2.35,8.91,4.47,4.47,0,0,0,7.06,3.84,4,4,0,0,0,7.52,0,4,4,0,0,0,7.33-2.73,9.63,9.63,0,0,0,4.72.35c1.55-.42,2.92-1.93,2.59-3.49a10.85,10.85,0,0,0,4.39-.77,3.76,3.76,0,0,0,2.27-3.55c-.14-1.15-1-2.25-.7-3.37.22-.83,1-1.36,1.54-2a4,4,0,0,0-1.21-5.71,4.75,4.75,0,0,0-5.84-6.89,5.19,5.19,0,0,0-5.88-3.37,6.41,6.41,0,0,0-9.84,0,5.86,5.86,0,0,0-8.06,1.35,7.83,7.83,0,0,0-9.55,10.75,4.44,4.44,0,0,0-2.56,4.16c.21,1.72,2.39,3,3.81,2" style="fill:#f5f5f5"></path><path d="M213.33,240.65a1.51,1.51,0,0,1-.61.32,2.41,2.41,0,0,1-1.94-.36,3,3,0,0,1-1-1.06,2.77,2.77,0,0,1-.31-1.76,4.83,4.83,0,0,1,2.59-3.46l-.06.18a8,8,0,0,1,9.73-11l-.24.09a6.08,6.08,0,0,1,8.38-1.42l-.31,0a6.66,6.66,0,0,1,10.2,0l-.24-.08a5.43,5.43,0,0,1,6.17,3.54l-.34-.16a5,5,0,0,1,6.16,7.26l-.1-.37a4,4,0,0,1,2,2.7,4.16,4.16,0,0,1-.16,2.49,5.86,5.86,0,0,1-1.46,1.93,1.87,1.87,0,0,0-.54,1.91c.16.71.56,1.41.68,2.24a3.39,3.39,0,0,1-.63,2.34,4.69,4.69,0,0,1-1.82,1.52,11,11,0,0,1-4.45.78l.24-.3a3,3,0,0,1-.73,2.48,4.15,4.15,0,0,1-2.14,1.32,10.08,10.08,0,0,1-4.75-.37l.3-.26a4.27,4.27,0,0,1-7.75,2.87l.38-.05a4.19,4.19,0,0,1-7.9,0l.29.1a4.65,4.65,0,0,1-7.32-4l.16.15a5,5,0,0,1-4.65-2.64,4.6,4.6,0,0,1-.07-4,4.86,4.86,0,0,1,1.59-2,2.93,2.93,0,0,1,.77-.41s-.26.13-.72.48a4.87,4.87,0,0,0-1.49,2,4.43,4.43,0,0,0,.13,3.85,4.75,4.75,0,0,0,4.41,2.46h.17V250a4.46,4.46,0,0,0,2,3.82,4.37,4.37,0,0,0,4.8-.14l.21-.14.08.24a3.93,3.93,0,0,0,3.4,2.51,3.88,3.88,0,0,0,3.73-2.5l.14-.39.25.34a3.81,3.81,0,0,0,6.91-2.57l0-.34.33.08a9.49,9.49,0,0,0,4.51.36,3.57,3.57,0,0,0,1.88-1.17,2.43,2.43,0,0,0,.62-2l-.07-.29H245a10.65,10.65,0,0,0,4.24-.74,3.47,3.47,0,0,0,2.15-3.33c-.09-.71-.47-1.39-.66-2.19a2.52,2.52,0,0,1,0-1.28,2.84,2.84,0,0,1,.66-1.1,5.43,5.43,0,0,0,1.37-1.78,3.75,3.75,0,0,0,.14-2.18,3.54,3.54,0,0,0-1.72-2.35l-.25-.12.15-.24A4.5,4.5,0,0,0,245.5,226l-.25.11-.09-.27a4.94,4.94,0,0,0-5.57-3.21l-.15,0-.1-.12a6.18,6.18,0,0,0-9.47,0l-.14.16-.18-.13a5.64,5.64,0,0,0-7.75,1.29l-.09.13-.15,0a7.78,7.78,0,0,0-8.71,2.93,7.92,7.92,0,0,0-.65,7.56l.05.12-.11.06a4.6,4.6,0,0,0-2.51,3.25,2.67,2.67,0,0,0,1.22,2.67,2.38,2.38,0,0,0,1.85.41A3.91,3.91,0,0,0,213.33,240.65Z" style="fill:#263238"></path><path d="M244.5,227.89a4.87,4.87,0,0,0,5.49,5.73c1.32-.19,2.7-1.24,2.55-2.57a3.13,3.13,0,0,0,.44-5.28,3.12,3.12,0,0,0-5.37-3.08,2.19,2.19,0,0,0-4.09,1,3,3,0,0,0-.92,2.65A1.7,1.7,0,0,0,244.5,227.89Z" style="fill:#f5f5f5"></path><path d="M244.5,227.89a.88.88,0,0,1-.4,0,1.77,1.77,0,0,1-1.07-.43,2.18,2.18,0,0,1-.59-1.73,3.14,3.14,0,0,1,1-2.26l-.06.13a2.39,2.39,0,0,1,4.47-1.06l-.39,0a3.36,3.36,0,0,1,5.93,2.92c0,.13-.09.26-.13.39l-.08-.31a3.39,3.39,0,0,1-.49,5.71l.13-.24a2.14,2.14,0,0,1-.44,1.5,3.27,3.27,0,0,1-1.12.92,4.25,4.25,0,0,1-2.61.37,5,5,0,0,1-3.53-2.29,4.91,4.91,0,0,1-.74-2.67,2.47,2.47,0,0,1,.16-1s0,.36,0,1a5.12,5.12,0,0,0,.83,2.51,4.76,4.76,0,0,0,3.34,2,3.88,3.88,0,0,0,2.33-.36,2.11,2.11,0,0,0,1.3-2l0-.17.15-.08a2.89,2.89,0,0,0,.39-4.86l-.14-.11.06-.2a3,3,0,0,0,.11-.32,3,3,0,0,0-1.63-3.43,3,3,0,0,0-3.42.92l-.22.3-.17-.32a2,2,0,0,0-2.33-.92,2.07,2.07,0,0,0-1.38,1.77v.08l-.06,0a3,3,0,0,0-.91,2,2.07,2.07,0,0,0,.44,1.58,1.75,1.75,0,0,0,1,.46A2.77,2.77,0,0,1,244.5,227.89Z" style="fill:#263238"></path><path d="M228.76,230a19.42,19.42,0,0,0-3.19-4.6,14.21,14.21,0,0,0-5.2-3.32c-2.49-1-4.63-.75-7.31-.46a21,21,0,0,0-4.67,1.07,15.21,15.21,0,0,0-7.28,4.94,6.61,6.61,0,0,0-1.47,2.43,3.13,3.13,0,0,0,.38,2.73,3.28,3.28,0,0,0,2.62,1.15,9.71,9.71,0,0,0,2.91-.58,7.91,7.91,0,0,0,1.85,6.41,7.55,7.55,0,0,0,8.26,1.33,12.21,12.21,0,0,0,6-6.33,6.35,6.35,0,0,0,3.9,3.48,3.37,3.37,0,0,0,2.5-.07,3.55,3.55,0,0,0,1.64-2.71A9.52,9.52,0,0,0,228.76,230Z" style="fill:#455a64"></path><path d="M218.11,220.31a3.4,3.4,0,0,0-6.19,1,2.19,2.19,0,0,0-2.07,3.82,3.68,3.68,0,0,0,3.2.24,2.64,2.64,0,0,0,5,1.52,2.81,2.81,0,0,0,3.49.31,1.84,1.84,0,0,0,.81-1.18,1.11,1.11,0,0,0-.65-1.2,2.42,2.42,0,0,0,2.11-1.94,3.14,3.14,0,0,0-1-2.81,4.49,4.49,0,0,0-2.79-1.18,2.88,2.88,0,0,0-1.48.23,1.39,1.39,0,0,0-.8,1.2" style="fill:#f5f5f5"></path><path d="M217.82,220.35s-.12-.36.26-.86a2.5,2.5,0,0,1,2.41-.66,4.15,4.15,0,0,1,3.26,2.12,3,3,0,0,1,.16,2.47,2.61,2.61,0,0,1-2.17,1.66l.06-.45a1.35,1.35,0,0,1,.79,1.58,2.21,2.21,0,0,1-1.16,1.39,3.07,3.07,0,0,1-3.54-.5l.43-.09a3,3,0,0,1-2.72,1.81,2.77,2.77,0,0,1-2.23-1.12,3,3,0,0,1-.57-2.35l.32.29a4.53,4.53,0,0,1-2.75.07,2.42,2.42,0,0,1-1.61-2.06,2.3,2.3,0,0,1,1-2.21,2.5,2.5,0,0,1,2.22-.29l-.27.14A3.66,3.66,0,0,1,214,218.8a3.39,3.39,0,0,1,2.55.07,3.45,3.45,0,0,1,1.3,1,1.44,1.44,0,0,1,.29.48,4.15,4.15,0,0,0-1.68-1.23,3.22,3.22,0,0,0-2.35,0,3.38,3.38,0,0,0-2,2.29l-.05.22-.21-.07a2.05,2.05,0,0,0-1.83.27,1.87,1.87,0,0,0-.8,1.8,2,2,0,0,0,1.31,1.65,4.21,4.21,0,0,0,2.45-.09l.41-.13-.09.42a2.43,2.43,0,0,0,2.29,2.85,2.5,2.5,0,0,0,2.25-1.48l.14-.36.28.28a2.59,2.59,0,0,0,2.94.42,1.72,1.72,0,0,0,.92-1,.9.9,0,0,0-.47-1l-1.12-.38,1.18-.07a2.18,2.18,0,0,0,1.8-1.36,2.65,2.65,0,0,0-.11-2.14,3.9,3.9,0,0,0-3-2,2.4,2.4,0,0,0-2.26.48A1.61,1.61,0,0,0,217.82,220.35Z" style="fill:#263238"></path><path d="M210,239c-.13.06-.38-.18-.64-.49s-.46-.6-.37-.71.46,0,.77.37S210.12,238.89,210,239Z" style="fill:#263238"></path><path d="M212.14,238.39c.07.13-.11.38-.41.56s-.6.25-.68.12.1-.37.4-.56S212.06,238.27,212.14,238.39Z" style="fill:#263238"></path><path d="M219.13,234c-.06.05-.32-.18-.78-.44a2.89,2.89,0,0,0-1.9-.39,2.05,2.05,0,0,0-1.5,1.09c-.22.46-.2.81-.28.81s-.23-.35-.06-.94a2.18,2.18,0,0,1,1.75-1.47,2.75,2.75,0,0,1,2.2.6C219,233.64,219.18,234,219.13,234Z" style="fill:#263238"></path><path d="M210.16,234.23c-.07,0,0-.3,0-.7a1.89,1.89,0,0,0-.71-1.29A1.91,1.91,0,0,0,208,232c-.39.07-.62.22-.68.16s.12-.32.58-.52a1.9,1.9,0,0,1,2.62,1.93C210.43,234,210.22,234.26,210.16,234.23Z" style="fill:#263238"></path><path d="M139.23,270.43a30,30,0,0,1-1.52-5.33,29.4,29.4,0,0,1-1-5.46,30,30,0,0,1,1.52,5.34A29.38,29.38,0,0,1,139.23,270.43Z" style="fill:#263238"></path><path d="M119.68,275.57a38.14,38.14,0,0,1-1.61-6.05,38.09,38.09,0,0,1-1.09-6.15,37.22,37.22,0,0,1,1.6,6A37.54,37.54,0,0,1,119.68,275.57Z" style="fill:#263238"></path><path d="M123.65,275a20.92,20.92,0,0,1-1.26-4.52,21.21,21.21,0,0,1-.76-4.63,21.14,21.14,0,0,1,1.26,4.52A21.38,21.38,0,0,1,123.65,275Z" style="fill:#263238"></path><path d="M135.21,271.5a22,22,0,0,1-1.29-4.61,22.35,22.35,0,0,1-.78-4.73,44.17,44.17,0,0,1,2.07,9.34Z" style="fill:#263238"></path><path d="M111.26,259a3.64,3.64,0,0,0,2.41,6.76,3.48,3.48,0,0,0,5.74,2.52,3.11,3.11,0,0,0,5.84-.48,3.15,3.15,0,0,0,5.52-2.6,7.43,7.43,0,0,0,3.69,0,2.56,2.56,0,0,0,1.78-2.88,8.39,8.39,0,0,0,3.36-.9,2.92,2.92,0,0,0,1.53-2.9c-.19-.89-.93-1.68-.77-2.57.12-.66.7-1.12,1.07-1.68a3.08,3.08,0,0,0-1.33-4.36,3.7,3.7,0,0,0-5-5,4,4,0,0,0-4.79-2.23,5.1,5.1,0,0,0-4-1.46,5,5,0,0,0-3.67,2.11A4.57,4.57,0,0,0,116.5,245a6.11,6.11,0,0,0-6.71,9,3.45,3.45,0,0,0-1.71,3.4c.28,1.32,2.06,2.21,3.09,1.33" style="fill:#f5f5f5"></path><path d="M111.17,258.67a1,1,0,0,1-.44.3,1.92,1.92,0,0,1-1.54-.14,2.45,2.45,0,0,1-.89-.77,2.23,2.23,0,0,1-.37-1.35,3.85,3.85,0,0,1,1.79-2.89l0,.18a6.27,6.27,0,0,1,6.87-9.25l-.23.1a4.79,4.79,0,0,1,6.48-1.67l-.31.06a5.25,5.25,0,0,1,8-.69l-.25-.07a4.29,4.29,0,0,1,5.09,2.37l-.35-.13a4,4,0,0,1,5.35,5.31l-.14-.36a3.22,3.22,0,0,1,1.76,2,3.42,3.42,0,0,1,0,2,4.78,4.78,0,0,1-1,1.62,1.41,1.41,0,0,0-.28,1.47,16.54,16.54,0,0,1,.67,1.69,2.65,2.65,0,0,1-.34,1.9,3.69,3.69,0,0,1-1.33,1.33,8.72,8.72,0,0,1-3.43.91l.21-.33a2.32,2.32,0,0,1-.41,2,3.28,3.28,0,0,1-1.6,1.2,7.89,7.89,0,0,1-3.74,0l.27-.28a3.38,3.38,0,0,1-5.91,2.78l.37-.08a3.31,3.31,0,0,1-6.22.5l.3.07a3.66,3.66,0,0,1-6-2.66l.17.14a3.92,3.92,0,0,1-3.81-1.77,3.57,3.57,0,0,1-.31-3.13,3.75,3.75,0,0,1,1.11-1.65,2.45,2.45,0,0,1,.58-.36s-.2.13-.52.43a3.8,3.8,0,0,0-1,1.63,3.42,3.42,0,0,0,.36,3,3.68,3.68,0,0,0,3.56,1.6l.17,0v.17a3.32,3.32,0,0,0,5.47,2.38l.19-.17.11.23a2.9,2.9,0,0,0,5.45-.45l.11-.41.27.32a3,3,0,0,0,3.4.8,3,3,0,0,0,1.71-3.21l-.06-.34.34.06a7.39,7.39,0,0,0,3.5,0,2.34,2.34,0,0,0,1.69-2.6l-.08-.29.29,0a8.36,8.36,0,0,0,3.23-.85,2.69,2.69,0,0,0,1.43-2.68c-.12-.52-.46-1-.67-1.64a2.08,2.08,0,0,1-.09-1,2.22,2.22,0,0,1,.45-.91,4.31,4.31,0,0,0,.94-1.46,2.88,2.88,0,0,0,0-1.67,2.69,2.69,0,0,0-1.45-1.68l-.26-.1.12-.25a3.45,3.45,0,0,0-4.65-4.62l-.24.12-.11-.25A3.77,3.77,0,0,0,130.4,243l-.15,0-.1-.11a4.78,4.78,0,0,0-7.29.61l-.12.18-.19-.12a4.37,4.37,0,0,0-5.87,1.49l-.07.14-.16,0a6,6,0,0,0-6.53,2.82,6.16,6.16,0,0,0,0,5.89l.06.11-.1.07a3.58,3.58,0,0,0-1.73,2.67,2.06,2.06,0,0,0,1.11,2,1.82,1.82,0,0,0,1.45.2A2.9,2.9,0,0,0,111.17,258.67Z" style="fill:#263238"></path><path d="M134.55,246.69a3.8,3.8,0,0,0,4.64,4.09c1-.24,2-1.14,1.81-2.16a2.44,2.44,0,0,0,0-4.14,2.43,2.43,0,0,0-4.37-2,1.71,1.71,0,0,0-3.12,1,2.37,2.37,0,0,0-.54,2.12A1.33,1.33,0,0,0,134.55,246.69Z" style="fill:#f5f5f5"></path><path d="M134.55,246.69s-.1.06-.31.07a1.46,1.46,0,0,1-.88-.25,1.76,1.76,0,0,1-.59-1.33,2.54,2.54,0,0,1,.61-1.85l-.06.14a1.91,1.91,0,0,1,3.49-1.15h-.39a2.67,2.67,0,0,1,4.9,1.91,1.67,1.67,0,0,1-.08.32l-.11-.3a2.69,2.69,0,0,1,0,4.56l.11-.25a1.68,1.68,0,0,1-.25,1.23,2.46,2.46,0,0,1-.83.81,3.35,3.35,0,0,1-2,.46,4,4,0,0,1-2.92-1.57,3.86,3.86,0,0,1-.74-2,1.75,1.75,0,0,1,.08-.77s0,.29.08.75a4,4,0,0,0,.82,1.88,3.69,3.69,0,0,0,2.7,1.34,3,3,0,0,0,1.76-.43,1.6,1.6,0,0,0,.85-1.57l0-.16.14-.09a2.2,2.2,0,0,0,0-3.71l-.16-.1.05-.2a2.27,2.27,0,0,0,.06-.25,2.23,2.23,0,0,0-1.45-2.49,2.28,2.28,0,0,0-2.54.91l-.19.31-.2-.3a1.53,1.53,0,0,0-1.81-.54,1.58,1.58,0,0,0-.93,1.42v.08l-.06.06a2.2,2.2,0,0,0-.57,1.57,1.58,1.58,0,0,0,.43,1.18,1.43,1.43,0,0,0,.75.31C134.44,246.68,134.54,246.67,134.55,246.69Z" style="fill:#263238"></path><path d="M122.46,249.34a15,15,0,0,0-2.79-3.36,10.89,10.89,0,0,0-4.26-2.23c-2-.63-3.65-.28-5.7.12a16.55,16.55,0,0,0-3.56,1.15,11.82,11.82,0,0,0-5.33,4.32,5.18,5.18,0,0,0-1,2,2.43,2.43,0,0,0,.47,2.09,2.57,2.57,0,0,0,2.12.73,8,8,0,0,0,2.22-.65,6.15,6.15,0,0,0,1.86,4.86,5.9,5.9,0,0,0,6.51.48,9.52,9.52,0,0,0,4.22-5.31A4.94,4.94,0,0,0,120.5,256a2.6,2.6,0,0,0,1.94-.21,2.77,2.77,0,0,0,1.09-2.22A7.48,7.48,0,0,0,122.46,249.34Z" style="fill:#455a64"></path><path d="M113.55,242.56a2.66,2.66,0,0,0-4.75,1.2,1.71,1.71,0,0,0-1.35,3.11,2.85,2.85,0,0,0,2.5,0,2.06,2.06,0,0,0,4,.85,2.19,2.19,0,0,0,2.73,0,1.42,1.42,0,0,0,.55-1,.87.87,0,0,0-.59-.89,1.89,1.89,0,0,0,1.52-1.65,2.47,2.47,0,0,0-.92-2.12,3.57,3.57,0,0,0-2.25-.73,2.24,2.24,0,0,0-1.14.28,1.09,1.09,0,0,0-.54,1" style="fill:#f5f5f5"></path><path d="M113.32,242.6s-.13-.27.13-.69a2,2,0,0,1,1.85-.7,3.26,3.26,0,0,1,2.7,1.45,2.38,2.38,0,0,1,.3,1.94,2.11,2.11,0,0,1-1.61,1.47l0-.45a1.1,1.1,0,0,1,.76,1.23,1.75,1.75,0,0,1-.83,1.19,2.46,2.46,0,0,1-2.85-.15l.41-.13a2.39,2.39,0,0,1-2,1.63,2.34,2.34,0,0,1-2.46-2.58l.34.27a3.58,3.58,0,0,1-2.17.23,1.93,1.93,0,0,1-1.42-1.53,1.87,1.87,0,0,1,.66-1.84,2,2,0,0,1,1.74-.37l-.25.16a2.9,2.9,0,0,1,1.61-2.11,2.68,2.68,0,0,1,2-.1,2.55,2.55,0,0,1,1.07.67,1,1,0,0,1,.26.37,3.48,3.48,0,0,0-1.4-.83,2.48,2.48,0,0,0-1.8.18,2.54,2.54,0,0,0-1.35,1.88l0,.22-.22-.06a1.6,1.6,0,0,0-1.36.33,1.4,1.4,0,0,0-.48,1.4,1.47,1.47,0,0,0,1.09,1.16,3.16,3.16,0,0,0,1.86-.24l.4-.15-.06.42a1.84,1.84,0,0,0,1.91,2,1.9,1.9,0,0,0,1.6-1.26l.11-.37.3.25a2,2,0,0,0,2.25.14,1.35,1.35,0,0,0,.62-.85.63.63,0,0,0-.39-.71l-1.19-.29,1.21-.17a1.66,1.66,0,0,0,1.27-1.14,2,2,0,0,0-.22-1.62,3,3,0,0,0-2.39-1.36,1.85,1.85,0,0,0-1.71.5A1.49,1.49,0,0,0,113.32,242.6Z" style="fill:#263238"></path><path d="M108.47,257.57c-.12.07-.35-.08-.57-.3s-.37-.44-.3-.57.4-.06.67.21S108.6,257.5,108.47,257.57Z" style="fill:#263238"></path><path d="M110.1,257c.09.11,0,.34-.24.51s-.47.2-.56.09,0-.35.25-.51S110,256.88,110.1,257Z" style="fill:#263238"></path><path d="M115.24,253.13c0,.06-.28-.1-.65-.26a2.34,2.34,0,0,0-1.47-.15,1.54,1.54,0,0,0-1.06.9c-.16.35-.13.62-.21.64s-.24-.25-.15-.74a1.74,1.74,0,0,1,1.29-1.31,2.2,2.2,0,0,1,1.78.34C115.15,252.83,115.29,253.08,115.24,253.13Z" style="fill:#263238"></path><path d="M108.29,253.89c-.07,0-.05-.24-.12-.53a1.51,1.51,0,0,0-.63-.91,1.49,1.49,0,0,0-1.09-.14c-.3.07-.48.19-.53.13s0-.28.39-.47a1.5,1.5,0,0,1,2.22,1.35C108.52,253.72,108.35,253.92,108.29,253.89Z" style="fill:#263238"></path><path d="M179.07,235.71a43,43,0,0,1,.72-6.62,42.47,42.47,0,0,1,1.24-6.54,43.13,43.13,0,0,1-.72,6.62A41.39,41.39,0,0,1,179.07,235.71Z" style="fill:#263238"></path><path d="M155,232.77a53.89,53.89,0,0,1,.95-7.45,54.18,54.18,0,0,1,1.46-7.37,53.89,53.89,0,0,1-.95,7.45A52.42,52.42,0,0,1,155,232.77Z" style="fill:#263238"></path><path d="M159.68,233.85a29.34,29.34,0,0,1,.64-5.59,30.92,30.92,0,0,1,1.16-5.51,30.86,30.86,0,0,1-.65,5.59A30.18,30.18,0,0,1,159.68,233.85Z" style="fill:#263238"></path><path d="M174.11,235.12a31.73,31.73,0,0,1,.66-5.71,32.32,32.32,0,0,1,1.18-5.63,32.77,32.77,0,0,1-.66,5.71A32.32,32.32,0,0,1,174.11,235.12Z" style="fill:#263238"></path><path d="M152.91,210.58a4.38,4.38,0,0,0-.31,8.62,4.19,4.19,0,0,0,5.29,5.36,3.74,3.74,0,0,0,6.73,2.06,3.79,3.79,0,0,0,7.31-.45,9.06,9.06,0,0,0,4.14,1.59c1.5,0,3.14-.94,3.27-2.43a9.92,9.92,0,0,0,4.14.49,3.5,3.5,0,0,0,3-2.56c.19-1.07-.29-2.28.29-3.21.42-.68,1.27-.94,1.93-1.4a3.7,3.7,0,0,0,.46-5.45,4.44,4.44,0,0,0-3.37-7.75,4.86,4.86,0,0,0-4.36-4.62,6,6,0,0,0-8.81-2.66,5.48,5.48,0,0,0-7.6-1,7.33,7.33,0,0,0-11.47,7,4.18,4.18,0,0,0-3.42,3c-.27,1.6,1.32,3.38,2.86,2.86" style="fill:#f5f5f5"></path><path d="M153,210.14a1.31,1.31,0,0,1-.63.12,2.25,2.25,0,0,1-1.65-.84,3,3,0,0,1-.64-1.24,2.64,2.64,0,0,1,.2-1.66,4.52,4.52,0,0,1,3.26-2.41l-.11.15A7.49,7.49,0,0,1,165.13,197h-.25a5.71,5.71,0,0,1,7.91,1l-.31-.05a6.25,6.25,0,0,1,9.17,2.76l-.21-.15a5.1,5.1,0,0,1,4.59,4.85l-.28-.25a4.71,4.71,0,0,1,3.57,8.21V213a3.78,3.78,0,0,1,1.06,3,4,4,0,0,1-.83,2.2,5.63,5.63,0,0,1-1.84,1.34,1.77,1.77,0,0,0-1,1.56,19.79,19.79,0,0,1,0,2.18,3.13,3.13,0,0,1-1.2,1.94,4.47,4.47,0,0,1-2.05.88,10.37,10.37,0,0,1-4.21-.51l.32-.22a2.78,2.78,0,0,1-1.33,2A4,4,0,0,1,176,228a9.47,9.47,0,0,1-4.16-1.63l.36-.16a4,4,0,0,1-7.76.48l.39.06a3.94,3.94,0,0,1-7.1-2.18l.25.17a4.36,4.36,0,0,1-5.49-5.59l.11.2a4.68,4.68,0,0,1-3.45-3.64,4.28,4.28,0,0,1,1-3.62,4.37,4.37,0,0,1,2-1.34,2.9,2.9,0,0,1,.8-.17s-.27.06-.77.24a4.66,4.66,0,0,0-1.87,1.37,4.13,4.13,0,0,0-.92,3.48,4.42,4.42,0,0,0,3.28,3.39l.17,0-.06.15a4.16,4.16,0,0,0,.76,3.95,4.1,4.1,0,0,0,4.33,1.18l.24-.08,0,.25a3.53,3.53,0,0,0,6.36,1.94l.25-.34.13.4a3.56,3.56,0,0,0,6.87-.43l.06-.33.29.17A9,9,0,0,0,176,227.5a3.39,3.39,0,0,0,2-.53,2.29,2.29,0,0,0,1.1-1.66l0-.3.29.08a10,10,0,0,0,4,.48,3.23,3.23,0,0,0,2.82-2.39c.11-.65-.05-1.36,0-2.14a2.4,2.4,0,0,1,.35-1.16,2.71,2.71,0,0,1,.89-.8,5.23,5.23,0,0,0,1.7-1.22,3.48,3.48,0,0,0,.72-1.91,3.29,3.29,0,0,0-.9-2.56l-.2-.19L189,213a4.2,4.2,0,0,0-3.18-7.31l-.27,0v-.28a4.62,4.62,0,0,0-4.11-4.37h-.15l-.06-.14a5.79,5.79,0,0,0-8.47-2.57l-.18.12-.13-.18a5.28,5.28,0,0,0-7.28-.94l-.12.1-.13-.09a7.27,7.27,0,0,0-8.58.26,7.39,7.39,0,0,0-2.63,6.59v.13l-.12,0a4.38,4.38,0,0,0-3.13,2.23,2.5,2.5,0,0,0,.37,2.73,2.24,2.24,0,0,0,1.54.86A3,3,0,0,0,153,210.14Z" style="fill:#263238"></path><path d="M184.38,207.14a4.56,4.56,0,0,0,3.37,6.62c1.24.19,2.75-.38,3-1.61a2.92,2.92,0,0,0,1.82-4.61,2.92,2.92,0,0,0-4-4.21,2,2,0,0,0-3.92-.25,2.83,2.83,0,0,0-1.55,2.13A1.59,1.59,0,0,0,184.38,207.14Z" style="fill:#f5f5f5"></path><path d="M184.38,207.14s-.14,0-.37-.07a1.65,1.65,0,0,1-.85-.67,2,2,0,0,1-.06-1.72,2.92,2.92,0,0,1,1.48-1.77l-.1.11a2.28,2.28,0,0,1,2-1.5,2.32,2.32,0,0,1,2.29,1.76l-.37-.14a3.16,3.16,0,0,1,4.55,4.25,2.26,2.26,0,0,1-.23.31v-.32a3.19,3.19,0,0,1-2,5l.2-.2a2.05,2.05,0,0,1-.81,1.24,3,3,0,0,1-1.27.52,4,4,0,0,1-2.44-.38,4.7,4.7,0,0,1-2.55-3A4.64,4.64,0,0,1,184,208a2.13,2.13,0,0,1,.41-.83s-.12.32-.26.87a4.76,4.76,0,0,0,.07,2.47,4.45,4.45,0,0,0,2.43,2.73,3.63,3.63,0,0,0,2.19.3,2,2,0,0,0,1.68-1.4l0-.16.16,0a2.69,2.69,0,0,0,1.66-4.22l-.1-.15.11-.17c.06-.09.14-.17.19-.26a2.74,2.74,0,0,0-.53-3.49,2.8,2.8,0,0,0-3.3-.1l-.29.21-.08-.35a1.87,1.87,0,0,0-1.82-1.44,1.93,1.93,0,0,0-1.7,1.2l0,.07-.08,0a2.67,2.67,0,0,0-1.34,1.52,1.86,1.86,0,0,0,0,1.53,1.67,1.67,0,0,0,.72.68A1.81,1.81,0,0,1,184.38,207.14Z" style="fill:#263238"></path><path d="M169.71,204.74a18.18,18.18,0,0,0-1.62-5,13.12,13.12,0,0,0-3.76-4.37c-2-1.59-3.94-1.93-6.42-2.39a19.56,19.56,0,0,0-4.47-.31,14.13,14.13,0,0,0-7.87,2.46,6.1,6.1,0,0,0-2,1.77,3,3,0,0,0-.41,2.55,3.11,3.11,0,0,0,2.05,1.75,9.09,9.09,0,0,0,2.76.26,7.39,7.39,0,0,0-.08,6.25,7.09,7.09,0,0,0,7.05,3.43,11.43,11.43,0,0,0,7.07-4,5.93,5.93,0,0,0,2.55,4.17,3.19,3.19,0,0,0,2.26.62,3.34,3.34,0,0,0,2.2-2A9,9,0,0,0,169.71,204.74Z" style="fill:#455a64"></path><path d="M168.05,192.2a4.8,4.8,0,0,0-2.5-2.06,2.88,2.88,0,0,0-1.58-.23,1.46,1.46,0,0,0-1.19,1,2.93,2.93,0,0,0-2.73-2.6,3.72,3.72,0,0,0-3.62,1.79,2.35,2.35,0,0,0-3.3,3.27,4,4,0,0,0,3.21,1.23,2.82,2.82,0,0,0,4.67,3.11,3,3,0,0,0,3.48,1.4,1.91,1.91,0,0,0,1.19-1,1.19,1.19,0,0,0-.3-1.43,2.58,2.58,0,0,0,2.77-1.33A3.33,3.33,0,0,0,168.05,192.2Z" style="fill:#f5f5f5"></path><path d="M168.05,192.2a1.2,1.2,0,0,1,.24.39,3.35,3.35,0,0,1,.31,1.29,3,3,0,0,1-.64,2,2.73,2.73,0,0,1-2.62,1l.15-.32a1.37,1.37,0,0,1,.36,1.67,2.22,2.22,0,0,1-1.49,1.12,3.25,3.25,0,0,1-3.56-1.55l.4,0a3.07,3.07,0,0,1-5.09-3.38l.22.38a6.18,6.18,0,0,1-1.57-.19,3.16,3.16,0,0,1-2-1.38,2.71,2.71,0,0,1-.12-2.37,2.44,2.44,0,0,1,1.77-1.46,2.67,2.67,0,0,1,2.16.44l-.36.07a3.94,3.94,0,0,1,4.12-1.83,3.59,3.59,0,0,1,1.86,1,2.77,2.77,0,0,1,.76,1.77l-.35,0a1.59,1.59,0,0,1,1.15-1.05,2.55,2.55,0,0,1,1.35.05,5.31,5.31,0,0,1,1.86,1,4.21,4.21,0,0,1,.88,1,1.14,1.14,0,0,1,.2.41,6.39,6.39,0,0,0-1.2-1.23,5.65,5.65,0,0,0-1.81-.86,2.28,2.28,0,0,0-1.19,0,1.31,1.31,0,0,0-.9.84l-.31,1.16,0-1.2a2.71,2.71,0,0,0-2.35-2.36,3.52,3.52,0,0,0-3.61,1.66l-.14.24-.22-.17a2.11,2.11,0,0,0-3.16.82,2.23,2.23,0,0,0,.1,1.92,2.63,2.63,0,0,0,1.67,1.14,6,6,0,0,0,1.45.17h.43l-.21.38a2.66,2.66,0,0,0,.95,3.43,2.71,2.71,0,0,0,3.32-.6l.22-.28.17.32a2.79,2.79,0,0,0,3,1.35,1.79,1.79,0,0,0,1.23-.87,1,1,0,0,0-.21-1.21l-.73-.53.88.21a2.41,2.41,0,0,0,2.31-.82,2.76,2.76,0,0,0,.66-1.83A5,5,0,0,0,168.05,192.2Z" style="fill:#263238"></path><path d="M150.46,207.71c-.15,0-.31-.26-.46-.6s-.24-.66-.13-.75.43.13.6.54S150.6,207.69,150.46,207.71Z" style="fill:#263238"></path><path d="M152.53,207.79c0,.14-.19.33-.51.41s-.61.05-.65-.09.19-.32.51-.41S152.49,207.66,152.53,207.79Z" style="fill:#263238"></path></g><g id="freepik--side-table--inject-3"><rect x="49.96" y="409.8" width="166.74" height="52.42" style="fill:#455a64"></rect><rect x="37.14" y="392" width="189.78" height="17.9" style="fill:#455a64"></rect><path d="M226.92,409.8c0,.14-42.41.26-94.71.26s-94.71-.12-94.71-.26,42.4-.26,94.71-.26S226.92,409.65,226.92,409.8Z" style="fill:#263238"></path><path d="M168.13,462.22c-.14,0-.26-11.74-.26-26.22s.12-26.22.26-26.22.26,11.74.26,26.22S168.28,462.22,168.13,462.22Z" style="fill:#263238"></path><path d="M173,415.48s.06,0,.18,0l.56,0,2.19,0,8.29-.06,28.87-.12h.25v.25c0,5.5,0,11.5,0,17.72-.51.53-.15.15-.27.27h-22L173,433.39h-.19v-.18c0-5.48.08-9.92.1-13,0-1.5,0-2.67,0-3.51,0-.37,0-.67,0-.9a1.38,1.38,0,0,1,0-.29,2.06,2.06,0,0,1,0,.33c0,.24,0,.54,0,.93,0,.85,0,2,.05,3.55,0,3.09,0,7.49.1,12.92L173,433l18.08,0,10.62,0H213.1c-.11.11.28-.26-.25.25,0-6.22,0-12.22,0-17.72l.24.24-28.7-.11-8.35-.07-2.24,0-.59,0Z" style="fill:#263238"></path><path d="M173,436.87h.18l.56,0,2.19,0,8.29-.07,28.87-.12h.25v.25c0,5.51,0,11.51,0,17.73-.51.53-.15.15-.27.26H201.72l-10.62,0-18.08,0h-.19v-.19c0-5.47.08-9.91.1-13,0-1.49,0-2.67,0-3.5,0-.38,0-.67,0-.9a1.57,1.57,0,0,1,0-.3,2.4,2.4,0,0,1,0,.33c0,.24,0,.55,0,.94,0,.85,0,2,.05,3.55,0,3.08,0,7.49.1,12.91l-.19-.18,18.08-.06h22c-.11.12.28-.25-.25.26,0-6.22,0-12.22,0-17.73l.24.25-28.7-.12-8.35-.07-2.24,0h-.59Z" style="fill:#263238"></path><path d="M197.24,424.34a2.49,2.49,0,1,1-2.49-2.49A2.48,2.48,0,0,1,197.24,424.34Z" style="fill:#263238"></path><path d="M197.24,445.74a2.49,2.49,0,1,1-2.49-2.5A2.49,2.49,0,0,1,197.24,445.74Z" style="fill:#263238"></path><path d="M152.38,409.9a75.47,75.47,0,0,1-.26-8.95,75.61,75.61,0,0,1,.26-8.95,78.27,78.27,0,0,1,.26,8.95A78.12,78.12,0,0,1,152.38,409.9Z" style="fill:#263238"></path></g><g id="freepik--Clock--inject-3"><polygon points="105.85 384.14 103.81 392 105.85 392 109.75 386.26 105.85 384.14" style="fill:#263238"></polygon><polygon points="133.66 384.14 135.7 392 133.66 392 129.76 386.26 133.66 384.14" style="fill:#263238"></polygon><polygon points="104.88 343.48 97.78 333.88 97.95 333.76 105.05 343.36 104.88 343.48" style="fill:#263238"></polygon><path d="M96.05,348.41s-4.8-8.45,3.12-13.69,13.61,1.78,13.61,1.78Z" style="fill:#FF725E"></path><circle cx="97.27" cy="333.11" r="1.97" style="fill:#FF725E"></circle><polygon points="134.14 343.68 133.97 343.56 141.07 333.96 141.24 334.08 134.14 343.68" style="fill:#263238"></polygon><path d="M143,348.61s4.8-8.45-3.12-13.69-13.61,1.78-13.61,1.78Z" style="fill:#FF725E"></path><path d="M139.78,333.31a2,2,0,1,0,2-2A2,2,0,0,0,139.78,333.31Z" style="fill:#FF725E"></path><rect x="118.85" y="333.31" width="1.32" height="6.67" style="fill:#455a64"></rect><rect x="117.07" y="332.71" width="4.88" height="3.83" rx="1.68" style="fill:#FF725E"></rect><circle cx="119.8" cy="363.63" r="24.95" transform="translate(-259.92 412.5) rotate(-79.1)" style="fill:#FF725E"></circle><circle cx="119.91" cy="363.51" r="22.71" transform="translate(-230.94 210.48) rotate(-48.18)" style="fill:#fafafa"></circle><path d="M97.25,362v1.45c0,.24,0,.5,0,.8s.06.61.09,1,.06.72.1,1.12a12.55,12.55,0,0,0,.21,1.25,21.75,21.75,0,0,0,2.11,6.18,22.71,22.71,0,0,0,5.32,6.79l.93.79c.33.25.68.48,1,.72s.68.5,1.06.71l1.13.64c.2.1.39.21.58.32l.61.27,1.24.54c.42.17.87.3,1.31.45a12.16,12.16,0,0,0,1.34.4,22,22,0,0,0,2.83.51c.49,0,1,.13,1.47.16l1.5,0c.25,0,.5,0,.75,0l.76-.07c.51,0,1-.07,1.54-.14a23.66,23.66,0,0,0,3.06-.69L127,385l.38-.12.37-.15,1.51-.61c.49-.23,1-.5,1.46-.74.24-.14.49-.25.72-.4l.7-.45a25.88,25.88,0,0,0,2.7-2l1.23-1.18.31-.3.28-.33.56-.66.56-.65.51-.72.5-.71.25-.36.22-.38.87-1.54.72-1.63a22.45,22.45,0,0,0,.94-14.23l-.51-1.71-.66-1.64-.16-.41-.21-.38-.4-.78-.41-.77-.47-.73-.47-.73-.24-.36L138,350c-.36-.45-.71-.9-1.07-1.34a26.55,26.55,0,0,0-2.41-2.34l-.63-.54c-.21-.18-.45-.33-.67-.49-.45-.31-.89-.64-1.35-.93l-1.41-.8-.35-.2-.37-.16-.73-.32a21.79,21.79,0,0,0-2.95-1.08c-.49-.14-1-.23-1.5-.35l-.74-.16c-.25-.05-.5-.07-.75-.1l-1.49-.18c-.49,0-1,0-1.47,0a19.56,19.56,0,0,0-2.88.15,9,9,0,0,0-1.38.22c-.46.09-.92.15-1.36.26l-1.3.38-.64.19-.61.24-1.21.49c-.4.15-.76.38-1.14.56s-.75.38-1.11.59l-1,.66a22.45,22.45,0,0,0-6.16,6,21.35,21.35,0,0,0-2.9,5.85,11.25,11.25,0,0,0-.38,1.22l-.25,1.09c-.07.34-.15.65-.2.94s-.07.55-.1.78c-.06.47-.11.83-.14,1.08s0,.36,0,.36a3.52,3.52,0,0,1,0-.37c0-.25.06-.6.11-1.07,0-.24,0-.5.09-.79s.12-.61.19-1,.15-.7.24-1.1.24-.79.36-1.22a21.58,21.58,0,0,1,2.88-5.9,22.72,22.72,0,0,1,6.18-6.1l1-.67c.36-.21.74-.39,1.11-.59a12.29,12.29,0,0,1,1.15-.57l1.22-.5.62-.25.64-.19,1.31-.38c.45-.12.91-.18,1.37-.28a12.76,12.76,0,0,1,1.4-.22,19.84,19.84,0,0,1,2.9-.15c.49,0,1,0,1.49,0l1.5.18c.25,0,.51.05.76.09l.75.17c.5.12,1,.21,1.52.35a24.82,24.82,0,0,1,3,1.08l.73.33.37.16.36.2,1.42.81c.47.29.91.63,1.37.94.22.16.46.31.68.49l.63.54a26.05,26.05,0,0,1,2.45,2.37l1.07,1.35.27.34.24.36.48.74.48.73.41.78.41.79.2.39.17.41c.22.55.45,1.1.67,1.66l.51,1.73a24.49,24.49,0,0,1,.7,7.27,24,24,0,0,1-1.65,7.11l-.73,1.65-.88,1.55c-.07.13-.14.26-.22.39l-.25.36-.51.73-.51.72-.57.66-.57.67-.28.33-.32.3-1.24,1.2a25,25,0,0,1-2.73,2l-.71.46c-.23.15-.49.26-.73.4-.49.25-1,.52-1.47.75l-1.52.61-.38.15-.39.12-.77.22a23,23,0,0,1-3.1.69c-.52.07-1,.1-1.55.15l-.77.06c-.25,0-.51,0-.76,0l-1.51,0c-.5,0-1-.11-1.48-.16a21.9,21.9,0,0,1-2.86-.53,10.65,10.65,0,0,1-1.36-.41c-.44-.15-.89-.27-1.31-.45l-1.25-.55-.62-.28-.58-.32-1.14-.65c-.38-.21-.71-.48-1.07-.72s-.69-.48-1-.73-.63-.53-.93-.8a22.47,22.47,0,0,1-5.33-6.85,21.69,21.69,0,0,1-2.09-6.23c-.07-.45-.18-.86-.2-1.26s-.06-.78-.09-1.12-.06-.67-.07-1,0-.56,0-.8q0-.71,0-1.08C97.24,362.15,97.25,362,97.25,362Z" style="fill:#263238"></path><path d="M126.55,354.65a4.23,4.23,0,0,1-.38.71l-1.13,1.9c-1,1.6-2.33,3.83-3.88,6.33l-.08.12-.12-.07-1.23-.76c-2.74-1.71-5.2-3.26-7-4.4l-2.1-1.37a4.39,4.39,0,0,1-.75-.53,5.13,5.13,0,0,1,.81.44l2.15,1.28c1.8,1.09,4.29,2.62,7,4.33l1.22.76-.2.05c1.57-2.5,3-4.71,4-6.28l1.21-1.85A4.6,4.6,0,0,1,126.55,354.65Z" style="fill:#263238"></path><path d="M120.06,343.62a13,13,0,0,1,0,3.81,12.17,12.17,0,0,1,0-3.81Z" style="fill:#263238"></path><path d="M130,347.13a6,6,0,0,1-.91,1.66,5.94,5.94,0,0,1-1.15,1.49,6.2,6.2,0,0,1,.91-1.65A6.37,6.37,0,0,1,130,347.13Z" style="fill:#263238"></path><path d="M136.37,354a22.38,22.38,0,0,1-3.21,1.95,5,5,0,0,1,1.49-1.16A5.22,5.22,0,0,1,136.37,354Z" style="fill:#263238"></path><path d="M139.92,363.8a24.31,24.31,0,0,1-5.21,0,22.7,22.7,0,0,1,5.21,0Z" style="fill:#263238"></path><path d="M103.84,363.45a10.38,10.38,0,0,1-2.46.15,10.33,10.33,0,0,1-2.45-.15,10.33,10.33,0,0,1,2.45-.15A10.38,10.38,0,0,1,103.84,363.45Z" style="fill:#263238"></path><path d="M106.39,370.75a10.94,10.94,0,0,1-1.86,1.69,9.94,9.94,0,0,1-2,1.45,11.14,11.14,0,0,1,1.86-1.68A10.77,10.77,0,0,1,106.39,370.75Z" style="fill:#263238"></path><path d="M112.69,376.4a17.34,17.34,0,0,1-1.27,2.19,17.5,17.5,0,0,1-1.34,2.15,8.14,8.14,0,0,1,1.09-2.3A7.79,7.79,0,0,1,112.69,376.4Z" style="fill:#263238"></path><path d="M120,383.69a22.7,22.7,0,0,1,0-5.21,22.7,22.7,0,0,1,0,5.21Z" style="fill:#263238"></path><path d="M131.19,380.22a7.42,7.42,0,0,1-2.15-1.47,7.7,7.7,0,0,1-1.75-1.92,21.63,21.63,0,0,1,1.94,1.7A25.37,25.37,0,0,1,131.19,380.22Z" style="fill:#263238"></path><path d="M137.26,373.54a9,9,0,0,1-2-1.09,8.7,8.7,0,0,1-1.85-1.35,18.56,18.56,0,0,1,3.87,2.44Z" style="fill:#263238"></path><path d="M106.7,355.05a13.65,13.65,0,0,1-3.48-2,7.32,7.32,0,0,1,1.82.86A6.93,6.93,0,0,1,106.7,355.05Z" style="fill:#263238"></path><path d="M112.65,349.61a6.37,6.37,0,0,1-1.5-1.28,6.51,6.51,0,0,1-1.28-1.49,7.4,7.4,0,0,1,1.49,1.28A7,7,0,0,1,112.65,349.61Z" style="fill:#263238"></path><path d="M99.84,363.6a22.58,22.58,0,0,1,21.23-22.54c-.44,0-.89,0-1.34,0a22.58,22.58,0,1,0,0,45.16c.45,0,.9,0,1.34-.05A22.57,22.57,0,0,1,99.84,363.6Z" style="fill:#e0e0e0"></path><path d="M95.92,334a1.33,1.33,0,0,1-.16-.29,1.63,1.63,0,0,1-.1-.8,1.68,1.68,0,0,1,.31-.75,1.14,1.14,0,0,1,.24-.23s-.09.09-.21.26a1.59,1.59,0,0,0-.28.73,1.55,1.55,0,0,0,.07.77C95.86,333.92,95.93,334,95.92,334Z" style="fill:#fff"></path><path d="M95.76,345.91a7.86,7.86,0,0,1-.34-1.45,9.42,9.42,0,0,1,1.68-6.82,7.57,7.57,0,0,1,1-1.12l-.26.3a7.7,7.7,0,0,0-.68.84,9.9,9.9,0,0,0-1.48,3.24,9.73,9.73,0,0,0-.19,3.56,7.54,7.54,0,0,0,.21,1.06C95.73,345.77,95.76,345.91,95.76,345.91Z" style="fill:#fff"></path><path d="M96.3,347.2s0-.08-.08-.19a.57.57,0,0,1,0-.2.41.41,0,0,1,.07.19A.49.49,0,0,1,96.3,347.2Z" style="fill:#fff"></path><path d="M139.33,335.15l-.46-.25a8.62,8.62,0,0,0-1.28-.58,9.81,9.81,0,0,0-8.9,1,10.18,10.18,0,0,0-1.12.85l-.39.35a8.65,8.65,0,0,1,1.49-1.23,9.79,9.79,0,0,1,4.34-1.6,9.89,9.89,0,0,1,4.59.58A8.29,8.29,0,0,1,139.33,335.15Z" style="fill:#fff"></path><path d="M141.42,331.93s-.12,0-.28.12a1.69,1.69,0,0,0-.55.48,1.57,1.57,0,0,0-.28.66c0,.19,0,.31,0,.31a1.27,1.27,0,0,1,0-.31,1.44,1.44,0,0,1,.28-.69,1.52,1.52,0,0,1,.57-.48A1,1,0,0,1,141.42,331.93Z" style="fill:#fff"></path><path d="M97.82,373.78a23.08,23.08,0,0,1-.94-2.75,26.47,26.47,0,0,1-.06-13.91,23.35,23.35,0,0,1,.92-2.76c-.08.24-.16.47-.26.74-.17.47-.39,1.16-.62,2A26.67,26.67,0,0,0,96.92,371c.24.86.46,1.56.64,2C97.66,373.31,97.74,373.54,97.82,373.78Z" style="fill:#fff"></path><path d="M101,379s-.47-.67-1-1.51-1-1.53-1-1.53.47.66,1,1.5S101,379,101,379Z" style="fill:#fff"></path></g></svg>