<svg width="376" height="267" viewBox="0 0 376 267" fill="none" xmlns="http://www.w3.org/2000/svg">
<g clip-path="url(#clip0_14328_10957)">
<path d="M310.867 37.9334C295.4 23.8 276 14.0667 255.333 10.4667C241.867 8.13336 226.933 7.53336 213.867 12.2C200 17.2 192.8 32.2 177.867 35.2C168.533 37.0667 161.4 32.7334 153 29.7334C144.267 26.6667 135.133 24.5334 125.867 24.2C110.2 23.6 94.6001 28.4 83.3334 39.6C74.9334 47.9334 69.8001 58.8667 67.9334 70.4667C66.0001 82.5334 65.3334 93.5334 54.0001 100.867C46.6001 105.667 37.4668 106.867 29.8001 111.2C16.4668 118.8 11.2668 134.533 12.0001 149.2C13.0668 168.867 23.9334 186.733 38.1334 199.867C54.6001 215.2 75.9334 226.067 98.0668 230.133C112.4 232.8 126.933 232.933 138.933 223.333C142.733 220.267 146.133 216.4 150.867 215.133C155.6 213.867 160.667 215.533 165 217.867C181.8 227.133 197.8 236.333 216.867 240.333C236.533 244.467 258.6 242.667 273.467 227.733C280.533 220.6 285 211.467 286.8 201.067C289.6 184.8 300.667 170.933 315.8 164.4C328.067 159.133 337.667 155.533 342.867 142.133C347.6 130 347.6 116.067 345.733 103.4C342.133 78.4667 329.533 54.8667 310.867 37.9334Z" fill="#CFDFF7"/>
<mask id="mask0_14328_10957" style="mask-type:luminance" maskUnits="userSpaceOnUse" x="-12" y="0" width="400" height="267">
<path d="M388 0H-12V266.667H388V0Z" fill="white"/>
</mask>
<g mask="url(#mask0_14328_10957)">
<path d="M137.667 180.333L142.067 181.2L153 177C161.4 168.333 155.667 142.6 153 130.267L142.733 88.9334C141.2 77.0667 141.667 73.7334 134.667 70.7334C133.2 70.7334 132.333 72.0667 132.333 73.5334C132.467 114.4 129.533 109.667 129 137.4C128.933 142.667 130 148.733 132.333 154.533C135.533 162.6 138.467 171.867 137.667 180.333Z" fill="#F5A07C"/>
</g>
<mask id="mask1_14328_10957" style="mask-type:luminance" maskUnits="userSpaceOnUse" x="-12" y="0" width="400" height="267">
<path d="M388 0H-12V266.667H388V0Z" fill="white"/>
</mask>
<g mask="url(#mask1_14328_10957)">
<path d="M131.866 76.2668C132.066 79.8001 133.066 81.0001 133.066 81.0001C134.2 81.0001 135.066 78.9334 134.8 76.0001C134.533 73.0668 133.6 70.7334 132.8 70.8668C132 70.8668 131.666 73.3334 131.866 76.2668Z" fill="#E44C37"/>
</g>
<mask id="mask2_14328_10957" style="mask-type:luminance" maskUnits="userSpaceOnUse" x="-12" y="0" width="400" height="267">
<path d="M388 0H-12V266.667H388V0Z" fill="white"/>
</mask>
<g mask="url(#mask2_14328_10957)">
<path d="M130.867 110.467C130.733 110.467 130.6 110.4 130.533 110.2C130.467 110 130.6 109.867 130.733 109.8C133.067 109.2 135.867 108.867 135.867 108.867C136.067 108.867 136.2 109 136.2 109.133C136.2 109.333 136.067 109.467 135.933 109.467C135.933 109.467 133.133 109.8 130.867 110.4C130.933 110.467 130.933 110.467 130.867 110.467Z" fill="#A65137"/>
</g>
<mask id="mask3_14328_10957" style="mask-type:luminance" maskUnits="userSpaceOnUse" x="-12" y="0" width="400" height="267">
<path d="M388 0H-12V266.667H388V0Z" fill="white"/>
</mask>
<g mask="url(#mask3_14328_10957)">
<path d="M130.666 113.267C130.533 113.267 130.4 113.133 130.333 113C130.333 112.8 130.4 112.667 130.6 112.6C133.266 112.2 135.933 112.133 136 112.133C136.2 112.133 136.333 112.267 136.333 112.467C136.333 112.667 136.2 112.8 136 112.8C136 112.8 133.333 112.867 130.666 113.267Z" fill="#A65137"/>
</g>
<mask id="mask4_14328_10957" style="mask-type:luminance" maskUnits="userSpaceOnUse" x="-12" y="0" width="400" height="267">
<path d="M388 0H-12V266.667H388V0Z" fill="white"/>
</mask>
<g mask="url(#mask4_14328_10957)">
<path d="M156 176.933C155.734 176.867 155.667 176.733 155.667 176.533C155.667 176.4 158.6 160.8 155.6 145.733C155.534 145.533 155.667 145.4 155.867 145.333C156.067 145.267 156.2 145.4 156.267 145.6C159.267 160.8 156.334 176.533 156.334 176.667C156.334 176.8 156.2 176.933 156 176.933Z" fill="#A65137"/>
</g>
<mask id="mask5_14328_10957" style="mask-type:luminance" maskUnits="userSpaceOnUse" x="-12" y="0" width="400" height="267">
<path d="M388 0H-12V266.667H388V0Z" fill="white"/>
</mask>
<g mask="url(#mask5_14328_10957)">
<path d="M211.067 78.9333C207.867 80.3333 206.4 80.5333 208.667 84.8C209.533 86.4 211.6 86.0667 214.2 84.6667C216.8 83.2667 218.2 80.8667 217.333 79.2667C216.467 77.6667 213.733 77.7333 211.067 78.9333Z" fill="#E44C37"/>
</g>
<mask id="mask6_14328_10957" style="mask-type:luminance" maskUnits="userSpaceOnUse" x="-12" y="0" width="400" height="267">
<path d="M388 0H-12V266.667H388V0Z" fill="white"/>
</mask>
<g mask="url(#mask6_14328_10957)">
<path d="M189.866 86.4L194.6 97.8L211.933 89.4C215.4 87.7334 217 83.8667 215.666 80.6667C215 79.0667 213.066 78.2 211.333 78.8L189.866 86.4Z" fill="#F5A07C"/>
</g>
<mask id="mask7_14328_10957" style="mask-type:luminance" maskUnits="userSpaceOnUse" x="-12" y="0" width="400" height="267">
<path d="M388 0H-12V266.667H388V0Z" fill="white"/>
</mask>
<g mask="url(#mask7_14328_10957)">
<path d="M193.8 111.267L200 119.133L212.133 109.733L207.8 100.267L193.8 111.267Z" fill="#F5A07C"/>
</g>
<mask id="mask8_14328_10957" style="mask-type:luminance" maskUnits="userSpaceOnUse" x="-12" y="0" width="400" height="267">
<path d="M388 0H-12V266.667H388V0Z" fill="white"/>
</mask>
<g mask="url(#mask8_14328_10957)">
<path d="M210.2 151.867L200.533 163L194.8 157.133L203.933 147.133L210.2 151.867Z" fill="#F5A07C"/>
</g>
<mask id="mask9_14328_10957" style="mask-type:luminance" maskUnits="userSpaceOnUse" x="-12" y="0" width="400" height="267">
<path d="M388 0H-12V266.667H388V0Z" fill="white"/>
</mask>
<g mask="url(#mask9_14328_10957)">
<path d="M213.4 134.333L200.734 144.6L195.667 137.133L207.467 128.067L213.4 134.333Z" fill="#F5A07C"/>
</g>
<mask id="mask10_14328_10957" style="mask-type:luminance" maskUnits="userSpaceOnUse" x="-12" y="0" width="400" height="267">
<path d="M388 0H-12V266.667H388V0Z" fill="white"/>
</mask>
<g mask="url(#mask10_14328_10957)">
<path d="M198.867 126.667L196 160.6C194.067 166.667 189.734 171.333 184.267 173.867C183.934 174 183.667 174.133 183.334 174.267C179 176.067 176 180 175.4 184.667V184.733L174.267 194.533L172 215L170.6 227.4C168.134 224.2 160 220.733 150 218.8C149.534 218.733 149.067 218.6 148.6 218.533C143.467 217.6 138.734 217.333 134.867 217.533C131.267 217.733 128.534 218.4 127.134 219.467L128 216.133L134.667 191.267L139.134 174.6C139.734 172.467 140.2 170.267 140.6 168.067L150.134 117.4L198.867 126.667Z" fill="#F5A07C"/>
</g>
<mask id="mask11_14328_10957" style="mask-type:luminance" maskUnits="userSpaceOnUse" x="-12" y="0" width="400" height="267">
<path d="M388 0H-12V266.667H388V0Z" fill="white"/>
</mask>
<g mask="url(#mask11_14328_10957)">
<path d="M159.4 165.8C159.334 165.8 159.334 165.8 159.267 165.8C159.067 165.733 159 165.533 159.067 165.4C159.134 165.133 168 141.4 182.8 128.133C182.934 128 183.134 128 183.267 128.133C183.4 128.267 183.4 128.467 183.267 128.6C168.534 141.733 159.8 165.333 159.667 165.6C159.667 165.733 159.534 165.8 159.4 165.8Z" fill="#A65137"/>
</g>
<mask id="mask12_14328_10957" style="mask-type:luminance" maskUnits="userSpaceOnUse" x="-12" y="0" width="400" height="267">
<path d="M388 0H-12V266.667H388V0Z" fill="white"/>
</mask>
<g mask="url(#mask12_14328_10957)">
<path d="M103.667 307.8L160.4 318.6L168.467 246.8L168.8 244.067C166.934 240.733 158.134 236.8 147.134 234.667C134.8 232.267 124.2 233.067 122.734 236.267L122.534 236.933L103.667 307.8Z" fill="#F5A07C"/>
</g>
<mask id="mask13_14328_10957" style="mask-type:luminance" maskUnits="userSpaceOnUse" x="-12" y="0" width="400" height="267">
<path d="M388 0H-12V266.667H388V0Z" fill="white"/>
</mask>
<g mask="url(#mask13_14328_10957)">
<path d="M147.066 170.067H201.799C204.199 170.067 206.132 168.133 206.132 165.733V52.8668C206.132 50.4668 204.199 48.5334 201.799 48.5334H147.066C144.666 48.5334 142.732 50.4668 142.732 52.8668V165.733C142.732 168.133 144.666 170.067 147.066 170.067Z" fill="#80B9E0"/>
<path d="M150 166.534H198.8C201 166.534 202.733 164.734 202.733 162.6V56.0002C202.733 53.8002 200.933 52.0669 198.8 52.0669H150C147.8 52.0669 146.066 53.8669 146.066 56.0002V162.6C146.066 164.8 147.866 166.534 150 166.534Z" fill="#0E2787"/>
<path d="M142.466 77.2001H142.8C143.133 77.2001 143.4 76.9335 143.4 76.6001V68.0001C143.4 67.6668 143.133 67.4001 142.8 67.4001H142.466C142.133 67.4001 141.866 67.6668 141.866 68.0001V76.6668C141.933 76.9335 142.2 77.2001 142.466 77.2001Z" fill="#80B9E0"/>
<path d="M142.466 87.6H142.8C143.133 87.6 143.4 87.3334 143.4 87.0001V78.4C143.4 78.0667 143.133 77.8 142.8 77.8H142.466C142.133 77.8 141.866 78.0667 141.866 78.4V87.0001C141.933 87.3334 142.2 87.6 142.466 87.6Z" fill="#80B9E0"/>
<path d="M205.933 76.8H206.266C206.6 76.8 206.866 76.5334 206.866 76.2001V68.4C206.866 68.0667 206.6 67.8 206.266 67.8H205.933C205.6 67.8 205.333 68.0667 205.333 68.4V76.2001C205.333 76.5334 205.6 76.8 205.933 76.8Z" fill="#80B9E0"/>
<path d="M169.666 50.6003H173.199C173.333 50.6003 173.466 50.4669 173.466 50.3336V50.2003C173.466 50.0669 173.333 49.9336 173.199 49.9336H169.666C169.533 49.9336 169.399 50.0669 169.399 50.2003V50.3336C169.399 50.4669 169.466 50.6003 169.666 50.6003Z" fill="#80B9E0"/>
<path d="M176.6 50.2669C176.6 50.8669 177.066 51.3335 177.666 51.3335C178.266 51.3335 178.733 50.8669 178.733 50.2669C178.733 49.6669 178.266 49.2002 177.666 49.2002C177.066 49.2002 176.6 49.6669 176.6 50.2669Z" fill="#80B9E0"/>
<path d="M174.333 50.2668C174.333 50.6668 174.666 51.0001 175.066 51.0001C175.466 51.0001 175.8 50.6668 175.8 50.2668C175.8 49.8668 175.466 49.5334 175.066 49.5334C174.666 49.5334 174.333 49.8668 174.333 50.2668Z" fill="#80B9E0"/>
</g>
<mask id="mask14_14328_10957" style="mask-type:luminance" maskUnits="userSpaceOnUse" x="-12" y="0" width="400" height="267">
<path d="M388 0H-12V266.667H388V0Z" fill="white"/>
</mask>
<g mask="url(#mask14_14328_10957)">
<path d="M198.866 118.8C199.8 117.2 202.066 116.2 204.533 118.4L211.933 125.6C214.4 128 216.933 131.4 213.866 134.2L209.533 137.6L200.866 127.667C197 122.533 198.866 118.8 198.866 118.8Z" fill="#F5A07C"/>
</g>
<mask id="mask15_14328_10957" style="mask-type:luminance" maskUnits="userSpaceOnUse" x="-12" y="0" width="400" height="267">
<path d="M388 0H-12V266.667H388V0Z" fill="white"/>
</mask>
<g mask="url(#mask15_14328_10957)">
<path d="M208.667 112.333L211.067 110.6C214.934 107.8 215.8 102.4 213 98.4667L206.734 89.7334C205.734 88.0001 203.267 87.7334 201.934 89.2001C199.467 91.9334 199 95.9334 200.867 99.1334L208.667 112.333Z" fill="#F5A07C"/>
</g>
<mask id="mask16_14328_10957" style="mask-type:luminance" maskUnits="userSpaceOnUse" x="-12" y="0" width="400" height="267">
<path d="M388 0H-12V266.667H388V0Z" fill="white"/>
</mask>
<g mask="url(#mask16_14328_10957)">
<path d="M205.4 119.067C207.6 121.533 208.666 122.267 206 124.467C205 125.267 203.4 124.133 201.733 122C200 119.867 199.466 117.467 200.466 116.667C201.466 115.8 203.533 117 205.4 119.067Z" fill="#E44C37"/>
</g>
<mask id="mask17_14328_10957" style="mask-type:luminance" maskUnits="userSpaceOnUse" x="-12" y="0" width="400" height="267">
<path d="M388 0H-12V266.667H388V0Z" fill="white"/>
</mask>
<g mask="url(#mask17_14328_10957)">
<path d="M208 91.1333C209.934 94.0667 210.934 95.0667 207.867 96.9333C206.667 97.6 205.2 96.2 203.734 93.6C202.267 91.0667 202.067 88.4 203.2 87.7334C204.4 87.0667 206.4 88.7333 208 91.1333Z" fill="#E44C37"/>
</g>
<mask id="mask18_14328_10957" style="mask-type:luminance" maskUnits="userSpaceOnUse" x="-12" y="0" width="400" height="267">
<path d="M388 0H-12V266.667H388V0Z" fill="white"/>
</mask>
<g mask="url(#mask18_14328_10957)">
<path d="M121.867 235.6C121.8 236 122.067 236.333 122.467 236.333C122.867 236.4 123.2 236.133 123.2 235.733C123.2 235.667 123.2 235.6 123.2 235.6C123.2 235.533 123.2 235.533 123.2 235.467C125.867 232.867 135.733 232.4 147.067 234.6C157.267 236.6 165.6 240.067 168.2 243.267C168.4 243.667 168.467 244 168.4 244.267C168.333 244.667 168.533 245 168.933 245.067C169 245.067 169 245.067 169.067 245.067C169.4 245.067 169.667 244.867 169.733 244.533C169.867 243.867 169.733 243.2 169.333 242.467C169.2 242.267 169.133 242.133 169 241.933L170.2 231.267C170.867 230.8 171.267 230.267 171.4 229.667C171.533 228.933 171.267 228.2 170.667 227.4C168.2 224.2 160.067 220.733 150.067 218.8C139.533 216.8 130.333 217.133 127.267 219.467C126.667 219.933 126.333 220.4 126.2 221C126.133 221.467 126.2 222 126.467 222.467L123.6 233.2C122.933 233.6 122.467 234.133 122.2 234.733C122.133 234.933 122.067 235.133 122 235.333C121.933 235.467 121.933 235.533 121.867 235.6Z" fill="#142736"/>
</g>
<mask id="mask19_14328_10957" style="mask-type:luminance" maskUnits="userSpaceOnUse" x="-12" y="0" width="400" height="267">
<path d="M388 0H-12V266.667H388V0Z" fill="white"/>
</mask>
<g mask="url(#mask19_14328_10957)">
<path d="M195.8 111.067H152.8C151.133 111.067 149.866 109.733 149.866 108.133V66C149.866 64.3333 151.2 63.0667 152.8 63.0667H195.8C197.466 63.0667 198.733 64.4 198.733 66V108.067C198.733 109.733 197.4 111.067 195.8 111.067Z" fill="#FDFCFA"/>
</g>
<mask id="mask20_14328_10957" style="mask-type:luminance" maskUnits="userSpaceOnUse" x="-12" y="0" width="400" height="267">
<path d="M388 0H-12V266.667H388V0Z" fill="white"/>
</mask>
<g mask="url(#mask20_14328_10957)">
<path d="M207.934 136.2L202.267 129.733C202.134 129.6 202.134 129.4 202.267 129.267C202.4 129.133 202.6 129.133 202.734 129.267L208.4 135.733L207.934 136.2Z" fill="#A65137"/>
</g>
<mask id="mask21_14328_10957" style="mask-type:luminance" maskUnits="userSpaceOnUse" x="-12" y="0" width="400" height="267">
<path d="M388 0H-12V266.667H388V0Z" fill="white"/>
</mask>
<g mask="url(#mask21_14328_10957)">
<path d="M208.666 108.933C208.533 108.933 208.466 108.867 208.4 108.733C208.333 108.667 208.2 108.6 208 108.533C207.133 108.067 205.266 107.133 203.266 103.733C203.2 103.6 203.2 103.4 203.4 103.267C203.533 103.2 203.733 103.2 203.866 103.4C205.8 106.667 207.466 107.533 208.333 107.933C208.666 108.133 208.933 108.2 209 108.467C209.066 108.6 209 108.8 208.8 108.867C208.733 108.933 208.733 108.933 208.666 108.933Z" fill="#A65137"/>
</g>
<mask id="mask22_14328_10957" style="mask-type:luminance" maskUnits="userSpaceOnUse" x="-12" y="0" width="400" height="267">
<path d="M388 0H-12V266.667H388V0Z" fill="white"/>
</mask>
<g mask="url(#mask22_14328_10957)">
<path d="M175.467 184.733C176 180.067 179.067 176.133 183.4 174.333C183.733 174.2 184 174.067 184.333 173.933C184.333 173.933 182.2 174.6 175.667 175.2C170.4 175.6 174.467 179.533 175.467 184.733Z" fill="#142736"/>
</g>
<mask id="mask23_14328_10957" style="mask-type:luminance" maskUnits="userSpaceOnUse" x="-12" y="0" width="400" height="267">
<path d="M388 0H-12V266.667H388V0Z" fill="white"/>
</mask>
<g mask="url(#mask23_14328_10957)">
<path d="M174.4 194.6L172.133 215.067C165.867 217.267 157.667 218.533 148.733 218.6H148.4C143.667 218.6 139.2 218.267 135.067 217.6C132.667 217.2 130.333 216.733 128.267 216.2L134.933 191.333C139.133 190.667 143.667 190.267 148.467 190.267C158.533 190.2 167.8 191.867 174.4 194.6Z" fill="#142736"/>
</g>
<mask id="mask24_14328_10957" style="mask-type:luminance" maskUnits="userSpaceOnUse" x="-12" y="0" width="400" height="267">
<path d="M388 0H-12V266.667H388V0Z" fill="white"/>
</mask>
<g mask="url(#mask24_14328_10957)">
<path d="M185.2 338.867C163.267 411.867 115.333 461.933 78.0667 450.733C40.8 439.6 28.3333 371.333 50.2667 298.4C63.1333 255.533 85 220.6 108.4 201.267C113.933 196.733 119.533 193.067 125.133 190.333C133.133 189.8 143.2 190.6 153.933 192.8C162.6 194.6 170.533 197.133 177 200C181.733 205.667 185.6 212.733 188.6 221C199.133 250.133 198.8 293.6 185.2 338.867Z" fill="#0880AE"/>
</g>
<mask id="mask25_14328_10957" style="mask-type:luminance" maskUnits="userSpaceOnUse" x="-12" y="0" width="400" height="267">
<path d="M388 0H-12V266.667H388V0Z" fill="white"/>
</mask>
<g mask="url(#mask25_14328_10957)">
<path d="M167.933 74.5333C168.066 74.3333 168.133 74.0666 168.133 73.7333C168.133 72.9333 167.466 72.2666 166.666 72.2666C166.2 72.2666 165.733 72.5333 165.466 72.8666C165.2 72.5333 164.8 72.2666 164.266 72.2666C163.466 72.2666 162.8 72.9333 162.8 73.7333C162.8 73.9999 162.866 74.2666 163 74.5333L163.133 74.7333C163.133 74.7999 163.2 74.7999 163.2 74.8666L165.4 77.1999L167.6 74.8666L167.666 74.7999L167.933 74.5333Z" fill="#EB5757"/>
</g>
<mask id="mask26_14328_10957" style="mask-type:luminance" maskUnits="userSpaceOnUse" x="-12" y="0" width="400" height="267">
<path d="M388 0H-12V266.667H388V0Z" fill="white"/>
</mask>
<g mask="url(#mask26_14328_10957)">
<path d="M160.266 87.8H160.199C159.799 87.8 159.399 88.1334 159.399 88.6V105C159.399 105.4 159.733 105.8 160.199 105.8H160.266C160.666 105.8 161.066 105.467 161.066 105V88.6C161.066 88.1334 160.666 87.8 160.266 87.8Z" fill="#63AEE0"/>
<path d="M163.799 98.3335H163.733C163.333 98.3335 162.933 98.6668 162.933 99.1335V104.933C162.933 105.333 163.266 105.733 163.733 105.733H163.799C164.199 105.733 164.599 105.4 164.599 104.933V99.1335C164.599 98.7335 164.199 98.3335 163.799 98.3335Z" fill="#63AEE0"/>
<path d="M177.999 98.3335H177.933C177.533 98.3335 177.133 98.6668 177.133 99.1335V104.933C177.133 105.333 177.466 105.733 177.933 105.733H177.999C178.399 105.733 178.799 105.4 178.799 104.933V99.1335C178.799 98.7335 178.399 98.3335 177.999 98.3335Z" fill="#63AEE0"/>
<path d="M167.332 91.2H167.266C166.866 91.2 166.466 91.5333 166.466 91.9999V104.933C166.466 105.333 166.799 105.733 167.266 105.733H167.332C167.732 105.733 168.132 105.4 168.132 104.933V91.9999C168.132 91.5999 167.799 91.2 167.332 91.2Z" fill="#63AEE0"/>
<path d="M170.933 93.4001H170.866C170.466 93.4001 170.066 93.7335 170.066 94.2001V105C170.066 105.4 170.4 105.8 170.866 105.8H170.933C171.333 105.8 171.733 105.467 171.733 105V94.2001C171.666 93.7335 171.333 93.4001 170.933 93.4001Z" fill="#63AEE0"/>
<path d="M181.533 93.4001H181.466C181.066 93.4001 180.666 93.7335 180.666 94.2001V105C180.666 105.4 180.999 105.8 181.466 105.8H181.533C181.933 105.8 182.333 105.467 182.333 105V94.2001C182.333 93.7335 181.999 93.4001 181.533 93.4001Z" fill="#63AEE0"/>
<path d="M185.066 90.5334H184.999C184.599 90.5334 184.199 90.8668 184.199 91.3334V104.933C184.199 105.333 184.533 105.733 184.999 105.733H185.066C185.466 105.733 185.866 105.4 185.866 104.933V91.3334C185.866 90.8668 185.533 90.5334 185.066 90.5334Z" fill="#63AEE0"/>
<path d="M188.666 96.2H188.6C188.2 96.2 187.8 96.5333 187.8 96.9999V105C187.8 105.4 188.133 105.8 188.6 105.8H188.666C189.066 105.8 189.466 105.467 189.466 105V96.9999C189.4 96.5333 189.066 96.2 188.666 96.2Z" fill="#63AEE0"/>
<path d="M192.2 100H192.133C191.733 100 191.333 100.333 191.333 100.8V105C191.333 105.4 191.666 105.8 192.133 105.8H192.2C192.6 105.8 193 105.467 193 105V100.8C193 100.333 192.6 100 192.2 100Z" fill="#63AEE0"/>
<path d="M156.733 100H156.666C156.266 100 155.866 100.333 155.866 100.8V105C155.866 105.4 156.2 105.8 156.666 105.8H156.733C157.133 105.8 157.533 105.467 157.533 105V100.8C157.466 100.333 157.133 100 156.733 100Z" fill="#63AEE0"/>
<path d="M174.466 87.8H174.4C174 87.8 173.6 88.1334 173.6 88.6V105C173.6 105.4 173.933 105.8 174.4 105.8H174.466C174.866 105.8 175.266 105.467 175.266 105V88.6C175.2 88.1334 174.866 87.8 174.466 87.8Z" fill="#63AEE0"/>
</g>
<mask id="mask27_14328_10957" style="mask-type:luminance" maskUnits="userSpaceOnUse" x="-12" y="0" width="400" height="267">
<path d="M388 0H-12V266.667H388V0Z" fill="white"/>
</mask>
<g mask="url(#mask27_14328_10957)">
<path d="M195.667 131.4H153.534C151.667 131.4 150.134 129.867 150.134 128V121.267C150.134 119.4 151.667 117.867 153.534 117.867H195.667C197.534 117.867 199.067 119.4 199.067 121.267V128C199.067 129.933 197.534 131.4 195.667 131.4Z" fill="#96D5FF"/>
</g>
<mask id="mask28_14328_10957" style="mask-type:luminance" maskUnits="userSpaceOnUse" x="-12" y="0" width="400" height="267">
<path d="M388 0H-12V266.667H388V0Z" fill="white"/>
</mask>
<g mask="url(#mask28_14328_10957)">
<path d="M195.266 159H153.333C151.4 159 149.866 157.467 149.866 155.533V140.267C149.866 138.333 151.4 136.8 153.333 136.8H195.266C197.2 136.8 198.733 138.333 198.733 140.267V155.533C198.733 157.4 197.2 159 195.266 159Z" fill="#2F52DE"/>
</g>
<mask id="mask29_14328_10957" style="mask-type:luminance" maskUnits="userSpaceOnUse" x="-12" y="0" width="400" height="267">
<path d="M388 0H-12V266.667H388V0Z" fill="white"/>
</mask>
<g mask="url(#mask29_14328_10957)">
<path d="M178.933 129.333C178.8 129.333 178.667 129.333 178.533 129.333C174.8 129.2 172.8 127.4 170.667 125.467C168.8 123.8 166.933 122.133 163.667 121.133C157.2 119.2 152.867 124.467 152.867 124.533C152.8 124.667 152.6 124.667 152.533 124.6C152.4 124.533 152.4 124.333 152.467 124.267C152.533 124.2 157 118.667 163.8 120.733C167.2 121.733 169.2 123.6 171 125.2C173.133 127.133 175 128.8 178.533 128.933C182.067 129.067 184 127.4 186.133 125.6C188.6 123.533 191.133 121.333 196.267 122.667C196.4 122.733 196.467 122.867 196.467 123C196.4 123.133 196.267 123.2 196.133 123.2C191.267 122 188.933 123.933 186.467 126.067C184.467 127.533 182.4 129.333 178.933 129.333Z" fill="#FDFCFA"/>
</g>
<mask id="mask30_14328_10957" style="mask-type:luminance" maskUnits="userSpaceOnUse" x="-12" y="0" width="400" height="267">
<path d="M388 0H-12V266.667H388V0Z" fill="white"/>
</mask>
<g mask="url(#mask30_14328_10957)">
<path d="M160.2 121.133C159.8 121.133 159.533 120.8 159.533 120.467C159.533 120.067 159.867 119.8 160.2 119.8C160.6 119.8 160.867 120.133 160.867 120.467C160.933 120.867 160.6 121.133 160.2 121.133ZM160.2 120.267C160.067 120.267 160 120.333 160 120.467C160 120.6 160.067 120.667 160.2 120.667C160.333 120.667 160.4 120.6 160.4 120.467C160.4 120.333 160.333 120.267 160.2 120.267Z" fill="#FDFCFA"/>
</g>
<mask id="mask31_14328_10957" style="mask-type:luminance" maskUnits="userSpaceOnUse" x="-12" y="0" width="400" height="267">
<path d="M388 0H-12V266.667H388V0Z" fill="white"/>
</mask>
<g mask="url(#mask31_14328_10957)">
<path d="M152.667 124.6C152.267 124.6 152 124.267 152 123.933C152 123.533 152.333 123.267 152.667 123.267C153.067 123.267 153.333 123.6 153.333 123.933C153.4 124.333 153.067 124.6 152.667 124.6ZM152.667 123.733C152.533 123.733 152.467 123.8 152.467 123.933C152.467 124.067 152.533 124.133 152.667 124.133C152.8 124.133 152.867 124.067 152.867 123.933C152.867 123.8 152.8 123.733 152.667 123.733Z" fill="#FDFCFA"/>
</g>
<mask id="mask32_14328_10957" style="mask-type:luminance" maskUnits="userSpaceOnUse" x="-12" y="0" width="400" height="267">
<path d="M388 0H-12V266.667H388V0Z" fill="white"/>
</mask>
<g mask="url(#mask32_14328_10957)">
<path d="M169.334 124.6C168.934 124.6 168.667 124.267 168.667 123.933C168.667 123.533 169 123.267 169.334 123.267C169.734 123.267 170 123.6 170 123.933C170.067 124.333 169.734 124.6 169.334 124.6ZM169.334 123.733C169.2 123.733 169.134 123.8 169.134 123.933C169.134 124.067 169.2 124.133 169.334 124.133C169.467 124.133 169.534 124.067 169.534 123.933C169.534 123.8 169.467 123.733 169.334 123.733Z" fill="#FDFCFA"/>
</g>
<mask id="mask33_14328_10957" style="mask-type:luminance" maskUnits="userSpaceOnUse" x="-12" y="0" width="400" height="267">
<path d="M388 0H-12V266.667H388V0Z" fill="white"/>
</mask>
<g mask="url(#mask33_14328_10957)">
<path d="M177.933 129.8C177.533 129.8 177.267 129.467 177.267 129.133C177.267 128.733 177.6 128.467 177.933 128.467C178.333 128.467 178.6 128.8 178.6 129.133C178.667 129.467 178.333 129.8 177.933 129.8ZM177.933 128.867C177.8 128.867 177.733 128.933 177.733 129.067C177.733 129.2 177.8 129.267 177.933 129.267C178.067 129.267 178.133 129.2 178.133 129.067C178.133 128.933 178.067 128.867 177.933 128.867Z" fill="#FDFCFA"/>
</g>
<mask id="mask34_14328_10957" style="mask-type:luminance" maskUnits="userSpaceOnUse" x="-12" y="0" width="400" height="267">
<path d="M388 0H-12V266.667H388V0Z" fill="white"/>
</mask>
<g mask="url(#mask34_14328_10957)">
<path d="M186.933 125.8C186.533 125.8 186.267 125.467 186.267 125.133C186.267 124.733 186.6 124.467 186.933 124.467C187.267 124.467 187.6 124.8 187.6 125.133C187.667 125.533 187.333 125.8 186.933 125.8ZM186.933 124.933C186.8 124.933 186.733 125 186.733 125.133C186.733 125.267 186.8 125.333 186.933 125.333C187.067 125.333 187.133 125.267 187.133 125.133C187.133 125 187.067 124.933 186.933 124.933Z" fill="#FDFCFA"/>
</g>
<mask id="mask35_14328_10957" style="mask-type:luminance" maskUnits="userSpaceOnUse" x="-12" y="0" width="400" height="267">
<path d="M388 0H-12V266.667H388V0Z" fill="white"/>
</mask>
<g mask="url(#mask35_14328_10957)">
<path d="M196.2 123.467C195.8 123.467 195.533 123.133 195.533 122.8C195.533 122.4 195.867 122.133 196.2 122.133C196.533 122.133 196.867 122.467 196.867 122.8C196.933 123.133 196.6 123.467 196.2 123.467ZM196.2 122.6C196.067 122.6 196 122.667 196 122.8C196 122.933 196.067 123 196.2 123C196.333 123 196.4 122.933 196.4 122.8C196.4 122.667 196.333 122.6 196.2 122.6Z" fill="#FDFCFA"/>
</g>
<mask id="mask36_14328_10957" style="mask-type:luminance" maskUnits="userSpaceOnUse" x="-12" y="0" width="400" height="267">
<path d="M388 0H-12V266.667H388V0Z" fill="white"/>
</mask>
<g mask="url(#mask36_14328_10957)">
<path d="M163.733 153.133L162.933 152.2C164.2 151.133 165 149.533 165 147.867C165 144.8 162.467 142.267 159.4 142.267C158.267 142.267 157.133 142.6 156.2 143.267L155.467 142.267C156.6 141.467 158 141.067 159.4 141.067C163.2 141.067 166.267 144.133 166.267 147.933C166.267 149.867 165.333 151.8 163.733 153.133Z" fill="#FDFCFA"/>
</g>
<mask id="mask37_14328_10957" style="mask-type:luminance" maskUnits="userSpaceOnUse" x="-12" y="0" width="400" height="267">
<path d="M388 0H-12V266.667H388V0Z" fill="white"/>
</mask>
<g mask="url(#mask37_14328_10957)">
<path d="M159.4 154.667C155.6 154.667 152.533 151.6 152.533 147.8C152.533 145.6 153.6 143.467 155.467 142.2L156.2 143.2C154.733 144.267 153.8 145.933 153.8 147.8C153.8 150.867 156.333 153.4 159.4 153.4C160.667 153.4 161.933 152.933 162.933 152.133L163.733 153.067C162.533 154.133 161 154.667 159.4 154.667Z" fill="#5FEBD6"/>
</g>
<mask id="mask38_14328_10957" style="mask-type:luminance" maskUnits="userSpaceOnUse" x="-12" y="0" width="400" height="267">
<path d="M388 0H-12V266.667H388V0Z" fill="white"/>
</mask>
<g mask="url(#mask38_14328_10957)">
<path d="M174.466 154.667C170.666 154.667 167.6 151.6 167.6 147.8H168.866C168.866 150.867 171.4 153.4 174.466 153.4C175.6 153.4 176.666 153.067 177.6 152.467L178.266 153.467C177.2 154.267 175.866 154.667 174.466 154.667Z" fill="#FDFCFA"/>
</g>
<mask id="mask39_14328_10957" style="mask-type:luminance" maskUnits="userSpaceOnUse" x="-12" y="0" width="400" height="267">
<path d="M388 0H-12V266.667H388V0Z" fill="white"/>
</mask>
<g mask="url(#mask39_14328_10957)">
<path d="M178.334 153.533L177.667 152.533C179.2 151.467 180.134 149.733 180.134 147.867C180.134 144.8 177.6 142.267 174.534 142.267C171.467 142.267 168.934 144.8 168.934 147.867H167.667C167.667 144.067 170.734 141 174.534 141C178.334 141 181.4 144.067 181.4 147.867C181.334 150.133 180.2 152.2 178.334 153.533Z" fill="#5FEBD6"/>
</g>
<mask id="mask40_14328_10957" style="mask-type:luminance" maskUnits="userSpaceOnUse" x="-12" y="0" width="400" height="267">
<path d="M388 0H-12V266.667H388V0Z" fill="white"/>
</mask>
<g mask="url(#mask40_14328_10957)">
<path d="M189.534 154.667C185.734 154.667 182.667 151.6 182.667 147.8C182.667 144 185.734 140.933 189.534 140.933C190.934 140.933 192.2 141.333 193.334 142.133L192.667 143.2C191.734 142.6 190.667 142.267 189.534 142.267C186.467 142.267 183.934 144.8 183.934 147.867C183.934 150.933 186.467 153.467 189.534 153.467C191.867 153.467 194 152 194.8 149.8L196 150.2C195 152.867 192.4 154.667 189.534 154.667Z" fill="#FDFCFA"/>
</g>
<mask id="mask41_14328_10957" style="mask-type:luminance" maskUnits="userSpaceOnUse" x="-12" y="0" width="400" height="267">
<path d="M388 0H-12V266.667H388V0Z" fill="white"/>
</mask>
<g mask="url(#mask41_14328_10957)">
<path d="M196 150.2L194.8 149.8C195 149.2 195.134 148.533 195.134 147.867C195.134 146 194.2 144.267 192.667 143.2L193.334 142.133C195.2 143.4 196.334 145.533 196.334 147.8C196.4 148.667 196.267 149.467 196 150.2Z" fill="#5FEBD6"/>
</g>
<mask id="mask42_14328_10957" style="mask-type:luminance" maskUnits="userSpaceOnUse" x="-12" y="0" width="400" height="267">
<path d="M388 0H-12V266.667H388V0Z" fill="white"/>
</mask>
<g mask="url(#mask42_14328_10957)">
<path d="M159.467 57.3334H152C151.6 57.3334 151.267 57 151.267 56.6C151.267 56.2 151.6 55.8667 152 55.8667H159.467C159.867 55.8667 160.2 56.2 160.2 56.6C160.2 57 159.867 57.3334 159.467 57.3334Z" fill="#3855C2"/>
</g>
<mask id="mask43_14328_10957" style="mask-type:luminance" maskUnits="userSpaceOnUse" x="-12" y="0" width="400" height="267">
<path d="M388 0H-12V266.667H388V0Z" fill="white"/>
</mask>
<g mask="url(#mask43_14328_10957)">
<path d="M196.867 57.3334H178.667C178.267 57.3334 177.934 57 177.934 56.6C177.934 56.2 178.267 55.8667 178.667 55.8667H196.867C197.267 55.8667 197.6 56.2 197.6 56.6C197.6 57 197.267 57.3334 196.867 57.3334Z" fill="#3855C2"/>
</g>
<mask id="mask44_14328_10957" style="mask-type:luminance" maskUnits="userSpaceOnUse" x="-12" y="0" width="400" height="267">
<path d="M388 0H-12V266.667H388V0Z" fill="white"/>
</mask>
<g mask="url(#mask44_14328_10957)">
<path d="M195.333 143.333C195.867 141.933 197.333 141.133 198.867 141.667L208.333 145.733C211.067 146.933 212 150.267 210 152L207.133 154.533L198.133 150C195.667 148.733 194.467 145.8 195.333 143.333Z" fill="#F5A07C"/>
</g>
<mask id="mask45_14328_10957" style="mask-type:luminance" maskUnits="userSpaceOnUse" x="-12" y="0" width="400" height="267">
<path d="M388 0H-12V266.667H388V0Z" fill="white"/>
</mask>
<g mask="url(#mask45_14328_10957)">
<path d="M201.133 142.8C204.067 144.267 205.333 144.6 203.8 147.4C203.2 148.467 201.333 148 198.933 146.6C196.533 145.267 195.067 143.267 195.667 142.2C196.333 141.2 198.667 141.6 201.133 142.8Z" fill="#E44C37"/>
</g>
<mask id="mask46_14328_10957" style="mask-type:luminance" maskUnits="userSpaceOnUse" x="-12" y="0" width="400" height="267">
<path d="M388 0H-12V266.667H388V0Z" fill="white"/>
</mask>
<g mask="url(#mask46_14328_10957)">
<path d="M305.066 262.333L265.333 280.867L249.6 256.267L243.333 246.467L239 239.667C235.533 234.2 229.6 230.667 223.133 230.267C219 230 215.133 228.6 211.8 226.4C208.466 224.2 205.666 221.133 203.8 217.467L192.4 195.267C190.6 191.8 191.933 187.533 195.333 185.667L203.8 181L207.333 185.667L247.066 184.8L240.866 172.6L244.2 170.867C247.866 169 252.333 170.467 254.2 174.133L254.533 174.8C257.8 181.267 260.666 188 263 194.867L266.933 207C269 213.467 272.2 219.533 276.333 224.867L278.2 227.267L285.8 237.2L305.066 262.333Z" fill="#F5A07C"/>
</g>
<mask id="mask47_14328_10957" style="mask-type:luminance" maskUnits="userSpaceOnUse" x="-12" y="0" width="400" height="267">
<path d="M388 0H-12V266.667H388V0Z" fill="white"/>
</mask>
<g mask="url(#mask47_14328_10957)">
<path d="M216 175.6L203.467 194.467L193.667 187L210.334 165.133C211.534 163.6 213.867 163.533 215.134 165L215.467 165.4C217.867 168.333 218.134 172.467 216 175.6Z" fill="#F5A07C"/>
</g>
<mask id="mask48_14328_10957" style="mask-type:luminance" maskUnits="userSpaceOnUse" x="-12" y="0" width="400" height="267">
<path d="M388 0H-12V266.667H388V0Z" fill="white"/>
</mask>
<g mask="url(#mask48_14328_10957)">
<path d="M231.067 187.8L217.533 198L179.067 141C177.867 139.2 177.533 136.933 178.267 134.933C178.667 133.8 179.667 133.067 180.8 132.933L181.467 132.867C183.333 132.733 185.067 133.467 186.267 134.867L231.067 187.8Z" fill="#F5A07C"/>
</g>
<mask id="mask49_14328_10957" style="mask-type:luminance" maskUnits="userSpaceOnUse" x="-12" y="0" width="400" height="267">
<path d="M388 0H-12V266.667H388V0Z" fill="white"/>
</mask>
<g mask="url(#mask49_14328_10957)">
<path d="M392.2 349.2C420.066 420.067 413.333 489.133 377.133 503.333C340.933 517.6 289 471.667 261.066 400.733C244.666 359.067 240.266 318.067 246.733 288.467C248.266 281.467 250.4 275.133 253.133 269.533C259.066 264.2 267.533 258.533 277.333 253.667C285.266 249.733 293.066 246.8 299.866 245.067C307.066 246.6 314.466 249.8 321.933 254.4C348.266 270.8 374.866 305.2 392.2 349.2Z" fill="#0880AE"/>
</g>
<mask id="mask50_14328_10957" style="mask-type:luminance" maskUnits="userSpaceOnUse" x="-12" y="0" width="400" height="267">
<path d="M388 0H-12V266.667H388V0Z" fill="white"/>
</mask>
<g mask="url(#mask50_14328_10957)">
<path d="M184.133 134.467C186.2 137.333 187.266 138.267 183.533 140.6C182.133 141.467 180.466 140.133 178.933 137.6C177.4 135.067 177.333 132.333 178.8 131.467C180.2 130.6 182.4 132.067 184.133 134.467Z" fill="#E44C37"/>
</g>
<mask id="mask51_14328_10957" style="mask-type:luminance" maskUnits="userSpaceOnUse" x="-12" y="0" width="400" height="267">
<path d="M388 0H-12V266.667H388V0Z" fill="white"/>
</mask>
<g mask="url(#mask51_14328_10957)">
<path d="M196.333 160.333C196.133 160.333 196 160.2 196 160C196 159.4 198.667 156.867 201.267 156.2C201.467 156.133 201.6 156.267 201.667 156.4C201.733 156.6 201.6 156.733 201.467 156.8C199 157.467 196.867 159.6 196.667 160C196.6 160.267 196.467 160.333 196.333 160.333Z" fill="#A65137"/>
</g>
<mask id="mask52_14328_10957" style="mask-type:luminance" maskUnits="userSpaceOnUse" x="-12" y="0" width="400" height="267">
<path d="M388 0H-12V266.667H388V0Z" fill="white"/>
</mask>
<g mask="url(#mask52_14328_10957)">
<path d="M199.267 161.8C199.2 161.8 199.134 161.8 199.067 161.733C198.934 161.667 198.867 161.4 199 161.267C199.067 161.2 200.467 159.067 202.067 158.8C202.267 158.733 202.4 158.867 202.467 159.067C202.467 159.267 202.4 159.4 202.2 159.467C200.867 159.733 199.534 161.667 199.534 161.667C199.467 161.733 199.334 161.8 199.267 161.8Z" fill="#A65137"/>
</g>
<mask id="mask53_14328_10957" style="mask-type:luminance" maskUnits="userSpaceOnUse" x="-12" y="0" width="400" height="267">
<path d="M388 0H-12V266.667H388V0Z" fill="white"/>
</mask>
<g mask="url(#mask53_14328_10957)">
<path d="M248.8 192.133L237.867 202.6L205.533 165.333L206.8 164.467C210.133 162.2 214.4 162.2 217.8 164.333L226.867 170.2C229 171.6 231 173.2 232.733 175.067L248.8 192.133Z" fill="#F5A07C"/>
</g>
<mask id="mask54_14328_10957" style="mask-type:luminance" maskUnits="userSpaceOnUse" x="-12" y="0" width="400" height="267">
<path d="M388 0H-12V266.667H388V0Z" fill="white"/>
</mask>
<g mask="url(#mask54_14328_10957)">
<path d="M254.867 189.667L244.933 196.2L229.467 172.667L230.733 171.8C235.533 168.667 241.933 170 245.067 174.733L254.867 189.667Z" fill="#F5A07C"/>
</g>
<mask id="mask55_14328_10957" style="mask-type:luminance" maskUnits="userSpaceOnUse" x="-12" y="0" width="400" height="267">
<path d="M388 0H-12V266.667H388V0Z" fill="white"/>
</mask>
<g mask="url(#mask55_14328_10957)">
<path d="M218.8 206.4C217.066 209.4 212.333 209.4 212.066 205.133C211.8 200.8 211.066 191.867 210.6 191.067C213.266 196.133 216.266 201.8 218.8 206.4Z" fill="#142736"/>
</g>
<mask id="mask56_14328_10957" style="mask-type:luminance" maskUnits="userSpaceOnUse" x="-12" y="0" width="400" height="267">
<path d="M388 0H-12V266.667H388V0Z" fill="white"/>
</mask>
<g mask="url(#mask56_14328_10957)">
<path d="M219.733 208.4C219.6 208.4 219.533 208.333 219.466 208.267C219.133 207.733 218.866 207.2 218.533 206.6C216.4 202.733 213.666 197.533 210.333 191.2V191.133C208.2 183.333 195.333 165.933 195.2 165.8C195.066 165.667 195.133 165.467 195.266 165.333C195.4 165.2 195.6 165.267 195.733 165.4C196.266 166.133 208.8 183 211 190.933C214.266 197.267 217.066 202.4 219.133 206.267C219.466 206.867 219.733 207.4 220.066 207.933C220.133 208.067 220.066 208.267 219.933 208.4C219.866 208.4 219.8 208.4 219.733 208.4Z" fill="#A65137"/>
</g>
<mask id="mask57_14328_10957" style="mask-type:luminance" maskUnits="userSpaceOnUse" x="-12" y="0" width="400" height="267">
<path d="M388 0H-12V266.667H388V0Z" fill="white"/>
</mask>
<g mask="url(#mask57_14328_10957)">
<path d="M229.2 189.467C229.066 189.467 228.933 189.4 228.866 189.267C226.4 182.933 193.8 144.333 193.533 144.133C193.4 144.067 193.333 143.867 193.466 143.667C193.533 143.533 193.8 143.467 193.933 143.6C194.2 143.733 226.866 182.4 229.466 189.067C229.533 189.267 229.466 189.4 229.266 189.467C229.333 189.467 229.266 189.467 229.2 189.467Z" fill="#A65137"/>
</g>
<mask id="mask58_14328_10957" style="mask-type:luminance" maskUnits="userSpaceOnUse" x="-12" y="0" width="400" height="267">
<path d="M388 0H-12V266.667H388V0Z" fill="white"/>
</mask>
<g mask="url(#mask58_14328_10957)">
<path d="M239 183.933C238.867 183.933 238.734 183.867 238.734 183.733C234.6 174.867 228.067 171.467 228 171.4C227.867 171.333 227.8 171.133 227.867 170.933C227.934 170.8 228.134 170.733 228.334 170.8C228.4 170.867 235.134 174.333 239.334 183.4C239.4 183.533 239.334 183.733 239.2 183.867C239.134 183.867 239.067 183.933 239 183.933Z" fill="#A65137"/>
</g>
<mask id="mask59_14328_10957" style="mask-type:luminance" maskUnits="userSpaceOnUse" x="-12" y="0" width="400" height="267">
<path d="M388 0H-12V266.667H388V0Z" fill="white"/>
</mask>
<g mask="url(#mask59_14328_10957)">
<path d="M247.6 179.6C247.466 179.6 247.333 179.533 247.333 179.4C244.2 172.6 240.133 171.8 240.066 171.8C239.866 171.8 239.8 171.6 239.8 171.4C239.8 171.2 240 171.133 240.2 171.133C240.4 171.133 244.666 172 247.933 179.133C248 179.267 247.933 179.467 247.8 179.533C247.733 179.6 247.666 179.6 247.6 179.6Z" fill="#A65137"/>
</g>
<mask id="mask60_14328_10957" style="mask-type:luminance" maskUnits="userSpaceOnUse" x="-12" y="0" width="400" height="267">
<path d="M388 0H-12V266.667H388V0Z" fill="white"/>
</mask>
<g mask="url(#mask60_14328_10957)">
<path d="M210.067 190.267C210 190.267 209.934 190.267 209.934 190.2C206.734 188.4 202.4 189.133 200 189.533C199.134 189.667 198.667 189.733 198.4 189.733C198.2 189.733 198.067 189.533 198.134 189.333C198.134 189.133 198.334 189 198.534 189.067C198.734 189.067 199.267 189 199.934 188.867C202.334 188.467 206.867 187.733 210.267 189.6C210.4 189.667 210.467 189.867 210.4 190.067C210.267 190.2 210.2 190.267 210.067 190.267Z" fill="#A65137"/>
</g>
<path d="M45.6002 138.533L41.8002 144.333L35.8002 140.4C34.2002 139.333 33.7335 137.2 34.8002 135.6C35.8669 134 38.0002 133.533 39.6002 134.6L45.6002 138.533Z" fill="#142736"/>
<path d="M85.466 164.733L83.9993 165.933C87.3326 156.333 82.866 144.467 72.5326 137.733C62.466 131.133 50.066 131.533 42.5326 138.067L42.7993 136.4L39.1326 141.933C32.5326 152 36.7326 166.467 48.5993 174.267C59.9993 181.733 74.3326 180.267 81.266 171.067C81.5326 170.733 85.466 164.733 85.466 164.733Z" fill="#142736"/>
<path d="M85.1174 165.191C91.7378 155.091 87.5194 140.621 75.6954 132.87C63.8714 125.119 48.9192 127.024 42.2988 137.123C35.6784 147.223 39.8968 161.694 51.7208 169.444C63.5448 177.195 78.497 175.291 85.1174 165.191Z" fill="#B4CFF7"/>
<path d="M81.9329 163.067C81.8662 163.134 81.7996 163.2 81.7329 163.334C81.7329 163.334 81.7329 163.334 81.7329 163.4C75.9996 171.734 63.5329 173.267 53.5329 166.734C43.7329 160.334 40.0662 148.467 45.1329 139.867C45.2662 139.667 45.3996 139.467 45.5329 139.267C51.1329 130.667 63.8662 129.067 73.9329 135.667C83.9996 142.2 87.5329 154.534 81.9329 163.067Z" fill="#142736"/>
<path d="M81.7329 163.333C75.9996 171.667 63.4662 173.2 53.5329 166.667C43.7329 160.267 40.0662 148.4 45.1329 139.8C50.7996 131.467 63.3996 129.933 73.3329 136.467C83.1996 142.933 86.8662 154.8 81.7329 163.333Z" fill="white"/>
<path d="M59.333 137.267C61.533 142 63.533 146.934 64.1997 152.134L63.7997 151.8C67.7997 150.267 72.0663 149.6 76.333 149.734C72.3997 151.467 68.1997 152.4 63.933 152.467H63.5997L63.533 152.134C61.5997 147.4 60.1997 142.4 59.333 137.267Z" fill="#142736"/>
<path d="M252.199 135.2L251.333 133.2C250.399 131.067 250.066 129 250.466 126.933C250.199 126.933 249.933 127 249.666 127C245.799 127.067 242.133 125.467 239.599 122.467L238.199 120.8L238.666 120.4L240.066 122.067C242.466 124.933 245.933 126.467 249.599 126.4C249.933 126.4 250.266 126.4 250.599 126.333C251.533 122.6 254.799 119.067 260.466 115.667L267.066 110.733L284.999 86.8001C285.799 85.7334 286.999 85.0667 288.333 84.9334C289.666 84.8001 290.933 85.2667 291.933 86.1334C292.933 87.0667 293.533 88.4001 293.399 89.8001C293.333 91.2001 292.666 92.4667 291.533 93.3334L267.466 111.2L259.399 122C257.333 124.733 254.333 126.467 250.999 126.933C250.599 128.867 250.933 130.867 251.866 133L252.733 135L252.199 135.2ZM265.733 112.467L260.799 116.133C255.333 119.4 252.199 122.733 251.199 126.2C254.266 125.733 256.999 124.067 258.933 121.533L265.733 112.467ZM288.733 85.5334C288.599 85.5334 288.466 85.5334 288.333 85.5334C287.199 85.6667 286.133 86.2001 285.466 87.1334L268.799 109.4L291.133 92.8001C292.133 92.0667 292.666 91.0001 292.733 89.7334C292.799 88.5334 292.333 87.3334 291.466 86.5334C290.733 85.9334 289.799 85.5334 288.733 85.5334Z" fill="#050E21"/>
<path d="M236.666 117.2C235.066 118.467 235.199 121.267 236.933 123.334C238.666 125.467 241.333 126.134 242.933 124.867C244.533 123.6 244.399 120.8 242.666 118.734C240.933 116.6 238.266 115.934 236.666 117.2Z" fill="white"/>
<path d="M255.333 139.933C253.466 140.8 251.066 139.467 249.933 137C248.799 134.533 249.333 131.8 251.199 131C253.066 130.133 255.466 131.467 256.599 133.933C257.799 136.333 257.199 139.067 255.333 139.933Z" fill="white"/>
<path d="M294.599 158.6C293.266 149.933 300.999 136.333 309.132 122C319.999 102.933 331.199 83.1334 321.732 73.8001C319.466 71.5334 316.799 70.5334 313.732 70.7334C303.399 71.4668 292.066 86.4001 291.999 86.6001L291.466 86.2001C291.932 85.6001 303.066 70.8668 313.732 70.0668C316.999 69.8001 319.866 70.9334 322.266 73.3334C332.066 83.0668 320.732 103 309.732 122.333C301.599 136.6 293.999 150.133 295.266 158.533L294.599 158.6Z" fill="#050E21"/>
<path d="M293.466 161.333L293.399 161.4L290.132 163.8L290.066 161.467C288.466 160.533 287.466 158.267 287.532 155.6C287.599 153.333 288.466 151.4 289.732 150.333L289.666 147.4L293.466 149.933C295.066 150.867 296.132 153.133 295.999 155.8C295.866 158.333 294.866 160.4 293.466 161.333Z" fill="#7995BF"/>
<path d="M293.153 155.821C293.336 149.638 290.083 144.525 285.887 144.4C281.692 144.276 278.142 149.188 277.959 155.371C277.775 161.554 281.028 166.667 285.224 166.791C289.42 166.916 292.969 162.004 293.153 155.821Z" fill="#B4CFF7"/>
<path d="M281.333 155.467C281.2 158.867 283.066 161.733 285.333 161.8C287.666 161.867 289.6 159.133 289.733 155.733C289.866 152.333 288 149.467 285.733 149.4C283.4 149.333 281.466 152.067 281.333 155.467Z" fill="#050E21"/>
<path d="M57.8661 74.6002L95.5327 81.0002C97.6661 81.3336 100.333 80.2002 101.533 78.4669L112.933 61.4669C114.133 59.7336 113.333 58.0002 111.199 57.6669L73.5327 51.2669C71.3994 50.9336 68.7327 52.0669 67.5327 53.8002L56.1327 70.8002C54.9327 72.5336 55.7327 74.2669 57.8661 74.6002Z" fill="#142736"/>
<path d="M118.399 87.4001L80.7327 81.0001C78.5994 80.6668 76.4661 78.5335 75.9994 76.2001L71.2661 54.2001C70.7994 51.9335 72.1327 50.4001 74.1994 50.7335L111.866 57.1335C113.999 57.4668 116.133 59.6001 116.599 61.9335L121.333 83.9335C121.866 86.2001 120.533 87.8001 118.399 87.4001Z" fill="white"/>
<path d="M84.5326 66.6002L77.466 65.4002L75.9326 58.2668L82.9993 59.4668L84.5326 66.6002Z" fill="#B4CFF7"/>
<path d="M94.9994 68.4002L87.9327 67.2002L86.3994 60.0669L93.3994 61.2669L94.9994 68.4002Z" fill="#B4CFF7"/>
<path d="M105.466 70.2001L98.3995 69.0001L96.8662 61.8L103.866 63.0001L105.466 70.2001Z" fill="#B4CFF7"/>
<path d="M115.866 72.0001L108.866 70.8001L107.266 63.6001L114.332 64.8001L115.866 72.0001Z" fill="#B4CFF7"/>
<path d="M86.6664 76.5335L79.5997 75.3335L78.0664 68.1335L85.1331 69.3335L86.6664 76.5335Z" fill="#B4CFF7"/>
<path d="M97.1332 78.3336L90.0665 77.1336L88.5332 69.9336L95.5999 71.1336L97.1332 78.3336Z" fill="#B4CFF7"/>
<path d="M107.599 80.0667L100.532 78.8667L98.999 71.7334L105.999 72.9334L107.599 80.0667Z" fill="#B4CFF7"/>
<path d="M117.999 81.8668L110.999 80.6668L109.399 73.4668L116.466 74.6668L117.999 81.8668Z" fill="#B4CFF7"/>
<path d="M82.6659 55.4669C82.5326 55.4669 82.4659 55.4002 82.3992 55.3335C82.2659 55.2002 82.3326 55.0002 82.4659 54.8669C83.1326 54.4002 83.4659 53.6002 83.4659 52.6669C83.4659 51.6669 83.0659 50.5335 82.3992 49.6002C81.7326 48.6002 80.7992 47.9335 79.7992 47.5335C78.8659 47.2002 77.9992 47.2669 77.3992 47.7335C76.5326 48.3335 76.1992 49.6002 76.5326 51.0002C76.5992 51.2002 76.4659 51.3335 76.2659 51.4002C76.0659 51.4669 75.9326 51.3335 75.8659 51.1335C75.4659 49.4669 75.8659 47.9335 76.9992 47.1335C77.7992 46.5335 78.8659 46.4669 79.9992 46.8669C81.0659 47.2669 82.1326 48.0669 82.8659 49.1335C83.6659 50.2002 84.0659 51.4669 84.0659 52.6002C84.0659 53.8002 83.5992 54.8002 82.7992 55.4002C82.7992 55.4669 82.7326 55.4669 82.6659 55.4669Z" fill="#142736"/>
<path d="M91.7323 57.0001C91.599 57.0001 91.5323 56.9334 91.4656 56.8668C91.3323 56.7334 91.399 56.5334 91.5323 56.4001C92.8656 55.4668 92.8656 53.0668 91.4656 51.0668C90.799 50.0668 89.8656 49.4001 88.8656 49.0001C87.9323 48.6668 87.0656 48.7334 86.4656 49.2001C85.599 49.8001 85.2656 51.0668 85.599 52.4668C85.6656 52.6668 85.5323 52.8001 85.3323 52.8668C85.1323 52.9334 84.999 52.8001 84.9323 52.6001C84.5323 50.9334 84.9323 49.4001 86.0656 48.6001C86.8656 48.0001 87.9323 47.9334 89.0656 48.3334C90.1323 48.7334 91.199 49.5334 91.9323 50.6001C93.5323 52.8668 93.5323 55.6668 91.8656 56.8668C91.8656 57.0001 91.799 57.0001 91.7323 57.0001Z" fill="#142736"/>
<path d="M100.732 58.5335C100.599 58.5335 100.532 58.4669 100.466 58.4002C100.332 58.2669 100.399 58.0669 100.532 57.9335C101.866 57.0002 101.866 54.6002 100.466 52.6002C99.0656 50.6002 96.799 49.8002 95.4656 50.7335C94.599 51.3335 94.2656 52.6002 94.599 54.0002C94.6656 54.2002 94.5323 54.3335 94.3323 54.4002C94.1323 54.4669 93.999 54.3335 93.9323 54.1335C93.5323 52.4669 93.9323 50.9335 95.0656 50.1335C96.7323 48.9335 99.399 49.8669 100.999 52.1335C102.599 54.4002 102.599 57.2002 100.932 58.4002C100.866 58.5335 100.799 58.5335 100.732 58.5335Z" fill="#142736"/>
<path d="M109.732 60.067C109.599 60.067 109.532 60.0003 109.466 59.9336C109.332 59.8003 109.399 59.6003 109.532 59.467C110.199 59.0003 110.532 58.2003 110.532 57.267C110.532 56.267 110.132 55.1336 109.466 54.2003C108.066 52.2003 105.799 51.4003 104.466 52.3336C103.599 52.9336 103.266 54.2003 103.599 55.6003C103.666 55.8003 103.532 55.9336 103.332 56.0003C103.132 56.067 102.999 55.9336 102.932 55.7336C102.532 54.067 102.932 52.5336 104.066 51.7336C105.732 50.5336 108.399 51.467 109.999 53.7336C110.799 54.8003 111.199 56.067 111.199 57.2003C111.199 58.4003 110.732 59.4003 109.932 60.0003C109.866 60.067 109.799 60.067 109.732 60.067Z" fill="#142736"/>
<path d="M269.2 54.3334C271 52.7334 272.4 50.6001 272.867 47.9334C273.667 43.0667 271.067 38.1334 266.6 36.1334C262.8 34.4001 258.667 35.1334 255.667 37.3334C254.4 33.8001 251.4 30.9334 247.267 30.2001C242.4 29.3334 237.467 31.9334 235.467 36.4667C234.333 38.9334 234.267 41.4667 234.867 43.8L235.467 45.4667C235.6 45.8 235.733 46.0667 235.933 46.4001L242.867 60.2001C244.867 64.1334 249.733 65.6 253.533 63.4667L266.933 55.8667C267.2 55.7334 267.4 55.6 267.667 55.4667L269.2 54.3334Z" fill="#E44C37"/>
<path d="M255.266 55.1335C254.8 55.1335 254.4 54.8001 254.066 54.4001C253.8 54.2001 253.533 53.8668 253.333 53.8668C253.133 53.8668 252.866 54.1335 252.6 54.4001C252.2 54.7335 251.866 55.0668 251.4 55.0668C250.933 55.0668 250.6 54.6668 250.2 54.3335C250 54.0668 249.666 53.8001 249.533 53.8001C249.333 53.8001 249.066 54.0668 248.8 54.2668C248.4 54.6001 248 54.9335 247.6 54.8668C247.133 54.8668 246.8 54.4668 246.466 54.0668C246.266 53.8001 246 53.5335 245.8 53.5335C245.6 53.5335 245.266 53.7335 245 54.0001C244.6 54.3335 244.2 54.6001 243.733 54.6001C243.266 54.5335 242.933 54.1335 242.6 53.7335C242.4 53.4668 242.133 53.2001 241.933 53.1335C241.733 53.1335 241.4 53.3335 241.133 53.5335C240.733 53.8001 240.333 54.1335 239.866 54.0668L240 53.4001C240.133 53.4001 240.533 53.2001 240.8 53.0001C241.2 52.7335 241.6 52.4001 242.066 52.4668C242.533 52.5335 242.8 52.9335 243.133 53.2668C243.333 53.5335 243.6 53.8668 243.8 53.8668C244 53.8668 244.333 53.6668 244.533 53.4668C244.933 53.1335 245.333 52.8668 245.8 52.8668C246.266 52.9335 246.6 53.2668 246.933 53.6668C247.2 53.9335 247.466 54.2001 247.666 54.2668C247.866 54.2668 248.133 54.0001 248.4 53.8001C248.8 53.4668 249.2 53.1335 249.666 53.2001C250.133 53.2001 250.466 53.6001 250.8 53.9335C251.066 54.2001 251.333 54.4668 251.533 54.4668C251.733 54.4668 252 54.2001 252.266 54.0001C252.666 53.6668 253 53.3335 253.466 53.3335C253.933 53.3335 254.266 53.6668 254.666 54.0668C254.933 54.3335 255.2 54.6001 255.4 54.6001C255.6 54.6001 255.866 54.3335 256.133 54.0668C256.466 53.7335 256.866 53.4001 257.333 53.3335C257.8 53.3335 258.133 53.6668 258.533 54.0001C258.8 54.2001 259.066 54.4668 259.266 54.4668C259.466 54.4668 259.733 54.1335 260 53.9335C260.333 53.6001 260.666 53.2001 261.133 53.2001C261.6 53.2001 262 53.5335 262.4 53.8001C262.666 54.0001 263 54.2668 263.133 54.2668C263.333 54.2668 263.6 53.9335 263.866 53.6668C264.2 53.3335 264.533 52.9335 265 52.8668C265.466 52.8001 265.866 53.1335 266.266 53.4668C266.533 53.6668 266.866 53.9335 267 53.8668C267.2 53.8668 267.466 53.5335 267.666 53.2668C268 52.8668 268.333 52.5335 268.733 52.4668C269.2 52.4001 269.6 52.7335 270 53.0001C270.266 53.2001 270.6 53.4001 270.8 53.4001C271 53.4001 271.266 53.0668 271.466 52.7335C271.733 52.3335 272.066 51.9335 272.466 51.8668C272.933 51.8001 273.333 52.0668 273.8 52.3335C274.066 52.5335 274.4 52.7335 274.6 52.6668C274.8 52.6001 275 52.2668 275.2 51.9335C275.466 51.5335 275.733 51.1335 276.133 51.0001C276.6 50.8668 277.066 51.1335 277.533 51.3335C277.8 51.4668 278.2 51.6668 278.333 51.6001C278.533 51.5335 278.733 51.1335 278.866 50.8001C279.066 50.4001 279.266 49.9335 279.666 49.8001C280.133 49.6001 280.6 49.8001 281.066 49.9335C281.333 50.0001 281.733 50.1335 281.866 50.0668C282.066 49.9335 282.133 49.4668 282.2 49.0668C282.266 48.6668 282.333 48.2668 282.533 48.0001C282.8 47.7335 283.2 47.5335 283.6 47.4001C283.866 47.2668 284.333 47.0668 284.333 47.0001C284.333 46.8668 283.866 46.6668 283.6 46.6001C283.2 46.4668 282.8 46.2668 282.533 46.0001C282.266 45.7335 282.266 45.3335 282.2 44.9335C282.133 44.5335 282.066 44.0668 281.866 43.9335C281.733 43.8668 281.333 44.0001 281.066 44.0668C280.6 44.2001 280.066 44.4001 279.666 44.2001C279.266 44.0668 279.066 43.6001 278.866 43.2001C278.733 42.8668 278.533 42.4668 278.333 42.4001C278.2 42.3335 277.8 42.5335 277.533 42.6668C277.066 42.8668 276.6 43.1335 276.133 43.0001C275.733 42.8668 275.466 42.4668 275.2 42.0668C275 41.7335 274.8 41.4001 274.6 41.3335C274.4 41.2668 274.066 41.5335 273.8 41.6668C273.4 41.9335 272.933 42.2001 272.466 42.1335L272.6 41.4668C272.8 41.5335 273.133 41.2668 273.466 41.1335C273.866 40.8668 274.333 40.6001 274.733 40.7335C275.2 40.8668 275.466 41.2668 275.8 41.7335C276 42.0001 276.2 42.3335 276.333 42.4001C276.533 42.4668 276.933 42.2668 277.2 42.1335C277.666 41.9335 278.066 41.6668 278.533 41.8001C279 41.9335 279.266 42.4668 279.466 42.9335C279.6 43.2001 279.8 43.5335 279.933 43.6001C280.133 43.6668 280.533 43.6001 280.933 43.4668C281.4 43.3335 281.866 43.2001 282.266 43.4001C282.733 43.6668 282.866 44.3335 282.933 44.8668C283 45.1335 283 45.4668 283.133 45.5335C283.333 45.7335 283.666 45.8668 283.933 46.0001C284.466 46.2668 285.066 46.4668 285.066 47.0668C285.066 47.6001 284.533 47.8668 283.933 48.1335C283.6 48.2668 283.266 48.4001 283.133 48.6001C283.066 48.6668 283 49.0001 282.933 49.2668C282.866 49.8001 282.733 50.4668 282.266 50.7335C281.866 50.9335 281.4 50.8001 280.933 50.6668C280.6 50.5335 280.2 50.4668 279.933 50.5335C279.8 50.6001 279.6 50.9335 279.466 51.2001C279.266 51.6668 279 52.2001 278.533 52.3335C278.133 52.4668 277.666 52.2668 277.2 52.0001C276.866 51.8668 276.533 51.6668 276.333 51.7335C276.2 51.8001 275.933 52.1335 275.8 52.4001C275.533 52.8668 275.2 53.2668 274.733 53.4001C274.266 53.4668 273.866 53.2001 273.466 53.0001C273.133 52.8001 272.8 52.6001 272.6 52.6668C272.4 52.6668 272.2 53.0001 272 53.2668C271.666 53.6668 271.4 54.1335 270.933 54.2001C270.466 54.2668 270.066 54.0001 269.666 53.6668C269.4 53.4668 269.066 53.2001 268.866 53.2668C268.666 53.2668 268.4 53.6001 268.2 53.8668C267.866 54.2668 267.533 54.6668 267.066 54.7335C266.6 54.8001 266.2 54.4668 265.8 54.1335C265.533 53.9335 265.2 53.6668 265 53.6668C264.8 53.6668 264.533 54.0001 264.333 54.2001C264 54.6001 263.666 54.9335 263.2 55.0001C262.733 55.0001 262.333 54.7335 262 54.4001C261.733 54.2001 261.4 53.9335 261.2 53.9335C261 53.9335 260.733 54.2668 260.533 54.4668C260.2 54.8001 259.8 55.2001 259.333 55.2001C258.866 55.2001 258.466 54.8668 258.133 54.5335C257.866 54.2668 257.6 54.0001 257.4 54.0001C257.2 54.0001 256.933 54.2668 256.666 54.5335C256.133 54.8001 255.733 55.1335 255.266 55.1335Z" fill="white"/>
<path d="M239.799 54.0001C239.333 53.9334 238.999 53.5334 238.733 53.0667C238.533 52.8001 238.266 52.4667 238.133 52.4667C237.933 52.4001 237.599 52.6667 237.266 52.8001C236.866 53.0667 236.399 53.3334 235.999 53.2001C235.533 53.0667 235.266 52.6667 234.933 52.2001C234.733 51.9334 234.533 51.6001 234.399 51.5334C234.199 51.4667 233.799 51.6667 233.533 51.8001C233.066 52.0001 232.666 52.2667 232.199 52.1334C231.733 52.0001 231.466 51.4667 231.266 51.0001C231.133 50.7334 230.933 50.4001 230.799 50.3334C230.599 50.2667 230.199 50.3334 229.799 50.4667C229.333 50.6001 228.866 50.7334 228.466 50.5334C227.933 50.2667 227.866 49.6001 227.799 49.0667C227.733 48.8001 227.733 48.4667 227.599 48.4001C227.399 48.2001 227.066 48.0667 226.799 47.9334C226.266 47.6667 225.666 47.4667 225.666 46.8667C225.666 46.3334 226.199 46.0667 226.799 45.8001C227.133 45.6667 227.466 45.5334 227.599 45.3334C227.666 45.2667 227.733 44.9334 227.799 44.6667C227.866 44.1334 227.999 43.4667 228.466 43.2001C228.866 43.0001 229.333 43.1334 229.799 43.2667C230.133 43.4001 230.533 43.4667 230.799 43.4001C230.933 43.3334 231.133 43.0001 231.266 42.7334C231.466 42.2667 231.733 41.7334 232.199 41.6001C232.599 41.4667 233.066 41.6667 233.533 41.9334C233.866 42.0667 234.199 42.2667 234.399 42.2001L234.599 42.8667C234.133 43.0001 233.666 42.7334 233.199 42.5334C232.933 42.4001 232.533 42.2001 232.399 42.2667C232.199 42.3334 231.999 42.7334 231.866 43.0667C231.666 43.4667 231.466 43.9334 231.066 44.0667C230.599 44.2667 230.133 44.0667 229.666 43.9334C229.399 43.8667 228.999 43.7334 228.866 43.8001C228.666 43.9334 228.599 44.4001 228.533 44.8001C228.466 45.2001 228.399 45.6001 228.199 45.8667C227.933 46.1334 227.533 46.3334 227.133 46.4667C226.866 46.6001 226.399 46.8001 226.399 46.8667C226.399 47.0001 226.866 47.2001 227.133 47.2667C227.533 47.4001 227.933 47.6001 228.199 47.8667C228.466 48.1334 228.466 48.5334 228.533 48.9334C228.599 49.3334 228.666 49.8001 228.866 49.9334C228.999 50.0001 229.399 49.8667 229.666 49.8001C230.133 49.6667 230.666 49.4667 231.066 49.6667C231.466 49.8001 231.666 50.2667 231.866 50.6667C231.999 51.0001 232.199 51.4001 232.399 51.4667C232.533 51.5334 232.933 51.3334 233.199 51.2001C233.666 51.0001 234.133 50.7334 234.599 50.8667C234.999 51.0001 235.266 51.4001 235.533 51.8001C235.733 52.1334 235.933 52.4667 236.133 52.5334C236.333 52.6001 236.666 52.3334 236.933 52.2001C237.333 51.9334 237.799 51.6667 238.266 51.7334C238.666 51.8001 238.999 52.2001 239.266 52.6001C239.466 52.8667 239.733 53.2001 239.933 53.2667L239.799 54.0001Z" fill="white"/>
<path d="M276.333 59.3334C275.933 59.3334 275.6 59.0001 275.2 58.6668C274.933 58.4001 274.6 58.1334 274.4 58.1334C274.267 58.1334 273.933 58.4001 273.733 58.5334C273.333 58.8668 272.867 59.2001 272.4 59.1334C271.933 59.0668 271.667 58.6668 271.333 58.2668C271.133 58.0001 270.867 57.6668 270.667 57.6001C270.467 57.6001 270.133 57.8001 269.867 57.9334C269.4 58.2001 269 58.4668 268.533 58.4001C268.133 58.3334 267.8 57.8668 267.533 57.4668C267.333 57.1334 267.133 56.8001 266.933 56.8001C266.733 56.7334 266.4 56.9334 266.133 57.0668C265.667 57.3334 265.2 57.5334 264.733 57.4001L264.933 56.7334C265.133 56.8001 265.467 56.6001 265.8 56.4001C266.2 56.2001 266.667 55.9334 267.067 56.0668C267.533 56.2001 267.8 56.6001 268.067 57.0668C268.267 57.3334 268.467 57.6668 268.6 57.7334C268.8 57.8001 269.133 57.5334 269.467 57.3334C269.867 57.0668 270.267 56.8001 270.733 56.8668C271.2 56.9334 271.533 57.3334 271.8 57.7334C272 58.0001 272.267 58.3334 272.4 58.3334C272.6 58.3334 272.933 58.0668 273.267 57.8668C273.6 57.6001 274 57.2668 274.4 57.2668C274.867 57.2668 275.267 57.6668 275.667 58.0001C275.867 58.2001 276.2 58.4668 276.333 58.4668C276.6 58.4668 276.867 58.0668 277.067 57.7334C277.333 57.4001 277.533 57.0668 277.867 56.9334C278.2 56.8001 278.667 56.8001 279.067 56.8001C279.333 56.8001 279.867 56.8001 279.867 56.7334C279.933 56.6001 279.6 56.2668 279.4 56.0668C279.133 55.7334 278.867 55.4001 278.733 55.0668C278.6 54.7334 278.733 54.3334 278.867 53.9334C279 53.5334 279.133 53.1334 279 52.8668C278.933 52.7334 278.533 52.6668 278.2 52.6668C277.733 52.6001 277.2 52.5334 276.867 52.1334C276.6 51.8001 276.6 51.3334 276.6 50.8668C276.6 50.4668 276.6 50.0668 276.4 49.9334C276.267 49.8001 275.867 49.8001 275.533 49.8668C275 49.8668 274.533 49.8668 274.133 49.6001C273.8 49.3334 273.733 48.8668 273.667 48.3334C273.6 48.0001 273.533 47.5334 273.4 47.4001C273.267 47.2668 272.867 47.3334 272.533 47.4001C272.067 47.4668 271.533 47.5334 271.133 47.2668C270.8 47.0001 270.667 46.5334 270.6 46.0668C270.533 45.7334 270.467 45.3334 270.267 45.2001C270.133 45.0668 269.733 45.2001 269.4 45.2001C268.933 45.2668 268.4 45.4001 268 45.1334C267.6 44.8668 267.533 44.4001 267.4 43.9334C267.333 43.6001 267.2 43.2001 267.067 43.0668C266.933 43.0001 266.533 43.0668 266.2 43.1334C265.733 43.2668 265.2 43.3334 264.8 43.1334C264.4 42.9334 264.267 42.4001 264.133 41.9334C264 41.6001 263.933 41.2001 263.733 41.1334C263.6 41.0668 263.2 41.1334 262.867 41.2001C262.4 41.3334 261.867 41.4668 261.467 41.2668C261.067 41.0668 260.933 40.6001 260.733 40.1334C260.6 39.8001 260.467 39.4001 260.333 39.3334C260.2 39.2668 259.8 39.4001 259.467 39.4668C259 39.6001 258.467 39.7334 258.067 39.5334C257.667 39.3334 257.467 38.8668 257.333 38.4001C257.2 38.0668 257.067 37.6668 256.867 37.6001C256.667 37.5334 256.267 37.6668 256 37.7334C255.533 37.8668 255.067 38.0668 254.667 37.8668C254.267 37.6668 254.067 37.2001 253.867 36.7334C253.733 36.4001 253.6 36.0668 253.4 36.0001C253.2 35.9334 252.8 36.0668 252.533 36.2001C252.067 36.4001 251.6 36.5334 251.2 36.4001C250.8 36.2001 250.533 35.7334 250.333 35.3334C250.2 35.0001 250 34.6668 249.867 34.6001C249.667 34.5334 249.333 34.6668 249 34.8001C248.533 35.0001 248.067 35.2001 247.667 35.0001C247.267 34.8668 247 34.4001 246.8 33.9334C246.667 33.6668 246.467 33.2668 246.267 33.2001C246.067 33.1334 245.733 33.3334 245.4 33.4668C244.933 33.6668 244.533 33.8668 244.067 33.7334C243.6 33.6001 243.4 33.1334 243.133 32.7334C243 32.4668 242.8 32.0668 242.6 32.0668C242.4 32.0001 242.067 32.2001 241.733 32.4001C241.333 32.6001 240.867 32.8668 240.467 32.7334C240 32.6001 239.733 32.2001 239.467 31.7334C239.267 31.4668 239.067 31.1334 238.933 31.0668C238.733 31.0001 238.4 31.2668 238.067 31.4668C237.667 31.7334 237.267 32.0001 236.8 31.9334C236.333 31.8668 236 31.4668 235.733 31.0668C235.533 30.8001 235.267 30.4668 235.133 30.4668C234.933 30.4668 234.6 30.7334 234.267 30.9334C233.933 31.2001 233.533 31.5334 233.133 31.5334C232.667 31.5334 232.267 31.1334 231.867 30.8001C231.667 30.6001 231.333 30.3334 231.2 30.3334C230.933 30.3334 230.667 30.7334 230.467 31.0668C230.2 31.4001 230 31.7334 229.667 31.8668C229.333 32.0001 228.867 32.0001 228.467 32.0001C228.2 32.0001 227.667 32.0001 227.667 32.0668C227.6 32.2001 227.933 32.5334 228.133 32.7334C228.4 33.0668 228.667 33.4001 228.8 33.7334C228.933 34.0668 228.8 34.4668 228.667 34.8668C228.533 35.2668 228.4 35.6668 228.533 35.9334C228.6 36.0668 229 36.1334 229.333 36.1334C229.8 36.2001 230.333 36.2668 230.667 36.6668C230.933 37.0001 230.933 37.4668 230.933 37.9334C230.933 38.3334 230.933 38.7334 231.133 38.8668C231.267 39.0001 231.667 39.0001 232 38.9334C232.533 38.9334 233 38.9334 233.4 39.2001C233.733 39.4668 233.8 40.0001 233.867 40.4668C233.933 40.8001 234 41.2668 234.133 41.3334C234.2 41.4001 234.333 41.4001 234.6 41.4001L234.667 42.0668C234.4 42.0668 234 42.0668 233.733 41.8668C233.333 41.6001 233.267 41.0668 233.2 40.5334C233.133 40.2001 233.133 39.8001 233 39.7334C232.867 39.6001 232.4 39.6001 232.067 39.6001C231.6 39.6001 231.067 39.6001 230.733 39.3334C230.4 39.0001 230.333 38.4001 230.333 37.9334C230.333 37.6001 230.333 37.2668 230.2 37.1334C230.067 36.9334 229.6 36.8668 229.267 36.8668C228.8 36.8001 228.267 36.7334 228.067 36.4001C227.733 35.9334 227.933 35.3334 228.067 34.8001C228.133 34.5334 228.267 34.2001 228.2 34.0668C228.133 33.8001 227.867 33.5334 227.667 33.2668C227.267 32.8001 226.867 32.3334 227.133 31.8668C227.4 31.3334 228 31.4001 228.6 31.4001C228.933 31.4001 229.333 31.4001 229.533 31.3334C229.667 31.2668 229.867 31.0001 230 30.8001C230.333 30.3334 230.667 29.8001 231.267 29.8001C231.733 29.7334 232.067 30.1334 232.467 30.4001C232.733 30.6668 233.067 30.9334 233.267 30.9334C233.467 30.9334 233.733 30.6668 233.933 30.5334C234.333 30.2001 234.8 29.8668 235.267 29.9334C235.733 30.0001 236 30.4001 236.333 30.8001C236.533 31.0668 236.8 31.4001 237 31.4668C237.133 31.4668 237.533 31.2668 237.8 31.1334C238.267 30.8668 238.667 30.6001 239.133 30.6668C239.533 30.7334 239.867 31.2001 240.133 31.6001C240.333 31.9334 240.533 32.2668 240.733 32.2668C240.867 32.3334 241.267 32.1334 241.533 32.0001C242 31.7334 242.467 31.5334 242.933 31.6668C243.333 31.8001 243.6 32.2668 243.867 32.6668C244.067 33.0001 244.267 33.3334 244.4 33.4001C244.6 33.4668 244.933 33.2668 245.2 33.1334C245.667 32.9334 246.133 32.6668 246.6 32.8668C247 33.0001 247.267 33.4668 247.467 33.9334C247.6 34.2668 247.8 34.6001 248 34.6668C248.2 34.7334 248.533 34.6001 248.867 34.4668C249.333 34.2668 249.8 34.0668 250.267 34.2668C250.667 34.4001 250.933 34.8668 251.133 35.3334C251.267 35.6668 251.467 36.0001 251.6 36.0668C251.8 36.1334 252.133 36.0001 252.467 35.8668C252.933 35.6668 253.4 35.5334 253.867 35.6668C254.267 35.8668 254.467 36.3334 254.667 36.8001C254.8 37.1334 254.933 37.4668 255.133 37.6001C255.333 37.6668 255.667 37.5334 256 37.4668C256.467 37.3334 257 37.1334 257.4 37.3334C257.8 37.5334 258 38.0001 258.2 38.4668C258.333 38.8001 258.467 39.1334 258.6 39.2668C258.8 39.3334 259.133 39.2668 259.467 39.1334C259.933 39.0001 260.467 38.8668 260.867 39.0668C261.267 39.2668 261.467 39.8001 261.6 40.2668C261.733 40.6001 261.867 40.9334 262 41.0668C262.2 41.1334 262.533 41.0668 262.933 41.0001C263.4 40.8668 263.933 40.7334 264.333 40.9334C264.733 41.1334 264.867 41.6668 265.067 42.1334C265.133 42.4668 265.267 42.8668 265.467 42.9334C265.667 43.0001 266 42.9334 266.4 42.8668C266.867 42.7334 267.4 42.6668 267.8 42.8668C268.2 43.1334 268.333 43.6001 268.467 44.1334C268.533 44.4668 268.667 44.8668 268.8 44.9334C269 45.0668 269.333 45.0001 269.733 44.9334C270.2 44.8668 270.733 44.7334 271.067 45.0001C271.467 45.2668 271.533 45.8001 271.667 46.2668C271.733 46.6001 271.8 47.0001 271.933 47.0668C272.067 47.2001 272.533 47.1334 272.867 47.0668C273.333 47.0001 273.867 46.9334 274.2 47.2001C274.6 47.4668 274.667 48.0001 274.733 48.5334C274.8 48.8668 274.8 49.2668 274.933 49.3334C275.067 49.4668 275.533 49.4668 275.867 49.4668C276.333 49.4668 276.867 49.4668 277.2 49.7334C277.533 50.0668 277.6 50.6668 277.6 51.1334C277.6 51.4668 277.6 51.8001 277.733 51.9334C277.867 52.1334 278.333 52.2001 278.667 52.2001C279.133 52.2668 279.667 52.3334 279.867 52.6668C280.2 53.1334 280 53.7334 279.867 54.2668C279.8 54.5334 279.667 54.8668 279.733 55.0001C279.8 55.2668 280.067 55.5334 280.267 55.8001C280.667 56.2668 281.067 56.7334 280.8 57.2001C280.533 57.7334 279.933 57.6668 279.333 57.6668C279 57.6668 278.6 57.6668 278.4 57.7334C278.267 57.8001 278.067 58.0668 277.933 58.2668C277.333 58.8001 276.933 59.2668 276.333 59.3334Z" fill="white"/>
<path d="M116.667 100.267C116.667 101.067 116 101.733 115.2 101.733C114.4 101.733 113.733 101.067 113.733 100.267C113.733 99.4667 114.4 98.8 115.2 98.8C116 98.8 116.667 99.4667 116.667 100.267Z" fill="white"/>
<path d="M266.134 75.8668C266.134 76.6668 265.467 77.3335 264.667 77.3335C263.867 77.3335 263.2 76.6668 263.2 75.8668C263.2 75.0668 263.867 74.4001 264.667 74.4001C265.467 74.4001 266.134 75.0668 266.134 75.8668Z" fill="white"/>
<path d="M216.733 32.8668C216.733 33.6668 216.066 34.3335 215.266 34.3335C214.466 34.3335 213.8 33.6668 213.8 32.8668C213.8 32.0668 214.466 31.4001 215.266 31.4001C216.066 31.4001 216.733 32.0668 216.733 32.8668Z" fill="white"/>
<path d="M116.667 167.067C116.667 167.867 116 168.533 115.2 168.533C114.4 168.533 113.733 167.867 113.733 167.067C113.733 166.267 114.4 165.6 115.2 165.6C116 165.6 116.667 166.2 116.667 167.067Z" fill="white"/>
<path d="M297.467 128.4C297.467 129.2 296.8 129.867 296 129.867C295.2 129.867 294.533 129.2 294.533 128.4C294.533 127.6 295.2 126.933 296 126.933C296.8 126.933 297.467 127.533 297.467 128.4Z" fill="white"/>
<path d="M57.9333 196.534C57.9333 197.334 57.2667 198 56.4667 198C55.6667 198 55 197.334 55 196.534C55 195.734 55.6667 195.067 56.4667 195.067C57.2667 195.067 57.9333 195.734 57.9333 196.534Z" fill="white"/>
<path d="M91.3993 200.467C91.3993 200.867 91.066 201.2 90.666 201.2C90.266 201.2 89.9326 200.867 89.9326 200.467C89.9326 200.067 90.266 199.733 90.666 199.733C91.066 199.733 91.3993 200.067 91.3993 200.467Z" fill="white"/>
<path d="M336.133 102.867C336.133 103.267 335.799 103.6 335.399 103.6C334.999 103.6 334.666 103.267 334.666 102.867C334.666 102.467 334.999 102.134 335.399 102.134C335.799 102.134 336.133 102.467 336.133 102.867Z" fill="white"/>
<path d="M97.5995 123.667C98.0045 123.667 98.3329 123.339 98.3329 122.934C98.3329 122.529 98.0045 122.2 97.5995 122.2C97.1945 122.2 96.8662 122.529 96.8662 122.934C96.8662 123.339 97.1945 123.667 97.5995 123.667Z" fill="white"/>
<path d="M226.399 75.2668C226.399 75.6668 226.066 76.0001 225.666 76.0001C225.266 76.0001 224.933 75.6668 224.933 75.2668C224.933 74.8668 225.266 74.5334 225.666 74.5334C226.066 74.5334 226.399 74.8668 226.399 75.2668Z" fill="white"/>
<path d="M78.7997 122.133C78.7997 122.533 78.4663 122.867 78.0663 122.867C77.6663 122.867 77.333 122.533 77.333 122.133C77.333 121.733 77.6663 121.4 78.0663 121.4C78.4663 121.4 78.7997 121.733 78.7997 122.133Z" fill="white"/>
<path d="M177.333 69.3335V70.4668H177.066C176.066 70.4668 175.199 70.8002 174.599 71.4002C173.999 72.0002 173.666 72.8002 173.533 73.8668C174.066 73.2668 174.799 72.9335 175.733 72.9335C176.666 72.9335 177.333 73.2668 177.866 73.8668C178.399 74.5335 178.666 75.3335 178.666 76.3335C178.666 77.4002 178.399 78.2668 177.799 78.8668C177.199 79.5335 176.466 79.8002 175.466 79.8002C174.466 79.8002 173.666 79.4002 173.066 78.6668C172.466 77.9335 172.133 76.9335 172.133 75.7335V75.2002C172.133 73.2668 172.533 71.8668 173.333 70.8002C174.133 69.8002 175.333 69.2668 176.933 69.2668H177.333V69.3335ZM175.599 74.0002C175.133 74.0002 174.733 74.1335 174.333 74.4002C173.933 74.6668 173.666 75.0002 173.533 75.4002V75.8668C173.533 76.7335 173.733 77.4002 174.133 77.9335C174.533 78.4668 174.999 78.7335 175.599 78.7335C176.199 78.7335 176.666 78.5335 176.999 78.0668C177.333 77.6002 177.533 77.0668 177.533 76.3335C177.533 75.6002 177.333 75.0668 176.999 74.6002C176.599 74.2002 176.133 74.0002 175.599 74.0002Z" fill="#213A9C"/>
<path d="M184.666 79.7335H183.333V71.0001L180.666 72.0001V70.8001L184.466 69.4001H184.666V79.7335Z" fill="#213A9C"/>
</g>
<defs>
<clipPath id="clip0_14328_10957">
<rect width="400" height="266.667" fill="white" transform="translate(-12)"/>
</clipPath>
</defs>
</svg>
