<?xml version="1.0" encoding="UTF-8"?><svg id="uuid-54d1aca9-5842-4420-949e-d61614169398" xmlns="http://www.w3.org/2000/svg" viewBox="0 0 51.9 45.1"><defs><style>.uuid-98807a7d-d10e-4441-a64e-dbe259f2713c{fill:#24d2c1;}.uuid-5f145116-9f4f-4397-889b-9554c281fb18{fill:#fff;}.uuid-c46d5f5d-423f-4c7c-b7d3-e12aa9a96d1f{fill:#939598;}.uuid-9f206cd8-337c-4f0e-a2b5-4182484e5004{fill:#121214;}.uuid-406f661c-06df-4f92-82b6-4b671bbbbd1a{fill:#535359;}.uuid-05817413-77be-4c9c-8177-cbf99287eca0{fill:#88898c;}.uuid-b9201aa7-05fe-4790-a872-2372d28d21bc{fill:#d1d3d4;}.uuid-663d502a-8cc9-408a-a06c-9bb3a3cbc77c{fill:#e6e7e8;}.uuid-d47f9fbb-fd76-454c-a2ca-e4c339e75431{fill:#bcbec0;}</style></defs><g id="uuid-87f2648c-53ec-427b-9139-398b669283f0"><path class="uuid-b9201aa7-05fe-4790-a872-2372d28d21bc" d="m51.8,26.8h0v-2.8L0,30.8v2.8c0,1.1.7,2.1,2.1,2.9l12.8,7.4c2.8,1.6,7.4,1.6,10.2,0l24.6-14.2c1.4-.8,2.1-1.9,2.1-2.9Z"/><path class="uuid-5f145116-9f4f-4397-889b-9554c281fb18" d="m25.1,41.1c-2.8,1.6-7.4,1.6-10.2,0l-12.8-7.4c-2.8-1.6-2.8-4.3,0-5.9l24.6-14.2c2.8-1.6,7.4-1.6,10.2,0l12.8,7.4c2.8,1.6,2.8,4.3,0,5.9l-24.6,14.2Z"/><path class="uuid-c46d5f5d-423f-4c7c-b7d3-e12aa9a96d1f" d="m51.6,23.8v-1.6L.2,29v1.6c0,1.1.7,2.1,2.1,2.9l12.7,7.4c2.8,1.6,7.3,1.6,10.1,0l24.5-14.1c1.4-.8,2.1-1.9,2.1-2.9Z"/><path class="uuid-d47f9fbb-fd76-454c-a2ca-e4c339e75431" d="m25.1,39.2c-2.8,1.6-7.3,1.6-10.1,0l-12.7-7.4c-2.8-1.6-2.8-4.2,0-5.8l24.5-14.1c2.8-1.6,7.3-1.6,10.1,0l12.7,7.4c2.8,1.6,2.8,4.2,0,5.8l-24.5,14.1Z"/><path class="uuid-c46d5f5d-423f-4c7c-b7d3-e12aa9a96d1f" d="m51.3,22.1v-2.4S.5,26.3.5,26.3v2.5c0,1,.7,2.1,2.1,2.9l12.6,7.3c2.7,1.6,7.2,1.6,10,0l24.2-14c1.4-.8,2.1-1.8,2.1-2.9Z"/><path class="uuid-406f661c-06df-4f92-82b6-4b671bbbbd1a" d="m25.1,36.6c-2.7,1.6-7.2,1.6-10,0l-12.6-7.3c-2.7-1.6-2.7-4.2,0-5.8l24.2-14c2.7-1.6,7.2-1.6,10,0l12.6,7.3c2.7,1.6,2.7,4.2,0,5.8l-24.2,14Z"/><path class="uuid-05817413-77be-4c9c-8177-cbf99287eca0" d="m51.3,19.2v-4.3L.5,21.7v4.3c0,1,.7,2.1,2.1,2.9l12.6,7.3c2.7,1.6,7.2,1.6,10,0l24.2-14c1.4-.8,2.1-1.8,2.1-2.9Z"/><path class="uuid-c46d5f5d-423f-4c7c-b7d3-e12aa9a96d1f" d="m51.6,19.4v-4.9L.2,21.3v2.4c0,1.1.7,2.1,2.1,2.9l12.7,7.3c2.8,1.6,7.3,1.6,10.1,0l20.7-11.9.2,2.4,3.6-2.1c1.4-.8,2.1-1.9,2.1-2.9Z"/><path class="uuid-b9201aa7-05fe-4790-a872-2372d28d21bc" d="m51.8,14.4h0v-2.8L0,18.4v2.8c0,1.1.7,2.1,2.1,2.9l12.8,7.4c2.8,1.6,7.4,1.6,10.2,0l24.6-14.2c1.4-.8,2.1-1.9,2.1-2.9Z"/><path class="uuid-5f145116-9f4f-4397-889b-9554c281fb18" d="m25.1,28.7c-2.8,1.6-7.4,1.6-10.2,0l-12.8-7.4c-2.8-1.6-2.8-4.3,0-5.9L26.7,1.2c2.8-1.6,7.4-1.6,10.2,0l12.8,7.4c2.8,1.6,2.8,4.3,0,5.9l-24.6,14.2Z"/><path class="uuid-b9201aa7-05fe-4790-a872-2372d28d21bc" d="m30.2,24.1c-2.4,1.4-6.5,1.4-8.9,0l-11.2-6.5c-2.4-1.4-2.5-3.7,0-5.1L27.4,2.4c2.4-1.4,6.5-1.4,8.9,0l11.2,6.5c2.5,1.4,2.5,3.7,0,5.1l-17.4,10Z"/><path class="uuid-b9201aa7-05fe-4790-a872-2372d28d21bc" d="m14.6,24.3c-1.4.8-3.6.8-5,0-1.4-.8-1.4-2.1,0-2.9,1.4-.8,3.6-.8,5,0,1.4.8,1.4,2.1,0,2.9Z"/><path class="uuid-5f145116-9f4f-4397-889b-9554c281fb18" d="m14.1,24.1c-1.1.6-2.9.6-4,0-1.1-.6-1.1-1.7,0-2.3,1.1-.6,2.9-.6,4,0,1.1.6,1.1,1.7,0,2.3Z"/><path class="uuid-b9201aa7-05fe-4790-a872-2372d28d21bc" d="m10.8,23.7c-.7-.4-.7-1.1,0-1.5.7-.4,1.9-.4,2.7,0,.7.4.7,1.1,0,1.5-.7.4-1.9.4-2.7,0Zm2.4-1.4c-.6-.4-1.6-.4-2.2,0-.6.4-.6.9,0,1.3.6.4,1.6.4,2.2,0,.6-.4.6-.9,0-1.3Z"/><polygon class="uuid-9f206cd8-337c-4f0e-a2b5-4182484e5004" points="24.7 22.4 12.9 15.7 33 4.1 44.7 10.8 24.7 22.4"/><polygon class="uuid-98807a7d-d10e-4441-a64e-dbe259f2713c" points="19 17.4 19 17.7 21.1 18.9 21.7 18.9 21.7 18.6 19.6 17.4 19 17.4"/><polygon class="uuid-98807a7d-d10e-4441-a64e-dbe259f2713c" points="21.7 15.8 21.7 16.1 23.8 17.4 24.3 17.4 24.3 17 22.2 15.8 21.7 15.8"/><polygon class="uuid-98807a7d-d10e-4441-a64e-dbe259f2713c" points="24.3 17.4 24.3 17.7 26.4 18.9 27 18.9 27 18.6 24.9 17.4 24.3 17.4"/><polygon class="uuid-98807a7d-d10e-4441-a64e-dbe259f2713c" points="21.7 18.9 22.2 18.9 24.3 17.7 24.3 17.4 23.8 17.4 21.7 18.6 21.7 18.9"/><polygon class="uuid-98807a7d-d10e-4441-a64e-dbe259f2713c" points="19 17.4 19.6 17.4 21.7 16.1 21.7 15.8 21.1 15.8 19 17 19 17.4"/><polygon class="uuid-98807a7d-d10e-4441-a64e-dbe259f2713c" points="24.3 20.4 24.9 20.4 27 19.2 27 18.9 26.4 18.9 24.3 20.1 24.3 20.4"/><polygon class="uuid-98807a7d-d10e-4441-a64e-dbe259f2713c" points="25.5 13.6 25.5 14 27.6 15.2 28.1 15.2 28.1 14.9 26 13.6 25.5 13.6"/><polygon class="uuid-98807a7d-d10e-4441-a64e-dbe259f2713c" points="28.1 15.2 28.1 15.5 30.2 16.7 30.8 16.7 30.8 16.4 28.7 15.2 28.1 15.2"/><polygon class="uuid-98807a7d-d10e-4441-a64e-dbe259f2713c" points="22.8 15.2 23.4 15.2 25.5 14 25.5 13.6 24.9 13.6 22.8 14.9 22.8 15.2"/><polygon class="uuid-98807a7d-d10e-4441-a64e-dbe259f2713c" points="29.1 11.6 29.1 11.9 31.2 13.1 31.8 13.1 31.8 12.8 29.7 11.6 29.1 11.6"/><polygon class="uuid-98807a7d-d10e-4441-a64e-dbe259f2713c" points="31.8 10 31.8 10.3 33.9 11.6 34.4 11.6 34.4 11.2 32.3 10 31.8 10"/><polygon class="uuid-98807a7d-d10e-4441-a64e-dbe259f2713c" points="31.8 13.1 31.8 13.4 33.9 14.6 34.4 14.6 34.4 14.3 32.3 13.1 31.8 13.1"/><polygon class="uuid-98807a7d-d10e-4441-a64e-dbe259f2713c" points="34.4 11.6 34.4 11.9 36.5 13.1 37.1 13.1 37.1 12.8 35 11.6 34.4 11.6"/><polygon class="uuid-98807a7d-d10e-4441-a64e-dbe259f2713c" points="31.8 13.1 32.3 13.1 34.4 11.9 34.4 11.6 33.9 11.6 31.8 12.8 31.8 13.1"/><polygon class="uuid-98807a7d-d10e-4441-a64e-dbe259f2713c" points="29.1 11.6 29.7 11.6 31.8 10.3 31.8 10 31.2 10 29.1 11.2 29.1 11.6"/><polygon class="uuid-98807a7d-d10e-4441-a64e-dbe259f2713c" points="34.4 14.6 35 14.6 37.1 13.4 37.1 13.1 36.5 13.1 34.4 14.3 34.4 14.6"/><polygon class="uuid-98807a7d-d10e-4441-a64e-dbe259f2713c" points="35.8 7.7 35.8 8 37.9 9.2 38.5 9.2 38.5 8.9 36.4 7.7 35.8 7.7"/><polygon class="uuid-98807a7d-d10e-4441-a64e-dbe259f2713c" points="35.8 10.7 35.8 11.1 37.9 12.3 38.5 12.3 38.5 12 36.4 10.7 35.8 10.7"/><polygon class="uuid-98807a7d-d10e-4441-a64e-dbe259f2713c" points="35.8 10.7 36.4 10.7 38.5 9.5 38.5 9.2 37.9 9.2 35.8 10.4 35.8 10.7"/><polygon class="uuid-98807a7d-d10e-4441-a64e-dbe259f2713c" points="33.2 9.2 33.7 9.2 35.8 8 35.8 7.7 35.3 7.7 33.2 8.9 33.2 9.2"/><polygon class="uuid-98807a7d-d10e-4441-a64e-dbe259f2713c" points="38.5 12.3 39 12.3 41.1 11.1 41.1 10.7 40.6 10.7 38.5 12 38.5 12.3"/><path class="uuid-98807a7d-d10e-4441-a64e-dbe259f2713c" d="m16.6,16.1h0c.2-.1.4-.2.6-.3.2-.1.2-.2,0-.3-.2,0-.3,0-.5,0h-.3c-.2.1-.5.1-.7,0-.2-.1-.2-.3,0-.5.2-.1.4-.1.6-.1h0c-.2.1-.3.2-.5.2-.2,0-.2.2,0,.3.1,0,.3,0,.5,0h.3c.2-.1.5-.1.7,0,.2.1.2.4,0,.5-.2.1-.5.2-.7.2Z"/><path class="uuid-98807a7d-d10e-4441-a64e-dbe259f2713c" d="m16.6,14.6l.4-.2c.3-.2.7-.3,1,0,.3.2.2.4,0,.6h-.2c0,.1.6.5.6.5h-.2c0,.1-1.5-.8-1.5-.8Zm1.2.2c.3-.1.3-.3,0-.4-.2-.1-.4,0-.7,0h-.2c0,.1.6.5.6.5h.2Z"/><path class="uuid-98807a7d-d10e-4441-a64e-dbe259f2713c" d="m18.5,14.3c-.5-.3-.5-.6-.1-.8.4-.2.9-.2,1.4,0,.5.3.5.6.1.8-.4.2-.9.2-1.4,0Zm1.1-.6c-.4-.2-.8-.2-1,0-.3.2-.2.4.2.6.4.2.8.3,1.1,0,.3-.2.2-.4-.2-.6Z"/><path class="uuid-98807a7d-d10e-4441-a64e-dbe259f2713c" d="m20.8,13.8c0-.3,0-.5-.2-.6-.1,0-.2,0-.3,0,0,0,0,.1,0,.2h-.1c0,0,0-.2.1-.2.2,0,.4,0,.5,0,.2,0,.2.3.2.5,0,0,0,0,.1,0h.3c0-.1,0,0,0,0l-.6.3h0Z"/><path class="uuid-98807a7d-d10e-4441-a64e-dbe259f2713c" d="m26.9,10.3h0s0,0,0,0h0c0,0-1-.5-1-.5h.1c0,0,.3,0,.3,0h.1s0,0,.1-.1c.2-.1.4,0,.6,0,.2.1.2.3,0,.4,0,0-.2,0-.3,0Zm0-.4c-.1,0-.3-.1-.4,0,0,0,0,0,0,.2l.4.2c.1,0,.2,0,.2,0,.1,0,0-.2,0-.3Z"/><path class="uuid-98807a7d-d10e-4441-a64e-dbe259f2713c" d="m27.2,9.8c-.2-.1-.2-.3,0-.4.2,0,.4,0,.6,0,0,0,0,0,0,0l-.5.3c.2,0,.3,0,.5,0,0,0,0,0,.1-.1h.1c0,0,0,.1-.2.2-.2.1-.5.1-.7,0Zm.4-.3c-.1,0-.3,0-.4,0,0,0-.1.1,0,.2l.4-.2Z"/><path class="uuid-98807a7d-d10e-4441-a64e-dbe259f2713c" d="m28.1,9.5c-.1,0,0-.2.2-.4,0,0-.2,0-.3,0,0,0-.1.1-.1.2h-.1c0,0,0-.2.2-.2.2,0,.3,0,.5,0l.4.2h0c0,0,0,0,0,0h0c0,0,0,.1-.1.2-.1,0-.3,0-.4,0Zm.4-.2h-.2c-.2,0-.2.1-.1.2,0,0,.2,0,.2,0,0,0,0,0,0-.2Z"/><path class="uuid-98807a7d-d10e-4441-a64e-dbe259f2713c" d="m28.8,9l-.4-.2h0c0,0,0,0,0,0h0c0,0-.2-.2-.2-.2h0c0,0,.2,0,.2,0h.2c0-.1,0,0,0,0h-.2c0,.1.4.3.4.3,0,0,.2,0,.2,0,0,0,0,0,0,0h.1c0,0,0,0,0,.1-.1,0-.3,0-.4,0Z"/><path class="uuid-98807a7d-d10e-4441-a64e-dbe259f2713c" d="m28.7,8.2h0s.8.9.8.9h0s-.8-.9-.8-.9Z"/><path class="uuid-98807a7d-d10e-4441-a64e-dbe259f2713c" d="m29.3,8.2h0c0,0,.1,0,.1,0h0c0,0,0-.1,0-.2.1,0,.2,0,.3,0,0,0,0-.2,0-.2.1,0,.3,0,.5,0l.4.2h-.1c0,0-.4-.2-.4-.2-.1,0-.2,0-.3,0,0,0,0,0,0,.2l.5.3h-.1c0,0-.4-.2-.4-.2-.1,0-.2,0-.3,0,0,0,0,0,0,.2l.5.3h-.1c0,0-.7-.3-.7-.3Z"/><path class="uuid-98807a7d-d10e-4441-a64e-dbe259f2713c" d="m30.2,7.4s0,0,0,0c0,0,.1,0,.2,0,0,0,0,0,0,0,0,0-.1,0-.2,0Zm.2.1h.1c0,0,.7.3.7.3h-.1c0,0-.7-.3-.7-.3Z"/><path class="uuid-98807a7d-d10e-4441-a64e-dbe259f2713c" d="m30.8,7.4h0c0,0,.1,0,.1,0h0c0,0,0-.1.1-.2.1,0,.3,0,.5,0l.4.2h-.1c0,0-.4-.2-.4-.2-.1,0-.2,0-.3,0,0,0,0,0,0,.2l.5.3h-.1c0,0-.7-.3-.7-.3Z"/><path class="uuid-98807a7d-d10e-4441-a64e-dbe259f2713c" d="m31.9,7.2l-.4-.2h.1c0,0,.4.2.4.2.1,0,.2,0,.3,0,0,0,0,0,0-.2l-.5-.3h.1c0,0,.7.3.7.3h0c0,0-.1,0-.1,0h0c0,0,0,.1,0,.2-.1,0-.3,0-.5,0Z"/><path class="uuid-98807a7d-d10e-4441-a64e-dbe259f2713c" d="m32.8,6.7l-.4-.2h0c0,0,0,0,0,0h0c0,0-.2-.2-.2-.2h0c0,0,.2,0,.2,0h.2c0-.1,0,0,0,0h-.2c0,.1.4.3.4.3,0,0,.2,0,.2,0,0,0,0,0,0,0h.1c0,0,0,.1,0,.1-.1,0-.3,0-.4,0Z"/><path class="uuid-98807a7d-d10e-4441-a64e-dbe259f2713c" d="m33,6.4c-.2-.1-.2-.3,0-.4.2,0,.4,0,.6,0,0,0,0,0,0,0l-.5.3c.2,0,.3,0,.5,0,0,0,0,0,.1-.1h.1c0,0,0,.1-.2.2-.2.1-.5.1-.7,0Zm.4-.3c-.1,0-.3,0-.4,0,0,0-.1.1,0,.2l.4-.2Z"/><path class="uuid-406f661c-06df-4f92-82b6-4b671bbbbd1a" d="m14.3,35.9c0,1.2-2.5.6-5.7-1.2-3.1-1.8-5.7-4.2-5.7-5.4s2.5-.6,5.7,1.2c3.1,1.8,5.7,4.2,5.7,5.4Z"/><path class="uuid-5f145116-9f4f-4397-889b-9554c281fb18" d="m50.7,17.7l-1.2-.7c-.7-.4-1.7-.3-2.8.3-2.2,1.3-4,4.3-4,6.9s.4,2.1,1.1,2.5l1.4.8.2-.5c.4,0,.9-.2,1.4-.5,2.2-1.3,4-4.3,4-6.9s-.1-1.2-.3-1.6l.3-.3Z"/><path class="uuid-663d502a-8cc9-408a-a06c-9bb3a3cbc77c" d="m51.9,20.3c0,2.5-1.8,5.6-4,6.9-2.2,1.3-4,.2-4-2.3,0-2.5,1.8-5.6,4-6.9,2.2-1.3,4-.2,4,2.3Z"/><path class="uuid-5f145116-9f4f-4397-889b-9554c281fb18" d="m50.7,21c0,1.8-1.2,3.9-2.8,4.8-.9.5-1.7.5-2.2,0,.5.2,1.1,0,1.7-.3,1.5-.9,2.8-3,2.8-4.8s-.2-1.3-.6-1.6c.6.2,1.1.9,1.1,1.9Z"/><path class="uuid-c46d5f5d-423f-4c7c-b7d3-e12aa9a96d1f" d="m50.2,20.7c0,1.8-1.2,3.9-2.8,4.8-.6.4-1.2.5-1.7.3h0c-.4-.3-.6-.9-.6-1.6,0-1.8,1.2-3.9,2.8-4.8.6-.4,1.2-.5,1.7-.3.4.3.6.9.6,1.6Z"/></g></svg>