<svg id="visual" viewBox="0 0 900 600" width="900" height="600" xmlns="http://www.w3.org/2000/svg" xmlns:xlink="http://www.w3.org/1999/xlink" version="1.1"><rect x="0" y="0" width="900" height="600" fill="#001220"></rect><path d="M0 356L21.5 367.7C43 379.3 86 402.7 128.8 404C171.7 405.3 214.3 384.7 257.2 383.8C300 383 343 402 385.8 404.5C428.7 407 471.3 393 514.2 396.8C557 400.7 600 422.3 642.8 428C685.7 433.7 728.3 423.3 771.2 419.5C814 415.7 857 418.3 878.5 419.7L900 421L900 601L878.5 601C857 601 814 601 771.2 601C728.3 601 685.7 601 642.8 601C600 601 557 601 514.2 601C471.3 601 428.7 601 385.8 601C343 601 300 601 257.2 601C214.3 601 171.7 601 128.8 601C86 601 43 601 21.5 601L0 601Z" fill="#7c9cbf"></path><path d="M0 420L21.5 428.5C43 437 86 454 128.8 462.3C171.7 470.7 214.3 470.3 257.2 470.3C300 470.3 343 470.7 385.8 467.8C428.7 465 471.3 459 514.2 452.2C557 445.3 600 437.7 642.8 433.3C685.7 429 728.3 428 771.2 436.2C814 444.3 857 461.7 878.5 470.3L900 479L900 601L878.5 601C857 601 814 601 771.2 601C728.3 601 685.7 601 642.8 601C600 601 557 601 514.2 601C471.3 601 428.7 601 385.8 601C343 601 300 601 257.2 601C214.3 601 171.7 601 128.8 601C86 601 43 601 21.5 601L0 601Z" fill="#6a95bb"></path><path d="M0 442L21.5 442.3C43 442.7 86 443.3 128.8 442.7C171.7 442 214.3 440 257.2 443.7C300 447.3 343 456.7 385.8 466.8C428.7 477 471.3 488 514.2 487.7C557 487.3 600 475.7 642.8 472.2C685.7 468.7 728.3 473.3 771.2 472.5C814 471.7 857 465.3 878.5 462.2L900 459L900 601L878.5 601C857 601 814 601 771.2 601C728.3 601 685.7 601 642.8 601C600 601 557 601 514.2 601C471.3 601 428.7 601 385.8 601C343 601 300 601 257.2 601C214.3 601 171.7 601 128.8 601C86 601 43 601 21.5 601L0 601Z" fill="#558eb7"></path><path d="M0 517L21.5 511.7C43 506.3 86 495.7 128.8 497.2C171.7 498.7 214.3 512.3 257.2 521.3C300 530.3 343 534.7 385.8 534.3C428.7 534 471.3 529 514.2 523C557 517 600 510 642.8 503.3C685.7 496.7 728.3 490.3 771.2 491.2C814 492 857 500 878.5 504L900 508L900 601L878.5 601C857 601 814 601 771.2 601C728.3 601 685.7 601 642.8 601C600 601 557 601 514.2 601C471.3 601 428.7 601 385.8 601C343 601 300 601 257.2 601C214.3 601 171.7 601 128.8 601C86 601 43 601 21.5 601L0 601Z" fill="#3b87b3"></path><path d="M0 525L21.5 524.8C43 524.7 86 524.3 128.8 529.5C171.7 534.7 214.3 545.3 257.2 551.8C300 558.3 343 560.7 385.8 561.5C428.7 562.3 471.3 561.7 514.2 556.5C557 551.3 600 541.7 642.8 537.5C685.7 533.3 728.3 534.7 771.2 540.3C814 546 857 556 878.5 561L900 566L900 601L878.5 601C857 601 814 601 771.2 601C728.3 601 685.7 601 642.8 601C600 601 557 601 514.2 601C471.3 601 428.7 601 385.8 601C343 601 300 601 257.2 601C214.3 601 171.7 601 128.8 601C86 601 43 601 21.5 601L0 601Z" fill="#0880ae"></path></svg>