<svg width="84" height="90" viewBox="0 0 84 90" fill="none" xmlns="http://www.w3.org/2000/svg">
<g clip-path="url(#clip0_16098_15822)">
<path d="M11.2938 46.063C9.74084 43.0866 6.77613 41.1024 6.3526 37.7008C5.64672 34.0158 7.48202 30.8976 8.32907 27.2126C9.74084 21.2598 8.61143 15.3071 10.8703 10.063C11.2938 9.07087 11.8585 8.22048 12.4232 7.37008C11.5761 7.22835 10.7291 6.94489 9.59966 6.94489C9.03496 6.94489 8.1879 7.22835 8.1879 7.79528C8.1879 8.07874 8.1879 8.36221 8.47025 8.64567C9.74084 11.622 7.90554 15.7323 7.19966 18.5669C6.21143 22.3937 5.08202 26.3622 4.51731 30.3307C3.67025 36.9921 6.07025 41.3858 8.1879 47.4803C9.74084 52.2992 11.2938 58.5354 7.48202 62.5039C7.05849 62.9291 6.49378 63.4961 6.3526 64.2047C6.3526 65.1968 7.62319 66.4724 9.17613 67.6063C11.0114 64.7717 12.1408 61.7953 12.4232 58.6772C12.8467 54.2835 13.2703 50.0315 11.5761 45.9213L11.2938 46.063Z" fill="#29B2A1"/>
<path d="M40.0943 0C33.6002 0.425197 27.2472 2.69291 21.1766 5.38583C19.2002 6.23622 17.2237 7.08661 15.1061 7.51181C13.9766 7.65354 13.1296 7.51181 12.2825 7.51181C11.7178 8.3622 11.1531 9.2126 10.7296 10.2047C8.47076 15.4488 9.60017 21.4016 8.18841 27.3543C7.34135 31.0394 5.50605 34.1575 6.21194 37.8425C6.63547 41.2441 9.60017 43.3701 11.1531 46.2047C12.9884 50.315 12.5649 54.5669 12.0002 58.9606C11.7178 62.2205 10.5884 65.1968 8.75311 67.8898C10.5884 69.3071 12.8472 70.4409 13.8355 70.8661C17.6472 72.7087 21.7413 73.4173 25.8355 74.126C31.6237 75.1181 37.5531 76.1102 43.3414 75.5433C49.1296 74.9764 54.6355 72.8504 60.2825 72C61.1296 68.8819 61.6943 65.4803 61.9766 62.0787C63.9531 39.2598 54.6355 17.4331 40.0943 0Z" fill="#43C9B5"/>
<path d="M76.6585 65.4803C75.2467 61.6535 73.4114 57.9685 74.3996 53.8583C76.6585 43.3701 78.2114 33.5906 72.8467 23.3858C71.0114 20.126 73.5526 15.1654 72.1408 10.9134C71.8585 9.6378 71.2938 8.64567 70.4467 7.79528C60.9879 4.67717 51.9526 0 42.2114 0C41.5055 0 40.7996 0 40.0938 0C54.6349 17.2913 63.9526 39.2598 62.1173 61.937C61.8349 65.3386 61.2702 68.7402 60.4232 71.8583C62.1173 71.5748 63.8114 71.4331 65.5055 71.4331C69.1761 71.4331 71.7173 74.5512 75.6702 74.126C77.2232 71.8583 77.7879 69.0236 76.6585 65.3386V65.4803Z" fill="#40BFAC"/>
<path d="M81.5997 67.1811C81.1761 64.7717 79.0585 63.0709 78.2114 60.8032C78.2114 60.8032 78.2114 60.5197 78.2114 60.378C77.2232 57.4016 78.3526 54.1417 79.3408 51.1654C80.8938 46.2047 81.882 41.1024 81.1761 35.8583C80.4702 30.3307 76.3761 26.3622 75.5291 21.1181C75.2467 18.8504 75.5291 16.1575 76.3761 14.1732C77.2232 11.4803 78.4938 9.77954 74.682 8.92915C73.2702 8.64568 71.8585 8.22048 70.5879 7.79529C71.2938 8.64568 71.8585 9.63781 72.282 10.9134C73.6938 15.3071 71.1526 20.2677 72.9879 23.3858C78.4938 33.5906 76.7997 43.3701 74.5408 53.8583C73.6938 57.9685 75.3879 61.6536 76.7997 65.4803C78.0702 69.1654 77.5055 72 75.8114 74.2677C75.9526 74.2677 76.2349 74.2677 76.3761 74.2677C79.6232 73.5591 82.3055 70.441 81.7408 67.3228L81.5997 67.1811Z" fill="#29B2A1"/>
<path d="M41.5061 1.70078C40.9414 1.84251 40.3767 1.98424 39.812 2.2677C39.2473 2.40944 38.8238 2.55117 38.2591 2.6929C33.1767 3.96849 27.812 5.66928 24.2826 9.63778C21.0356 13.3228 19.4826 18.5669 20.3297 23.5275C20.612 25.2283 21.1767 26.9291 20.4708 28.4882C20.0473 29.3386 19.3414 30.0472 18.6356 30.7559C16.3767 33.0236 14.5414 36.4252 15.812 39.4016C16.0944 40.252 16.6591 40.9606 17.2238 41.6693C19.0591 44.7874 19.4826 48.7559 20.1885 52.2992C20.8944 56.8346 21.7414 61.7953 23.5767 65.9055C25.412 70.0157 22.4473 72.7086 21.7414 76.6771C21.7414 76.8189 21.7414 77.1023 21.7414 77.2441C34.0238 78.0945 46.3061 78.9449 58.5885 78.3779C60.7061 73.2756 61.9767 67.8897 62.4003 62.0787C64.2356 40.1102 55.4826 18.8504 41.7885 1.84251L41.5061 1.70078Z" fill="#2BBCAA"/>
<path d="M72.4235 54.8504C72.4235 53.8583 72.1412 53.0079 71.8588 52.1575C71.2941 50.4567 70.447 48.7559 69.4588 47.1968C67.7647 42.5197 66.4941 37.559 68.047 32.8819C68.4706 31.4646 69.3176 30.0472 69.6 28.4882C70.447 24.8031 68.7529 21.2598 67.9059 17.5748C67.4823 15.7323 67.2 13.8898 66.4941 12.3307C65.647 10.7716 64.3764 9.49605 62.9647 8.50393C62.1176 7.79527 61.2706 7.0866 60.1412 6.51968C57.6 5.10235 54.7764 4.67716 51.9529 3.68503C51.3882 3.40157 50.6823 3.25983 50.1176 2.97637C49.6941 2.83464 49.2706 2.55117 48.847 2.26771C48.2823 1.84251 47.5764 1.41731 46.8706 1.27558C46.1647 0.992117 45.3176 1.27558 44.6117 1.27558C44.4706 1.27558 44.1882 1.27558 44.047 1.27558C44.047 1.27558 44.047 1.27558 43.9059 1.27558C43.0588 1.27558 42.3529 1.41731 41.5059 1.55905C55.3412 18.5669 63.9529 39.8268 62.1176 61.7953C61.6941 67.748 60.4235 73.1338 58.3059 78.0945C61.2706 78.0945 64.2353 77.811 67.3412 77.3858C70.5882 73.9842 73.2706 69.874 73.9764 65.3386C74.4 61.6535 73.6941 58.1102 72.4235 54.5669V54.8504Z" fill="#29B2A1"/>
<path d="M60.1412 52.2992C59.8588 49.748 59.5765 47.1969 59.2941 44.6457C59.2941 43.0866 59.7176 41.811 59.7176 40.252C59.8588 36.2835 58.1647 32.0315 55.4824 29.0551C54.7765 28.3465 54.0706 27.6378 53.0824 27.3543C51.3882 26.9291 49.6941 28.2047 48.8471 29.7638C48 31.3228 48 33.1654 48 34.8662C48 39.4016 48 43.937 48.1412 48.4725C48.1412 50.315 48.1412 52.2992 48.8471 54.1417C50.1176 57.9685 53.6471 60.5197 57.4588 61.6536C59.5765 62.2205 61.8353 62.504 63.5294 63.7795C61.9765 60.0945 60.5647 56.2677 60 52.1575L60.1412 52.2992Z" fill="#472A16"/>
<path d="M48.4235 34.2992L48 39.4016C48 39.2599 48.1412 38.9764 48.1412 38.8347C48.1412 37.4173 48.1412 35.8583 48.4235 34.441V34.2992Z" fill="#B68A8B"/>
<path d="M51.2467 55.8425C50.8231 55.2756 50.2584 54.9921 49.9761 54.2835C49.6937 53.5748 49.4114 52.8661 49.2702 52.0157C48.9878 50.4567 48.8467 48.8976 48.9878 47.4803C49.2702 44.9291 50.1172 42.378 51.2467 39.9685C50.1172 40.8189 49.4114 42.0945 48.8467 43.3701C48.4231 44.3622 47.9996 45.4961 47.4349 46.4882C47.0114 47.3386 46.1643 48.0472 45.3172 48.6142C43.6231 49.8898 41.7878 50.8819 39.8114 51.5906C38.2584 52.1575 36.5643 52.7244 34.8702 52.1575C33.0349 51.5906 32.0467 50.0315 30.9172 48.6142C30.7761 48.3307 30.3525 48.189 30.2114 48.3307C30.2114 50.1732 30.2114 51.874 29.7878 53.7165C29.6467 54.5669 28.0937 55.7008 29.0819 56.2677L35.5761 59.6693C35.7172 59.6693 35.8584 59.6693 35.9996 59.6693L49.5525 58.8189C49.8349 58.8189 50.1172 58.6772 50.2584 58.3937L51.2467 57.1181C51.529 56.6929 51.529 56.2677 51.2467 55.9843V55.8425Z" fill="#E5AE89"/>
<path d="M51.5298 26.6457C50.5415 24.8031 48.9886 22.252 48.5651 22.1102C46.3062 21.1181 43.9062 20.4094 41.6474 19.5591C38.8239 18.5669 35.4356 16.0157 32.3298 16.5827C30.4945 17.0079 29.0827 18.4252 27.9533 19.8425C26.965 21.1181 27.1062 22.252 26.5415 23.5276C26.5415 23.5276 26.5415 23.811 26.5415 23.9528C26.5415 25.0866 25.8356 26.3622 25.4121 27.3543C33.8827 24.2362 43.0592 24.2362 51.5298 26.5039V26.6457Z" fill="#E2A983"/>
<path d="M29.5055 40.6772C28.9408 39.4016 27.6702 38.8347 27.1055 36.9921C26.682 36.5669 25.835 36.7087 24.9879 36.9921C24.8467 38.5512 25.1291 40.252 25.5526 41.811C26.5408 45.6378 27.9526 48.7559 31.0585 51.1654C32.4702 52.2992 34.3055 52.441 35.9997 52.2992C32.7526 49.1811 31.9055 44.0788 29.3644 40.6772H29.5055Z" fill="#F4B98C"/>
<path d="M53.5064 35.2913C53.5064 35.2913 53.5064 35.2913 53.5064 35.1496C53.3652 34.8661 53.0828 34.5827 52.6593 34.5827C52.3769 34.5827 52.0946 34.5827 51.8122 34.7244C51.2475 35.0079 50.1181 35.8583 50.1181 36.5669C50.1181 34.8661 50.4005 33.3071 50.824 31.6063C51.1064 30.3307 51.2475 29.0551 51.1064 27.6378C50.9652 26.3622 50.5416 26.3622 49.4122 26.0787C48.2828 25.7953 47.1534 25.6535 46.024 25.5118C43.7652 25.2283 41.5064 25.0866 39.1064 25.0866C34.4475 25.0866 29.9299 25.937 25.5534 27.4961C25.5534 27.7795 25.4122 28.063 25.2711 28.2047C24.8475 30.3307 26.1181 32.315 25.8358 34.2992C25.8358 34.7244 25.5534 35.1496 25.4122 35.7165C25.4122 36.1417 25.2711 36.5669 25.1299 36.8504C25.9769 36.8504 26.824 36.4252 27.2475 36.8504C27.8122 38.6929 29.0828 39.2598 29.6475 40.5354C32.1887 44.0787 33.0358 49.1811 36.2828 52.1575C37.5534 52.0157 38.824 51.5905 40.0946 51.1653C42.6358 50.315 45.0358 48.7559 47.0122 46.9134C47.7181 46.2047 48.424 45.7795 48.8475 44.7874C49.4122 43.6535 49.5534 42.2362 50.2593 41.2441C50.5416 41.6693 50.9652 41.6693 51.5299 41.5276C51.9534 41.3858 52.2358 41.1024 52.5181 40.6772C53.9299 39.1181 54.9181 36.8504 53.6475 35.0079L53.5064 35.2913Z" fill="#FFCA9B"/>
<path d="M31.3413 55.5591C29.9295 54.8504 29.2236 54.2835 29.2236 54.2835L24.4236 55.1339L15.106 55.9843L10.7295 61.6536L8.4707 69.4488C8.4707 69.4488 22.306 73.8425 22.8707 74.4095C23.1531 74.6929 30.4942 73.7008 37.4119 72.7087C32.3295 68.315 28.6589 61.5118 31.4825 55.4173L31.3413 55.5591Z" fill="#2B7EA3"/>
<path d="M49.5531 71.4331C49.9767 71.8583 70.0237 67.3228 70.0237 67.3228L67.9061 61.7953C67.9061 61.7953 61.5531 55.1339 61.412 55.4173C61.412 55.7008 54.9178 54.8504 50.8237 55.4173C42.0708 59.5276 34.7296 57.2599 31.3414 55.7008C28.5178 61.7953 32.1884 68.5984 37.2708 72.9921C43.4825 72.1417 49.2708 71.4331 49.5531 71.5748V71.4331Z" fill="#3995B5"/>
<path d="M35.1533 43.0866C35.1533 45.9213 33.318 48.189 31.2003 48.189C29.0827 48.189 29.3651 45.9213 29.3651 43.0866C29.3651 40.252 29.0827 38.126 31.2003 38.126C33.318 38.126 35.1533 40.3937 35.1533 43.0866Z" fill="#E0A2AA"/>
<path d="M31.4819 39.2599C29.929 39.2599 29.3643 40.9606 29.3643 43.0866C29.3643 45.2126 29.929 46.9134 31.4819 46.9134C33.0348 46.9134 35.1525 45.2126 35.1525 43.0866C35.1525 40.9606 33.0348 39.2599 31.4819 39.2599Z" fill="#B7425E"/>
<path d="M33.1768 43.6535C32.8945 43.6535 32.6121 43.6535 32.471 43.6535C32.3298 43.7953 32.0474 43.937 31.9063 44.0787V43.7953C31.9063 43.7953 31.9063 43.5118 31.7651 43.5118C31.6239 43.3701 31.2004 43.5118 30.918 43.6535C30.6357 43.7953 30.4945 44.0787 30.3533 44.2205C30.071 44.9291 30.3533 45.7795 31.0592 46.063C31.3416 46.2047 31.7651 46.2047 32.1886 46.063C32.7533 46.063 33.1768 45.9212 33.6004 45.6378C34.0239 45.3543 34.3063 44.7874 34.1651 44.2205C34.1651 43.7953 33.6004 43.3701 33.1768 43.2283V43.6535Z" fill="#E0A2AA"/>
<path d="M25.835 31.4646C26.1173 31.1811 26.5408 30.7559 26.9644 30.6142C28.0938 30.3307 30.7761 30.7559 29.6467 32.4567C29.6467 32.4567 29.6467 32.4567 29.5055 32.4567C29.2232 31.748 28.5173 31.3228 27.9526 31.0394C27.2467 30.7559 26.682 31.0394 25.9761 31.4646H25.835Z" fill="#603C1F"/>
<path d="M36.1409 31.3228C36.1409 31.3228 36.2821 31.0394 36.4232 30.8976C37.1291 30.3307 38.1173 30.4724 38.8232 30.6142C39.6703 30.7559 40.3762 31.3228 40.7997 32.0315C39.3879 31.1811 36.8468 31.3228 35.5762 32.4567C35.5762 31.748 35.7173 31.6063 35.9997 31.3228H36.1409Z" fill="#603C1F"/>
<path d="M29.6475 36C29.9298 35.4331 30.071 34.5827 30.918 34.4409C31.9063 34.4409 32.6122 35.4331 33.0357 36.1417C33.1769 36.4252 33.4592 36.8504 33.318 37.1339C32.3298 36.7087 31.2004 36.7087 30.071 36.5669C29.9298 36.5669 29.6475 36.5669 29.6475 36.4252C29.6475 36.4252 29.6475 36.1417 29.6475 36Z" fill="#F4B98C"/>
<path d="M35.8584 29.4803C35.8584 29.4803 39.9525 26.9291 44.0466 30.189C43.4819 28.4882 39.8113 26.6457 35.8584 28.3465V29.4803Z" fill="#603C1F"/>
<path d="M30.3534 28.6299C29.7887 28.2047 27.6711 26.5039 25.1299 28.6299C26.4005 28.2047 28.2358 27.6378 30.0711 29.3386C30.0711 29.0551 30.3534 28.9134 30.3534 28.6299Z" fill="#603C1F"/>
<path d="M22.4471 31.3228C22.0236 33.0236 21.6001 34.7244 21.8824 36.4252C22.1648 38.4095 23.2942 40.252 24.4236 41.811C22.7295 39.4016 23.4354 34.7244 24.4236 32.1732C24.9883 30.4725 25.6942 28.9134 26.4001 27.3543C25.4119 27.7795 24.4236 28.2047 23.4354 28.6299C23.153 29.4803 22.8707 30.4725 22.5883 31.3228H22.4471Z" fill="#603C1F"/>
<path d="M71.8583 46.063C74.5407 45.3543 76.9407 43.5118 78.2113 40.9606C74.823 44.9291 69.176 42.0945 65.9289 39.4016C63.1054 36.9921 60.5642 34.441 58.4466 31.3228C58.0231 30.6142 57.7407 29.9055 57.5995 29.1969C53.6466 27.4961 49.5525 26.2205 45.4583 25.2284C44.8936 25.0866 44.1878 24.9449 43.623 24.8032C43.9054 25.2284 44.1878 25.6536 44.3289 26.2205C45.0348 27.7795 45.5995 29.4803 46.023 31.0394C46.4466 32.4567 47.1525 33.7323 47.1525 35.1496C47.1525 38.2677 45.3172 41.2441 46.3054 44.3622C46.5878 45.3543 47.1525 46.2047 47.576 47.1969C48.7054 50.0315 48.423 53.4331 46.7289 56.126C46.8701 56.126 47.1525 56.126 47.2936 55.9843C48.1407 55.1339 48.7054 54.1417 48.9878 53.0079C48.9878 53.0079 48.9878 52.7244 48.9878 52.5827C49.2701 51.0236 49.5525 48.8976 49.2701 47.3386C49.1289 46.4882 48.7054 45.6378 48.423 44.7874C47.8583 42.6614 48.423 37.9843 49.8348 36.1417C50.823 35.0079 51.6701 34.5827 53.223 35.1496C54.9172 35.8583 56.0466 37.4173 56.7525 38.9764C57.5995 41.1024 57.4583 43.2284 57.3172 45.4961C57.3172 50.315 59.1525 55.1339 63.2466 58.1102C65.0819 59.5276 67.7642 60.5197 70.023 60.0945C71.4348 59.811 75.2466 59.2441 75.8113 57.8268C72.8466 57.5433 70.023 56.6929 67.7642 54.5669C64.7995 51.874 64.7995 48.3307 63.6701 44.7874C66.0701 46.2047 69.0348 46.4882 71.7172 45.7795L71.8583 46.063Z" fill="#603C1F"/>
<path d="M57.6004 29.3386C57.318 28.3465 57.1768 27.2126 56.6121 26.2205C55.4827 23.811 54.071 21.4016 52.2357 19.4173C48.7063 15.3071 45.0357 12.8976 39.3886 13.0394C36.7063 13.0394 33.318 13.6063 30.7768 14.5984C28.0945 15.7323 26.2592 17.8583 25.5533 20.5512C25.271 21.4016 25.1298 22.252 24.8474 23.2441C24.4239 25.0866 23.718 26.7874 23.1533 28.6299C24.1416 28.2047 25.1298 27.7795 26.118 27.3543C26.8239 25.7953 27.671 24.2362 28.3769 22.6772C28.9416 21.5433 29.5063 20.4095 30.3533 19.5591C32.3298 17.7165 33.8827 18.8504 36.0004 19.5591C38.9651 20.6929 41.6474 22.252 43.3416 24.9449C43.9063 24.9449 44.6121 25.2283 45.1769 25.3701C49.271 26.3622 53.3651 27.6378 57.318 29.3386H57.6004Z" fill="#472A16"/>
<path d="M53.6473 7.51181C53.6473 8.64567 53.6473 9.49606 53.365 10.7717C52.5179 10.063 51.9532 8.7874 50.6826 8.7874C51.3885 10.6299 52.5179 13.1811 54.0708 14.7402C53.7885 13.6063 53.6473 13.0394 53.6473 13.0394C55.765 14.4567 55.9061 12.0472 55.9061 12.0472C56.0473 12.189 56.1885 12.3307 56.4709 12.4724C56.0473 10.6299 55.4826 8.64567 53.6473 7.65354V7.51181Z" fill="#2B7EA3"/>
<path d="M62.3999 11.9055C61.694 10.2047 60.9881 8.64568 60.1411 7.37009C60.1411 9.6378 59.1528 11.9055 58.0234 14.0315C58.5881 14.5984 59.1529 15.1654 59.7176 15.874C61.9764 18.7087 63.5293 21.4016 64.6587 23.6693C64.6587 20.8347 64.3764 16.5827 62.5411 11.9055H62.3999Z" fill="#2B7EA3"/>
<path d="M60.1413 7.37009C59.859 6.9449 59.5766 6.5197 59.2943 6.0945C56.7531 5.38584 54.3531 4.67718 51.8119 3.82679L44.7531 3.25986L34.5884 6.66143C30.2119 8.22049 26.8237 11.7638 25.6943 16.2992L24.0002 23.2441V26.7874C23.859 26.7874 36.9884 18.2835 56.8943 26.7874C56.6119 25.6536 56.8943 24.9449 56.6119 23.9528C55.4825 19.5591 54.4943 16.2992 53.9296 14.4567C52.3766 12.8977 51.2472 10.3465 50.5413 8.50395C51.9531 8.50395 52.3766 9.92128 53.2237 10.4882C53.506 9.35435 53.506 8.50395 53.506 7.22836C55.3413 8.22049 55.7649 10.2047 56.3296 12.0473C56.8943 12.4725 57.3178 13.0394 57.8825 13.6063C59.0119 11.4803 60.0002 9.21261 60.0002 6.9449L60.1413 7.37009Z" fill="#3995B5"/>
<path d="M57.3173 27.4961C37.4115 18.8504 23.5762 27.7795 23.5762 27.7795L23.9997 23.3858C29.9291 21.2599 41.7879 18.8504 56.7526 24.2362C57.035 25.2284 57.035 26.5039 57.3173 27.6378V27.4961Z" fill="#82BBCE"/>
<path d="M63.5293 21.685C63.5293 21.685 61.1293 22.8189 62.6822 29.3386C63.3881 28.6299 63.5293 26.6457 63.5293 25.937V31.1811C63.5293 31.1811 66.2116 25.2283 63.5293 21.8268V21.685Z" fill="#2B7EA3"/>
<path d="M30.353 21.2598L29.0824 20.2677L27.5294 20.6929L28.2353 19.1338L27.2471 17.8583H28.9412L29.9294 16.7244L30.353 18.2835L31.7647 18.8504L30.353 19.7008V21.2598Z" fill="#FFE96B"/>
<path d="M48.8469 14.7402L47.4352 14.5984L46.7293 15.7323L46.3057 14.4567L45.0352 14.0315L46.1646 13.1811L46.3057 11.9055L47.294 12.7559L48.5646 12.3307L47.9999 13.6063L48.8469 14.7402Z" fill="#FFE96B"/>
<path d="M53.3645 9.07085H51.9527L51.1057 10.063L50.8233 8.78739L49.5527 8.36219L50.6822 7.65353V6.23621L51.8116 7.0866L53.0821 6.80314L52.5174 7.93699L53.3645 9.07085Z" fill="#FFE96B"/>
<path d="M45.176 20.6929L43.7643 20.5512L43.0584 21.685L42.6348 20.4095L41.3643 19.8425L42.4937 19.1339L42.6348 17.8583L43.6231 18.7087L44.8937 18.2835L44.4701 19.5591L45.176 20.6929Z" fill="#FFE96B"/>
<path d="M38.541 12.6142L37.5528 11.7638L36.4234 12.0472L36.9881 10.9134L36.2822 9.92125L37.5528 10.063L38.2587 9.21259L38.541 10.3464L39.5293 10.7716L38.541 11.3386V12.6142Z" fill="#FFE96B"/>
<path d="M28.5179 42.0945L28.9414 40.8189C29.0826 40.3937 28.9414 39.9685 28.5179 39.685C28.0943 39.4016 27.3884 39.685 27.2473 40.1102C26.6826 41.1024 25.8355 42.8031 25.1296 44.2205C25.5531 42.378 26.1179 39.9685 26.5414 38.6929C26.5414 38.126 26.4002 37.5591 25.8355 37.2756C25.1296 36.9921 24.2826 37.2756 24.0002 37.9842L21.3179 44.9291L22.7296 39.8268C22.8708 39.2598 22.4473 38.6929 21.8826 38.6929C21.459 38.6929 21.0355 38.8346 20.8943 39.2598L19.2002 42.6614C18.9179 43.3701 18.6355 43.937 18.4943 44.6457C18.4943 44.7874 18.4943 44.9291 18.3531 45.2126C18.0708 46.3465 17.9296 47.622 17.9296 48.7559V55.4173L15.2473 59.9528L11.859 65.0551L10.4473 67.1811L12.8473 68.0315C12.8473 68.0315 20.4708 71.0079 20.612 70.2992C20.8943 69.5905 24.1414 58.1102 24.1414 58.1102C24.1414 58.1102 24.7061 57.2598 25.5531 56.2677C26.6826 54.7087 28.2355 52.4409 28.2355 51.874L28.5179 47.622L29.3649 44.9291C30.9179 42.0945 30.212 41.3858 28.8002 41.811L28.5179 42.0945Z" fill="#FFCA9B"/>
<path d="M53.0824 89.0079C49.9765 89.5748 46.5882 90 43.3412 90C29.5059 90 16.9412 84.3307 7.90588 75.2598C4.8 72.1417 2.25882 68.7401 0 64.9134C3.52941 63.7795 8.75294 63.2126 14.6824 65.7638C25.8353 70.2992 31.9059 64.9134 39.3882 65.4803C41.6471 67.3228 44.0471 69.4488 46.3059 71.1496C49.2706 73.4173 51.1059 76.5354 52.2353 79.7953C52.2353 80.2205 52.5177 80.6457 52.5177 81.0709C52.5177 81.2126 52.5177 81.3543 52.5177 81.4961C52.5177 81.7795 52.5176 82.063 52.6588 82.3464C52.6588 82.4882 52.6588 82.6299 52.6588 82.7716C52.6588 83.0551 52.6588 83.1968 52.6588 83.4803C52.6588 83.4803 52.6588 83.622 52.6588 83.7638C52.6588 83.9055 52.6588 84.189 52.6588 84.3307C52.6588 85.0394 52.6588 85.8898 52.8 86.5984C52.8 86.7401 52.8 86.8819 52.8 87.0236C52.8 87.7323 52.8 88.2992 52.8 89.0079H53.0824Z" fill="#66D5C8"/>
<path d="M84.0003 69.0236C81.8827 71.8583 79.6238 74.5512 76.9415 76.9606C70.3062 82.9134 62.118 87.3071 53.0827 89.0079C53.0827 88.2992 53.0827 87.7323 53.0827 87.0236C53.0827 86.8819 53.0827 86.7402 53.0827 86.5984C53.0827 85.8898 53.0827 85.0394 52.9415 84.3307C52.9415 84.189 52.9415 83.9055 52.9415 83.7638C52.9415 83.7638 52.9415 83.622 52.9415 83.4803C52.9415 83.1969 52.9415 83.0551 52.9415 82.7717C52.9415 82.6299 52.9415 82.4882 52.9415 82.3465C52.9415 82.063 52.9415 81.7795 52.8003 81.4961C52.8003 81.3543 52.8003 81.2126 52.8003 81.0709C52.8003 80.6457 52.518 80.2205 52.518 79.7953C51.5297 76.5354 49.5533 73.4173 46.5885 71.1496C44.3297 69.3071 42.0709 67.3228 39.6709 65.4803C40.2356 65.4803 40.8003 65.4803 41.365 65.7638C49.5532 67.6063 52.9415 71.2913 58.7297 70.0157C64.518 68.7402 66.0709 63.9213 77.9297 67.0394C80.7533 67.8898 82.8709 68.4567 84.4238 69.0236H84.0003Z" fill="#63CEC1"/>
<path d="M53.0827 89.0079C49.9768 89.5748 46.5886 90 43.3415 90C29.5063 90 16.9415 84.3307 7.90625 75.2598C9.17684 75.5433 10.5886 75.9685 12.0004 76.5354C25.271 81.3543 32.1886 74.8346 41.2239 76.5354C45.8827 77.5275 49.1298 78.9449 52.0945 79.937C52.0945 80.3622 52.3768 80.7874 52.3768 81.2126C52.3768 81.3543 52.3768 81.496 52.3768 81.6378C52.3768 81.9212 52.3768 82.2047 52.518 82.4882C52.518 82.6299 52.518 82.7716 52.518 82.9134C52.518 83.1968 52.518 83.3386 52.518 83.622C52.518 83.622 52.518 83.7638 52.518 83.9055C52.518 84.0472 52.518 84.3307 52.518 84.4724C52.518 85.1811 52.518 86.0315 52.6592 86.7401C52.6592 86.8819 52.6592 87.0236 52.6592 87.1653C52.6592 87.874 52.6592 88.4409 52.6592 89.1496L53.0827 89.0079Z" fill="#2BB9A7"/>
<path d="M53.0823 89.0079C53.0823 88.2992 53.0823 87.7323 53.0823 87.0236C53.0823 86.8819 53.0823 86.7402 53.0823 86.5984C53.0823 85.8898 53.0823 85.0394 52.9411 84.3307C52.9411 84.189 52.9411 83.9055 52.9411 83.7638C52.9411 83.7638 52.9411 83.6221 52.9411 83.4803C52.9411 83.1969 52.9411 83.0551 52.9411 82.7717C52.9411 82.6299 52.9411 82.4882 52.9411 82.3465C52.9411 82.063 52.9411 81.7796 52.7999 81.4961C52.7999 81.3544 52.7999 81.2126 52.7999 81.0709C52.7999 80.6457 52.5176 80.2205 52.5176 79.7953C55.3411 80.7874 57.7411 81.3544 60.847 80.6457C66.494 79.5118 68.4705 75.8268 77.3646 76.8189C70.7293 82.7717 62.5411 87.1654 53.5058 88.8662L53.0823 89.0079Z" fill="#29B2A1"/>
<path d="M19.9059 14.7402H15.6706C15.5294 14.7402 15.3882 14.7402 15.2471 14.4567C15.2471 14.315 15.2471 14.1732 15.2471 14.0315L18.2118 10.7717H15.8118C15.5294 10.7717 15.3882 10.6299 15.3882 10.3465C15.3882 10.063 15.5294 9.92126 15.8118 9.92126H19.0588C19.2 9.92126 19.3412 9.92126 19.4824 10.2047C19.4824 10.3465 19.4824 10.4882 19.4824 10.6299L16.5177 13.8898H19.7647C20.0471 13.8898 20.1882 14.0315 20.1882 14.315C20.1882 14.5984 20.0471 14.7402 19.7647 14.7402H19.9059Z" fill="#EF5273"/>
<path d="M21.3179 12.0473C21.3179 12.0473 21.0355 12.0473 21.0355 11.9055C21.0355 11.9055 21.0355 11.6221 21.0355 11.4803L23.012 7.51182L20.7532 8.22048C20.4708 8.22048 20.3297 8.22048 20.1885 7.93702C20.1885 7.65355 20.1885 7.51182 20.4708 7.37009L23.7179 6.37796C23.8591 6.37796 24.0002 6.37796 24.1414 6.37796C24.1414 6.37796 24.1414 6.66143 24.1414 6.80316L22.1649 10.7717L25.2708 9.92127C25.5532 9.92127 25.6944 9.92127 25.8355 10.2047C25.8355 10.4882 25.8355 10.6299 25.5532 10.7717L21.6002 11.9055L21.3179 12.0473Z" fill="#EF5273"/>
<path d="M15.1061 7.93701C14.9649 7.93701 14.8237 7.93701 14.6826 7.79528C14.6826 7.65355 14.5414 7.37008 14.6826 7.22835L17.3649 1.98426L14.4002 2.83465C14.1179 2.83465 13.8355 2.83465 13.6943 2.40945C13.6943 2.12599 13.6943 1.84252 14.1179 1.70079L18.3532 0.425201C18.4943 0.425201 18.7767 0.425201 18.9179 0.566934C19.059 0.708666 19.059 0.992131 18.9179 1.13386L16.2355 6.37796L20.3296 5.2441C20.612 5.2441 20.8943 5.2441 21.0355 5.6693C21.0355 5.95276 21.0355 6.23622 20.612 6.37796L15.2473 7.93701C15.2473 7.93701 15.2473 7.93701 15.1061 7.93701Z" fill="#EF5273"/>
<path d="M53.6469 36.7087C53.6469 36.7087 51.8116 34.8661 50.2587 37.1339C49.694 39.4016 50.8234 40.252 50.8234 40.252C50.8234 40.6772 53.9293 39.1181 52.3764 37.8425L51.1058 37.559C51.1058 37.559 51.3881 35.7165 53.7881 36.7087H53.6469Z" fill="#E2A983"/>
</g>
<defs>
<clipPath id="clip0_16098_15822">
<rect width="84" height="90" fill="white"/>
</clipPath>
</defs>
</svg>
