<svg width="23" height="24" viewBox="0 0 23 24" fill="none" xmlns="http://www.w3.org/2000/svg">
<path fill-rule="evenodd" clip-rule="evenodd" d="M7.89187 9.36569C8.19127 9.67811 8.6767 9.67811 8.9761 9.36569L10.734 7.53137V14.4012C10.734 14.8424 11.0772 15.2 11.5007 15.2C11.9241 15.2 12.2673 14.8424 12.2673 14.4012V7.53137L14.0252 9.36569C14.3246 9.67811 14.81 9.67811 15.1094 9.36569C15.4088 9.05327 15.4088 8.54674 15.1094 8.23432L12.0428 5.03432C11.7434 4.7219 11.2579 4.7219 10.9585 5.03432L7.89187 8.23432C7.59247 8.54674 7.59247 9.05327 7.89187 9.36569ZM17.634 12.8C17.634 12.3582 17.9772 12 18.4007 12C18.8241 12 19.1673 12.3582 19.1673 12.8V18.4C19.1673 18.8418 18.8241 19.2 18.4007 19.2H4.60065C4.17723 19.2 3.83398 18.8418 3.83398 18.4V12.8C3.83398 12.3582 4.17723 12 4.60065 12C5.02407 12 5.36732 12.3582 5.36732 12.8V17.6H17.634V12.8Z" fill="black"/>
<mask id="mask0_16066_15712" style="mask-type:luminance" maskUnits="userSpaceOnUse" x="3" y="4" width="17" height="16">
<path fill-rule="evenodd" clip-rule="evenodd" d="M7.89187 9.36569C8.19127 9.67811 8.6767 9.67811 8.9761 9.36569L10.734 7.53137V14.4012C10.734 14.8424 11.0772 15.2 11.5007 15.2C11.9241 15.2 12.2673 14.8424 12.2673 14.4012V7.53137L14.0252 9.36569C14.3246 9.67811 14.81 9.67811 15.1094 9.36569C15.4088 9.05327 15.4088 8.54674 15.1094 8.23432L12.0428 5.03432C11.7434 4.7219 11.2579 4.7219 10.9585 5.03432L7.89187 8.23432C7.59247 8.54674 7.59247 9.05327 7.89187 9.36569ZM17.634 12.8C17.634 12.3582 17.9772 12 18.4007 12C18.8241 12 19.1673 12.3582 19.1673 12.8V18.4C19.1673 18.8418 18.8241 19.2 18.4007 19.2H4.60065C4.17723 19.2 3.83398 18.8418 3.83398 18.4V12.8C3.83398 12.3582 4.17723 12 4.60065 12C5.02407 12 5.36732 12.3582 5.36732 12.8V17.6H17.634V12.8Z" fill="white"/>
</mask>
<g mask="url(#mask0_16066_15712)">
<rect width="23" height="24" fill="#0880AE"/>
</g>
</svg>
