<?xml version="1.0" encoding="UTF-8"?><svg id="uuid-dc7e7f8d-f896-4331-a164-2db0022d20a7" xmlns="http://www.w3.org/2000/svg" viewBox="0 0 155.6 99.1"><defs><style>.uuid-9df0cc90-4af3-4369-b3fc-5826bc1bb99c{fill:#d1ebff;}.uuid-6ee19477-1d01-466b-bef1-cd7b0c75a498{fill:#fff;}.uuid-e2943be4-2de2-4fe7-89d0-d5ea033883fb{fill:#72b5e8;}.uuid-0bf17223-a567-41de-bb89-e865bba73222{opacity:.5;}.uuid-eab90c11-335a-47c1-8227-9e3e46260c08{fill:#a8cff0;}.uuid-e22c92ed-cb18-4dc1-b488-1a2c911a3229{fill:#084c94;}.uuid-215323d0-a9a0-4042-8a60-083de9e2a5a3{fill:#eb4680;}.uuid-e69c8321-768e-4c63-acf9-8ef7f0b86c42{fill:#03336e;}</style></defs><g id="uuid-3c814752-a629-4f39-bea7-42d00052c900"><path class="uuid-e69c8321-768e-4c63-acf9-8ef7f0b86c42" d="m152.7,53c-.5,2.6-2.6,5-6.3,6.8l-64.8,30.6c-7,3.3-17.3,3-23.7-.7L7.9,60.9c-3-1.7-4.7-4-5.1-6.3v4.4c-.5,3,1.2,6,5.1,8.3l49.9,28.8c6.5,3.7,16.7,4,23.7.7l64.8-30.6c4.8-2.3,6.9-5.6,6.3-8.9v-4.3Z"/><path class="uuid-9df0cc90-4af3-4369-b3fc-5826bc1bb99c" d="m57.1,86.7L5.4,56.8c-6.7-3.9-7.2-10-1.3-14.2L59.1,3.8c6.8-4.8,19.4-5.2,27.1-.7l63.9,36.9c7.7,4.4,7.1,11.7-1.3,15.7l-67.2,31.8c-7.3,3.4-17.9,3.1-24.6-.7Z"/><path class="uuid-6ee19477-1d01-466b-bef1-cd7b0c75a498" d="m148.9,54.8l-67.2,31.8c-7.3,3.4-17.9,3.1-24.6-.7L5.4,56C2,54,.2,51.4,0,48.8c-.2,2.9,1.6,5.8,5.4,8l51.7,29.9c6.7,3.9,17.3,4.2,24.6.7l67.2-31.8c4.6-2.2,6.8-5.3,6.6-8.4-.2,2.9-2.5,5.6-6.6,7.6Z"/><path class="uuid-e2943be4-2de2-4fe7-89d0-d5ea033883fb" d="m155.4,48.6c-.5,2.7-2.7,5.2-6.5,7.1l-67.2,31.8c-7.3,3.4-17.9,3.1-24.6-.7L5.4,56.8c-3.1-1.8-4.9-4.1-5.3-6.5v4.6c-.5,3.1,1.3,6.2,5.3,8.6l51.7,29.9c6.7,3.9,17.3,4.2,24.6.7l67.2-31.8c4.9-2.3,7.1-5.8,6.5-9.2v-4.5Z"/><polygon class="uuid-e22c92ed-cb18-4dc1-b488-1a2c911a3229" points="115.7 43.4 80.5 23 97 13.7 132.3 34.1 115.7 43.4"/><polygon class="uuid-e69c8321-768e-4c63-acf9-8ef7f0b86c42" points="97 15.6 130.7 35 132.3 34.1 97 13.7 80.5 23 82.1 24 97 15.6"/><g class="uuid-0bf17223-a567-41de-bb89-e865bba73222"><path class="uuid-eab90c11-335a-47c1-8227-9e3e46260c08" d="m56.2,71.6c-4.2,6.2,13.9,12.4,27.6,2.8s24.4-11.4,29.4-14.2c10.9-6.3,0-16.2-14.4-16-14.3.2-16.8,11.1-22.3,18.7-5.4,7.6-15.5,1.5-20.4,8.8Z"/><path class="uuid-eab90c11-335a-47c1-8227-9e3e46260c08" d="m31.6,57.3c-10.8,2.4-21.5-8-4.8-16,16.6-7.9,19.7-14.1,24.7-17,10.9-6.3,28.1,0,27.7,8.3s-19.2,9.7-32.3,12.9c-13.1,3.1-2.6,8.9-15.2,11.8Z"/></g><path class="uuid-eab90c11-335a-47c1-8227-9e3e46260c08" d="m56.2,73c5-7.3,15-1.2,20.4-8.8,5.4-7.6,8-18.4,22.3-18.7,9.8-.2,18,4.4,18.7,9.4.8-5.4-8-11-18.7-10.8-14.3.2-16.8,11.1-22.3,18.7-5.4,7.6-15.5,1.5-20.4,8.8-.6.9-.7,1.7-.5,2.6,0-.4.3-.8.5-1.1Z"/><path class="uuid-eab90c11-335a-47c1-8227-9e3e46260c08" d="m26.7,42.8c16.6-7.9,19.7-14.1,24.7-17,10.5-6,26.6-.5,27.6,7.3,0-.1,0-.3,0-.4.4-8.2-16.7-14.6-27.7-8.3-5,2.9-8,9.1-24.7,17-6.7,3.2-9,6.8-8.6,9.9.4-2.7,2.9-5.7,8.6-8.4Z"/><path class="uuid-eab90c11-335a-47c1-8227-9e3e46260c08" d="m68.9,89.8c-4.3-.2-8.5-1.2-11.8-3.1L5.4,56.8c-3.1-1.8-4.9-4.1-5.3-6.5v4.6c-.5,3.1,1.3,6.2,5.3,8.6l51.7,29.9c3.3,1.9,7.5,2.9,11.8,3.1v-6.7Z"/><path class="uuid-215323d0-a9a0-4042-8a60-083de9e2a5a3" d="m99.8,27.8l-3.3,1.9,8.6,5,3.3-1.9,6.1,3.5-1.6-11.1-19.3-1,6.1,3.5Z"/></g></svg>